<svg width="46" height="46" viewBox="0 0 46 46" fill="none" xmlns="http://www.w3.org/2000/svg">
    <g clip-path="url(#clip0_32_21250)">
    <path d="M38.7623 46H7.23766C3.24089 46 0 42.7713 0 38.7877V7.21234C0 3.22955 3.24001 0 7.23766 0H38.7623C42.7591 0 46 3.22868 46 7.21234V38.7877C45.9991 42.7713 42.7591 46 38.7623 46Z" fill="#00CCFF"/>
    <path d="M27.6192 19.169C28.984 20.6685 28.9792 23.0848 27.591 24.5583C26.2019 26.0317 23.9637 26.0265 22.5988 24.5269C21.2339 23.0274 21.2388 20.6111 22.627 19.1377C23.3038 18.4297 24.1925 18.0296 25.1166 18.0313C26.0577 18.0339 26.9633 18.4384 27.6192 19.169ZM22.9235 21.8619C22.9211 23.1849 23.9137 24.2417 25.1215 24.2451C26.3469 24.2477 27.3259 23.1762 27.3291 21.8723C27.3315 20.5485 26.3389 19.4917 25.1311 19.4891C23.9056 19.4865 22.9267 20.5389 22.9235 21.8619Z" fill="white"/>
    <path d="M11.4196 18C11.0466 18 10.7613 18.3244 10.7428 18.7271V18.842C9.21761 17.5155 6.97855 17.7982 5.76757 19.4439C4.5566 21.0904 4.80073 23.5075 6.34285 24.8148C7.61989 25.9108 9.44965 25.9151 10.7307 24.8253L10.7291 25.5159L12.0618 25.5194L12.0771 18.0017L11.4196 18ZM8.52954 24.206C7.30406 24.2034 6.32835 23.1457 6.33157 21.8228C6.33399 20.4998 7.31372 19.4473 8.52148 19.4308C9.72923 19.4143 10.7227 20.4902 10.7194 21.8141V21.8332C10.7348 23.1379 9.73729 24.2095 8.52954 24.206Z" fill="white"/>
    <path d="M33.4299 18.0513C32.6129 18.0496 31.8483 18.354 31.2077 18.8898V18.775L31.2094 18.0461L30.5342 18.0444C30.1611 18.0444 29.8582 18.3688 29.8574 18.7715L29.8437 25.5794L31.1763 25.5829L31.1836 21.8819C31.186 20.5781 32.1657 19.5056 33.3912 19.5091C33.7643 19.5091 34.0672 19.2038 34.068 18.8011V18.7811L34.0696 18.0522H33.4299V18.0513Z" fill="white"/>
    <path d="M40.7666 18.0687C40.3936 18.0687 40.1092 18.3932 40.0907 18.7959V18.9107C38.5655 17.6034 36.3264 17.8669 35.1154 19.5326C33.9044 21.1782 34.1478 23.5954 35.6907 24.9036C36.9677 25.9995 38.7975 26.0039 40.0786 24.914L40.077 25.6046L41.4088 25.6072L41.4241 18.0705L40.7666 18.0687ZM37.8766 24.2747C36.6511 24.2721 35.6762 23.2144 35.6786 21.8915C35.681 20.5685 36.6608 19.5161 37.8862 19.5187C39.1117 19.5213 40.0866 20.579 40.0842 21.9019V21.9211C40.0818 23.2066 39.1029 24.2782 37.8766 24.2747Z" fill="white"/>
    <path d="M19.6983 18.0191H19.6096C19.272 18.0757 19.0223 18.3818 19.0223 18.7654V18.8611C17.4971 17.5347 15.2757 17.8173 14.0648 19.463C12.8538 21.1095 13.0979 23.5267 14.6408 24.834C15.9179 25.9299 17.7468 25.9343 19.0287 24.8444V24.9784C18.99 26.2822 17.9934 27.2964 16.7856 27.2555C16.6261 27.2546 16.4835 27.2355 16.324 27.1963C16.0218 27.1189 15.7019 27.2912 15.5771 27.5973L15.291 28.3253C17.0298 29.2499 19.1455 28.488 20.002 26.6101C20.234 26.1117 20.3597 25.575 20.3605 25.0192L20.3742 18.0191H19.6983ZM16.8259 24.226C15.6004 24.2234 14.6255 23.1657 14.6279 21.8428C14.6304 20.5198 15.6093 19.4673 16.8356 19.47C18.0611 19.4726 19.036 20.5302 19.0335 21.8532V21.8723C19.0134 23.157 18.0337 24.2286 16.8259 24.226Z" fill="white"/>
    </g>
    <defs>
    <clipPath id="clip0_32_21250">
    <rect width="46" height="46" fill="white"/>
    </clipPath>
    </defs>
    </svg>
    