<svg width="46" height="46" viewBox="0 0 46 46" fill="none" xmlns="http://www.w3.org/2000/svg">
    <path d="M9.56988 18.0629V28.4303H3.20406C1.43439 28.4303 0 26.8764 0 24.9592V18.0629H9.56988Z" fill="#F8DB09"/>
    <path d="M7.97701 23.2392V19.788H4.78467V21.348H6.53752V23.2392H7.97701Z" fill="#0F265C"/>
    <path d="M14.6395 22.4189C15.0578 22.4189 15.39 22.3008 15.6423 22.0711C15.9001 21.8354 16.0259 21.5252 16.0259 21.1465C16.0259 20.743 15.8542 20.414 15.5159 20.1534C15.791 19.9238 15.9286 19.6257 15.9286 19.2719C15.9286 18.4957 15.3844 18.0679 14.5421 18.0679H12.7373V22.4189H14.6395ZM13.5908 20.5879H14.4672C14.9314 20.5879 15.1663 20.7491 15.1663 21.0659C15.1663 21.4319 14.9197 21.5688 14.4443 21.5688H13.5908V20.5879ZM14.3704 18.9186C14.8688 18.9186 15.0695 19.0367 15.0695 19.3657C15.0695 19.6638 14.8463 19.8128 14.4051 19.8128H13.5913V18.9191H14.3704V18.9186Z" fill="#0F265C"/>
    <path d="M17.8412 20.743L18.3396 19.3216L18.8379 20.743H17.8412ZM18.8542 18.3666C18.7895 18.1866 18.629 18.0679 18.4512 18.0679H17.9335L16.3635 22.4189H17.2461L17.561 21.5622H19.1136L19.4346 22.4189H20.3171L18.8547 18.3666H18.8542Z" fill="#0F265C"/>
    <path d="M24.4389 22.4189V18.0679H23.591V21.0162L22.0954 18.297C22.0175 18.1551 21.8758 18.0679 21.7235 18.0679H20.9438V22.4189H21.7973V19.4833L23.2929 22.1909C23.3713 22.3328 23.512 22.4195 23.6643 22.4195H24.4389V22.4189Z" fill="#0F265C"/>
    <path d="M28.4108 21.0162C28.1356 21.4197 27.7749 21.6245 27.3224 21.6245C26.9728 21.6245 26.6804 21.5003 26.446 21.2519C26.2111 21.0035 26.0908 20.6624 26.0908 20.234C26.0908 19.8056 26.2111 19.4766 26.446 19.2349C26.6865 18.9864 26.9616 18.8622 27.2765 18.8622C27.5914 18.8622 27.8681 18.9715 28.0908 19.1625C28.2584 19.3061 28.5025 19.2746 28.6523 19.1095L28.9152 18.8192C28.5086 18.2732 27.9756 18 27.3168 18C26.715 18 26.2167 18.2048 25.8156 18.621C25.4146 19.0306 25.2139 19.5771 25.2139 20.2533C25.2139 20.9295 25.4146 21.4633 25.8156 21.8735C26.2223 22.2831 26.7323 22.4879 27.3453 22.4879C28.0215 22.4879 28.5657 22.2146 28.9784 21.6687L28.4113 21.0168L28.4108 21.0162Z" fill="#0F265C"/>
    <path d="M32.3511 21.221C32.1391 21.4876 31.8466 21.6184 31.4859 21.6184C31.1251 21.6184 30.8214 21.4882 30.6033 21.221C30.3857 20.9538 30.2767 20.6315 30.2767 20.2401C30.2767 19.8487 30.3857 19.5324 30.6033 19.2658C30.827 18.9986 31.119 18.8683 31.4859 18.8683C31.8527 18.8683 32.1162 19.0052 32.3394 19.2718C32.5631 19.539 32.6772 19.8614 32.6772 20.2401C32.6772 20.6188 32.5687 20.9538 32.3506 21.221M32.9411 18.6392C32.5401 18.2109 32.0474 18 31.4629 18C30.8785 18 30.3913 18.2109 29.9959 18.6392C29.6005 19.0615 29.4003 19.5953 29.4003 20.2406C29.4003 20.8859 29.601 21.4258 29.9959 21.8542C30.3913 22.2765 30.8841 22.4873 31.4629 22.4873C32.0418 22.4873 32.5401 22.2765 32.9411 21.8542C33.3422 21.4258 33.5429 20.892 33.5429 20.2406C33.5429 19.5892 33.3422 19.0615 32.9411 18.6392Z" fill="#0F265C"/>
    <path d="M43.5235 26.7224L44.0224 25.3004L44.5212 26.7224H43.524H43.5235ZM44.537 24.3443C44.4723 24.1643 44.3118 24.0457 44.1334 24.0457H43.6152L42.0448 28.3988H42.9273L43.2428 27.5421H44.7964L45.1174 28.3988H45.9999L44.537 24.3443Z" fill="#0F265C"/>
    <path d="M21.4765 26.9956C21.2014 27.3991 20.8401 27.6045 20.3876 27.6045C20.0381 27.6045 19.7456 27.4802 19.5107 27.2318C19.2758 26.9834 19.1555 26.6417 19.1555 26.2134C19.1555 25.785 19.2758 25.456 19.5107 25.2137C19.7517 24.9653 20.0263 24.8411 20.3418 24.8411C20.6572 24.8411 20.9267 24.9476 21.1484 25.1342C21.3201 25.2788 21.5657 25.2562 21.7181 25.0884L21.981 24.7975C21.5739 24.251 21.0409 23.9777 20.3815 23.9777C19.7797 23.9777 19.2809 24.1825 18.8799 24.5987C18.4788 25.0083 18.2781 25.5548 18.2781 26.2321C18.2781 26.9095 18.4788 27.4433 18.8799 27.8529C19.287 28.263 19.797 28.4678 20.4105 28.4678C21.0872 28.4678 21.6314 28.1946 22.0442 27.6481L21.4765 26.9961V26.9956Z" fill="#0F265C"/>
    <path d="M17.5026 24.0457H16.6542V28.3988H17.5026V24.0457Z" fill="#0F265C"/>
    <path d="M28.1081 24.0457H27.2607V28.3988H28.1091V24.0468C28.1091 24.0468 28.1086 24.0462 28.1081 24.0457Z" fill="#0F265C"/>
    <path d="M26.2149 28.3988V24.0457H25.8001C25.5606 24.0457 25.3665 24.256 25.3665 24.5154V25.7536H23.6814V24.0457H22.8274V28.3988H23.6814V26.5982H25.3665V28.3988H26.2149Z" fill="#0F265C"/>
    <path d="M14.216 26.1698H13.5913V24.8969H14.216C14.8066 24.8969 15.0874 25.0834 15.0874 25.5239C15.0874 25.9645 14.7949 26.1698 14.216 26.1698ZM15.5057 24.4431C15.2193 24.1759 14.8408 24.0457 14.3648 24.0457H12.7368V28.3988H13.5908V27.0205H14.3648C14.829 27.0205 15.2076 26.8841 15.4996 26.6042C15.7921 26.3249 15.9353 25.9584 15.9353 25.5052C15.9353 25.052 15.7921 24.7042 15.5052 24.4431" fill="#0F265C"/>
    <path d="M32.6523 28.3988V24.0457H31.8039V26.9956L30.3079 24.2753C30.2299 24.1334 30.0882 24.0462 29.9354 24.0462H29.1558V28.3994H30.0098V25.4621L31.5058 28.1709C31.5843 28.3127 31.7254 28.3994 31.8778 28.3994H32.6523V28.3988Z" fill="#0F265C"/>
    <path d="M36.6261 26.9956C36.3509 27.3992 35.9896 27.604 35.5372 27.604C35.1876 27.604 34.8951 27.4798 34.6602 27.2314C34.4253 26.9829 34.3051 26.6413 34.3051 26.2129C34.3051 25.7845 34.4253 25.4555 34.6602 25.2132C34.9007 24.9648 35.1759 24.8406 35.4913 24.8406C35.8067 24.8406 36.0829 24.9499 36.3061 25.1409C36.4737 25.2844 36.7183 25.2529 36.8676 25.0879L37.1305 24.797C36.7234 24.2505 36.1904 23.9772 35.531 23.9772C34.9293 23.9772 34.4304 24.182 34.0294 24.5982C33.6284 25.0084 33.4276 25.5543 33.4276 26.2317C33.4276 26.909 33.6284 27.4422 34.0294 27.8524C34.4365 28.262 34.9466 28.4673 35.5601 28.4673C36.2368 28.4673 36.781 28.1941 37.1937 27.6476L36.6261 26.9956Z" fill="#0F265C"/>
    <path d="M41.3632 28.3988V24.0457H40.9484C40.7089 24.0457 40.5148 24.256 40.5148 24.5154V25.7536H38.8297V24.0457H37.9757V28.3988H38.8297V26.5982H40.5148V28.3988H41.3632Z" fill="#0F265C"/>
    </svg>
    