<svg width="46" height="46" viewBox="0 0 46 46" fill="none" xmlns="http://www.w3.org/2000/svg">
    <g clip-path="url(#clip0_34_30166)">
    <path d="M45.4313 32.2903H0.59247C0.563082 32.2789 0.53394 32.2673 0.504552 32.2559C0.330938 32.188 0.201777 32.0676 0.116329 31.8952C0.0703938 31.8022 0.0461915 31.703 0.0380418 31.5989C0.0400175 31.5578 0.0437219 31.5166 0.0437219 31.4752C0.0439689 25.6008 0.0439689 19.7266 0.0437219 13.8522C0.0437219 13.8069 0.0390297 13.7616 0.0365601 13.7162C0.0387827 13.6999 0.0407584 13.6834 0.0429811 13.667C0.087681 13.3454 0.256603 13.1334 0.55098 13.0316C0.580616 13.0212 0.610251 13.0106 0.639887 13C15.5625 13 30.4849 13 45.4076 13C45.4557 13.0168 45.5053 13.0308 45.552 13.0513C45.7763 13.1492 45.9333 13.3094 45.98 13.5692C45.9726 13.5989 45.9748 13.6259 46 13.6463V31.644C45.984 31.6756 45.9689 31.7074 45.9795 31.7452C45.9296 31.9866 45.7849 32.1438 45.5755 32.2416C45.5295 32.2631 45.4794 32.2745 45.4313 32.2906V32.2903ZM16.4229 28.6607C16.4254 28.6635 16.4274 28.6672 16.4303 28.6692C16.4326 28.6708 16.4358 28.6703 16.4387 28.6705C16.4331 28.6677 16.4271 28.6651 16.4215 28.6623C16.3834 28.6115 16.3212 28.6006 16.275 28.5636C16.2617 28.553 16.2528 28.5364 16.2385 28.5183C16.335 28.4719 16.4229 28.473 16.5089 28.5159C16.6153 28.569 16.7203 28.6257 16.825 28.6825C16.8608 28.7019 16.8961 28.7159 16.9374 28.7068C17.0544 28.6806 17.1717 28.6894 17.2895 28.7037C17.3293 28.7083 17.3705 28.7166 17.4335 28.6985C17.3841 28.6791 17.3562 28.6669 17.3278 28.6568C17.2009 28.6128 17.0737 28.5703 16.947 28.5253C16.9228 28.5167 16.8917 28.5126 16.8845 28.4753C16.907 28.431 16.947 28.4333 16.9858 28.4377C17.0836 28.4486 17.1809 28.4613 17.2787 28.4732C17.4026 28.5165 17.5328 28.5121 17.6815 28.5367C17.5842 28.4877 17.3908 28.4429 17.2769 28.437C17.1263 28.3979 16.9697 28.3792 16.827 28.3046V28.2433C16.5588 28.1003 16.2869 27.9838 15.9989 27.9123C15.9972 27.9017 15.9954 27.8909 15.994 27.8802C16.1933 27.9082 16.3938 27.9302 16.5919 27.966C16.7314 27.9911 16.868 28.0351 17.006 28.0703C17.0781 28.0887 17.1495 28.1123 17.2488 28.1102C17.2132 28.0884 17.1979 28.0765 17.1809 28.0693C17.1186 28.0434 17.0557 28.0185 16.9927 27.9942C16.8556 27.9414 16.7178 27.8903 16.5815 27.836C16.5462 27.8217 16.5034 27.8163 16.4802 27.7666C16.4948 27.7565 16.5096 27.7383 16.5244 27.7383C16.5469 27.7383 16.5694 27.7521 16.5921 27.7585C16.6699 27.78 16.7465 27.7769 16.8203 27.7484C16.7879 27.7238 16.7576 27.7008 16.7257 27.6762C16.7536 27.6094 16.8267 27.6052 16.8625 27.5485C16.8433 27.5374 16.8275 27.5247 16.8097 27.5185C16.5926 27.4424 16.377 27.359 16.1513 27.317C15.9065 27.2715 15.6603 27.2344 15.4141 27.2C15.1911 27.1689 14.9673 27.1428 14.7436 27.1215C14.5354 27.1019 14.3265 27.0874 14.1176 27.0778C13.6955 27.0584 13.2737 27.0366 12.8514 27.0286C12.0263 27.0128 11.2012 27.0079 10.3763 27.042C10.0884 27.0539 9.80042 27.0638 9.51246 27.0765C9.35861 27.0835 9.205 27.093 9.05139 27.1044C8.78368 27.1244 8.51598 27.1448 8.24852 27.1687C7.96155 27.1943 7.67433 27.2202 7.3881 27.2533C7.10188 27.2865 6.81639 27.3271 6.5309 27.3678C6.20244 27.4144 5.87522 27.4711 5.5517 27.548C5.4134 27.5809 5.27733 27.6247 5.14076 27.6658C5.10791 27.6757 5.07136 27.6847 5.05185 27.7236C5.05259 27.7347 5.05136 27.7474 5.05432 27.7588C5.09087 27.8942 5.18002 27.9771 5.30375 28.0185C5.4586 28.0703 5.61714 28.1022 5.78113 28.0941C6.16367 28.0752 6.54572 28.0506 6.92851 28.0377C7.46096 28.0193 7.9939 28.0045 8.5266 27.9975C8.91334 27.9924 9.30033 27.9991 9.68707 28.0063C10.1054 28.0144 10.5238 28.0281 10.9419 28.0423C11.1392 28.0491 11.3363 28.0594 11.5333 28.0726C11.8287 28.0926 12.1238 28.1151 12.419 28.1389C12.6313 28.156 12.844 28.1744 13.0559 28.1972C13.307 28.2241 13.5582 28.2542 13.8086 28.2873C14.0669 28.3215 14.325 28.3593 14.5826 28.3986C14.8871 28.445 15.1908 28.4968 15.4956 28.5426C15.726 28.5771 15.9572 28.6063 16.1883 28.6366C16.2664 28.6467 16.3449 28.6532 16.4232 28.6612L16.4229 28.6607ZM7.80646 26.528C7.80646 26.5208 7.8067 26.5133 7.80695 26.506C7.79312 26.5001 7.77904 26.4944 7.76521 26.4884C7.44318 26.3522 7.28413 26.0933 7.27796 25.7377C7.26956 25.2574 7.27574 24.7768 7.27623 24.2962C7.27623 24.269 7.28364 24.2421 7.28808 24.212C9.50703 24.212 11.7186 24.212 13.9299 24.2126C13.9407 24.2126 13.9516 24.2188 13.9684 24.2239C13.9706 24.2514 13.9748 24.2796 13.9748 24.3076C13.9753 24.7716 13.9765 25.2354 13.9738 25.6994C13.9733 25.7815 13.9647 25.8657 13.9449 25.9451C13.8815 26.202 13.733 26.3843 13.4955 26.484C13.475 26.4926 13.4411 26.4882 13.435 26.5314C13.4735 26.533 13.5085 26.5355 13.5436 26.5355C14.2504 26.5355 14.9575 26.5355 15.6643 26.5355C15.6998 26.5355 15.7354 26.5342 15.7707 26.5306C15.8897 26.5185 15.9895 26.4638 16.0718 26.3742C16.1733 26.2636 16.2108 26.1306 16.2108 25.978C16.2093 24.1263 16.2101 22.2746 16.2091 20.4232C16.2091 20.3367 16.2039 20.2489 16.1893 20.1637C16.0826 19.5381 15.7431 19.1082 15.1844 18.8682C14.9804 18.7804 14.7651 18.7594 14.5458 18.7597C11.9315 18.7607 9.31712 18.7605 6.70279 18.7605C6.65142 18.7605 6.60005 18.761 6.54893 18.7636C6.12687 18.7851 5.76804 18.957 5.47736 19.276C5.18669 19.5953 5.04024 19.9788 5.04024 20.4226C5.04074 22.2744 5.04024 24.1261 5.04024 25.9775C5.04024 25.9982 5.04 26.0189 5.04049 26.0397C5.04568 26.209 5.11828 26.3408 5.24646 26.44C5.33882 26.5117 5.44526 26.5361 5.55886 26.5361C6.28147 26.5355 7.00433 26.5361 7.72693 26.5355C7.75311 26.5355 7.77954 26.5309 7.80572 26.5286L7.80646 26.528ZM39.2856 22.9849C38.7843 22.9854 38.4124 23.105 38.08 23.351C37.7597 23.588 37.5366 23.9016 37.4297 24.2998C37.3465 24.6098 37.3514 24.9234 37.4228 25.2336C37.5678 25.8623 37.9259 26.3025 38.5077 26.527C38.949 26.6971 39.399 26.6987 39.8428 26.5405C40.3555 26.3576 40.7076 25.992 40.8975 25.4591C40.9657 25.268 40.9976 25.0686 41.0074 24.8643C41.0311 24.3806 40.8933 23.9567 40.5772 23.6038C40.2028 23.1861 39.7334 22.9934 39.2854 22.9849H39.2856ZM22.5508 26.5241C22.5523 26.4791 22.5545 26.4384 22.5545 26.3978C22.5547 26.0498 22.5545 25.7017 22.555 25.3537C22.555 25.3232 22.5491 25.29 22.572 25.2494C22.5999 25.2918 22.6227 25.3239 22.6429 25.3573C22.8602 25.7129 23.0771 26.0689 23.2949 26.4242C23.3179 26.4617 23.3337 26.506 23.3774 26.534C23.7093 26.534 24.0447 26.534 24.38 26.5332C24.3892 26.5332 24.3983 26.5226 24.4141 26.513C24.3447 26.4177 24.278 26.3261 24.2111 26.2344C24.1437 26.1425 24.076 26.0508 24.0086 25.9589C23.9436 25.8703 23.8787 25.7815 23.8137 25.6929C23.7463 25.601 23.6772 25.5104 23.6112 25.4172C23.546 25.325 23.4707 25.2406 23.4127 25.1347C23.4403 25.124 23.4616 25.1145 23.4838 25.1077C23.7952 25.0124 23.9864 24.7928 24.0758 24.4715C24.1289 24.2812 24.1296 24.0864 24.0923 23.8933C24.0266 23.5538 23.8355 23.3231 23.5295 23.1957C23.5001 23.1835 23.47 23.1737 23.4398 23.1641C23.2954 23.1175 23.1467 23.0965 22.9961 23.096C22.5854 23.0939 22.1747 23.0947 21.7637 23.0952C21.7417 23.0952 21.72 23.1027 21.6914 23.1079V23.2498C21.6914 24.1074 21.6914 24.965 21.6914 25.8224C21.6914 26.0296 21.6911 26.2367 21.6919 26.4439C21.6919 26.4711 21.6975 26.4985 21.7003 26.5234C21.7961 26.5379 22.2767 26.5446 22.4886 26.535C22.5073 26.5342 22.5261 26.5286 22.5505 26.5241H22.5508ZM24.873 23.11C24.8712 23.1444 24.8675 23.1807 24.8675 23.2169C24.8673 23.8549 24.8661 24.4927 24.868 25.1308C24.8685 25.2962 24.8779 25.462 24.9075 25.6254C24.9587 25.9086 25.0826 26.1466 25.3019 26.3255C25.4089 26.4128 25.5286 26.4757 25.6566 26.5216C25.9537 26.6282 26.2592 26.6466 26.5686 26.6117C26.742 26.592 26.9106 26.5487 27.0702 26.4726C27.3922 26.3188 27.5997 26.0648 27.6854 25.702C27.7296 25.515 27.7385 25.325 27.7392 25.1349C27.7422 24.4844 27.7404 23.8342 27.7399 23.1838C27.7399 23.1561 27.733 23.1284 27.7286 23.0944C27.6839 23.0944 27.6446 23.0944 27.6053 23.0944C27.3725 23.0957 27.1396 23.0973 26.9067 23.0988C26.9032 23.0988 26.8993 23.1012 26.8963 23.1035C26.8931 23.1058 26.8909 23.1094 26.8817 23.1198C26.881 23.1571 26.879 23.2022 26.879 23.2469C26.879 23.8228 26.879 24.3985 26.8785 24.9744C26.8785 25.0489 26.8776 25.1235 26.8726 25.1978C26.8647 25.3138 26.8454 25.428 26.8007 25.5355C26.7299 25.7048 26.6064 25.8051 26.4318 25.8273C26.3542 25.8372 26.274 25.8374 26.1959 25.8297C26.0008 25.81 25.8677 25.6994 25.7976 25.5075C25.762 25.4102 25.742 25.3089 25.7371 25.2048C25.7319 25.0891 25.7267 24.9731 25.7262 24.8573C25.725 24.4637 25.7257 24.0701 25.7257 23.6768C25.7257 23.5111 25.7262 23.3453 25.725 23.1796C25.725 23.1527 25.7166 23.126 25.7126 23.1012C25.5151 23.0856 24.9653 23.0908 24.8727 23.11H24.873ZM31.4244 22.1962C31.4085 22.1501 31.3984 22.1192 31.3876 22.0887C31.3209 21.903 31.2542 21.7171 31.1873 21.5314C30.8699 20.6492 30.5526 19.7673 30.2342 18.8853C30.2194 18.8441 30.2135 18.7967 30.1792 18.768C29.9915 18.7553 29.3427 18.7594 29.2543 18.7734C29.1691 18.9661 28.0237 22.0936 28.0039 22.1871C28.0956 22.2037 28.7989 22.2042 28.9021 22.1871C28.9804 21.9962 29.0456 21.7971 29.1271 21.6091C29.2849 21.5967 30.2041 21.6003 30.2997 21.614C30.375 21.8036 30.4348 22.004 30.5141 22.1956H31.4241L31.4244 22.1962ZM21.7921 22.1894C21.9047 22.2057 22.6024 22.2034 22.6918 22.1863C22.7726 21.996 22.835 21.7958 22.92 21.6032C23.3122 21.6042 23.6982 21.6008 24.0864 21.6055C24.1674 21.8044 24.2249 22.0058 24.3072 22.2C24.3642 22.2 24.4153 22.2 24.4665 22.2H24.9164C24.9638 22.2 25.0113 22.2013 25.0584 22.1998C25.1071 22.198 25.1575 22.2091 25.213 22.1871C24.8006 21.0426 24.3911 19.9058 23.9829 18.7729C23.852 18.7566 23.1277 18.76 23.0378 18.7771C22.6246 19.9006 22.2102 21.0273 21.7963 22.1539C21.7924 22.1648 21.7934 22.1778 21.7919 22.1897L21.7921 22.1894ZM21.1881 18.8527C21.1735 18.842 21.1676 18.8358 21.1604 18.8327C20.7927 18.6761 20.4143 18.6162 20.0251 18.7193C19.4304 18.8767 19.0059 19.2473 18.7822 19.8527C18.6715 20.152 18.6508 20.4638 18.6942 20.7818C18.738 21.1016 18.8528 21.3885 19.0575 21.6304C19.55 22.2122 20.3412 22.4978 21.1814 22.1249C21.1937 22.0356 21.1992 21.2948 21.1883 21.1086C21.1881 21.1029 21.1792 21.0977 21.17 21.0874C21.1535 21.1031 21.1369 21.1192 21.1204 21.135C20.8739 21.3701 20.5877 21.469 20.258 21.4017C19.9468 21.3383 19.7297 21.1505 19.6226 20.8349C19.5475 20.6135 19.548 20.3877 19.6166 20.164C19.7335 19.7828 20.0464 19.542 20.4269 19.5402C20.6956 19.5389 20.9295 19.6313 21.1214 19.8328C21.1384 19.8506 21.1478 19.8871 21.1881 19.8724V18.8524V18.8527ZM9.50753 16.8124C9.50629 17.4352 9.97823 17.9818 10.6198 17.9849C11.2533 17.988 11.7455 17.4575 11.7443 16.8127C11.743 16.1829 11.2693 15.649 10.626 15.6474C9.98095 15.6459 9.50876 16.1917 9.50753 16.8127V16.8124ZM20.9324 23.8531C20.9381 23.8345 20.9446 23.8231 20.9446 23.8117C20.9453 23.588 20.9453 23.3642 20.9446 23.1405C20.9446 23.1291 20.9379 23.1177 20.9322 23.0996C20.8942 23.0978 20.8556 23.0949 20.8171 23.0947C20.6037 23.0942 20.3906 23.0947 20.1772 23.0947C19.7152 23.0947 19.2531 23.0944 18.791 23.0952C18.7533 23.0952 18.712 23.0817 18.675 23.1159C18.675 23.35 18.675 23.5859 18.6757 23.8218C18.6757 23.8322 18.6856 23.8425 18.6928 23.8568C18.9168 23.8622 19.141 23.8549 19.3618 23.8609C19.3887 23.9122 19.3781 23.9588 19.3781 24.0031C19.3788 24.7985 19.3783 25.594 19.3791 26.3892C19.3791 26.4338 19.3694 26.4801 19.3914 26.5267C19.4055 26.5293 19.4206 26.535 19.4359 26.535C19.6885 26.535 19.9414 26.535 20.194 26.5337C20.2051 26.5337 20.216 26.5267 20.2303 26.5218C20.2424 26.4778 20.237 26.4322 20.237 26.3874C20.2373 25.5919 20.237 24.7965 20.2377 24.0013C20.2377 23.957 20.2296 23.9111 20.2494 23.8604C20.3252 23.8599 20.3995 23.8591 20.4736 23.8588C20.5526 23.8586 20.6317 23.8599 20.7107 23.8586C20.7848 23.8573 20.8593 23.8648 20.9324 23.8534V23.8531ZM32.8651 23.1019C32.8602 23.1214 32.8548 23.133 32.8548 23.1447C32.8543 24.2581 32.8543 25.3718 32.8548 26.4853C32.8548 26.497 32.8602 26.5086 32.8632 26.521C32.8748 26.5257 32.8856 26.534 32.8962 26.534C33.4922 26.5348 34.0881 26.5353 34.684 26.535C34.6991 26.535 34.7139 26.5283 34.7289 26.5247C34.7326 26.5096 34.7376 26.498 34.7378 26.4863C34.7383 26.267 34.7386 26.0474 34.7378 25.8281C34.7378 25.8131 34.7294 25.7978 34.7235 25.7771H34.6032C34.3387 25.7771 34.0745 25.7774 33.81 25.7766C33.7796 25.7766 33.7465 25.7859 33.7127 25.7507V23.8596C33.7127 23.7353 33.7139 23.6113 33.7124 23.487C33.711 23.3596 33.7189 23.2319 33.7075 23.1066C33.6127 23.0918 33.0086 23.0885 32.8654 23.1017L32.8651 23.1019ZM35.2967 23.0955C35.2804 23.204 35.2787 26.4076 35.2935 26.527C35.3189 26.5298 35.3459 26.5353 35.3725 26.5353C35.941 26.5358 36.5098 26.5358 37.0783 26.5353C37.1042 26.5353 37.1304 26.528 37.1573 26.5239C37.1593 26.5008 37.1623 26.4845 37.162 26.4682C37.1615 26.2489 37.1605 26.0293 37.1595 25.81C37.1595 25.8058 37.159 25.8014 37.1573 25.7978C37.1556 25.7944 37.1519 25.7921 37.141 25.7815C37.1106 25.7805 37.0721 25.7779 37.0333 25.7779C36.7688 25.7776 36.5043 25.7779 36.2396 25.7774C36.2095 25.7774 36.1793 25.7719 36.1411 25.7683V23.6385C36.1411 23.5473 36.1418 23.4562 36.1411 23.365C36.1401 23.2793 36.1458 23.1931 36.1366 23.1074C36.1181 23.1019 36.1072 23.096 36.0961 23.096C35.8319 23.0955 35.5679 23.0955 35.2965 23.0955H35.2967ZM30.0999 23.1092C30.0757 23.1012 30.0685 23.0965 30.0614 23.0965C29.8048 23.0957 29.5484 23.0955 29.2918 23.096C29.2775 23.096 29.2634 23.105 29.2447 23.1113V23.2506C29.2447 23.942 29.2447 24.6333 29.2447 25.3247C29.2447 25.391 29.2444 25.4573 29.2415 25.5233C29.2383 25.5982 29.2266 25.672 29.1953 25.7398C29.1395 25.8605 29.0165 25.904 28.9076 25.8343C28.8513 25.7983 28.8031 25.7471 28.7547 25.6989C28.7211 25.6652 28.6935 25.6248 28.6633 25.5878C28.5833 25.6481 28.2282 26.0371 28.1684 26.1306C28.3077 26.3543 28.4922 26.5241 28.7446 26.5904C29.0291 26.6655 29.3096 26.6365 29.5744 26.4983C29.8273 26.3662 29.9717 26.1409 30.0475 25.862C30.091 25.7015 30.1011 25.5365 30.1009 25.3703C30.0999 24.6582 30.1004 23.9461 30.1004 23.234C30.1004 23.1931 30.1004 23.1522 30.1004 23.1089L30.0999 23.1092ZM25.5373 21.7837C25.6894 22.0232 25.8793 22.1886 26.1359 22.2609C26.3034 22.308 26.4728 22.3023 26.6412 22.2702C27.0136 22.1993 27.2724 21.9838 27.3996 21.6045C27.4512 21.4504 27.4742 21.2914 27.4742 21.1288C27.4747 20.3665 27.4745 19.6041 27.4742 18.842C27.4742 18.8187 27.47 18.7952 27.4673 18.7672C27.4409 18.7654 27.4219 18.7631 27.4028 18.7631C27.1658 18.7631 26.9289 18.7625 26.6918 18.7633C26.6699 18.7633 26.6476 18.7695 26.6182 18.7742C26.6182 18.8265 26.6182 18.8716 26.6182 18.9166C26.6182 19.6127 26.6182 20.3087 26.6182 21.0047C26.6182 21.0752 26.6202 21.1461 26.6128 21.2158C26.6064 21.2766 26.5953 21.3396 26.573 21.3958C26.5197 21.5301 26.3846 21.5734 26.2695 21.4926C26.2145 21.454 26.168 21.4015 26.1201 21.3525C26.0895 21.3212 26.0636 21.2852 26.029 21.2435C25.864 21.4235 25.7028 21.5985 25.5373 21.7842V21.7837ZM31.9319 26.5218C31.9489 26.3955 31.9563 23.9508 31.942 23.1799C31.9415 23.1561 31.9385 23.1322 31.9363 23.1019C31.8607 23.0887 31.7901 23.0965 31.7202 23.0949C31.653 23.0937 31.5859 23.0947 31.5187 23.0947C31.4476 23.0947 31.3764 23.0931 31.3056 23.0952C31.2357 23.097 31.1648 23.0859 31.0971 23.1032C31.0813 23.2148 31.0818 26.4255 31.0971 26.5262C31.1112 26.5291 31.1263 26.535 31.1416 26.535C31.3942 26.535 31.6471 26.5348 31.8998 26.5337C31.9106 26.5337 31.9215 26.526 31.9316 26.5221L31.9319 26.5218Z" fill="#ED1C24"/>
    <path d="M46.0009 31.7434C45.994 31.7452 45.9868 31.7458 45.9796 31.7452C45.9686 31.7077 45.9843 31.6758 46.0009 31.644V31.7434Z" fill="#F8A8AB"/>
    <path d="M45.9801 0.569157C45.9873 0.567604 45.9942 0.568381 46.0009 0.571747V0.646323C45.9748 0.625866 45.9724 0.598936 45.9801 0.569157Z" fill="#F6979A"/>
    <path d="M7.80644 26.528C7.78026 26.5304 7.75383 26.535 7.72766 26.535C7.00505 26.5353 6.28219 26.535 5.55958 26.5355C5.44598 26.5355 5.33954 26.5112 5.24718 26.4395C5.11925 26.3403 5.0464 26.2085 5.04121 26.0391C5.04047 26.0184 5.04096 25.9977 5.04096 25.977C5.04096 24.1253 5.04121 22.2736 5.04096 20.4221C5.04096 19.9783 5.18716 19.5948 5.47808 19.2755C5.76876 18.9565 6.12759 18.7846 6.54965 18.7631C6.60077 18.7605 6.65239 18.76 6.70351 18.76C9.31784 18.76 11.9322 18.76 14.5465 18.7592C14.7658 18.7592 14.9809 18.7802 15.1851 18.8677C15.7438 19.1077 16.0833 19.5376 16.19 20.1632C16.2046 20.2481 16.2098 20.3362 16.2098 20.4226C16.2108 22.2744 16.21 24.1261 16.2115 25.9775C16.2115 26.13 16.174 26.2631 16.0725 26.3737C15.9902 26.4636 15.8905 26.5179 15.7714 26.5301C15.7361 26.5337 15.7006 26.5348 15.665 26.535C14.9582 26.5353 14.2511 26.5353 13.5443 26.535C13.5093 26.535 13.4742 26.5324 13.4357 26.5309C13.4418 26.4879 13.4754 26.4923 13.4962 26.4835C13.7338 26.3838 13.8822 26.2015 13.9456 25.9446C13.9652 25.8654 13.974 25.781 13.9745 25.6989C13.9773 25.2349 13.976 24.7711 13.9755 24.3071C13.9755 24.2791 13.9713 24.2511 13.9691 24.2234C13.9523 24.2183 13.9414 24.212 13.9306 24.212C11.7193 24.2115 9.50775 24.2115 7.28881 24.2115C7.28436 24.2416 7.27695 24.2685 7.27695 24.2957C7.27621 24.7763 7.27028 25.2569 7.27868 25.7372C7.28485 26.0928 7.4439 26.3517 7.76593 26.4879C7.77976 26.4939 7.79384 26.4996 7.80767 26.5055C7.80767 26.5128 7.80742 26.5203 7.80718 26.5275L7.80644 26.528ZM13.9654 22.2536C13.9706 22.2329 13.9743 22.2249 13.9743 22.2169C13.9748 21.8398 13.9819 21.4626 13.9731 21.0858C13.9647 20.7241 13.7446 20.4397 13.4231 20.347C13.3384 20.3227 13.2517 20.3204 13.1648 20.3204C11.4743 20.3204 9.78385 20.3204 8.09341 20.3204C8.05784 20.3204 8.02228 20.3193 7.98672 20.3211C7.56392 20.3429 7.27349 20.7064 7.27522 21.1008C7.2767 21.4571 7.27522 21.8134 7.27572 22.1697C7.27572 22.1972 7.26806 22.2277 7.29177 22.25C7.42957 22.2687 12.7815 22.2767 13.8787 22.2599C13.9056 22.2593 13.9326 22.256 13.9654 22.2534V22.2536Z" fill="white"/>
    <path d="M17.2789 28.473C17.1814 28.4611 17.0838 28.4481 16.986 28.4375C16.9472 28.4331 16.9072 28.4308 16.8848 28.475C16.8919 28.5123 16.923 28.5165 16.9472 28.525C17.0737 28.5701 17.2011 28.6128 17.328 28.6566C17.3567 28.6664 17.3846 28.6786 17.4337 28.6982C17.3708 28.7164 17.3295 28.7083 17.2898 28.7034C17.172 28.6892 17.0547 28.6806 16.9376 28.7065C16.8961 28.7159 16.861 28.7016 16.8252 28.6822C16.7203 28.6255 16.6156 28.569 16.5091 28.5157C16.4232 28.4727 16.3353 28.4717 16.2387 28.518C16.253 28.5361 16.2619 28.5527 16.2753 28.5633C16.3214 28.6004 16.3837 28.6112 16.4217 28.662L16.4232 28.6604C16.3449 28.6524 16.2664 28.6459 16.1883 28.6358C15.9574 28.6055 15.726 28.5765 15.4956 28.5418C15.1908 28.4963 14.8871 28.4445 14.5826 28.3979C14.3248 28.3585 14.0669 28.3207 13.8086 28.2865C13.5579 28.2534 13.307 28.2233 13.0559 28.1964C12.844 28.1736 12.6313 28.1552 12.419 28.1381C12.1238 28.1143 11.8287 28.0918 11.5333 28.0719C11.3365 28.0587 11.1392 28.048 10.9419 28.0416C10.5238 28.0276 10.1054 28.0139 9.68707 28.0056C9.30032 27.9981 8.91334 27.9916 8.52659 27.9968C7.9939 28.0038 7.46096 28.0185 6.92851 28.0369C6.54596 28.0501 6.16367 28.0744 5.78113 28.0934C5.61739 28.1014 5.45859 28.0695 5.30375 28.0177C5.18002 27.9763 5.09087 27.8934 5.05432 27.758C5.05111 27.7466 5.05259 27.7339 5.05185 27.7228C5.07136 27.684 5.10766 27.6752 5.14076 27.6651C5.27733 27.6241 5.4134 27.5804 5.5517 27.5472C5.87522 27.4703 6.2022 27.4136 6.5309 27.367C6.81639 27.3264 7.10188 27.286 7.3881 27.2526C7.67433 27.2194 7.96155 27.1935 8.24852 27.1679C8.51598 27.1441 8.78368 27.1236 9.05139 27.1037C9.205 27.0923 9.35861 27.0824 9.51246 27.0757C9.80042 27.0628 10.0884 27.0532 10.3763 27.0413C11.2012 27.0071 12.0263 27.012 12.8514 27.0278C13.2737 27.0358 13.6955 27.0576 14.1176 27.077C14.3265 27.0866 14.5354 27.1011 14.7436 27.1208C14.9676 27.142 15.1913 27.1681 15.4141 27.1992C15.6606 27.2337 15.9068 27.2707 16.1513 27.3163C16.377 27.3582 16.5928 27.4416 16.8097 27.5177C16.8275 27.5239 16.8433 27.5366 16.8625 27.5478C16.8267 27.6045 16.7536 27.6086 16.7257 27.6754C16.7576 27.6998 16.7882 27.7231 16.8203 27.7477C16.7465 27.7761 16.6699 27.7793 16.5921 27.7578C16.5694 27.7515 16.5472 27.7378 16.5244 27.7376C16.5096 27.7376 16.4948 27.7557 16.4802 27.7658C16.5034 27.8155 16.5462 27.8209 16.5815 27.8352C16.7181 27.8896 16.8556 27.9406 16.9927 27.9934C17.0556 28.0177 17.1184 28.0426 17.1809 28.0685C17.1979 28.0755 17.2132 28.0877 17.2488 28.1094C17.1495 28.1115 17.0781 28.0879 17.006 28.0695C16.868 28.0343 16.7314 27.9906 16.5919 27.9652C16.3938 27.9294 16.1933 27.9074 15.994 27.8795C15.9589 27.8569 15.9228 27.8613 15.8692 27.8727C15.9196 27.9015 15.9567 27.9152 15.9989 27.9116C16.2871 27.983 16.5588 28.0996 16.827 28.2425V28.3039C16.9697 28.3785 17.1263 28.3971 17.2769 28.4362C17.2774 28.4484 17.2779 28.4605 17.2787 28.4724L17.2789 28.473Z" fill="#F9CD00"/>
    <path d="M39.2856 22.9849C39.7334 22.9934 40.2031 23.1858 40.5775 23.6038C40.8938 23.9567 41.0314 24.3806 41.0077 24.8643C40.9976 25.0686 40.9659 25.268 40.8978 25.4591C40.7079 25.9918 40.3557 26.3574 39.843 26.5405C39.3992 26.6987 38.9493 26.6974 38.5079 26.527C37.9261 26.3025 37.568 25.8625 37.423 25.2336C37.3514 24.9234 37.3465 24.6098 37.43 24.2998C37.5369 23.9016 37.7599 23.588 38.0802 23.351C38.4126 23.105 38.7845 22.9857 39.2859 22.9849H39.2856ZM39.1913 25.7849C39.2501 25.7779 39.3096 25.7758 39.3671 25.7634C39.7479 25.6813 40.0265 25.369 40.1026 24.9656C40.192 24.4907 39.9299 24.1328 39.6363 23.9702C39.475 23.8808 39.3036 23.848 39.1219 23.8573C38.6798 23.8795 38.1061 24.3301 38.3027 25.0601C38.4361 25.5554 38.8406 25.788 39.1913 25.7849Z" fill="#FFFDFD"/>
    <path d="M22.5508 26.5241C22.5263 26.5285 22.5076 26.5342 22.4888 26.535C22.2769 26.5446 21.7961 26.5379 21.7005 26.5234C21.6978 26.4985 21.6923 26.4711 21.6921 26.4439C21.6914 26.2367 21.6916 26.0296 21.6916 25.8224C21.6916 24.9648 21.6916 24.1072 21.6916 23.2498V23.1079C21.7202 23.1027 21.742 23.0952 21.764 23.0952C22.1747 23.0947 22.5854 23.0939 22.9963 23.096C23.1469 23.0968 23.2956 23.1175 23.4401 23.1641C23.4702 23.1739 23.5006 23.1835 23.5297 23.1957C23.8357 23.3231 24.0271 23.5538 24.0926 23.8933C24.1298 24.0864 24.1289 24.2812 24.076 24.4715C23.9866 24.7926 23.7952 25.0122 23.484 25.1077C23.4618 25.1145 23.4406 25.124 23.4129 25.1346C23.4707 25.2406 23.5463 25.325 23.6115 25.4172C23.6772 25.5104 23.7463 25.601 23.814 25.6929C23.8792 25.7815 23.9439 25.8703 24.0088 25.9589C24.0763 26.0508 24.1442 26.1425 24.2113 26.2344C24.2785 26.3261 24.3452 26.4177 24.4143 26.513C24.3988 26.5226 24.3897 26.5332 24.3803 26.5332C24.0449 26.534 23.7095 26.534 23.3776 26.534C23.3339 26.506 23.3181 26.4617 23.2951 26.4242C23.0773 26.0689 22.8605 25.7131 22.6431 25.3573C22.6226 25.3239 22.6002 25.2918 22.5723 25.2494C22.5495 25.29 22.5555 25.3229 22.5552 25.3537C22.5547 25.7017 22.5552 26.0498 22.5547 26.3978C22.5547 26.4384 22.5523 26.4791 22.551 26.5241H22.5508ZM22.5577 24.6315C22.6869 24.6401 22.8039 24.6408 22.9187 24.6072C22.9639 24.594 23.0089 24.5761 23.0499 24.5531C23.1297 24.5083 23.181 24.4381 23.207 24.3456C23.2778 24.0919 23.1627 23.8783 22.9192 23.8143C22.9116 23.8122 22.9039 23.8107 22.896 23.8099C22.8061 23.8013 22.7162 23.7918 22.6261 23.785C22.6044 23.7835 22.5819 23.7915 22.5574 23.7954V24.6315H22.5577Z" fill="#FFFCFC"/>
    <path d="M24.873 23.11C24.9656 23.0908 25.5153 23.0856 25.7129 23.1012C25.7171 23.126 25.7252 23.1527 25.7252 23.1796C25.7265 23.3453 25.726 23.5111 25.726 23.6768C25.726 24.0704 25.7252 24.464 25.7264 24.8573C25.7269 24.9733 25.7319 25.0891 25.7373 25.2048C25.742 25.3089 25.7623 25.4102 25.7978 25.5075C25.868 25.6994 26.0011 25.81 26.1962 25.8297C26.274 25.8374 26.3542 25.8374 26.432 25.8273C26.6066 25.8051 26.7303 25.7049 26.801 25.5355C26.8459 25.428 26.8649 25.3138 26.8728 25.1978C26.878 25.1235 26.8788 25.0489 26.8788 24.9744C26.8793 24.3985 26.8788 23.8228 26.8793 23.247C26.8793 23.2022 26.881 23.1571 26.882 23.1198C26.8911 23.1095 26.8936 23.1058 26.8966 23.1035C26.8995 23.1012 26.9035 23.0988 26.9069 23.0988C27.1398 23.0973 27.3727 23.0957 27.6056 23.0944C27.6448 23.0944 27.6841 23.0944 27.7288 23.0944C27.7333 23.1284 27.7402 23.1561 27.7402 23.1838C27.7407 23.8342 27.7424 24.4844 27.7394 25.1349C27.7387 25.325 27.7298 25.5153 27.6856 25.702C27.5997 26.0648 27.3925 26.3188 27.0704 26.4726C26.9109 26.5488 26.7422 26.592 26.5688 26.6117C26.2594 26.6466 25.9537 26.6282 25.6568 26.5216C25.5291 26.4757 25.4094 26.4128 25.3022 26.3255C25.0831 26.1466 24.9591 25.9086 24.9078 25.6254C24.8781 25.462 24.8688 25.2965 24.8683 25.1308C24.8663 24.4927 24.8675 23.855 24.8678 23.2169C24.8678 23.1807 24.8715 23.1441 24.8732 23.11H24.873Z" fill="#FFFBFB"/>
    <path d="M31.4243 22.1962H30.5143C30.435 22.0045 30.3753 21.8041 30.2999 21.6146C30.2044 21.6008 29.2852 21.5972 29.1274 21.6096C29.0459 21.7976 28.9804 21.9968 28.9024 22.1876C28.7991 22.2047 28.0958 22.2042 28.0042 22.1876C28.0239 22.0939 29.1693 18.9663 29.2545 18.7739C29.343 18.7597 29.9917 18.7558 30.1794 18.7685C30.214 18.7972 30.2197 18.8449 30.2345 18.8858C30.5528 19.7675 30.8699 20.6497 31.1875 21.532C31.2544 21.7176 31.3211 21.9033 31.3878 22.0892C31.3987 22.1198 31.4088 22.1506 31.4246 22.1967L31.4243 22.1962ZM29.7092 19.8504C29.6112 20.114 29.3966 20.7971 29.377 20.9087C29.3916 20.9118 29.4062 20.9177 29.4208 20.9177C29.6139 20.9183 29.807 20.9185 30.0001 20.9177C30.0179 20.9177 30.0354 20.9097 30.0527 20.9053C30.0253 20.7595 29.7566 19.9309 29.709 19.8504H29.7092Z" fill="#FFFDFD"/>
    <path d="M21.7921 22.1894C21.7936 22.1775 21.7926 22.1646 21.7966 22.1537C22.2105 21.027 22.6246 19.9003 23.038 18.7768C23.1279 18.7594 23.852 18.7563 23.9832 18.7726C24.3914 19.9055 24.8008 21.042 25.2133 22.1868C25.1577 22.2088 25.1073 22.1977 25.0587 22.1995C25.0113 22.2013 24.9641 22.1998 24.9167 22.1998H24.4667C24.4156 22.1998 24.3647 22.1998 24.3074 22.1998C24.2249 22.0056 24.1676 21.8041 24.0866 21.6052C23.6984 21.6008 23.3124 21.6042 22.9202 21.6029C22.8353 21.7953 22.7726 21.9957 22.692 22.1861C22.6026 22.2034 21.9047 22.2055 21.7924 22.1892L21.7921 22.1894ZM23.4974 19.8387C23.3821 20.2007 23.2724 20.5451 23.1635 20.89C23.162 20.895 23.1702 20.9035 23.1786 20.9188C23.2089 20.9188 23.244 20.9188 23.2791 20.9188C23.4603 20.9172 23.6414 20.9157 23.8226 20.9139C23.8263 20.9139 23.8305 20.9118 23.8333 20.9092C23.836 20.9066 23.8374 20.9022 23.8394 20.8988C23.8209 20.7888 23.5512 19.9439 23.4974 19.839V19.8387Z" fill="#FFFDFD"/>
    <path d="M21.188 18.8527V19.8726C21.1478 19.8874 21.1384 19.8506 21.1214 19.833C20.9295 19.6316 20.6956 19.5391 20.4269 19.5404C20.0461 19.5425 19.7334 19.783 19.6166 20.1642C19.548 20.3879 19.5475 20.6137 19.6226 20.8351C19.7297 21.1505 19.9468 21.3385 20.258 21.402C20.5877 21.469 20.8739 21.3701 21.1204 21.1353C21.1369 21.1195 21.1535 21.1034 21.17 21.0876C21.1794 21.098 21.188 21.1031 21.1883 21.1088C21.1992 21.295 21.1937 22.0359 21.1814 22.1252C20.3412 22.4981 19.55 22.2125 19.0575 21.6306C18.8528 21.3888 18.7382 21.1021 18.6942 20.7821C18.6508 20.4643 18.6713 20.1526 18.7822 19.853C19.0059 19.2478 19.4304 18.877 20.0251 18.7196C20.4146 18.6165 20.7929 18.6761 21.1604 18.833C21.1675 18.8361 21.1735 18.8423 21.188 18.8529V18.8527Z" fill="#FFFDFD"/>
    <path d="M9.50751 16.8124C9.50874 16.1915 9.98069 15.6456 10.626 15.6472C11.2693 15.6487 11.7432 16.1827 11.7442 16.8124C11.7455 17.4572 11.2533 17.9878 10.6198 17.9847C9.97822 17.9816 9.50627 17.4349 9.50751 16.8122V16.8124Z" fill="#F9CE00"/>
    <path d="M20.9324 23.8531C20.8591 23.8645 20.7845 23.857 20.7107 23.8583C20.6316 23.8596 20.5526 23.8583 20.4736 23.8586C20.3993 23.8588 20.3252 23.8596 20.2493 23.8601C20.2296 23.9109 20.2377 23.9567 20.2377 24.001C20.237 24.7965 20.2375 25.5919 20.237 26.3872C20.237 26.432 20.2422 26.4775 20.2303 26.5216C20.2163 26.5265 20.2051 26.5335 20.194 26.5335C19.9414 26.5345 19.6885 26.5348 19.4359 26.5348C19.4205 26.5348 19.4055 26.5293 19.3914 26.5265C19.3694 26.4801 19.3793 26.4338 19.3791 26.389C19.3783 25.5935 19.3788 24.798 19.3781 24.0028C19.3781 23.9585 19.3884 23.9119 19.3618 23.8606C19.1412 23.8549 18.917 23.8622 18.6928 23.8565C18.6856 23.8425 18.6757 23.8322 18.6757 23.8215C18.6747 23.5856 18.675 23.3497 18.675 23.1157C18.7118 23.0815 18.7533 23.0949 18.791 23.0949C19.2531 23.0939 19.7152 23.0944 20.1772 23.0944C20.3906 23.0944 20.6037 23.0944 20.8171 23.0944C20.8556 23.0944 20.8942 23.0975 20.9322 23.0993C20.9379 23.1177 20.9445 23.1289 20.9445 23.1403C20.945 23.364 20.945 23.5877 20.9445 23.8114C20.9445 23.8228 20.9381 23.8342 20.9324 23.8529V23.8531Z" fill="#FFFDFD"/>
    <path d="M32.8651 23.1019C33.0086 23.089 33.6124 23.0921 33.7073 23.1069C33.7186 23.2322 33.7107 23.3599 33.7122 23.4873C33.7137 23.6115 33.7124 23.7356 33.7124 23.8599V25.7509C33.7463 25.7862 33.7794 25.7768 33.8097 25.7768C34.0742 25.7776 34.3385 25.7774 34.603 25.7774H34.7233C34.7294 25.7983 34.7376 25.8133 34.7376 25.8284C34.7383 26.0477 34.7383 26.2673 34.7376 26.4866C34.7376 26.4983 34.7324 26.5097 34.7287 26.5249C34.7136 26.5286 34.6988 26.5353 34.6837 26.5353C34.0878 26.5353 33.4919 26.5353 32.896 26.5343C32.8851 26.5343 32.8745 26.526 32.8629 26.5213C32.8599 26.5089 32.8545 26.4972 32.8545 26.4856C32.854 25.3721 32.854 24.2584 32.8545 23.1449C32.8545 23.1333 32.8599 23.1216 32.8649 23.1022L32.8651 23.1019Z" fill="#FFFBFB"/>
    <path d="M35.2967 23.0955C35.5679 23.0955 35.8321 23.0955 36.0964 23.096C36.1072 23.096 36.1183 23.1019 36.1369 23.1074C36.146 23.1928 36.1403 23.2791 36.1413 23.365C36.1423 23.4562 36.1413 23.5473 36.1413 23.6385V25.7683C36.1793 25.7719 36.2095 25.7774 36.2398 25.7774C36.5043 25.7781 36.7688 25.7774 37.0336 25.7779C37.0721 25.7779 37.1109 25.7805 37.1413 25.7815C37.1519 25.7921 37.1556 25.7944 37.1576 25.7978C37.1593 25.8012 37.1598 25.8058 37.1598 25.81C37.1608 26.0293 37.1618 26.2489 37.1622 26.4682C37.1622 26.4845 37.1595 26.5008 37.1576 26.5239C37.1306 26.5278 37.1047 26.535 37.0785 26.5353C36.51 26.5361 35.9413 26.5358 35.3728 26.5353C35.3461 26.5353 35.3192 26.5298 35.2937 26.527C35.2789 26.4076 35.2806 23.204 35.2969 23.0955H35.2967Z" fill="#FFFEFE"/>
    <path d="M30.0999 23.1092C30.0999 23.1527 30.0999 23.1934 30.0999 23.2343C30.0999 23.9464 30.0994 24.6585 30.1004 25.3706C30.1004 25.5368 30.0908 25.7017 30.047 25.8623C29.9715 26.1409 29.8267 26.3662 29.5739 26.4985C29.3094 26.6368 29.0288 26.6655 28.7441 26.5907C28.4917 26.5242 28.3072 26.3545 28.1679 26.1308C28.2277 26.0373 28.5828 25.6487 28.6628 25.5881C28.6929 25.6251 28.7204 25.6655 28.7542 25.6992C28.8024 25.7473 28.8508 25.7986 28.9071 25.8346C29.016 25.9042 29.1392 25.8607 29.1948 25.7401C29.2261 25.672 29.2377 25.5982 29.241 25.5236C29.2439 25.4576 29.2442 25.3913 29.2442 25.325C29.2442 24.6336 29.2442 23.9422 29.2442 23.2508V23.1115C29.2629 23.1053 29.2773 23.0962 29.2913 23.0962C29.5479 23.0957 29.8043 23.0962 30.0609 23.0968C30.068 23.0968 30.0754 23.1014 30.0994 23.1095L30.0999 23.1092Z" fill="#FFFDFD"/>
    <path d="M25.5373 21.7837C25.7025 21.598 25.8638 21.4229 26.029 21.243C26.0635 21.2847 26.0895 21.3207 26.1201 21.352C26.168 21.4009 26.2144 21.4535 26.2695 21.4921C26.3846 21.5729 26.5194 21.5294 26.573 21.3952C26.5955 21.339 26.6064 21.2761 26.6128 21.2153C26.6202 21.1456 26.6182 21.0747 26.6182 21.0042C26.6185 20.3082 26.6182 19.6121 26.6182 18.9161C26.6182 18.871 26.6182 18.8263 26.6182 18.7737C26.6476 18.7693 26.6696 18.7631 26.6918 18.7628C26.9289 18.762 27.1657 18.7623 27.4028 18.7625C27.4218 18.7625 27.4409 18.7649 27.4673 18.7667C27.47 18.7947 27.4742 18.8182 27.4742 18.8415C27.4744 19.6039 27.4747 20.3662 27.4742 21.1283C27.4742 21.2909 27.4512 21.4501 27.3996 21.6039C27.2724 21.9833 27.0136 22.199 26.6412 22.2697C26.4728 22.3018 26.3034 22.3072 26.1359 22.2604C25.8793 22.1881 25.6894 22.0229 25.5373 21.7831V21.7837Z" fill="#FFFDFD"/>
    <path d="M31.9318 26.5218C31.9217 26.5257 31.9109 26.5332 31.9 26.5335C31.6473 26.5345 31.3945 26.535 31.1418 26.5348C31.1268 26.5348 31.1114 26.5288 31.0974 26.526C31.0821 26.4252 31.0816 23.2146 31.0974 23.103C31.165 23.0859 31.2359 23.097 31.3058 23.095C31.3769 23.0931 31.448 23.0944 31.5189 23.0944C31.5861 23.0944 31.6533 23.0934 31.7204 23.0947C31.7903 23.096 31.861 23.0882 31.9365 23.1017C31.9388 23.132 31.9417 23.1558 31.9422 23.1796C31.9565 23.9505 31.9491 26.3952 31.9321 26.5216L31.9318 26.5218Z" fill="#FFFDFD"/>
    <path d="M17.2789 28.473C17.2784 28.4608 17.2779 28.4486 17.2772 28.4367C17.391 28.4427 17.5844 28.4877 17.6817 28.5364C17.5328 28.5118 17.4029 28.5162 17.2789 28.473Z" fill="#F27611"/>
    <path d="M15.9991 27.9121C15.9569 27.9157 15.9199 27.902 15.8695 27.8732C15.9228 27.8619 15.9591 27.8577 15.9942 27.88C15.9959 27.8906 15.9977 27.9015 15.9991 27.9121Z" fill="#F26C13"/>
    <path d="M16.4214 28.6623C16.4273 28.6651 16.4335 28.6677 16.4394 28.6705C16.4366 28.6703 16.433 28.6705 16.4307 28.6692C16.4276 28.6672 16.4255 28.6635 16.423 28.6607L16.4214 28.6623Z" fill="#F9CD00"/>
    <path d="M13.9654 22.2536C13.9326 22.2562 13.9057 22.2598 13.8787 22.2601C12.7815 22.2769 7.42959 22.2687 7.29178 22.2503C7.26807 22.2277 7.27598 22.1974 7.27573 22.17C7.27524 21.8137 7.27672 21.4574 7.27524 21.1011C7.27351 20.7067 7.56393 20.3431 7.98673 20.3214C8.02229 20.3196 8.05786 20.3206 8.09342 20.3206C9.78387 20.3206 11.4743 20.3206 13.1648 20.3206C13.2519 20.3206 13.3384 20.3229 13.4231 20.3473C13.7446 20.44 13.9647 20.7243 13.9731 21.0861C13.982 21.4628 13.9748 21.8401 13.9743 22.2171C13.9743 22.2252 13.9706 22.2332 13.9654 22.2539V22.2536Z" fill="#ED1F27"/>
    <path d="M39.1913 25.7849C38.8406 25.7877 38.4361 25.5552 38.3027 25.0601C38.1059 24.3299 38.6798 23.8796 39.1219 23.8573C39.3036 23.848 39.475 23.8808 39.6363 23.9702C39.9297 24.1328 40.192 24.4909 40.1026 24.9656C40.0265 25.3693 39.7482 25.6813 39.3671 25.7634C39.3096 25.7758 39.2498 25.7779 39.1913 25.7849Z" fill="#ED1E26"/>
    <path d="M22.5577 24.6315V23.7954C22.5821 23.7915 22.6044 23.7835 22.6263 23.785C22.7165 23.7918 22.8064 23.8013 22.8963 23.8099C22.9042 23.8107 22.9118 23.8122 22.9195 23.8143C23.163 23.878 23.2778 24.0919 23.2072 24.3456C23.1815 24.4381 23.1299 24.5083 23.0501 24.5531C23.0089 24.5764 22.9639 24.594 22.919 24.6072C22.8042 24.6408 22.6871 24.6401 22.5579 24.6315H22.5577Z" fill="#ED2027"/>
    <path d="M29.7092 19.8504C29.7566 19.9309 30.0253 20.7595 30.053 20.9053C30.0357 20.9095 30.0179 20.9175 30.0004 20.9177C29.8072 20.9185 29.6141 20.9185 29.421 20.9177C29.4064 20.9177 29.3919 20.9118 29.3773 20.9087C29.3968 20.7971 29.6114 20.1137 29.7095 19.8504H29.7092Z" fill="#EE262D"/>
    <path d="M23.4974 19.8387C23.5515 19.9436 23.8209 20.7888 23.8394 20.8986C23.8374 20.9022 23.836 20.9063 23.8332 20.9089C23.8305 20.9115 23.8263 20.9133 23.8226 20.9136C23.6414 20.9154 23.4603 20.917 23.2791 20.9185C23.244 20.9188 23.2089 20.9185 23.1785 20.9185C23.1701 20.9032 23.1618 20.8947 23.1635 20.8898C23.2724 20.5449 23.3823 20.2005 23.4974 19.8385V19.8387Z" fill="#EE262E"/>
    </g>
    <defs>
    <clipPath id="clip0_34_30166">
    <rect width="46" height="46" fill="white"/>
    </clipPath>
    </defs>
    </svg>
    