<svg width="46" height="46" viewBox="0 0 46 46" fill="none" xmlns="http://www.w3.org/2000/svg">
    <path d="M0 16H46V30.9189H0C0 25.946 0 20.9729 0 16ZM9.32445 26.9432C10.1501 27.0019 10.8672 26.3476 10.8712 25.5527C10.8749 24.8331 10.8721 24.1135 10.8719 23.3941C10.8719 22.5828 10.2327 21.9546 9.40734 21.9546C7.8463 21.9546 6.28526 21.9546 4.72422 21.9546C3.8965 21.9546 3.25593 22.5759 3.25193 23.3874C3.24865 24.0992 3.24513 24.8112 3.25334 25.5229C3.25921 26.0499 3.49614 26.4603 3.95097 26.7423C4.20387 26.8994 4.48212 26.964 4.75615 26.9483C4.68406 26.7693 4.569 26.5975 4.5521 26.4169C4.51969 26.0677 4.54271 25.7135 4.54271 25.361H9.60012C9.60012 25.5761 9.59402 25.7834 9.60153 25.9904C9.61374 26.3315 9.57852 26.6578 9.32469 26.9432H9.32445ZM15.2347 22.4895C15.1985 22.4895 15.1683 22.4895 15.138 22.4895C14.5979 22.4907 14.0578 22.486 13.518 22.4948C12.8915 22.505 12.4242 22.7937 12.172 23.3521C11.844 24.0782 11.8419 24.8271 12.1673 25.5569C12.3991 26.0765 12.8232 26.3922 13.4039 26.4116C14.2795 26.4407 15.1565 26.4257 16.0328 26.4248C16.0688 26.4248 16.1237 26.3853 16.1376 26.3513C16.2374 26.1054 16.3318 25.8573 16.421 25.6075C16.4464 25.5366 16.4825 25.5165 16.5565 25.5169C17.0691 25.5202 17.5817 25.5199 18.0945 25.5169C18.1642 25.5165 18.1978 25.5384 18.2227 25.6021C18.3204 25.853 18.4251 26.1012 18.5235 26.3516C18.5444 26.4049 18.5686 26.4296 18.6315 26.4292C19.2535 26.4241 19.8758 26.4128 20.4976 26.422C21.0776 26.4308 21.7823 25.9564 21.7862 25.1333C21.7905 24.2636 21.7891 23.3939 21.7895 22.5241C21.7895 22.514 21.7823 22.5038 21.779 22.4955H20.8789C20.8789 22.8703 20.8794 23.2389 20.8789 23.6073C20.8782 24.0807 20.8841 24.5541 20.8728 25.0273C20.8634 25.4158 20.564 25.6957 20.171 25.7024C19.8737 25.7075 19.5764 25.7056 19.2791 25.7112C19.2103 25.7125 19.1751 25.692 19.1483 25.6276C19.0387 25.3647 18.9227 25.1045 18.809 24.843C18.4822 24.0913 18.1546 23.3398 17.8299 22.5872C17.8024 22.5237 17.7759 22.4888 17.697 22.4907C17.4544 22.4962 17.2116 22.49 16.9693 22.4957C16.9343 22.4967 16.8843 22.5304 16.869 22.562C16.8051 22.6934 16.7523 22.8299 16.695 22.9645C16.3186 23.8458 15.9427 24.7271 15.563 25.607C15.5458 25.6465 15.4935 25.6985 15.4571 25.6989C14.8466 25.7033 14.236 25.707 13.6258 25.6968C13.3024 25.6915 13.0674 25.4892 12.9864 25.1821C12.8579 24.6952 12.8626 24.2082 12.9887 23.7218C13.0587 23.4518 13.2761 23.2438 13.5574 23.2297C13.9907 23.208 14.4253 23.2142 14.8592 23.2091C14.9832 23.2077 15.1072 23.2091 15.2354 23.2091V22.4893L15.2347 22.4895ZM36.8378 25.0031C37.1372 25.0031 37.4223 25.0054 37.7068 25.0015C37.7787 25.0005 37.8177 25.0229 37.8529 25.0853C38.0898 25.5049 38.3333 25.9211 38.5689 26.3414C38.6071 26.4098 38.6489 26.4305 38.7243 26.4294C39.178 26.4234 39.6314 26.4206 40.085 26.4211C40.1513 26.4211 40.1804 26.4005 40.2022 26.3402C40.2889 26.1017 40.3847 25.8666 40.469 25.6273C40.4976 25.5463 40.5345 25.5155 40.6251 25.5165C41.1297 25.5213 41.6343 25.5209 42.139 25.5165C42.2183 25.5158 42.2566 25.5382 42.2843 25.6112C42.3775 25.8553 42.4792 26.0964 42.5745 26.3398C42.5971 26.3975 42.6257 26.4248 42.6936 26.4208C42.8028 26.4144 42.9127 26.4192 43.0221 26.4192C43.1916 26.4192 43.3612 26.4192 43.53 26.4192C43.53 26.3952 43.5323 26.3867 43.5298 26.3804C42.9777 25.1061 42.4259 23.8317 41.8699 22.559C41.8555 22.5262 41.798 22.4934 41.7595 22.4925C41.5249 22.4863 41.2901 22.4937 41.0555 22.4872C40.975 22.4849 40.9409 22.5117 40.9109 22.5826C40.4558 23.6555 39.9977 24.7273 39.54 25.7994C39.4945 25.9061 39.4468 26.0118 39.393 26.1335C39.1507 25.7282 38.9197 25.3416 38.6879 24.9539C39.3862 24.6601 39.5901 23.9521 39.4489 23.4073C39.3151 22.89 38.8478 22.4694 38.2591 22.4849C37.5242 22.504 36.7883 22.4895 36.0528 22.4895H35.9288V26.4107H36.8371V25.0031H36.8378ZM34.6388 22.4923C34.6388 22.5491 34.6388 22.5946 34.6388 22.6401C34.6376 23.4366 34.6409 24.2333 34.6329 25.0299C34.6294 25.3807 34.4321 25.6202 34.0802 25.6714C33.8524 25.7047 33.6117 25.7021 33.3837 25.6696C33.101 25.6292 32.9157 25.4495 32.8589 25.1647C32.8432 25.0862 32.8406 25.0042 32.8403 24.9236C32.8389 24.1539 32.8396 23.3842 32.8396 22.6144V22.4974H31.9307C31.9307 22.6708 31.9307 22.8361 31.9307 23.0015C31.9318 23.7366 31.9227 24.4719 31.9377 25.2065C31.9492 25.7684 32.2556 26.1555 32.8009 26.3282C33.3339 26.4971 33.8792 26.498 34.4235 26.3943C35.1847 26.2493 35.5468 25.8142 35.5499 25.0504C35.5531 24.2269 35.5508 23.4031 35.5503 22.5796C35.5503 22.5505 35.5454 22.5214 35.5428 22.4923H34.6388ZM26.8451 26.4128H27.7592V25.0029C28.2683 25.0029 28.7649 25.0035 29.2615 25.0024C29.4489 25.0019 29.6246 24.9553 29.7868 24.8624C30.2783 24.5809 30.5145 23.9715 30.368 23.4015C30.2445 22.9204 29.7896 22.4648 29.1629 22.484C28.4324 22.5064 27.7005 22.4893 26.9693 22.4893H26.8453V26.4128H26.8451ZM25.7565 26.4192C25.7565 26.3941 25.7588 26.3855 25.7562 26.379C25.204 25.1054 24.6519 23.8315 24.0959 22.5595C24.0816 22.5267 24.024 22.4934 23.9857 22.4925C23.7552 22.4863 23.5241 22.4948 23.2938 22.4867C23.2038 22.4837 23.1655 22.5142 23.1322 22.5923C22.6586 23.707 22.1817 24.8204 21.7057 25.9345C21.6383 26.092 21.5723 26.2502 21.5009 26.4195C21.7799 26.4195 22.0417 26.4171 22.3033 26.4211C22.373 26.4222 22.4052 26.401 22.4287 26.3354C22.5163 26.0931 22.6144 25.8548 22.7006 25.6121C22.7274 25.5368 22.7645 25.516 22.8431 25.5167C23.3515 25.5204 23.8599 25.5211 24.3683 25.5162C24.4514 25.5155 24.4838 25.546 24.5106 25.6155C24.6049 25.8592 24.7026 26.1017 24.8041 26.3426C24.8172 26.374 24.8576 26.4155 24.8863 26.416C25.1751 26.4215 25.4641 26.4192 25.7562 26.4192H25.7565ZM7.06014 21.8004C7.66127 21.8036 8.14944 21.3276 8.15179 20.7359C8.15414 20.136 7.6716 19.6547 7.06531 19.6528C6.46841 19.651 5.97836 20.1274 5.96896 20.7189C5.95957 21.3066 6.45432 21.7971 7.06014 21.8004ZM31.5514 26.4213V22.4976H30.6488V26.4213H31.5514ZM3.62083 27.491H10.5081V27.1331H3.62083V27.491Z" fill="#FEFEFE"/>
    <path d="M9.32446 26.9432C9.57829 26.6578 9.61351 26.3315 9.6013 25.9903C9.59402 25.7834 9.59989 25.576 9.59989 25.361H4.54248C4.54248 25.7134 4.51946 26.0677 4.55187 26.4169C4.56877 26.5975 4.68383 26.7693 4.75592 26.9483C4.48189 26.964 4.20364 26.8991 3.95074 26.7423C3.49615 26.4603 3.25922 26.0499 3.25311 25.5229C3.24513 24.8112 3.24842 24.0992 3.2517 23.3874C3.25546 22.5756 3.89627 21.9546 4.72399 21.9546C6.28503 21.9546 7.84607 21.9546 9.40711 21.9546C10.2327 21.9546 10.8714 22.5828 10.8716 23.3941C10.8716 24.1137 10.8745 24.8333 10.8709 25.5527C10.8669 26.3476 10.1498 27.0019 9.32422 26.9432H9.32446ZM4.51054 24.2726H9.59989C9.59989 24.1604 9.60013 24.0537 9.59989 23.947C9.59754 23.332 9.13214 22.8601 8.50801 22.8567C7.54199 22.8511 6.57596 22.8518 5.60994 22.8567C5.1126 22.859 4.69252 23.1689 4.57371 23.6368C4.52275 23.8377 4.53027 24.053 4.51031 24.2726H4.51054Z" fill="#01559F"/>
    <path d="M15.2347 22.4895V23.2094C15.1065 23.2094 14.9825 23.2082 14.8585 23.2094C14.4246 23.2142 13.99 23.208 13.5567 23.2299C13.2757 23.244 13.0582 23.4523 12.988 23.722C12.8619 24.2084 12.8572 24.6952 12.9857 25.1823C13.0667 25.4895 13.3017 25.6915 13.6251 25.6971C14.2353 25.7072 14.8459 25.7038 15.4564 25.6991C15.4928 25.6989 15.5451 25.647 15.5623 25.6072C15.942 24.7273 16.3179 23.8461 16.6943 22.9648C16.7518 22.8304 16.8047 22.6939 16.8683 22.5622C16.8836 22.5306 16.9338 22.4969 16.9686 22.496C17.2111 22.4902 17.4539 22.4964 17.6963 22.4909C17.7752 22.489 17.8017 22.5239 17.8292 22.5874C18.1539 23.3401 18.4815 24.0916 18.8083 24.8433C18.922 25.1045 19.038 25.3647 19.1476 25.6278C19.1744 25.6922 19.2096 25.7128 19.2784 25.7114C19.5757 25.7058 19.873 25.7077 20.1703 25.7026C20.5633 25.6957 20.8627 25.4158 20.8721 25.0276C20.8834 24.5544 20.8775 24.0809 20.8782 23.6075C20.8789 23.2389 20.8782 22.8703 20.8782 22.4957H21.7783C21.7816 22.5041 21.7888 22.5142 21.7888 22.5244C21.7884 23.3941 21.79 24.2638 21.7855 25.1336C21.7816 25.9566 21.0769 26.431 20.4969 26.4222C19.8751 26.4128 19.2528 26.4241 18.6308 26.4294C18.5679 26.4299 18.5437 26.4051 18.5228 26.3518C18.4244 26.1012 18.3197 25.8532 18.222 25.6024C18.1971 25.5386 18.1635 25.5167 18.0938 25.5172C17.5812 25.5202 17.0686 25.5202 16.5558 25.5172C16.4818 25.5167 16.4456 25.5368 16.4203 25.6077C16.3311 25.8576 16.2367 26.1056 16.1369 26.3516C16.1232 26.3855 16.0681 26.425 16.0321 26.425C15.1558 26.4259 14.2785 26.4409 13.4032 26.4118C12.8225 26.3924 12.3984 26.077 12.1666 25.5571C11.8412 24.8273 11.8433 24.0784 12.1713 23.3523C12.4235 22.7939 12.8908 22.5052 13.5173 22.495C14.0571 22.4863 14.5972 22.4909 15.1373 22.4897C15.1676 22.4897 15.1978 22.4897 15.234 22.4897L15.2347 22.4895ZM16.7333 24.7948H17.9114C17.7129 24.298 17.518 23.8107 17.314 23.2999C17.1158 23.8098 16.9261 24.2987 16.7333 24.7948Z" fill="#01559F"/>
    <path d="M36.8378 25.0031V26.4107H35.9296V22.4895H36.0535C36.789 22.4895 37.5249 22.504 38.2598 22.4849C38.8485 22.4694 39.3158 22.89 39.4496 23.4073C39.5908 23.9521 39.3867 24.6601 38.6886 24.9539C38.9204 25.3416 39.1514 25.7282 39.3938 26.1335C39.4473 26.0118 39.4952 25.9061 39.5408 25.7994C39.9984 24.7273 40.4565 23.6558 40.9116 22.5826C40.9416 22.5117 40.9757 22.4849 41.0562 22.4872C41.2908 22.4937 41.5256 22.4865 41.7602 22.4925C41.7985 22.4934 41.8562 22.5265 41.8706 22.559C42.4264 23.8317 42.9784 25.1061 43.5305 26.3804C43.5333 26.3867 43.5307 26.3952 43.5307 26.4192C43.3619 26.4192 43.1923 26.4192 43.0228 26.4192C42.9134 26.4192 42.8035 26.4146 42.6943 26.4208C42.6267 26.4248 42.5978 26.3975 42.5752 26.3398C42.4801 26.0964 42.3782 25.8553 42.285 25.6112C42.2571 25.5382 42.219 25.5158 42.1397 25.5165C41.6351 25.5206 41.1304 25.5211 40.6258 25.5165C40.5352 25.5155 40.4983 25.5463 40.4697 25.6273C40.3854 25.8666 40.2893 26.1017 40.2029 26.3402C40.1811 26.4005 40.152 26.4213 40.0858 26.4211C39.6321 26.4206 39.1784 26.4236 38.725 26.4294C38.6494 26.4303 38.6078 26.4098 38.5696 26.3414C38.334 25.9211 38.0905 25.5049 37.8536 25.0853C37.8184 25.0229 37.7794 25.0003 37.7076 25.0015C37.4227 25.0054 37.1379 25.0031 36.8385 25.0031H36.8378ZM36.843 24.2682C37.2469 24.2682 37.6378 24.2825 38.0269 24.2636C38.3298 24.2488 38.5527 23.9999 38.5433 23.7357C38.5334 23.4585 38.3016 23.238 37.9914 23.2301C37.6319 23.2209 37.272 23.2257 36.9122 23.2248C36.8902 23.2248 36.8679 23.229 36.8427 23.2315V24.268L36.843 24.2682ZM40.7902 24.7934H41.9664C41.7691 24.2994 41.5754 23.8142 41.3704 23.3001C41.1689 23.819 40.9804 24.304 40.7904 24.7934H40.7902Z" fill="#01559F"/>
    <path d="M34.6388 22.4923H35.5428C35.5454 22.5214 35.5503 22.5505 35.5503 22.5796C35.5508 23.4031 35.5534 24.2269 35.5499 25.0504C35.5468 25.8144 35.1845 26.2493 34.4235 26.3943C33.8789 26.4982 33.3337 26.4971 32.8009 26.3282C32.2557 26.1555 31.9495 25.7687 31.9377 25.2066C31.9225 24.4717 31.9318 23.7366 31.9307 23.0015C31.9304 22.8362 31.9307 22.6708 31.9307 22.4974H32.8396V22.6144C32.8396 23.3842 32.8392 24.1539 32.8403 24.9236C32.8403 25.004 32.8432 25.086 32.8589 25.1648C32.9157 25.4497 33.101 25.6292 33.3837 25.6696C33.6117 25.7022 33.8526 25.7047 34.0802 25.6714C34.4321 25.6202 34.6294 25.3807 34.6329 25.0299C34.6409 24.2334 34.6376 23.4366 34.6388 22.6401C34.6388 22.5946 34.6388 22.5491 34.6388 22.4923Z" fill="#01549F"/>
    <path d="M26.8451 26.4128V22.4893H26.9691C27.7003 22.4893 28.4322 22.5064 29.1627 22.484C29.7896 22.4648 30.2442 22.9204 30.3677 23.4015C30.5143 23.9715 30.2783 24.5809 29.7866 24.8624C29.6243 24.9553 29.4487 25.0019 29.2613 25.0024C28.7647 25.0035 28.2683 25.0028 27.759 25.0028V26.4128H26.8448H26.8451ZM27.7637 23.2287V24.2682C28.1664 24.2682 28.5611 24.2823 28.9544 24.2636C29.2465 24.2497 29.4708 23.9982 29.4654 23.741C29.4597 23.471 29.2296 23.2401 28.9293 23.2315C28.543 23.2204 28.1563 23.2287 27.7637 23.2287Z" fill="#01549F"/>
    <path d="M25.7565 26.4192C25.4644 26.4192 25.1753 26.4213 24.8865 26.416C24.8581 26.4155 24.8175 26.374 24.8043 26.3426C24.7031 26.1017 24.6052 25.8592 24.5108 25.6156C24.484 25.5463 24.4516 25.5156 24.3685 25.5163C23.8601 25.5211 23.3518 25.5206 22.8434 25.5167C22.7647 25.516 22.7276 25.5368 22.7009 25.6121C22.6147 25.8546 22.5165 26.0931 22.4289 26.3354C22.4052 26.4008 22.3731 26.422 22.3035 26.4211C22.042 26.4172 21.7801 26.4195 21.5012 26.4195C21.5728 26.25 21.6388 26.092 21.7059 25.9345C22.1819 24.8207 22.6588 23.7073 23.1324 22.5923C23.1656 22.5142 23.2041 22.4837 23.294 22.4867C23.5243 22.4946 23.7554 22.4863 23.986 22.4925C24.0243 22.4934 24.0818 22.5267 24.0961 22.5595C24.6522 23.8315 25.2042 25.1054 25.7565 26.3791C25.7593 26.3853 25.7567 26.3938 25.7567 26.4192H25.7565ZM24.1929 24.7966C23.9935 24.298 23.7998 23.813 23.5948 23.2999C23.394 23.8186 23.2066 24.3029 23.0155 24.7966H24.1929Z" fill="#01549F"/>
    <path d="M7.06014 21.8004C6.45455 21.7971 5.95957 21.3066 5.96896 20.7189C5.97859 20.1274 6.46864 19.6508 7.0653 19.6528C7.67136 19.6547 8.15413 20.1362 8.15179 20.736C8.14944 21.3276 7.66126 21.8036 7.06014 21.8004Z" fill="#01549F"/>
    <path d="M31.5514 26.4213H30.6488V22.4976H31.5514V26.4213Z" fill="#00549E"/>
    <path d="M3.62083 27.491V27.1331H10.5082V27.491H3.62083Z" fill="#0456A0"/>
    <path d="M4.51053 24.2726C4.53049 24.053 4.52297 23.8377 4.57393 23.6368C4.69251 23.1689 5.11283 22.859 5.61016 22.8567C6.57618 22.8521 7.54221 22.8512 8.50823 22.8567C9.13237 22.8604 9.59777 23.332 9.60012 23.947C9.60059 24.0537 9.60012 24.1604 9.60012 24.2726H4.51076H4.51053Z" fill="#FEFEFE"/>
    <path d="M16.7333 24.7948C16.9258 24.2987 17.1158 23.8098 17.314 23.2999C17.518 23.8107 17.7129 24.298 17.9114 24.7948H16.7333Z" fill="#FCFCFD"/>
    <path d="M36.843 24.2682V23.2317C36.8681 23.2292 36.8902 23.225 36.9125 23.225C37.2722 23.2257 37.6322 23.2211 37.9917 23.2304C38.3016 23.2382 38.5336 23.4588 38.5435 23.7359C38.5529 24.0001 38.3303 24.249 38.0271 24.2638C37.6378 24.2828 37.2471 24.2684 36.8432 24.2684L36.843 24.2682Z" fill="#FDFDFD"/>
    <path d="M40.7902 24.7934C40.9801 24.304 41.1687 23.819 41.3702 23.3001C41.5754 23.8142 41.7689 24.2994 41.9661 24.7934H40.7899H40.7902Z" fill="#FCFCFD"/>
    <path d="M27.7637 23.2288C28.1563 23.2288 28.543 23.2204 28.9293 23.2315C29.2296 23.2401 29.4597 23.471 29.4654 23.741C29.4708 23.9985 29.2465 24.2498 28.9544 24.2636C28.5613 24.2823 28.1666 24.2682 27.7637 24.2682V23.2288Z" fill="#FCFDFD"/>
    <path d="M24.1929 24.7966H23.0155C23.2066 24.3029 23.394 23.8186 23.5948 23.2999C23.7998 23.813 23.9937 24.298 24.1929 24.7966Z" fill="#FCFCFD"/>
    </svg>
    