<svg width="46" height="46" viewBox="0 0 46 46" fill="none" xmlns="http://www.w3.org/2000/svg">
    <g clip-path="url(#clip0_32_21238)">
    <path fill-rule="evenodd" clip-rule="evenodd" d="M18.8776 19.9392H21.9126C22.1681 19.9392 22.3779 20.1408 22.3779 20.3885V21.259H21.5618V20.8931C21.5618 20.7408 21.4332 20.6165 21.2754 20.6165H19.5007C19.3429 20.6165 19.2143 20.7408 19.2143 20.8931V22.6896C19.2143 22.8419 19.3429 22.9661 19.5007 22.9661H21.2754C21.4332 22.9661 21.5618 22.8419 21.5618 22.6896V22.2956H22.3779V23.1593C22.3779 23.4061 22.1681 23.6086 21.9126 23.6086H18.8776C18.6221 23.6086 18.4123 23.407 18.4123 23.1593V20.3876C18.4123 20.1408 18.6221 19.9383 18.8776 19.9383V19.9392Z" fill="#ED1C24"/>
    <path fill-rule="evenodd" clip-rule="evenodd" d="M23.5155 19.9391H26.4923C26.7479 19.9391 26.9576 20.1408 26.9576 20.3885V23.6095H26.1416V22.0581H23.9623V23.6095H23.0502V20.3885C23.0502 20.1417 23.2591 19.9391 23.5155 19.9391ZM26.1416 21.5254V20.8625C26.1416 20.7459 26.0429 20.6506 25.9221 20.6506H24.1817C24.061 20.6506 23.9623 20.7459 23.9623 20.8625V21.5254H26.1416Z" fill="#ED1C24"/>
    <path fill-rule="evenodd" clip-rule="evenodd" d="M28.3385 22.2887V22.7925C28.3385 22.8878 28.4195 22.9661 28.5182 22.9661H30.4314C30.5301 22.9661 30.6111 22.8878 30.6111 22.7925V19.9391H31.4166V23.1602C31.4166 23.4069 31.2077 23.6095 30.9513 23.6095H28.0124C27.7569 23.6095 27.5471 23.4078 27.5471 23.1602V22.2887H28.3376H28.3385Z" fill="#ED1C24"/>
    <path fill-rule="evenodd" clip-rule="evenodd" d="M32.504 19.9391H35.4808C35.7364 19.9391 35.9461 20.1408 35.9461 20.3885V23.6095H35.1301V22.0581H32.9508V23.6095H32.0387V20.3885C32.0387 20.1417 32.2485 19.9391 32.504 19.9391ZM35.131 21.5254V20.8625C35.131 20.7459 35.0323 20.6506 34.9115 20.6506H33.1711C33.0504 20.6506 32.9517 20.7459 32.9517 20.8625V21.5254H35.131Z" fill="#ED1C24"/>
    <path fill-rule="evenodd" clip-rule="evenodd" d="M30.0745 24.5005H33.8805C34.2013 24.5005 34.4639 24.7541 34.4639 25.0638V26.1556H33.4408V25.6961C33.4408 25.5055 33.2795 25.3498 33.0821 25.3498H30.8561C30.6587 25.3498 30.4975 25.5055 30.4975 25.6961V27.9495C30.4975 28.1402 30.6587 28.2959 30.8561 28.2959H33.0821C33.2795 28.2959 33.4408 28.1402 33.4408 27.9495V27.4551H34.4639V28.5393C34.4639 28.849 34.2013 29.1026 33.8805 29.1026H30.0745C29.7537 29.1026 29.4911 28.849 29.4911 28.5393V25.063C29.4911 24.7532 29.7537 24.4996 30.0745 24.4996V24.5005Z" fill="#ED1C24"/>
    <path fill-rule="evenodd" clip-rule="evenodd" d="M41.5216 24.4622H45.4246C45.7418 24.4622 46.0009 24.7124 46.0009 25.0187V29.1171H44.9135V27.1471H42.0759V29.1171H40.9471V25.0187C40.9471 24.7124 41.2061 24.4622 41.5234 24.4622H41.5216ZM44.9126 26.2271V25.5651C44.9126 25.4442 44.8103 25.3464 44.6861 25.3464H42.3015C42.1764 25.3464 42.075 25.4451 42.075 25.5651V26.2271H44.9126Z" fill="#ED1C24"/>
    <path fill-rule="evenodd" clip-rule="evenodd" d="M35.1107 24.5005H39.7495C39.9971 24.5005 40.1989 24.6962 40.1989 24.9345V29.1018H39.1397V25.6221C39.1397 25.468 39.0092 25.3421 38.8497 25.3421H36.6238C36.4643 25.3421 36.3338 25.468 36.3338 25.6221V29.1018H35.1107V24.4996V24.5005Z" fill="#ED1C24"/>
    <path fill-rule="evenodd" clip-rule="evenodd" d="M24.091 24.4622H27.9939C28.3112 24.4622 28.5702 24.7124 28.5702 25.0187V29.1171H27.4828V27.1471H24.6453V29.1171H23.5164V25.0187C23.5164 24.7124 23.7755 24.4622 24.0927 24.4622H24.091ZM27.4819 26.2271V25.5651C27.4819 25.4442 27.3797 25.3464 27.2554 25.3464H24.8708C24.7457 25.3464 24.6444 25.4451 24.6444 25.5651V26.2271H27.4819Z" fill="#ED1C24"/>
    <path fill-rule="evenodd" clip-rule="evenodd" d="M18.4273 24.5166H23.0079V25.3353H21.4297C21.3512 25.3353 21.2869 25.3974 21.2869 25.4731V29.1018H20.1131V25.4731C20.1131 25.3974 20.0488 25.3353 19.9703 25.3353H18.4282V24.5166H18.4273Z" fill="#ED1C24"/>
    <path fill-rule="evenodd" clip-rule="evenodd" d="M8.76467 15C7.53888 15 6.54486 15.9599 6.54486 17.1436C6.54486 18.3274 7.53888 19.2873 8.76467 19.2873C9.99045 19.2873 10.9845 18.3274 10.9845 17.1436C10.9845 15.9599 9.99045 15 8.76467 15Z" fill="#ED1C24"/>
    <path fill-rule="evenodd" clip-rule="evenodd" d="M15.0593 19.9204H2.15107C0.96318 19.9204 0 20.7459 0 21.7645V27.296C0 28.3146 0.96318 29.1401 2.15107 29.1401H5.02828C3.8254 29.1401 2.84988 28.3044 2.84988 27.273V26.6509H14.3596V27.273C14.3596 28.3044 13.3841 29.1401 12.1812 29.1401H15.0584C16.2463 29.1401 17.2095 28.3146 17.2095 27.296V21.7645C17.2095 20.7459 16.2463 19.9204 15.0584 19.9204H15.0593ZM2.85077 24.2537V23.0087C2.85077 22.6266 3.21207 22.3168 3.65709 22.3168H13.5533C13.9992 22.3168 14.3596 22.6266 14.3596 23.0087V24.2537H2.85077Z" fill="#ED1C24"/>
    <path fill-rule="evenodd" clip-rule="evenodd" d="M1.08919 29.9077H17.131L16.8702 30.34C16.7265 30.5774 16.4075 30.7723 16.1617 30.7723H0.119843L0.380685 30.34C0.524325 30.1025 0.843329 29.9077 1.08919 29.9077Z" fill="#ED1C24"/>
    </g>
    <defs>
    <clipPath id="clip0_32_21238">
    <rect width="46" height="46" fill="white"/>
    </clipPath>
    </defs>
    </svg>
    