<svg width="46" height="46" viewBox="0 0 46 46" fill="none" xmlns="http://www.w3.org/2000/svg">
<g clip-path="url(#clip0_32_21248)">
<path d="M0.952786 21.0724C0.510478 21.0724 0.215607 21.5054 0.215607 21.9385V23.9592C0.215607 24.3922 0.510478 24.6808 0.952786 24.6808H3.01689C3.4592 24.6808 3.9015 24.9695 3.9015 25.4025V27.4232C3.9015 27.8562 4.19638 28.2892 4.63868 28.2892H6.70279C7.14509 28.2892 7.43997 28.5779 7.43997 29.0109V31.0316C7.43997 31.4646 7.88227 31.7533 8.32458 31.7533H10.3887C10.831 31.7533 11.1259 31.4646 11.1259 31.0316V29.0109C11.1259 28.5779 11.5682 28.2892 12.0105 28.2892H13.9271C14.3695 28.2892 14.8118 27.8562 14.8118 27.4232V25.5468C14.8118 25.1138 15.2541 24.6808 15.6964 24.6808H17.613C18.0553 24.6808 18.3502 24.3922 18.3502 23.9592V21.9385C18.3502 21.5054 18.0553 21.0724 17.613 21.0724H15.5489C15.1066 21.0724 14.8118 20.7838 14.8118 20.3508V18.3301C14.8118 17.8971 14.3695 17.6084 13.9271 17.6084H12.0105C11.5682 17.6084 11.1259 17.1754 11.1259 16.598V14.7217C11.1259 14.2887 10.831 14 10.3887 14H8.32458C7.88227 14 7.43997 14.2887 7.43997 14.7217V16.7424C7.43997 17.1754 7.14509 17.6084 6.70279 17.6084H4.63868C4.19638 17.6084 3.9015 17.8971 3.9015 18.3301V20.3508C3.9015 20.7838 3.4592 21.0724 3.01689 21.0724H0.952786ZM12.0105 24.6808C11.5682 24.6808 11.1259 24.2478 11.1259 23.8148V21.9385C11.1259 21.5054 11.4207 21.0724 11.863 21.0724H13.7797C14.3695 21.0724 14.8118 21.5054 14.8118 22.0828V23.9592C14.8118 24.3922 14.3695 24.6808 13.9271 24.6808H12.0105ZM4.63868 24.6808C4.19638 24.6808 3.9015 24.3922 3.9015 23.9592V21.9385C3.9015 21.5054 4.19638 21.0724 4.63868 21.0724H6.70279C7.14509 21.0724 7.43997 20.7838 7.43997 20.3508V18.4744C7.43997 17.8971 7.88227 17.6084 8.47202 17.6084H10.3887C10.831 17.6084 11.1259 17.8971 11.1259 18.3301V20.3508C11.1259 20.7838 10.831 21.0724 10.3887 21.0724H8.32458C7.88227 21.0724 7.43997 21.5054 7.43997 21.9385V23.9592C7.43997 24.3922 7.88227 24.6808 8.32458 24.6808H10.3887C10.831 24.6808 11.1259 24.9695 11.1259 25.4025V27.2789C11.1259 27.8562 10.6836 28.2892 10.2412 28.2892H8.32458C7.88227 28.2892 7.43997 27.8562 7.43997 27.4232V25.4025C7.43997 24.9695 7.14509 24.6808 6.70279 24.6808H4.63868Z" fill="#EE000A"/>
<path d="M26.7541 22.5158C24.69 22.5158 23.8054 21.6498 23.8054 19.4848C23.8054 17.4641 24.69 16.5981 26.7541 16.5981C27.3438 16.5981 28.081 16.5981 28.5233 16.8867V17.4641C27.9336 17.3197 27.1964 17.1754 26.7541 17.1754C25.2797 17.1754 24.69 17.7527 24.69 19.4848C24.69 21.2168 25.2797 21.9385 26.7541 21.9385C27.3438 21.9385 27.9336 21.7941 28.6707 21.5055V22.2271C28.081 22.3715 27.3438 22.5158 26.7541 22.5158Z" fill="black"/>
<path d="M33.6835 22.8045L32.7989 23.0931V23.5261L34.2733 23.2375V18.4744H33.6835V22.8045Z" fill="black"/>
<path d="M30.7348 22.5158C31.7669 22.5158 32.2092 21.9385 32.3566 21.6498V22.3715H32.7989V19.9178C32.7989 18.9074 32.5041 18.3301 30.8823 18.3301C30.44 18.3301 29.8502 18.3301 29.5553 18.4744H29.4079V19.0518H29.5553C29.7028 19.0518 30.2925 18.9074 30.8823 18.9074C32.0618 18.9074 32.2092 19.1961 32.2092 19.9178V20.0621C31.9143 19.9178 31.472 19.9178 31.0297 19.9178C29.7028 19.9178 29.113 20.3508 29.113 21.2168C29.113 22.0828 29.5553 22.5158 30.7348 22.5158ZM29.7028 21.2168C29.7028 20.7838 29.8502 20.4951 31.0297 20.4951C31.472 20.4951 31.9143 20.4951 32.2092 20.4951C32.2092 21.2168 31.9143 21.9385 30.7348 21.9385C29.8502 21.9385 29.7028 21.6498 29.7028 21.2168Z" fill="black"/>
<path d="M38.2541 22.3715H38.6964V19.9178C38.6964 18.9074 38.4015 18.3301 36.7797 18.3301C36.3374 18.3301 35.7477 18.3301 35.3053 18.4744V19.0518C35.4528 19.0518 36.19 18.9074 36.7797 18.9074C37.8118 18.9074 37.9592 19.1961 37.9592 19.9178V20.0621C37.6643 19.9178 37.222 19.9178 36.7797 19.9178C35.6002 19.9178 34.863 20.3508 34.863 21.2168C34.863 22.0828 35.4528 22.5158 36.6323 22.5158C37.5169 22.5158 37.9592 21.9385 38.2541 21.6498V22.3715ZM38.1066 20.4951C37.9592 21.2168 37.8118 21.9385 36.6323 21.9385C35.7477 21.9385 35.6002 21.6498 35.6002 21.2168C35.6002 20.7838 35.7477 20.4951 36.9271 20.4951C37.3694 20.4951 37.8118 20.4951 38.1066 20.4951Z" fill="black"/>
<path d="M33.5361 17.1754H34.2733V18.0414H33.6836L33.5361 17.1754Z" fill="black"/>
<path d="M35.7477 26.5572C35.1579 26.4129 35.0105 26.4129 35.0105 26.2685C35.0105 26.1242 35.0105 25.9799 35.7477 25.9799C36.3374 25.9799 36.9271 26.1242 37.222 26.1242V25.1138C36.7797 25.1138 36.19 24.9695 35.7477 24.9695C34.4207 24.9695 33.831 25.4025 33.831 26.2685C33.831 27.2789 34.4207 27.4232 35.6002 27.5676C36.19 27.7119 36.3374 27.8562 36.3374 28.0006C36.3374 28.1449 36.3374 28.2892 35.6002 28.2892C35.0105 28.2892 34.2733 28.1449 33.9784 28.1449L33.831 28.0006V29.0109H33.9784C34.1259 29.1552 34.863 29.2996 35.6002 29.2996C36.9271 29.2996 37.5169 28.8666 37.5169 27.8562C37.5169 26.9902 36.9271 26.8459 35.7477 26.5572Z" fill="black"/>
<path d="M40.1707 28.2892C39.2861 28.2892 39.1387 28.0006 39.1387 27.1345C39.1387 26.1242 39.2861 25.9799 40.0233 25.9799C40.4656 25.9799 40.9079 25.9799 41.3502 26.1242V25.1138C41.0553 25.1138 40.613 24.9695 40.0233 24.9695C38.4015 24.9695 37.8118 25.5469 37.8118 27.1345C37.8118 28.7222 38.4015 29.2996 40.0233 29.2996C40.613 29.2996 41.2028 29.1552 41.4976 29.0109V28.0006L41.3502 28.1449C41.2028 28.1449 40.613 28.2892 40.1707 28.2892Z" fill="black"/>
<path d="M44.0041 24.9695C42.3823 24.9695 41.7925 25.5469 41.7925 27.1345C41.7925 28.5779 42.3823 29.2996 44.0041 29.2996C45.4784 29.2996 46.2156 28.5779 46.2156 27.1345C46.2156 25.5469 45.4784 24.9695 44.0041 24.9695ZM44.8887 27.1345C44.8887 28.0006 44.7412 28.2892 44.0041 28.2892C43.2669 28.2892 42.972 28.0006 42.972 27.1345C42.972 26.2685 43.2669 25.9799 44.0041 25.9799C44.7412 25.9799 44.8887 26.2685 44.8887 27.1345Z" fill="black"/>
<path d="M28.6707 27.8562C27.9336 28.1449 27.3438 28.2892 26.9015 28.2892C25.722 28.2892 25.1323 27.7119 25.1323 26.2685C25.1323 24.8252 25.5746 24.3922 26.9015 24.3922C27.3438 24.3922 27.9336 24.3922 28.5233 24.5365L28.6707 24.6808V23.5262C28.081 23.3818 27.3438 23.2375 26.9015 23.2375C24.8374 23.2375 23.8054 24.2478 23.8054 26.2685C23.8054 28.2892 24.69 29.2996 26.9015 29.2996C27.4913 29.2996 28.2284 29.1552 28.8182 29.0109V27.8562H28.6707Z" fill="black"/>
<path d="M32.0618 27.4232C32.0618 27.7119 31.9143 27.8562 31.7669 28.0005C31.6195 28.1449 31.472 28.2892 31.0297 28.2892C31.0297 28.2892 30.5874 28.2892 30.5874 27.5675V25.1138H29.2605V27.7119C29.2605 28.5779 29.8502 29.2996 30.8823 29.2996C31.6195 29.2996 32.2092 28.7222 32.3566 28.4335V29.1552H33.2413V25.1138H32.0618V27.4232Z" fill="black"/>
</g>
<defs>
<clipPath id="clip0_32_21248">
<rect width="46" height="46" fill="white"/>
</clipPath>
</defs>
</svg>
