<svg width="46" height="46" viewBox="0 0 46 46" fill="none" xmlns="http://www.w3.org/2000/svg">
    <path d="M31.3092 16.8895C31.7737 17.0194 32.1944 17.2165 32.5248 17.5638C32.859 17.9153 33.0452 18.3195 32.9702 18.792C32.9423 18.9663 32.8533 19.1519 32.7351 19.2896C32.1499 19.9741 31.4636 20.555 30.6572 21.0035C30.5321 21.073 30.4081 21.1449 30.2836 21.2161C29.9602 21.3467 29.6424 21.4928 29.3127 21.6054C28.4764 21.891 27.6122 22.0551 26.722 22.1066C25.9417 22.1515 25.1626 22.1491 24.3868 22.0677C23.8727 22.0138 23.3612 21.9281 22.8528 21.8365C22.5459 21.7808 22.2472 21.6862 21.9448 21.6096C22.1983 21.6377 22.4512 21.6796 22.7054 21.691C23.1877 21.7132 23.6662 21.6766 24.1389 21.5754C24.8938 21.4143 25.575 21.1083 26.1869 20.6634C26.2105 20.67 26.2384 20.6885 26.2556 20.6814C26.5161 20.5778 26.7824 20.4831 27.034 20.3628C27.4553 20.161 27.8842 19.9663 28.2801 19.7256C28.7617 19.4328 29.2212 19.104 29.6742 18.7717C29.8725 18.6261 30.0358 18.4369 30.2073 18.2614C30.4126 18.0512 30.6242 17.8446 30.8059 17.6171C30.9908 17.3865 31.1427 17.1326 31.3092 16.8889V16.8895Z" fill="#C01A2A"/>
    <path d="M19.5257 30.3646C19.316 30.755 19.1145 31.1293 18.9087 31.5126C18.8375 31.4682 18.7733 31.4233 18.7034 31.3856C18.326 31.182 17.9314 31.0694 17.4974 31.203C17.4306 31.2233 17.3658 31.2545 17.308 31.2922C17.0627 31.4503 17.0557 31.7713 17.3099 31.915C17.4859 32.0144 17.6842 32.0833 17.8786 32.1479C18.1697 32.2443 18.4766 32.3036 18.7593 32.4162C19.506 32.7138 19.8173 33.2061 19.7627 33.9672C19.7296 34.4223 19.6343 34.8601 19.2779 35.2038C18.9633 35.5074 18.5738 35.6913 18.1417 35.7823C17.0964 36.0021 16.1458 35.7697 15.2562 35.2182C15.4887 34.8122 15.7143 34.4181 15.9374 34.0289C16.1572 34.1564 16.3657 34.29 16.5855 34.4032C16.9147 34.5726 17.2686 34.6577 17.6397 34.5595C17.775 34.5235 17.9187 34.4517 18.0146 34.3565C18.2516 34.1217 18.1633 33.7672 17.8341 33.6205C17.6391 33.533 17.4256 33.4821 17.2203 33.4145C16.9197 33.3151 16.6141 33.227 16.3205 33.1115C15.8554 32.9288 15.5917 32.5857 15.5281 32.1186C15.4201 31.3245 15.6571 30.6401 16.3847 30.2011C16.7037 30.0083 17.0589 29.9184 17.4351 29.9011C18.1722 29.8669 18.861 30.0286 19.525 30.3646H19.5257Z" fill="#C01A24"/>
    <path d="M31.3092 16.8895C31.1427 17.1332 30.9908 17.3871 30.8059 17.6177C30.6242 17.8446 30.4126 18.0518 30.2074 18.262C30.0358 18.4381 29.8725 18.6267 29.6742 18.7723C29.2212 19.1046 28.7617 19.4328 28.2801 19.7262C27.8842 19.9669 27.4553 20.1622 27.034 20.3634C26.7824 20.4837 26.5167 20.5783 26.2556 20.6819C26.2384 20.6885 26.2098 20.6706 26.187 20.664C26.2607 20.6047 26.3369 20.5472 26.4081 20.4849C27.0283 19.9496 27.4959 19.3178 27.7724 18.5651C27.806 18.5357 27.8467 18.5112 27.8715 18.4764C28.1612 18.0626 28.4752 17.6614 28.7312 17.229C29.2046 16.429 29.5617 15.5804 29.7676 14.6822C29.8795 14.1923 29.9627 13.6971 30.0568 13.2036C30.0911 13.0222 30.1178 12.8395 30.1483 12.6575C30.7703 12.5042 31.3537 12.5695 31.8588 12.9653C32.1048 13.1581 32.2744 13.412 32.2744 13.7264C32.2744 14.4606 32.1035 15.1678 31.8233 15.8481C31.6765 16.2038 31.4827 16.5428 31.3105 16.8889L31.3092 16.8895Z" fill="#EBC200"/>
    <path d="M27.1509 24.0199C27.2202 24.3942 27.2094 24.7606 27.034 25.1128C26.7449 25.693 26.0993 26.0266 25.4244 25.8727C24.5774 25.6799 23.7583 25.4355 22.9958 25.0337C22.9678 25.0187 22.9259 25.0277 22.8903 25.0259C22.8147 24.9708 22.7416 24.9104 22.6622 24.8607C22.0496 24.4756 21.4682 24.0564 20.9967 23.5169C20.7641 23.251 20.5297 22.9857 20.3155 22.7072C19.8688 22.1264 19.5238 21.4898 19.2429 20.8263C19.0694 20.4167 18.9487 19.9873 18.8045 19.5669C18.8426 19.6106 18.8833 19.6525 18.9182 19.6987C19.2238 20.1071 19.5873 20.464 20.0188 20.7538C20.2609 20.9161 20.5201 21.0556 20.7711 21.2053C20.7978 21.2419 20.8188 21.2844 20.8531 21.3131C21.1085 21.5287 21.3589 21.7497 21.6245 21.9527C22.3426 22.5018 23.1159 22.9653 23.9623 23.324C24.9784 23.7546 26.0408 23.9786 27.1503 24.0205L27.1509 24.0199Z" fill="#C01C24"/>
    <path d="M14.4396 17.2901C13.8074 17.1218 13.3422 16.7787 13.1535 16.1649C13.0302 15.7643 13.1262 15.4044 13.414 15.0822C13.9872 14.4402 14.6385 13.8845 15.396 13.4414C15.4163 13.4294 15.4309 13.4096 15.4487 13.3935C15.4633 13.3905 15.4792 13.3893 15.4926 13.3833C15.9437 13.1797 16.3847 12.9527 16.8486 12.7779C17.3976 12.5707 17.9746 12.4377 18.5662 12.3832C18.9862 12.3449 19.4081 12.3174 19.83 12.303C20.0944 12.294 20.36 12.3341 20.6243 12.3251C21.2706 12.3036 21.8971 12.4251 22.5268 12.5287C22.251 12.5826 21.9734 12.6282 21.7001 12.6916C21.0888 12.833 20.5436 13.1102 20.0232 13.4354C19.9946 13.4354 19.9628 13.4258 19.9381 13.4354C19.4399 13.615 18.9334 13.7767 18.4473 13.9827C17.7287 14.2875 17.0583 14.6714 16.4394 15.1361C15.8992 15.5415 15.4112 15.993 14.9995 16.5146C14.8018 16.7655 14.6252 17.0308 14.439 17.2895L14.4396 17.2901Z" fill="#C01C24"/>
    <path d="M14.4397 17.2901C14.6258 17.0314 14.8025 16.7655 15.0001 16.5152C15.4112 15.993 15.8992 15.5421 16.44 15.1367C17.0589 14.672 17.7299 14.2875 18.448 13.9833C18.9335 13.7773 19.4405 13.6157 19.9387 13.436C19.9635 13.427 19.9953 13.436 20.0239 13.436C19.3605 13.9139 18.8311 14.4947 18.4778 15.2128C18.4391 15.2343 18.3902 15.2481 18.3635 15.2786C17.9587 15.7487 17.5349 16.2068 17.1593 16.6979C16.7062 17.2907 16.3631 17.9465 16.0975 18.6345C15.8923 19.1657 15.7467 19.7142 15.6915 20.2765C15.6521 20.6796 15.666 21.0868 15.6559 21.4922C15.6463 21.3736 15.6368 21.2556 15.6286 21.1509C15.3407 21.1509 15.0528 21.188 14.7796 21.1431C14.2363 21.0544 13.8226 20.7784 13.6028 20.2783C13.5113 20.0693 13.5278 19.8633 13.5678 19.6484C13.7229 18.8178 14.0152 18.0327 14.4397 17.2907V17.2901Z" fill="#ED7D16"/>
    <path d="M22.5542 9.25009C22.659 8.89258 22.8433 8.58418 23.1496 8.34105C23.6579 7.93683 24.4236 7.85779 24.9904 8.29015C25.6405 8.78599 26.2479 9.31177 26.734 9.95552C26.7576 9.98666 26.7773 10.0202 26.7982 10.0519C27.1617 10.5244 27.4267 11.0454 27.6472 11.5874C28.0125 12.4856 28.1587 13.4246 28.1835 14.3791C28.1943 14.7882 28.1593 15.199 28.1225 15.6074C28.0977 15.884 28.0341 16.1583 27.9878 16.4332C27.9757 16.3871 27.9604 16.3415 27.9515 16.2948C27.8041 15.5343 27.4667 14.857 26.9476 14.2588C26.9488 14.2229 26.9622 14.1821 26.9495 14.1516C26.8376 13.8923 26.7321 13.6294 26.6044 13.3767C26.1812 12.5389 25.6716 11.7544 25.0152 11.0556C24.5774 10.5897 24.0989 10.1705 23.5518 9.82438C23.2284 9.61957 22.8878 9.43992 22.5542 9.24889V9.25009Z" fill="#ED7D16"/>
    <path d="M15.6559 21.4916C15.6661 21.0862 15.6521 20.6789 15.6915 20.2759C15.7468 19.7136 15.8923 19.1651 16.0975 18.6339C16.3631 17.9464 16.7063 17.2907 17.1593 16.6973C17.5342 16.2062 17.9581 15.7487 18.3635 15.278C18.3902 15.2469 18.4391 15.2337 18.4779 15.2121C18.1919 15.8014 18.0248 16.4146 18.04 17.0673C18.0432 17.2003 18.0311 17.3338 18.0261 17.4668C17.8221 18.1393 17.7363 18.8291 17.6766 19.5232C17.6664 19.5388 17.648 19.5543 17.6473 19.5699C17.6454 19.8849 17.6454 20.1999 17.6473 20.5143C17.6473 20.5298 17.6664 20.5454 17.6766 20.561C17.6855 20.6778 17.6855 20.7957 17.7045 20.9113C17.7624 21.261 17.8126 21.6131 17.8939 21.9587C18.0578 22.6527 18.3285 23.3097 18.7238 23.9181C18.3285 24.2995 17.8329 24.4702 17.2858 24.4145C16.7387 24.3588 16.3034 24.1031 16.1344 23.566C15.9939 23.1198 15.8491 22.6743 15.7359 22.2222C15.6769 21.9862 15.6807 21.7359 15.6565 21.4916H15.6559Z" fill="#C01A2A"/>
    <path d="M22.5542 9.25009C22.8871 9.44112 23.2284 9.62137 23.5518 9.82557C24.0989 10.1717 24.5774 10.5909 25.0152 11.0568C25.6716 11.7556 26.1812 12.5401 26.6044 13.3779C26.7322 13.6306 26.8383 13.8929 26.9495 14.1528C26.9628 14.1833 26.9495 14.2241 26.9476 14.26C26.5485 13.7791 26.0535 13.4054 25.4899 13.1108C25.3069 13.015 25.1181 12.9306 24.9313 12.8407C24.8964 12.8114 24.8633 12.7802 24.8265 12.7533C24.5723 12.5683 24.3251 12.3748 24.0614 12.203C23.771 12.0137 23.4736 11.8317 23.1655 11.6712C22.7753 11.4682 22.382 11.2616 21.9683 11.1095C21.4866 10.9322 20.9846 10.7981 20.4839 10.6717C20.1668 10.5915 19.8377 10.5388 19.5104 10.5118C19.1438 10.4819 18.774 10.4945 18.4054 10.4891C18.3476 10.207 18.3031 9.92438 18.3724 9.63873C18.5077 9.08301 18.8381 8.68239 19.4469 8.55962C19.6706 8.51471 19.919 8.54166 20.1503 8.5734C20.4807 8.61891 20.8099 8.68478 21.1321 8.76922C21.4638 8.85665 21.7866 8.97462 22.1119 9.08301C22.2612 9.13331 22.4067 9.1938 22.5542 9.24949V9.25009Z" fill="#C01A2A"/>
    <path d="M27.1509 24.0199C26.0414 23.9786 24.979 23.754 23.9629 23.3234C23.1165 22.9647 22.3426 22.5012 21.6251 21.9521C21.3595 21.7485 21.1092 21.5275 20.8537 21.3125C20.8194 21.2838 20.7991 21.2407 20.7718 21.2047C21.1626 21.3401 21.5533 21.4748 21.9448 21.6102C22.2472 21.6874 22.5465 21.782 22.8528 21.8371C23.3612 21.9287 23.8727 22.0144 24.3868 22.0683C25.1626 22.1497 25.9417 22.1521 26.722 22.1072C27.6122 22.0557 28.4758 21.8916 29.3126 21.606C29.6431 21.4934 29.9608 21.3473 30.2836 21.2167C30.4882 21.5066 30.7062 21.7874 30.7691 22.1455C30.8962 22.8731 30.4952 23.5007 29.7981 23.6672C29.2135 23.8067 28.6315 23.9516 28.0284 23.9923C27.7368 24.0121 27.4438 24.0115 27.1515 24.0199H27.1509Z" fill="#ED7D16"/>
    <path d="M18.7238 23.9181C18.3285 23.3097 18.0578 22.6527 17.8939 21.9587C17.8125 21.6137 17.7623 21.2616 17.7045 20.9113C17.6855 20.7957 17.6855 20.6778 17.6766 20.561C17.6766 20.2149 17.6766 19.8693 17.6766 19.5232C17.7363 18.8291 17.8221 18.1387 18.026 17.4668C18.068 17.68 18.1042 17.895 18.1531 18.1069C18.2745 18.6309 18.5071 19.1118 18.8051 19.5663C18.9493 19.9867 19.0707 20.4161 19.2435 20.8257C19.5244 21.4892 19.8688 22.1258 20.3162 22.7066C20.5303 22.9851 20.7654 23.2504 20.9973 23.5163C21.4688 24.0558 22.0503 24.475 22.6628 24.8601C22.7422 24.9104 22.8153 24.9702 22.8909 25.0253C22.7054 25.5966 22.3051 25.9589 21.6963 26.1206C21.2134 26.2488 20.8112 26.1188 20.4363 25.8152C19.7582 25.2661 19.1806 24.6415 18.7238 23.9175V23.9181Z" fill="#EBC200"/>
    <path d="M18.4054 10.4897C18.7739 10.4957 19.1444 10.4825 19.5104 10.5125C19.8377 10.5394 20.1668 10.5921 20.4839 10.6723C20.9846 10.7987 21.486 10.9328 21.9683 11.1101C22.3819 11.2622 22.7753 11.4688 23.1654 11.6718C23.4743 11.8323 23.7716 12.0149 24.0614 12.2036C24.3251 12.3754 24.5723 12.5689 24.8265 12.7539C24.8633 12.7809 24.8964 12.812 24.9313 12.8413C24.8976 12.8366 24.8621 12.8366 24.8309 12.8252C24.3473 12.6557 23.8504 12.5437 23.3332 12.5305C23.065 12.524 22.7969 12.5293 22.5281 12.5293C21.8984 12.4263 21.2712 12.3048 20.625 12.3257C20.3606 12.3347 20.0944 12.2946 19.8307 12.3036C19.4087 12.318 18.9868 12.3455 18.5668 12.3838C17.9752 12.4383 17.3989 12.5713 16.8492 12.7785C16.386 12.9533 15.9443 13.1803 15.4932 13.3839C15.4798 13.3899 15.464 13.3911 15.4493 13.3941C15.1513 13.1462 14.981 12.8324 14.908 12.4677C14.8152 12.0048 14.9416 11.5964 15.307 11.2826C15.4671 11.1448 15.6876 11.058 15.8954 10.9825C16.4787 10.7712 17.0837 10.6268 17.7045 10.552C17.9371 10.5238 18.1722 10.5107 18.406 10.4909L18.4054 10.4897Z" fill="#EBC200"/>
    <path d="M43.6582 35.2864C43.0368 36.0607 41.6947 35.9583 41.0301 35.311C40.042 34.3493 40.1646 32.715 41.3027 31.9874C41.9299 31.5868 42.8894 31.5856 43.4384 31.9856C43.5051 32.0347 43.5661 32.091 43.6513 32.1611V31.8186H45.0943V35.705H43.6582V35.2858V35.2864ZM42.7763 32.8947C42.2368 32.8965 41.8479 33.2654 41.8498 33.7738C41.8517 34.2744 42.2368 34.6325 42.775 34.6355C43.3291 34.6385 43.704 34.2876 43.704 33.7672C43.704 33.2492 43.3246 32.8923 42.7756 32.8941L42.7763 32.8947Z" fill="#C01A24"/>
    <path d="M33.0706 35.7063V35.2691C32.873 35.5356 32.6296 35.6859 32.3386 35.7697C31.5875 35.9865 30.7799 35.7296 30.2544 35.1056C29.5039 34.2151 29.6361 32.8564 30.5447 32.1102C31.1992 31.5731 32.3049 31.5395 32.92 32.039C32.9651 32.0755 33.0064 32.1162 33.0649 32.1677V31.821H34.4965V35.7057H33.0712L33.0706 35.7063ZM32.1829 32.8941C31.6358 32.8977 31.2653 33.257 31.266 33.7786C31.2672 34.2744 31.6364 34.6247 32.0958 34.6385C32.8221 34.6595 33.0998 34.2684 33.1138 33.76C33.1278 33.251 32.73 32.8905 32.1829 32.8941Z" fill="#C01A24"/>
    <path d="M27.9871 16.4344C28.0335 16.1589 28.0971 15.8852 28.1219 15.6086C28.1587 15.2002 28.1937 14.7894 28.1829 14.3804C28.1581 13.4252 28.0126 12.4868 27.6465 11.5886C27.4261 11.0466 27.1604 10.5256 26.7976 10.0531C27.0575 9.83696 27.3288 9.63935 27.6739 9.55551C28.1943 9.42915 28.6849 9.47227 29.1049 9.81301C29.2205 9.90703 29.3209 10.034 29.3851 10.1645C29.753 10.9149 30.0072 11.6976 30.0898 12.5252C30.0942 12.5707 30.1273 12.6144 30.147 12.6587C30.1165 12.8407 30.0898 13.0234 30.0555 13.2048C29.9621 13.6983 29.8788 14.1935 29.7664 14.6834C29.5611 15.5816 29.204 16.4302 28.73 17.2302C28.4745 17.662 28.16 18.0638 27.8702 18.4776C27.8461 18.5124 27.8048 18.5369 27.7711 18.5662C27.9058 18.1554 28.0132 17.7381 28.017 17.3057C28.0195 17.0159 27.9973 16.7254 27.9859 16.435L27.9871 16.4344Z" fill="#C01C24"/>
    <path d="M35.4535 31.8186H36.8813V32.3036C36.9207 32.2707 36.9391 32.2587 36.9525 32.2431C37.3668 31.7533 37.9215 31.6311 38.5487 31.7048C39.3106 31.7946 39.7421 32.188 39.7967 32.9911C39.8539 33.8349 39.8247 34.684 39.8329 35.5308C39.8329 35.5871 39.8329 35.6434 39.8329 35.7068H38.3797C38.3797 35.6505 38.3797 35.5996 38.3797 35.5481C38.3822 34.8637 38.3898 34.1792 38.3835 33.4953C38.3822 33.36 38.3447 33.2198 38.2945 33.0917C38.2037 32.8599 37.926 32.751 37.5873 32.7935C37.1304 32.8504 36.8889 33.1414 36.8864 33.6498C36.8832 34.2816 36.8858 34.9134 36.8858 35.5457C36.8858 35.5972 36.8858 35.6487 36.8858 35.7074H35.4529V31.8192L35.4535 31.8186Z" fill="#C01A24"/>
    <path d="M24.6333 31.8192C24.6409 31.8353 24.6486 31.8437 24.6486 31.8521C24.6473 32.6707 24.6473 33.4887 24.6403 34.3073C24.639 34.4349 24.6136 34.5648 24.5831 34.69C24.4706 35.1565 24.1637 35.4697 23.6948 35.6344C22.8693 35.9248 22.035 35.9278 21.2083 35.6481C20.5405 35.4218 20.2342 34.9355 20.2234 34.2864C20.21 33.4821 20.2202 32.6779 20.2208 31.8737C20.2208 31.8599 20.2266 31.8461 20.2316 31.8222H21.6645C21.6645 31.8677 21.6645 31.918 21.6645 31.9683C21.6645 32.6001 21.6645 33.2318 21.6645 33.8642C21.6645 33.9504 21.6639 34.0373 21.676 34.1223C21.7433 34.596 22.0808 34.8116 22.6196 34.7295C22.9831 34.6744 23.1845 34.4607 23.1909 34.078C23.2023 33.3791 23.1972 32.6803 23.1985 31.9815C23.1985 31.93 23.1985 31.8785 23.1985 31.8198H24.6333V31.8192Z" fill="#C01A24"/>
    <path d="M26.9634 35.7098H25.5471V29.4196H26.9634V35.7098Z" fill="#C01A24"/>
    <path d="M29.2396 29.419V35.7027H27.8067V29.419H29.2396Z" fill="#C01A24"/>
    <path d="M5.2989 34.5379C5.2989 34.808 5.30144 35.0697 5.29636 35.3313C5.29572 35.3655 5.26522 35.4128 5.23345 35.4308C3.84121 36.2242 1.94825 35.7709 1.28231 34.4966C0.4213 32.8498 1.62354 30.9371 3.61754 30.9095C4.20532 30.9017 4.73845 31.052 5.23536 31.3335C5.28111 31.3592 5.33004 31.4239 5.33004 31.4706C5.33004 31.694 5.31288 31.918 5.30144 32.1443C5.10065 32.0347 4.91446 31.9198 4.71684 31.8275C4.22883 31.5994 3.70968 31.5551 3.18862 31.6784C2.4172 31.8617 2.03658 32.3922 1.90186 33.0917C1.75635 33.848 2.20751 34.7475 3.03358 35.0158C3.59594 35.1984 4.14241 35.1607 4.66601 34.8942C4.87507 34.7876 5.07523 34.6648 5.29954 34.5379H5.2989Z" fill="#C01A24"/>
    <path d="M14.7542 35.7104H13.9961V35.3356C13.9148 35.4146 13.8665 35.4673 13.8118 35.5128C13.0627 36.1302 11.9043 35.8296 11.5516 34.9188C11.3648 34.4355 11.3667 33.9403 11.5541 33.457C11.8363 32.7294 12.7481 32.3527 13.4598 32.6761C13.6568 32.7653 13.8176 32.9258 13.9859 33.0468V32.6761H14.7535V35.7092L14.7542 35.7104ZM14.0495 34.1822C14.0082 34.0163 13.9809 33.8456 13.9237 33.6852C13.8137 33.3768 13.5735 33.2115 13.2298 33.1923C12.8555 33.1714 12.5448 33.2833 12.3688 33.6145C12.2086 33.9145 12.1718 34.2361 12.248 34.5637C12.384 35.1481 13.0608 35.3936 13.5818 35.0541C13.904 34.8445 14.026 34.5451 14.0495 34.1822Z" fill="#C01A24"/>
    <path d="M8.59363 33.0791V32.6767H9.34852V35.705H8.59935V35.3709C8.58918 35.3643 8.57901 35.3583 8.56884 35.3517C8.51674 35.4044 8.46972 35.4619 8.41253 35.5092C7.6875 36.1057 6.57104 35.8578 6.18723 35.0032C5.94767 34.4702 5.94767 33.9187 6.18533 33.3845C6.51321 32.648 7.49305 32.3336 8.18441 32.7384C8.33437 32.8264 8.45383 32.9606 8.59299 33.0791H8.59363ZM8.63112 34.1828C8.61714 34.0786 8.61015 33.9732 8.58727 33.8708C8.49513 33.4618 8.23524 33.2235 7.85334 33.1911C7.4168 33.154 7.07621 33.3271 6.9237 33.6941C6.79979 33.993 6.76357 34.308 6.85889 34.6223C7.01457 35.1379 7.63031 35.3631 8.11896 35.0894C8.48497 34.8846 8.62032 34.5673 8.63175 34.1822L8.63112 34.1828Z" fill="#C01C26"/>
    <path d="M10.0291 32.6719H10.7783C10.7808 32.7145 10.7859 32.7552 10.7859 32.7959C10.7859 34.0924 10.7872 35.3889 10.7859 36.6848C10.7852 37.2872 10.4173 37.7573 9.85751 37.8806C9.35171 37.992 8.79634 37.8112 8.53517 37.4585C8.70293 37.2854 8.86878 37.1141 9.04288 36.9339C9.08165 36.9788 9.10516 37.0075 9.13057 37.0345C9.28816 37.2034 9.4896 37.2501 9.71009 37.192C9.92805 37.1345 9.98778 36.9578 10.017 36.771C10.0227 36.7333 10.0189 36.6943 10.0189 36.6566C10.0221 35.3745 10.0259 34.093 10.0291 32.8109C10.0291 32.7689 10.0291 32.7264 10.0291 32.6713V32.6719Z" fill="#C01A24"/>
    <path d="M10.4123 31.8359C10.1403 31.8359 9.94012 31.6587 9.93758 31.415C9.93504 31.1838 10.153 30.9868 10.411 30.9868C10.6715 30.9868 10.8494 31.1634 10.8475 31.4197C10.8463 31.6713 10.6747 31.8353 10.4123 31.8359Z" fill="#C01D27"/>
    <path d="M17.6759 19.5238C17.6759 19.8699 17.6759 20.2154 17.6759 20.5616C17.6657 20.546 17.6467 20.5304 17.6467 20.5149C17.6448 20.1999 17.6448 19.8849 17.6467 19.5705C17.6467 19.5549 17.6657 19.5394 17.6759 19.5238Z" fill="#D87527"/>
    <path d="M24.8748 18.1644H21.2337C21.296 18.4836 21.1308 18.8196 21.3659 19.125C21.0005 19.125 20.6282 19.1393 20.2583 19.1196C20.0518 19.1088 19.9279 18.9483 19.9273 18.7513C19.9254 17.7656 19.9254 16.7793 19.9273 15.7936C19.9273 15.5792 20.0868 15.4271 20.3149 15.4086C20.3505 15.4056 20.3861 15.4074 20.4216 15.4074C22.1735 15.4074 23.9261 15.4074 25.678 15.4074C26.0332 15.4074 26.1806 15.5445 26.1806 15.8733C26.1806 16.8159 26.1806 17.759 26.1806 18.7016C26.1806 18.9777 26.023 19.131 25.7345 19.1322C25.406 19.134 25.0768 19.1322 24.7134 19.1322C24.8754 19.0184 24.8792 18.8777 24.876 18.7327C24.8716 18.5471 24.8748 18.3615 24.8748 18.1638V18.1644ZM24.8716 17.2428C24.8716 17.0201 24.8779 16.8105 24.8697 16.6015C24.8633 16.4494 24.7617 16.3571 24.6098 16.3565C23.5747 16.3547 22.5395 16.3553 21.5044 16.3559C21.3589 16.3559 21.2623 16.4374 21.2528 16.5595C21.2344 16.7859 21.2477 17.0141 21.2477 17.2428H24.8716Z" fill="#C01B25"/>
    <path d="M19.9336 19.9083V19.5711H26.173V19.9083H19.9336Z" fill="#BF1A24"/>
    <path d="M22.2739 14.2384C22.2727 13.8426 22.6094 13.5348 23.0473 13.5306C23.4882 13.5264 23.8409 13.842 23.839 14.2384C23.8371 14.6289 23.4908 14.9379 23.0542 14.9379C22.6152 14.9379 22.2752 14.6331 22.2739 14.2378V14.2384Z" fill="#C01C26"/>
    </svg>
    