<svg width="46" height="46" viewBox="0 0 46 46" fill="none" xmlns="http://www.w3.org/2000/svg">
    <mask id="mask0_34_23168" style="mask-type:luminance" maskUnits="userSpaceOnUse" x="0" y="13" width="46" height="21">
    <path d="M45.7969 13H0V33.4444H45.7969V13Z" fill="white"/>
    </mask>
    <g mask="url(#mask0_34_23168)">
    <path d="M45.8339 13H0V33.4042H45.8339V13Z" fill="white"/>
    <path d="M9.42452 19.5297C10.121 19.5297 10.6874 18.9415 10.6874 18.2217C10.6874 17.502 10.121 16.9146 9.42452 16.9146C8.72812 16.9146 8.1608 17.5028 8.1608 18.2217C8.1608 18.9406 8.72898 19.5297 9.42452 19.5297Z" fill="#E30613"/>
    <path d="M14.9098 29.074H3.96763V29.4905H14.9098V29.074Z" fill="#E30613"/>
    <path d="M4.71398 28.0325H6.59923C6.40382 27.9538 6.26607 27.746 6.26607 27.5046V26.226H12.6707V27.5046C12.6707 27.746 12.5322 27.9546 12.3376 28.0325H14.1944C14.6051 28.0325 14.9408 27.6856 14.9408 27.26V21.3127C14.9408 20.8887 14.6051 20.541 14.1944 20.541H4.71398C4.30337 20.541 3.96763 20.8887 3.96763 21.3127V27.26C3.96763 27.6848 4.30337 28.0325 4.71398 28.0325ZM6.23165 23.6864V22.9734C6.23165 22.6642 6.46236 22.4103 6.7447 22.4103H12.125C12.4056 22.4103 12.6363 22.6642 12.6363 22.9734V24.2511H6.23079V23.6864H6.23165Z" fill="#E30613"/>
    <path d="M20.5518 20.5519H21.5874L21.7328 21.0287H22.6849L22.6746 21.0002L21.578 18.1455H20.5854L19.4792 21.0287H20.408L20.5501 20.5519H20.5518ZM21.0735 18.8937V18.8962L21.3997 19.9293H20.7498L21.0735 18.8937Z" fill="#E30613"/>
    <path d="M17.2177 20.944C17.42 21.0345 17.6817 21.0806 18.002 21.0806C18.2663 21.0806 18.484 21.0429 18.6536 20.9666C18.8241 20.8946 18.9687 20.7831 19.0832 20.6365C19.1994 20.4882 19.2821 20.3064 19.3363 20.0877L18.54 19.8522C18.4987 20.0341 18.4341 20.1732 18.3454 20.2678C18.2568 20.3642 18.1242 20.4111 17.9495 20.4111C17.7747 20.4111 17.6335 20.3525 17.5328 20.2343C17.4347 20.1153 17.3839 19.8975 17.3839 19.5757C17.3839 19.3168 17.4243 19.1283 17.5087 19.0077C17.618 18.8443 17.7764 18.7647 17.9822 18.7647C18.0734 18.7647 18.1552 18.7806 18.2301 18.8183C18.3024 18.8552 18.3635 18.9071 18.4152 18.9767C18.4462 19.0169 18.4754 19.0805 18.5038 19.1685L19.3087 18.9934C19.2046 18.6901 19.0479 18.4622 18.8335 18.3172C18.6226 18.1689 18.33 18.096 17.9598 18.096C17.4846 18.096 17.1196 18.2234 16.8596 18.4815C16.6005 18.7387 16.4697 19.104 16.4697 19.5799C16.4697 19.9386 16.5446 20.2335 16.6909 20.4614C16.8398 20.6901 17.0146 20.851 17.2169 20.9423" fill="#E30613"/>
    <path d="M23.2831 20.9616C23.4459 21.042 23.6757 21.0806 23.9736 21.0806C24.255 21.0806 24.485 21.0211 24.6657 20.9013C24.8457 20.7831 24.9646 20.6365 25.0246 20.4631C25.0841 20.293 25.1135 20.0425 25.1135 19.7132V18.1455H24.2017V19.9243C24.2017 20.1003 24.1786 20.2243 24.1303 20.298C24.083 20.3734 24.0072 20.4103 23.9057 20.4103C23.8419 20.4103 23.7929 20.3977 23.7585 20.3726C23.7068 20.334 23.669 20.2846 23.6482 20.2234C23.6276 20.1614 23.6154 20.0676 23.6154 19.9402L22.7469 20.0567C22.7616 20.2796 22.8141 20.4656 22.9028 20.6181C22.9922 20.7689 23.1189 20.8845 23.2831 20.9616Z" fill="#E30613"/>
    <path d="M26.3901 20.5519H27.4265L27.5721 21.0287H28.5248L27.417 18.1455H26.4254L25.3174 21.0287H26.2471L26.3901 20.5519ZM26.9117 18.8937V18.8962L27.2362 19.9293H26.5863L26.9117 18.8937Z" fill="#E30613"/>
    <path d="M21.0735 22.2997H20.4622V24.0174C20.4622 24.1598 20.4898 24.3215 20.5466 24.505C20.5819 24.6182 20.6456 24.7321 20.7411 24.8377C20.8341 24.9449 20.9391 25.0287 21.0546 25.0874C21.0604 25.0907 21.0665 25.0949 21.0735 25.0966C21.1835 25.1485 21.3188 25.1854 21.4763 25.2047C21.6475 25.2231 21.8042 25.2315 21.9472 25.2315C22.1951 25.2315 22.4068 25.2021 22.5841 25.1376C22.6127 25.1268 22.6452 25.1125 22.6755 25.0966C22.7694 25.0505 22.8588 24.9835 22.9475 24.898C23.0636 24.7849 23.1481 24.6508 23.2014 24.5008C23.2556 24.35 23.2848 24.1891 23.2848 24.0174V22.2997H22.376V24.0584C22.376 24.2193 22.3312 24.3442 22.2424 24.4271C22.1537 24.5176 22.0315 24.5612 21.8748 24.5612C21.7181 24.5612 21.5925 24.5176 21.503 24.4271C21.416 24.3383 21.3705 24.2176 21.3705 24.0584V22.2997H21.0743H21.0735Z" fill="#E30613"/>
    <path d="M40.4476 24.4724V22.2997H39.535V25.1812H41.8663V24.4724H40.4476Z" fill="#E30613"/>
    <path d="M28.2614 22.2997H27.3498V25.1821H28.2614V22.2997Z" fill="#E30613"/>
    <path d="M37.6326 22.2997H37.1453L36.1253 24.9583L36.0392 25.1821H36.9689L37.1117 24.707H38.1483L38.2928 25.1821H39.2449L38.1361 22.2997H37.6318H37.6326ZM37.6326 24.0827H37.3106L37.6326 23.0454V23.0488L37.958 24.0827H37.6326Z" fill="#E30613"/>
    <path d="M20.6835 28.9408C20.7988 28.795 20.8832 28.6107 20.9366 28.3929L20.1394 28.1583C20.099 28.3384 20.0327 28.4783 19.9449 28.5747C19.8571 28.6702 19.7245 28.718 19.5506 28.718C19.3767 28.718 19.233 28.6576 19.1331 28.5403C19.035 28.4214 18.9842 28.2027 18.9842 27.8817C18.9842 27.6254 19.0264 27.4343 19.1099 27.3145C19.2192 27.1528 19.3776 27.0707 19.5833 27.0707C19.6746 27.0707 19.7572 27.0883 19.8312 27.126C19.9044 27.1637 19.9664 27.2148 20.0172 27.2827C20.0473 27.3229 20.0775 27.3882 20.1059 27.4754L20.9082 27.3019C20.8057 26.9978 20.6482 26.7716 20.4364 26.6233C20.2238 26.4783 19.9328 26.4054 19.5618 26.4054C19.0875 26.4054 18.7199 26.5328 18.4616 26.7875C18.2025 27.043 18.0734 27.4109 18.0734 27.8885C18.0734 28.2446 18.1474 28.5403 18.2938 28.7699C18.441 28.9978 18.6166 29.1604 18.8206 29.2509C19.0212 29.3405 19.2838 29.3858 19.6031 29.3858C19.8683 29.3858 20.0852 29.3497 20.2548 29.2735C20.4252 29.1997 20.5681 29.0875 20.6843 28.9408" fill="#E30613"/>
    <path d="M35.1232 24.1121C35.4891 24.1121 35.7636 24.0291 35.9428 23.8649C36.0195 23.7953 36.0797 23.7116 36.1245 23.6177C36.1812 23.4929 36.2096 23.3471 36.2096 23.1845C36.2096 23.022 36.1812 22.8737 36.1245 22.753C36.0848 22.6675 36.0314 22.593 35.9634 22.5301C35.7989 22.3768 35.5546 22.3005 35.224 22.3005H33.7132V25.1829H34.6248V24.1129H35.1232V24.1121ZM34.8504 23.528H34.6248V22.8846H34.884C34.9148 22.8846 34.9468 22.8846 34.9743 22.8879C35.0965 22.8971 35.1826 22.9298 35.231 22.9784C35.2938 23.0421 35.3238 23.12 35.3238 23.2105C35.3238 23.301 35.2893 23.3789 35.2171 23.4384C35.1654 23.482 35.0854 23.5105 34.9743 23.5213C34.9373 23.5247 34.8951 23.528 34.8504 23.528Z" fill="#E30613"/>
    <path d="M23.1903 28.8587L23.334 29.3354H24.2878L23.18 26.4523H22.1873L21.0812 29.3354H22.0092L22.1537 28.8587H23.1895H23.1903ZM22.3501 28.2353L22.6738 27.1988L22.6763 27.203L23.0008 28.2361H22.351L22.3501 28.2353Z" fill="#E30613"/>
    <path d="M17.525 26.4523H16.6134V29.3329H17.525V26.4523Z" fill="#E30613"/>
    <path d="M19.1366 22.9843V25.1812H19.8803V22.2997H18.6863L18.2275 24.0534L17.7635 22.2997H16.5678V25.1812H17.3133V22.9843L17.8866 25.1812H18.5589L19.1366 22.9843Z" fill="#E30613"/>
    <path d="M25.852 23.8959L24.744 22.2997H23.8919V25.1812H24.7493V23.6001L25.852 25.1812H26.7103V22.2997H25.852V23.8959Z" fill="#E30613"/>
    <path d="M33.0625 22.2997H32.1509V25.1821H33.0625V22.2997Z" fill="#E30613"/>
    <path d="M31.4182 24.7891C31.5352 24.6399 31.6188 24.4598 31.6722 24.2394L30.8742 24.0031C30.8337 24.185 30.7692 24.3249 30.6805 24.4204C30.5908 24.5168 30.4591 24.5654 30.2863 24.5654C30.1132 24.5654 29.9676 24.5042 29.8687 24.3852C29.7698 24.2679 29.7189 24.0484 29.7189 23.7283C29.7189 23.4694 29.7601 23.28 29.8437 23.1594C29.9531 22.9977 30.1107 22.9164 30.318 22.9164C30.4094 22.9164 30.4894 22.9348 30.5642 22.9692C30.6383 23.0094 30.7003 23.0613 30.7503 23.1292C30.7828 23.1686 30.8103 23.2348 30.8406 23.3211L31.6446 23.146C31.5413 22.8418 31.3838 22.6164 31.1693 22.469C30.9576 22.3232 30.6667 22.2486 30.2949 22.2486C29.8212 22.2486 29.4528 22.3759 29.1955 22.6323C28.9355 22.8904 28.8055 23.2566 28.8055 23.7342C28.8055 24.0903 28.8804 24.3835 29.026 24.6156C29.1749 24.8444 29.3505 25.0044 29.5519 25.0957C29.7567 25.1854 30.0176 25.2332 30.3377 25.2332C30.5995 25.2332 30.8181 25.1954 30.9887 25.12C31.1599 25.0455 31.3021 24.934 31.4165 24.7882" fill="#E30613"/>
    </g>
    </svg>
    