<svg width="46" height="46" viewBox="0 0 46 46" fill="none" xmlns="http://www.w3.org/2000/svg">
    <g clip-path="url(#clip0_32_21247)">
    <mask id="mask0_32_21247" style="mask-type:luminance" maskUnits="userSpaceOnUse" x="0" y="17" width="47" height="12">
    <path d="M46.1928 17H0.215607V28.5H46.1928V17Z" fill="white"/>
    </mask>
    <g mask="url(#mask0_32_21247)">
    <path d="M0.288574 17H46.1928C46.1928 20.8336 46.1928 24.6664 46.1928 28.5C30.8914 28.5 15.5899 28.5 0.288574 28.5V17ZM35.8156 23.9293C35.733 23.8321 35.6504 23.7348 35.5686 23.6384C35.0757 23.9432 34.742 23.9556 34.501 23.6808C34.2719 23.4192 34.227 22.7376 34.4531 22.4474C34.8281 21.9666 35.2319 22.229 35.6107 22.4606C35.873 22.0137 35.8118 21.8184 35.3822 21.6579C34.8156 21.4464 34.1444 21.6216 33.8091 22.0677C33.4636 22.5285 33.4319 23.4169 33.7436 23.9247C34.028 24.3893 34.6542 24.6116 35.2452 24.4565C35.5252 24.3831 35.7661 24.262 35.8104 23.9162C36.301 24.5622 36.6635 24.6324 37.4365 24.3407C37.6958 24.3847 37.9559 24.4287 38.2153 24.4735C38.191 24.0598 38.1697 23.7557 38.1556 23.4508C38.138 23.0533 38.1445 22.6543 38.107 22.2591C38.0746 21.9149 37.8565 21.6656 37.5404 21.6417C37.1455 21.6116 36.7328 21.6255 36.3482 21.7158C35.9282 21.8146 35.901 22.0422 36.2001 22.3926C37.032 22.0044 37.376 22.0662 37.3849 22.6165C37.2884 22.625 37.1918 22.6342 37.0947 22.6427C36.1507 22.7245 35.887 22.9893 35.8148 23.9286L35.8156 23.9293ZM11.1079 24.475C11.0534 24.3724 11.0409 24.3345 11.0173 24.3067C10.976 24.2597 10.9311 24.2157 10.8832 24.1748C9.85757 23.3011 9.44938 22.1981 9.72126 20.8251C9.82884 20.2825 9.4899 19.8742 8.9395 19.8696C7.82323 19.8603 6.70622 19.848 5.59068 19.8711C4.15832 19.9012 3.00226 21.1207 2.96542 22.6018C2.93006 24.025 4.08022 25.3464 5.48901 25.3873C7.1682 25.4367 8.85034 25.4035 10.531 25.3965C10.8781 25.395 11.0991 25.2051 11.1595 24.7799C11.0077 24.7799 10.8781 24.7799 10.7476 24.7799C8.87097 24.7799 6.99358 24.7799 5.11691 24.7799C5.00713 24.7799 4.89218 24.7876 4.78903 24.7567C4.73967 24.7421 4.69546 24.6494 4.68293 24.5854C4.67777 24.5599 4.76103 24.4928 4.8104 24.4835C4.90544 24.4657 5.00565 24.475 5.10365 24.475C6.96853 24.475 8.8334 24.475 10.6975 24.475C10.8162 24.475 10.9341 24.475 11.1072 24.475H11.1079ZM24.8849 24.3778C24.8849 23.2826 24.8863 22.2066 24.8841 21.1315C24.8827 20.5619 24.627 20.3875 24.0766 20.6059V22.0708H22.7525C22.7525 21.7436 22.7533 21.4371 22.7525 21.1315C22.7503 20.5611 22.5064 20.3913 21.9958 20.5835V24.3793H22.7518V22.7454H24.109V24.3778H24.8857H24.8849ZM38.5219 24.9883C38.2543 25.4359 38.3464 25.6481 38.832 25.7053C39.3492 25.7662 39.7935 25.5146 39.9608 24.9821C40.2968 23.9124 40.5959 22.8303 40.9084 21.7574C40.4522 21.5182 40.1745 21.6371 40.0271 22.1387C39.8842 22.6257 39.7641 23.1205 39.6094 23.7047C39.4494 23.1259 39.3184 22.6458 39.1842 22.1673C39.0331 21.627 38.7804 21.5081 38.2654 21.7497C38.5005 22.4884 38.7244 23.2332 38.9793 23.9664C39.0486 24.1647 39.2086 24.3291 39.364 24.5653C39.1961 25.084 39.1076 25.1372 38.5203 24.989L38.5219 24.9883ZM13.9683 21.4418C14.2983 21.113 14.2652 20.8606 13.8254 20.6298C12.7967 20.0903 11.6325 20.6553 11.3879 21.8315C11.326 22.1287 11.3157 22.4444 11.329 22.7492C11.3887 24.1223 12.5336 24.8779 13.7545 24.3631C14.2453 24.1555 14.291 23.8923 13.8939 23.4778C13.8577 23.5033 13.8179 23.5295 13.7811 23.5589C13.4178 23.8475 13.0134 23.9401 12.6177 23.6878C12.074 23.3404 12.0724 22.7546 12.124 22.1789C12.1645 21.7219 12.3237 21.3252 12.7857 21.1662C12.8991 21.1269 13.0369 21.0906 13.1445 21.1222C13.4083 21.201 13.661 21.3198 13.969 21.4426L13.9683 21.4418ZM31.5634 24.3824C31.5634 23.8089 31.5699 23.2463 31.5604 22.6836C31.556 22.4135 31.6709 22.2776 31.9163 22.2414C32.2693 22.1889 32.4085 22.3078 32.4158 22.7068C32.4262 23.2656 32.418 23.8251 32.418 24.3831H33.1755C33.1755 23.7294 33.1903 23.0888 33.171 22.449C33.1512 21.7868 32.768 21.4688 32.1425 21.5884C31.934 21.6286 31.7373 21.7374 31.5957 21.7922C31.3188 21.7243 31.0763 21.6641 30.8096 21.5985V24.3824H31.5641H31.5634ZM42.2177 24.4874C43.0253 24.4912 43.521 23.9394 43.5321 23.0263C43.5425 22.138 43.0576 21.5792 42.2626 21.5653C41.4838 21.5514 40.9282 22.1495 40.915 23.0163C40.901 23.9085 41.4101 24.4835 42.2177 24.4874ZM30.3984 24.4858C30.372 24.0976 30.3468 23.8437 30.3395 23.5897C30.3285 23.2046 30.3454 22.8179 30.3233 22.4343C30.3005 22.0438 30.1332 21.6949 29.7427 21.6509C29.3397 21.6054 28.913 21.6301 28.5166 21.7204C28.1187 21.8115 28.0959 22.0121 28.3582 22.3888C29.2527 22.0222 29.5813 22.0831 29.5644 22.6126C29.3824 22.6342 29.1981 22.6419 29.0198 22.6813C28.8305 22.7238 28.636 22.7716 28.4636 22.8604C28.0996 23.0471 27.953 23.3806 28.0222 23.7835C28.0923 24.191 28.3347 24.4565 28.7524 24.4588C29.056 24.4603 29.3603 24.3484 29.5165 24.3168C29.8856 24.3878 30.1339 24.4349 30.3984 24.4858ZM15.8921 22.6111C15.7108 22.6327 15.5274 22.6443 15.3491 22.6798C15.17 22.716 14.9858 22.7523 14.8214 22.831C14.4178 23.0232 14.2578 23.3875 14.3477 23.8444C14.4236 24.2296 14.7265 24.4874 15.1605 24.4665C15.4198 24.4542 15.6762 24.3538 15.9746 24.2828C16.2538 24.519 16.3761 24.5367 16.6518 24.3963C16.6518 23.7827 16.6643 23.2092 16.6488 22.6365C16.6288 21.8987 16.3703 21.6093 15.6666 21.5784C15.3925 21.566 15.1045 21.6255 14.8399 21.7119C14.4265 21.847 14.3956 22.0507 14.6962 22.3981C15.492 21.9983 15.8633 22.0631 15.8913 22.6111H15.8921ZM19.7331 22.5817C19.3809 22.6558 19.05 22.6952 18.7399 22.8002C18.4378 22.9021 18.2071 23.1135 18.1747 23.4855C18.1084 24.2481 18.7325 24.7019 19.4546 24.3947C19.6543 24.3098 19.7869 24.1941 20.0079 24.4001C20.1163 24.5005 20.3793 24.4179 20.5414 24.4179C20.5185 24.0706 20.4935 23.7912 20.4846 23.5118C20.4758 23.2293 20.4868 22.9468 20.4816 22.6643C20.4669 21.8987 20.1826 21.5838 19.4531 21.5753C19.2011 21.5722 18.9395 21.6278 18.6978 21.7065C18.2712 21.8454 18.2373 22.0106 18.5144 22.3911C19.3905 22.0176 19.6823 22.0662 19.7331 22.5841V22.5817ZM26.9553 21.6533C26.9553 22.2283 26.9413 22.7793 26.9605 23.3289C26.9722 23.68 26.7896 23.7703 26.5118 23.7935C26.192 23.8205 26.1058 23.6237 26.1051 23.342C26.1035 22.9823 26.108 22.6219 26.1035 22.2622C26.0962 21.705 25.8958 21.5529 25.3476 21.6926C25.3476 22.3433 25.3284 22.9978 25.3535 23.6507C25.3749 24.1941 25.6342 24.4519 26.1545 24.4372C26.4352 24.4295 26.7129 24.3137 27.0047 24.2442C27.158 24.5545 27.4409 24.3469 27.7194 24.3855C27.7194 23.6739 27.7201 22.9962 27.7194 22.3178C27.7187 21.7281 27.5883 21.6062 26.9561 21.6525L26.9553 21.6533ZM16.5619 25.1233C16.598 25.6783 16.7467 25.7933 17.1955 25.6613C17.6 25.5424 17.8174 25.2414 17.8343 24.8215C17.8682 23.9633 17.8785 23.1035 17.8815 22.2445C17.8829 21.6957 17.6486 21.5367 17.0975 21.7026C17.0975 22.6049 17.0842 23.5149 17.1034 24.4241C17.1122 24.8347 17.0032 25.1002 16.5619 25.1233ZM17.4519 21.1716C17.7296 21.167 17.8763 21.0088 17.8771 20.7441C17.8771 20.4994 17.7378 20.3335 17.4917 20.3211C17.2279 20.308 17.068 20.467 17.0584 20.7309C17.0496 20.9934 17.1926 21.1578 17.4519 21.1716Z" fill="#FE0101"/>
    <path d="M11.1079 24.475C10.9348 24.475 10.8161 24.475 10.6983 24.475C8.83338 24.475 6.9685 24.475 5.10436 24.475C5.00636 24.475 4.90616 24.4657 4.81111 24.4835C4.76174 24.4927 4.67848 24.5606 4.68364 24.5854C4.69617 24.6502 4.74038 24.742 4.78975 24.7567C4.8929 24.7876 5.0071 24.7799 5.11762 24.7799C6.99429 24.7806 8.87169 24.7799 10.7483 24.7799C10.8788 24.7799 11.0092 24.7799 11.1602 24.7799C11.0998 25.2051 10.8788 25.395 10.5317 25.3965C8.85105 25.4035 7.16965 25.4359 5.48971 25.3873C4.08093 25.3464 2.93076 24.025 2.96613 22.6018C3.00297 21.1207 4.15903 19.9012 5.5914 19.8711C6.70767 19.848 7.82394 19.8595 8.94021 19.8696C9.49062 19.8742 9.82955 20.2825 9.72197 20.8251C9.44935 22.1981 9.85754 23.3011 10.8839 24.1747C10.9311 24.2149 10.9768 24.2589 11.018 24.3067C11.0416 24.3337 11.0541 24.3716 11.1087 24.475H11.1079ZM7.72153 24.1454C8.33234 24.2573 8.51875 24.1014 8.52096 23.4925C8.52244 23.068 8.52759 22.6435 8.51875 22.219C8.51139 21.8825 8.34413 21.6957 8.01183 21.6957C7.05397 21.6957 6.09611 21.6972 5.13826 21.6949C4.80227 21.6949 4.64091 21.8724 4.63869 22.2151C4.63575 22.6527 4.63722 23.0896 4.63869 23.5272C4.64016 24.1192 4.87153 24.2944 5.43814 24.1207C5.3954 23.9687 5.35193 23.8166 5.29814 23.626H7.82615C7.79078 23.8035 7.7591 23.9594 7.72226 24.1446L7.72153 24.1454ZM7.13576 20.8799C7.14165 20.5619 6.89408 20.3064 6.57578 20.3041C6.27074 20.3018 6.03643 20.5295 6.02538 20.8397C6.01285 21.1716 6.24126 21.4286 6.55662 21.4379C6.87051 21.4472 7.12986 21.1963 7.13649 20.8791L7.13576 20.8799Z" fill="#FEF7F7"/>
    <path d="M24.8849 24.3777H24.1083V22.7453H22.751V24.3793H21.9951V20.5835C22.5057 20.3913 22.7496 20.5611 22.7518 21.1315C22.7533 21.4379 22.7518 21.7435 22.7518 22.0708H24.0759V20.6059C24.6262 20.3875 24.8819 20.5627 24.8833 21.1315C24.8855 22.2066 24.8841 23.2818 24.8841 24.3777H24.8849Z" fill="#FEF2F2"/>
    <path d="M38.5218 24.9883C39.109 25.1357 39.1975 25.0832 39.3655 24.5645C39.21 24.3284 39.05 24.1647 38.9809 23.9656C38.7266 23.2324 38.5019 22.4876 38.2668 21.749C38.7818 21.5074 39.0346 21.6262 39.1856 22.1665C39.319 22.645 39.4509 23.1251 39.6108 23.704C39.7655 23.1197 39.8856 22.625 40.0286 22.138C40.1759 21.6363 40.4538 21.5174 40.9098 21.7567C40.5967 22.8295 40.2983 23.9123 39.9622 24.9813C39.795 25.5139 39.35 25.7655 38.8334 25.7045C38.3479 25.6474 38.2557 25.4351 38.5233 24.9875L38.5218 24.9883Z" fill="#FEF4F4"/>
    <path d="M13.9682 21.4418C13.661 21.3191 13.4083 21.2002 13.1437 21.1215C13.0361 21.0898 12.8983 21.1261 12.7849 21.1655C12.3229 21.3252 12.1638 21.7212 12.1232 22.1781C12.0724 22.7539 12.0732 23.3397 12.6169 23.687C13.0126 23.9394 13.4171 23.8475 13.7803 23.5581C13.8172 23.5288 13.857 23.5033 13.8931 23.4771C14.2902 23.8923 14.2445 24.1555 13.7538 24.3623C12.533 24.8779 11.3879 24.1223 11.3282 22.7485C11.315 22.4436 11.3253 22.1272 11.3871 21.8308C11.6318 20.6545 12.796 20.0896 13.8246 20.6291C14.2644 20.8598 14.2975 21.1122 13.9675 21.441L13.9682 21.4418Z" fill="#FEF6F6"/>
    <path d="M31.5633 24.3824H30.8089V21.5984C31.0756 21.664 31.3187 21.7242 31.5951 21.7922C31.7372 21.7374 31.9332 21.6285 32.1417 21.5884C32.7672 21.4688 33.1504 21.7868 33.1704 22.449C33.1895 23.0888 33.1748 23.7294 33.1748 24.3831H32.4174C32.4174 23.8251 32.4247 23.2655 32.4151 22.7068C32.4077 22.3077 32.2685 22.1889 31.9155 22.2414C31.6709 22.2776 31.5552 22.4142 31.5596 22.6836C31.5693 23.2462 31.5626 23.8089 31.5626 24.3824H31.5633Z" fill="#FEF6F6"/>
    <path d="M42.2177 24.4874C41.4101 24.4835 40.901 23.9085 40.915 23.0163C40.9282 22.1495 41.4838 21.5514 42.2626 21.5653C43.0569 21.5792 43.5424 22.138 43.5321 23.0263C43.521 23.9394 43.0252 24.4904 42.2177 24.4874ZM41.7019 23.0302C41.7019 23.0942 41.6975 23.1583 41.7019 23.2224C41.7336 23.6414 41.9266 23.8738 42.2368 23.8691C42.5293 23.8645 42.6973 23.6492 42.7349 23.2316C42.7408 23.1676 42.7474 23.1043 42.7481 23.0402C42.7541 22.5215 42.5677 22.202 42.2508 22.1874C41.9119 22.1719 41.6975 22.4976 41.7005 23.0309L41.7019 23.0302Z" fill="#FEF6F6"/>
    <path d="M30.3984 24.4858C30.1339 24.4349 29.8848 24.3878 29.5165 24.3168C29.3609 24.3484 29.056 24.4603 28.7524 24.4588C28.3346 24.4565 28.0921 24.191 28.0222 23.7834C27.9529 23.3798 28.0996 23.0471 28.4636 22.8604C28.6359 22.7716 28.8305 22.7237 29.0198 22.6813C29.1981 22.6419 29.3831 22.6342 29.5644 22.6126C29.5813 22.0832 29.2527 22.0222 28.3582 22.3888C28.0959 22.0129 28.1187 21.8115 28.5166 21.7204C28.913 21.6301 29.3396 21.6054 29.7427 21.6509C30.1332 21.6949 30.3011 22.0446 30.3233 22.4343C30.3454 22.8187 30.3291 23.2046 30.3395 23.5897C30.3468 23.8437 30.3719 24.0976 30.3984 24.4858ZM29.5783 23.0464C29.3661 23.0935 29.1429 23.0842 28.9984 23.1915C28.871 23.2864 28.8305 23.5102 28.7516 23.6777C28.9108 23.7595 29.0744 23.9177 29.2277 23.9077C29.5798 23.8846 29.6424 23.7047 29.5783 23.0464Z" fill="#FEF4F4"/>
    <path d="M35.8155 23.9293C35.8884 22.9893 36.1515 22.7245 37.0953 22.6435C37.1926 22.635 37.2891 22.6258 37.3857 22.6173C37.3768 22.067 37.032 22.0052 36.2009 22.3934C35.9017 22.0438 35.9289 21.8153 36.349 21.7166C36.7336 21.6263 37.1461 21.6124 37.5411 21.6425C37.8572 21.6664 38.0752 21.9157 38.1077 22.2599C38.1445 22.6551 38.1387 23.0549 38.1564 23.4516C38.1696 23.7565 38.1917 24.0605 38.216 24.4742C37.9567 24.4302 37.6973 24.3863 37.4372 24.3415C36.6643 24.6332 36.3018 24.563 35.811 23.9162L35.8162 23.9286L35.8155 23.9293ZM37.393 23.0479C37.1844 23.0973 36.9494 23.1004 36.78 23.2123C36.6635 23.2895 36.5559 23.5458 36.595 23.6708C36.6326 23.792 36.8632 23.9208 37.0069 23.9178C37.3937 23.91 37.4844 23.6885 37.393 23.0479Z" fill="#FEF4F4"/>
    <path d="M15.892 22.6111C15.8641 22.0623 15.492 21.9983 14.6969 22.3981C14.3963 22.0507 14.4273 21.8462 14.8406 21.7119C15.1043 21.6255 15.3932 21.5668 15.6673 21.5784C16.3703 21.6093 16.6296 21.8987 16.6495 22.6365C16.6649 23.2092 16.6524 23.7835 16.6524 24.3963C16.3769 24.5367 16.2546 24.519 15.9753 24.2828C15.6769 24.3531 15.4205 24.4542 15.1611 24.4665C14.7271 24.4874 14.4251 24.2296 14.3485 23.8444C14.2586 23.3883 14.4184 23.024 14.8222 22.831C14.9865 22.7531 15.1707 22.716 15.3497 22.6798C15.5288 22.6435 15.7122 22.6327 15.8928 22.6111H15.892ZM15.8839 23.0448C15.6732 23.0942 15.4499 23.0888 15.3062 23.1976C15.1788 23.2941 15.1398 23.518 15.0624 23.6854C15.2222 23.7657 15.388 23.9216 15.5421 23.91C15.8928 23.8838 15.9488 23.7132 15.8847 23.0448H15.8839Z" fill="#FEF5F5"/>
    <path d="M19.7331 22.5817C19.6823 22.0638 19.3905 22.0152 18.5144 22.3888C18.2373 22.009 18.272 21.8439 18.6978 21.7042C18.9395 21.6255 19.2011 21.5699 19.453 21.573C20.1826 21.5815 20.4669 21.8964 20.4816 22.662C20.4868 22.9445 20.4758 23.2277 20.4846 23.5094C20.4935 23.7896 20.5193 24.069 20.5414 24.4155C20.3792 24.4155 20.1155 24.4989 20.0079 24.3978C19.7869 24.1925 19.6542 24.3075 19.4546 24.3924C18.7318 24.7003 18.1084 24.2458 18.1747 23.4832C18.2071 23.1112 18.4378 22.8997 18.7399 22.7978C19.0508 22.6929 19.3816 22.6543 19.7331 22.5794V22.5817ZM19.7139 23.0417C19.5003 23.0942 19.2763 23.0903 19.1348 23.2015C19.0109 23.2987 18.9793 23.5249 18.9079 23.6947C19.0692 23.7703 19.2372 23.92 19.3912 23.9062C19.7367 23.8737 19.7839 23.7155 19.7147 23.0417H19.7139Z" fill="#FEF5F5"/>
    <path d="M26.9553 21.6532C27.5875 21.6069 27.7179 21.7281 27.7187 22.3186C27.7201 22.997 27.7187 23.6754 27.7187 24.3862C27.4408 24.3476 27.1572 24.5553 27.004 24.245C26.7122 24.3152 26.4344 24.4302 26.1537 24.4379C25.6334 24.4518 25.3741 24.1941 25.3527 23.6515C25.3277 22.9985 25.3469 22.344 25.3469 21.6934C25.895 21.5529 26.0954 21.7057 26.1029 22.263C26.1072 22.6226 26.1029 22.9831 26.1043 23.3427C26.1057 23.6245 26.1912 23.8213 26.511 23.7943C26.788 23.7711 26.9715 23.6808 26.9597 23.3296C26.9413 22.7801 26.9546 22.229 26.9546 21.654L26.9553 21.6532Z" fill="#FEFAFA"/>
    <path d="M35.8154 23.9293L35.8103 23.917C35.7661 24.2627 35.5252 24.3831 35.2452 24.4572C34.6542 24.6124 34.0279 24.3901 33.7436 23.9255C33.4327 23.4176 33.4635 22.5293 33.8091 22.0685C34.1444 21.6216 34.8164 21.4464 35.3822 21.6586C35.8118 21.8192 35.873 22.0145 35.6107 22.4613C35.2312 22.2298 34.8281 21.9674 34.4531 22.4482C34.227 22.7384 34.2711 23.4207 34.501 23.6816C34.742 23.9563 35.0757 23.944 35.5686 23.6391C35.6504 23.7356 35.733 23.8328 35.8154 23.9301V23.9293Z" fill="#FEF4F4"/>
    <path d="M16.5619 25.1233C17.0032 25.1002 17.1122 24.8347 17.1033 24.4241C17.0842 23.5149 17.0975 22.6049 17.0975 21.7027C17.6486 21.5367 17.8829 21.6957 17.8815 22.2445C17.8785 23.1035 17.869 23.9633 17.8343 24.8215C17.8174 25.2414 17.6 25.5424 17.1954 25.6613C16.746 25.7933 16.5972 25.6783 16.5619 25.1233Z" fill="#FEF2F2"/>
    <path d="M17.4519 21.1717C17.1926 21.1578 17.0496 20.9941 17.0584 20.731C17.0673 20.467 17.2279 20.3072 17.4916 20.3211C17.737 20.3335 17.8771 20.5002 17.8771 20.7441C17.8771 21.0088 17.7296 21.167 17.4519 21.1717Z" fill="#FEF0F0"/>
    <path d="M7.72155 24.1454C7.75913 23.9602 7.79008 23.8043 7.82545 23.6268H5.29744C5.35122 23.8174 5.39396 23.9695 5.43743 24.1215C4.87156 24.2952 4.63946 24.12 4.63799 23.528C4.63652 23.0904 4.63578 22.6535 4.63799 22.2159C4.6402 21.8725 4.80156 21.6949 5.13754 21.6957C6.09541 21.698 7.05326 21.6957 8.01112 21.6965C8.34416 21.6965 8.51142 21.8833 8.51805 22.2198C8.52689 22.6443 8.52173 23.0688 8.52026 23.4933C8.51805 24.1022 8.33164 24.2581 7.72081 24.1462L7.72155 24.1454ZM7.78713 22.8457C7.8726 22.5161 7.78418 22.3834 7.45335 22.3965C6.86464 22.4197 6.27445 22.4181 5.68574 22.3965C5.3608 22.3849 5.26502 22.5138 5.34165 22.8457H7.78787H7.78713Z" fill="#FE0404"/>
    <path d="M7.13575 20.8799C7.12986 21.1971 6.86976 21.448 6.55588 21.4387C6.24052 21.4294 6.01285 21.1724 6.02464 20.8406C6.03568 20.5303 6.27 20.3026 6.57504 20.3049C6.89334 20.3072 7.14091 20.5619 7.13502 20.8807L7.13575 20.8799Z" fill="#FE0A0A"/>
    <path d="M41.7019 23.0302C41.6989 22.4969 41.9133 22.1711 42.2523 22.1866C42.5691 22.2013 42.7555 22.5208 42.7497 23.0394C42.7489 23.1035 42.7422 23.1676 42.7364 23.2308C42.6988 23.6484 42.5301 23.8637 42.2383 23.8684C41.9281 23.8738 41.7351 23.6415 41.7033 23.2216C41.6982 23.1583 41.7033 23.0935 41.7033 23.0294L41.7019 23.0302Z" fill="#FE0707"/>
    <path d="M29.5783 23.0464C29.6424 23.7047 29.5799 23.8845 29.2277 23.9077C29.0744 23.9177 28.9108 23.7595 28.7516 23.6777C28.8305 23.511 28.8711 23.2864 28.9985 23.1915C29.1429 23.0842 29.3662 23.0927 29.5783 23.0464Z" fill="#FE0D0D"/>
    <path d="M37.393 23.0479C37.485 23.6885 37.3945 23.91 37.0069 23.9177C36.8632 23.9208 36.6319 23.7919 36.595 23.6708C36.5567 23.545 36.6635 23.2895 36.78 23.2123C36.9487 23.1004 37.1838 23.0981 37.393 23.0479Z" fill="#FE0D0D"/>
    <path d="M15.8839 23.0448C15.9488 23.7132 15.8921 23.8838 15.5413 23.91C15.3874 23.9216 15.2223 23.7649 15.0616 23.6854C15.1398 23.518 15.1788 23.2941 15.3056 23.1977C15.4492 23.0888 15.6717 23.0942 15.8832 23.0448H15.8839Z" fill="#FE0D0D"/>
    <path d="M19.7139 23.0417C19.7832 23.7148 19.7367 23.873 19.3905 23.9062C19.2364 23.9208 19.0685 23.7703 18.9071 23.6947C18.9793 23.5257 19.0103 23.2988 19.134 23.2015C19.2755 23.0904 19.4995 23.0942 19.7131 23.0417H19.7139Z" fill="#FE0A0A"/>
    <path d="M7.78711 22.8457H5.34088C5.26499 22.5146 5.36004 22.3849 5.68497 22.3965C6.27368 22.4181 6.86388 22.4189 7.45259 22.3965C7.78342 22.3834 7.87184 22.5161 7.78636 22.8457H7.78711Z" fill="#FEFAFA"/>
    </g>
    </g>
    <defs>
    <clipPath id="clip0_32_21247">
    <rect width="46" height="46" fill="white"/>
    </clipPath>
    </defs>
    </svg>
    