<svg width="46" height="46" viewBox="0 0 46 46" fill="none" xmlns="http://www.w3.org/2000/svg">
    <path d="M14.1453 31.9452L14.0618 32.0238C12.7515 33.322 11.2352 34.0079 9.67322 34.0079C6.41108 34.0079 4.04467 31.6283 4.04467 28.346C4.04467 25.0687 6.41108 22.6853 9.67322 22.6853C11.2352 22.6853 12.7515 23.375 14.0618 24.6783L14.1453 24.7556L16.2431 22.2885L16.1871 22.2226C14.4426 20.2182 12.3486 19.2433 9.77491 19.2433C7.19467 19.2433 4.83217 20.0889 3.132 21.6115C1.28059 23.2622 0.306641 25.5898 0.306641 28.346C0.306641 31.1021 1.28059 33.4348 3.132 35.0855C4.83217 36.617 7.19467 37.4562 9.77491 37.4562C12.3486 37.4562 14.4426 36.4801 16.1871 34.4744L16.2431 34.4136L14.1453 31.9452Z" fill="#004685"/>
    <path d="M18.3619 37.1198H22.0673V19.528H18.3619V37.1198Z" fill="#004685"/>
    <path d="M36.5846 33.2955C35.595 33.8812 34.6758 34.1766 33.8492 34.1766C32.651 34.1766 32.1086 33.5605 32.1086 32.1913V22.8566H35.8858V19.5451H32.1086V14.0709L28.4775 15.9624V19.5451H25.3432V22.8566H28.4775V32.7859C28.4775 35.49 30.1255 37.341 32.5871 37.3892C34.2573 37.4209 35.2639 36.9366 35.874 36.5816L35.9132 36.5575L36.8037 33.1649L36.5846 33.2955Z" fill="#004685"/>
    <path d="M39.6518 37.1198H43.3625V19.528H39.6518V37.1198Z" fill="#004685"/>
    <path d="M45.5238 16.4444C42.1378 11.7815 36.5158 9 30.796 9C25.0774 9 19.4541 11.7815 16.0746 16.4444L15.8999 16.684H20.1634L20.2103 16.6346C23.1113 13.7212 26.9002 12.1821 30.796 12.1821C34.6917 12.1821 38.478 13.7212 41.3855 16.6346L41.4324 16.684H45.6933L45.5238 16.4444Z" fill="#EE1C25"/>
    </svg>
    