<svg width="46" height="46" viewBox="0 0 46 46" fill="none" xmlns="http://www.w3.org/2000/svg">
    <path d="M29.7008 17.9113C29.5223 17.9479 28.3696 17.7223 28.3696 17.7223C28.3696 17.7223 29.229 18.1884 29.2495 18.3109C29.2721 18.4397 28.909 19.213 28.909 19.213C28.909 19.213 29.5203 18.5579 29.709 18.3946C29.8423 18.2786 30.1028 18.2808 30.2977 18.313C30.4782 18.3409 31.592 18.5321 32.8596 17.8469C33.6882 17.4001 33.6923 17.3099 33.6923 17.3099C33.6923 17.3099 33.0585 16.8781 31.9653 17.0457C30.7469 17.2326 29.8813 17.8705 29.7008 17.9092" fill="#FFA100"/>
    <path d="M8.60461 32.4771C8.39334 32.5372 7.23854 32.2601 7.23854 32.2601C7.23854 32.2601 8.09593 32.81 8.16977 32.9174C8.24361 33.0227 8.01183 34 8.01183 34C8.01183 34 8.54718 33.231 8.75435 32.9969C8.88152 32.8573 9.19945 32.8895 9.35329 32.9152C9.50712 32.941 11.0311 33.2396 12.4464 32.1806C13.3715 31.489 13.3571 31.3558 13.3571 31.3558C13.3571 31.3558 12.4895 30.7329 11.1747 31.0078C9.85787 31.2849 8.81588 32.4169 8.60461 32.4792" fill="#FFA100"/>
    <path d="M38.6438 17.6278C38.3362 17.6751 36.7629 17.0865 36.7629 17.0865C36.7629 17.0865 37.8767 18.0037 37.9649 18.167C38.0531 18.3281 37.5731 19.6598 37.5731 19.6598C37.5731 19.6598 38.4469 18.676 38.7731 18.3818C38.972 18.2056 39.4151 18.3087 39.6243 18.371C39.8376 18.4333 41.9277 19.1185 44.0794 17.8791C45.4824 17.0693 45.4845 16.8803 45.4845 16.8803C45.4845 16.8803 44.3645 15.8578 42.4795 16.0168C40.5945 16.1736 38.9515 17.5805 38.6438 17.6278Z" fill="#CA005D"/>
    <path d="M1.54247 30.0627C1.23685 30.1529 0 29.6331 0 29.6331C0 29.6331 1.20403 30.3763 1.24916 30.5073C1.29428 30.6384 0.496381 31.852 0.496381 31.852C0.496381 31.852 1.29223 31.1324 1.61836 30.8532C1.90963 30.6061 2.60702 30.5159 3.0152 30.5524C3.40698 30.5889 5.05201 30.8274 7.12368 29.3818C8.47744 28.4366 8.46513 28.2669 8.46513 28.2669C8.46513 28.2669 7.26931 27.5173 5.38634 27.949C3.50338 28.3808 1.84604 29.9746 1.54247 30.067" fill="#CA005D"/>
    <path d="M14.795 28.9822C14.6001 29.0037 13.8987 28.5397 13.8987 28.5397C13.8987 28.5397 14.555 29.1347 14.5673 29.2207C14.5796 29.3066 13.9643 29.9531 13.9643 29.9531C13.9643 29.9531 14.5263 29.6073 14.756 29.4741C14.9591 29.3581 15.396 29.3861 15.6421 29.4548C15.876 29.5235 16.8564 29.8629 18.2758 29.2228C19.2029 28.8061 19.2132 28.6987 19.2132 28.6987C19.2132 28.6987 18.565 28.0994 17.3692 28.1424C16.1734 28.1853 14.9919 28.9629 14.7971 28.9822" fill="#CA005D"/>
    <path d="M8.72358 25.017C8.42411 25.1652 8.06721 25.2404 7.72466 25.2404C6.40782 25.2404 5.27353 24.51 5.27353 22.637C5.27353 20.7639 6.44269 19.982 7.75953 19.982C8.07131 19.982 8.43437 20.0271 8.72153 20.1152V20.9873C8.42821 20.8606 8.10823 20.7854 7.75133 20.7854C6.82626 20.7854 6.16373 21.2773 6.16373 22.6133C6.16373 23.9494 6.88369 24.4263 7.75953 24.4263C8.12874 24.4263 8.42206 24.3661 8.72153 24.233V25.0148L8.72358 25.017Z" fill="#CA005D"/>
    <path d="M12.1367 23.3759C12.1367 24.4714 11.5316 25.2318 10.5983 25.2318C9.66506 25.2318 9.06612 24.4714 9.06612 23.3759C9.06612 22.2804 9.67942 21.5329 10.5983 21.5329C11.5173 21.5329 12.1367 22.2632 12.1367 23.3759ZM9.91325 23.3759C9.91325 24.1299 10.2271 24.5015 10.6189 24.5015C11.0024 24.5015 11.2957 24.1578 11.2957 23.3759C11.2957 22.594 10.9819 22.2568 10.5819 22.2568C10.182 22.2568 9.9112 22.5919 9.9112 23.3759" fill="#CA005D"/>
    <path d="M17.0287 25.1287H16.2452V22.899C16.2452 22.4351 16.0749 22.2654 15.716 22.2654C15.5109 22.2654 15.2032 22.3534 15.2032 22.5253C15.2093 22.6069 15.2237 22.7122 15.2237 22.8239V25.1265H14.4402V22.8969C14.4402 22.4265 14.2617 22.2632 13.9561 22.2632C13.6915 22.2632 13.4289 22.3384 13.4289 22.5919V25.1287H12.6454V21.7133C13.3366 21.7133 13.5582 21.5501 14.0709 21.5501C14.5345 21.5501 14.7191 21.6639 14.8894 21.8186C15.1458 21.6467 15.4739 21.5501 15.8944 21.5501C16.5713 21.5501 17.0267 21.8723 17.0267 22.7895V25.1308L17.0287 25.1287Z" fill="#CA005D"/>
    <path d="M17.6031 26.7612C17.6174 25.9793 17.6318 25.4273 17.6318 24.4499V21.6532C18.1179 21.6532 18.4235 21.535 18.8994 21.535C19.7629 21.535 20.4808 22.1837 20.4808 23.3995C20.4808 24.6153 19.7116 25.2125 18.9999 25.2125C18.6922 25.2125 18.5138 25.1394 18.4092 25.0556V26.7633H17.6031V26.7612ZM18.8358 22.2332C18.5712 22.2332 18.4092 22.3513 18.4092 22.4716V24.263C18.4092 24.3898 18.5958 24.5015 18.8358 24.5015C19.3342 24.5015 19.6214 24.1578 19.6214 23.3823C19.6214 22.6069 19.3363 22.2332 18.8358 22.2332Z" fill="#CA005D"/>
    <path d="M22.6079 22.8239V22.6885C22.6079 22.405 22.4212 22.2332 22.0869 22.2332C21.7525 22.2332 21.4018 22.3019 21.0469 22.4716V21.7047C21.4162 21.593 21.7525 21.5329 22.1505 21.5329C22.9196 21.5329 23.3976 21.8615 23.3976 22.6799C23.3976 23.2556 23.3771 23.7539 23.3771 24.3081C23.3771 24.5981 23.3914 24.9182 23.4119 25.1072C22.8417 25.1072 22.5361 25.2017 22.052 25.2017C21.2254 25.2017 20.8131 24.8 20.8131 24.1213C20.8131 23.4425 21.3546 22.8625 22.6079 22.8239ZM22.6079 23.436C21.9577 23.4575 21.6254 23.668 21.6254 24.0633C21.6254 24.3296 21.8243 24.5186 22.13 24.5186C22.413 24.5186 22.5504 24.437 22.5792 24.3296C22.5997 24.2201 22.6079 23.8828 22.6079 23.436Z" fill="#CA005D"/>
    <path d="M24.0068 25.1287V21.6381H24.7493V21.9668C24.9482 21.6381 25.2826 21.5265 25.6108 21.5265C25.7544 21.5265 25.8672 21.5415 25.9738 21.5565V22.4222C25.8385 22.3556 25.6251 22.3255 25.4241 22.3255C25.1041 22.3255 24.819 22.4608 24.8047 22.7508C24.7924 23.3415 24.7924 24.2437 24.7924 25.1308H24.0068V25.1287Z" fill="#CA005D"/>
    <path d="M27.0815 21.636H28.0434V22.3534H27.0815C27.0815 23.0924 27.0753 23.5993 27.0753 24.1449C27.0753 24.4048 27.225 24.51 27.4876 24.51C27.703 24.51 27.8732 24.4735 28.0434 24.3747V25.0986C27.8096 25.1888 27.5676 25.2318 27.2825 25.2318C26.7122 25.2318 26.2918 24.9568 26.2918 24.3081V21.0023L27.0815 20.5104V21.636Z" fill="#CA005D"/>
    <path d="M30.2443 22.8239V22.6885C30.2443 22.405 30.0597 22.2332 29.7233 22.2332C29.387 22.2332 29.0383 22.3019 28.6834 22.4716V21.7047C29.0526 21.593 29.389 21.5329 29.7869 21.5329C30.5561 21.5329 31.034 21.8615 31.034 22.6799C31.034 23.2556 31.0135 23.7539 31.0135 24.3081C31.0135 24.5981 31.0258 24.9182 31.0484 25.1072C30.4782 25.1072 30.1705 25.2017 29.6864 25.2017C28.8598 25.2017 28.4475 24.8 28.4475 24.1213C28.4475 23.4425 28.989 22.8625 30.2423 22.8239M30.2443 23.436C29.5962 23.4575 29.2618 23.668 29.2618 24.0633C29.2618 24.3296 29.4608 24.5186 29.7685 24.5186C30.0515 24.5186 30.1869 24.437 30.2156 24.3296C30.2382 24.2201 30.2443 23.8828 30.2443 23.436Z" fill="#CA005D"/>
    <path d="M36.0327 25.1287H35.2492V22.899C35.2492 22.4351 35.0789 22.2654 34.722 22.2654C34.5148 22.2654 34.2092 22.3534 34.2092 22.5253C34.2174 22.6069 34.2318 22.7122 34.2318 22.8239V25.1265H33.4482V22.8969C33.4482 22.4265 33.2698 22.2632 32.9642 22.2632C32.6996 22.2632 32.437 22.3384 32.437 22.5919V25.1287H31.6535V21.7133C32.3447 21.7133 32.5662 21.5501 33.079 21.5501C33.5405 21.5501 33.7272 21.6639 33.8974 21.8186C34.1538 21.6467 34.482 21.5501 34.9025 21.5501C35.5773 21.5501 36.0348 21.8723 36.0348 22.7873V25.1308L36.0327 25.1287Z" fill="#CA005D"/>
    <path d="M39.5915 23.3759C39.5915 24.4735 38.9843 25.2339 38.0531 25.2339C37.1219 25.2339 36.5229 24.4735 36.5229 23.3759C36.5229 22.2783 37.1362 21.5329 38.0531 21.5329C38.97 21.5329 39.5915 22.2654 39.5915 23.3759ZM37.3701 23.3759C37.3701 24.1299 37.6839 24.5036 38.0757 24.5036C38.4674 24.5036 38.7526 24.1599 38.7526 23.3759C38.7526 22.5919 38.4387 22.2568 38.0408 22.2568C37.6429 22.2568 37.3701 22.594 37.3701 23.3759Z" fill="#CA005D"/>
    <path d="M41.2221 21.5329C41.4847 21.5329 41.7083 21.5544 41.9913 21.636V22.4136C41.657 22.2718 41.4211 22.2332 41.1934 22.2332C40.9227 22.2332 40.7524 22.3534 40.7524 22.5317C40.7524 23.0687 42.1472 23.0172 42.1472 24.0912C42.1472 24.6733 41.7472 25.2318 40.8222 25.2318C40.5309 25.2318 40.2314 25.2017 39.9525 25.1136V24.3833C40.2232 24.48 40.5432 24.5251 40.7729 24.5251C41.1503 24.5251 41.3432 24.3747 41.3432 24.1449C41.3432 23.5542 39.9402 23.6444 39.9402 22.6219C39.9402 21.9518 40.4263 21.5329 41.2221 21.5329Z" fill="#CA005D"/>
    <path d="M21.9453 31.3859V27.397H23.9227V27.876C23.5842 27.8524 23.1309 27.8459 22.5443 27.8459C22.493 27.8459 22.4663 27.8824 22.4663 27.9404C22.4602 28.1767 22.454 28.6042 22.454 29.0832H23.7606V29.5515H22.454V31.3859H21.9453Z" fill="#CA005D"/>
    <path d="M24.9544 27.818C24.9544 28.007 24.8293 28.1424 24.6488 28.1424C24.4683 28.1424 24.3329 28.007 24.3329 27.818C24.3329 27.6397 24.4621 27.5044 24.6488 27.5044C24.8354 27.5044 24.9544 27.6397 24.9544 27.818ZM24.9154 28.6471C24.899 29.4763 24.8929 30.5352 24.8929 31.3859H24.4129V28.6471H24.9154Z" fill="#CA005D"/>
    <path d="M25.8384 29.3087V31.3859H25.3585V28.7116C25.9061 28.7116 25.98 28.5698 26.501 28.5698C26.9871 28.5698 27.4158 28.819 27.4158 29.5171V31.3859H26.9358V29.6052C26.9358 29.1798 26.743 29.0252 26.3759 29.0252C26.0477 29.0252 25.8384 29.1605 25.8384 29.3087Z" fill="#CA005D"/>
    <path d="M29.2823 29.5987V29.4569C29.2823 29.1627 29.108 29.0016 28.7798 29.0016C28.5193 29.0016 28.267 29.0617 28.0106 29.1841V28.7159C28.2711 28.6171 28.5255 28.5634 28.8249 28.5634C29.4075 28.5634 29.7623 28.8125 29.7623 29.4398C29.7623 29.9145 29.7459 30.3398 29.7459 30.7844C29.7459 31.0207 29.7562 31.2162 29.7685 31.3708C29.3562 31.3708 29.0957 31.4482 28.7573 31.4482C28.1419 31.4482 27.824 31.1174 27.824 30.6147C27.824 30.0691 28.2547 29.6266 29.2823 29.603M29.2823 29.9896C28.628 30.0004 28.345 30.1916 28.345 30.5761C28.345 30.8252 28.5132 31.0207 28.8147 31.0207C29.1162 31.0207 29.2331 30.9434 29.2557 30.8188C29.2782 30.7071 29.2823 30.3935 29.2823 29.9896Z" fill="#CA005D"/>
    <path d="M30.712 29.3087V31.3859H30.232V28.7116C30.7797 28.7116 30.8535 28.5698 31.3745 28.5698C31.8607 28.5698 32.2893 28.819 32.2893 29.5171V31.3859H31.8094V29.6052C31.8094 29.1798 31.6166 29.0252 31.2494 29.0252C30.9212 29.0252 30.712 29.1605 30.712 29.3087Z" fill="#CA005D"/>
    <path d="M34.0287 31.0207C34.1928 31.0207 34.3159 31.0035 34.4533 30.9777V31.4159C34.2954 31.4503 34.1538 31.4696 34.0185 31.4696C33.2226 31.4696 32.6955 30.9842 32.6955 30.0133C32.6955 29.1326 33.1652 28.5634 34.0185 28.5634C34.1662 28.5634 34.3118 28.5805 34.4533 28.6042V29.0832C34.3056 29.0359 34.1764 29.0187 34.0123 29.0187C33.5323 29.0187 33.2329 29.3023 33.2329 30.0197C33.2329 30.7372 33.5323 31.0207 34.0287 31.0207Z" fill="#CA005D"/>
    <path d="M35.4625 27.818C35.4625 28.007 35.3374 28.1424 35.1569 28.1424C34.9764 28.1424 34.841 28.007 34.841 27.818C34.841 27.6397 34.9702 27.5044 35.1569 27.5044C35.3435 27.5044 35.4625 27.6397 35.4625 27.818ZM35.4235 28.6471C35.4071 29.4763 35.401 30.5352 35.401 31.3859H34.921V28.6471H35.4235Z" fill="#CA005D"/>
    <path d="M36.2973 29.9897C36.2912 30.0197 36.2912 30.0842 36.2912 30.1078C36.2912 30.7157 36.6296 31.0357 37.1342 31.0357C37.3085 31.0357 37.5301 31.0121 37.7229 30.924V31.3665C37.526 31.4439 37.288 31.4675 37.1055 31.4675C36.3199 31.4675 35.7722 31.0121 35.7722 29.9875C35.7722 29.124 36.2912 28.5612 37.0029 28.5612C37.6757 28.5612 37.9526 29.0402 37.9526 29.661C37.9526 29.7491 37.9464 29.8565 37.93 29.9875H36.2973V29.9897ZM37.3147 29.5751C37.4111 29.5751 37.446 29.5278 37.446 29.4333C37.446 29.1798 37.2921 29.0016 36.9762 29.0016C36.564 29.0016 36.3937 29.3023 36.3445 29.5751H37.3167H37.3147Z" fill="#CA005D"/>
    <path d="M38.3772 31.3859V28.6471H38.8407V28.9242C38.9864 28.6643 39.2817 28.5569 39.5361 28.5569C39.6653 28.5569 39.7453 28.5677 39.8171 28.587V29.1261C39.6981 29.0832 39.5689 29.066 39.4335 29.066C39.1279 29.066 38.8797 29.1841 38.8674 29.4569C38.8572 29.9359 38.8572 30.6577 38.8572 31.3859H38.3772Z" fill="#CA005D"/>
    <path d="M41.4478 29.5987V29.4569C41.4478 29.1627 41.2734 29.0016 40.9452 29.0016C40.6847 29.0016 40.4304 29.0617 40.176 29.1841V28.7159C40.4365 28.6171 40.6909 28.5634 40.9904 28.5634C41.5729 28.5634 41.9277 28.8125 41.9277 29.4398C41.9277 29.9145 41.9113 30.3398 41.9113 30.7844C41.9113 31.0207 41.9216 31.2162 41.9339 31.3708C41.5216 31.3708 41.2611 31.4482 40.9227 31.4482C40.3073 31.4482 39.9894 31.1174 39.9894 30.6147C39.9894 30.0691 40.4181 29.6266 41.4478 29.603M41.4478 29.9896C40.7914 30.0004 40.5104 30.1916 40.5104 30.5761C40.5104 30.8252 40.6806 31.0207 40.9801 31.0207C41.2796 31.0207 41.3985 30.9434 41.4211 30.8188C41.4437 30.7071 41.4498 30.3935 41.4498 29.9896" fill="#CA005D"/>
    <path d="M43.5338 31.3944C43.1523 31.3944 42.8836 31.0873 42.8836 30.7092C42.8836 30.3312 43.1523 30.0176 43.5338 30.0176C43.9153 30.0176 44.1902 30.3226 44.1902 30.7092C44.1902 31.0959 43.9174 31.3944 43.5338 31.3944ZM43.5297 30.1357C43.2118 30.1357 43.0046 30.3913 43.0046 30.7071C43.0046 31.0228 43.2118 31.2785 43.5297 31.2785C43.8476 31.2785 44.0527 31.0228 44.0527 30.7071C44.0527 30.3913 43.8476 30.1357 43.5297 30.1357ZM43.3656 31.1496H43.2446V30.2431C43.3389 30.2431 43.4005 30.2302 43.4948 30.2302C43.661 30.2302 43.7943 30.3183 43.7943 30.4837C43.7943 30.5911 43.7389 30.6684 43.6384 30.7157C43.6302 30.7221 43.6282 30.7286 43.6282 30.7372C43.6282 30.7436 43.6302 30.7565 43.6364 30.7651L43.8702 31.1496H43.7389L43.5482 30.8446C43.5092 30.7866 43.4907 30.7715 43.4497 30.7715H43.3718V31.1496H43.3656ZM43.4497 30.6577C43.5912 30.6577 43.6589 30.5997 43.6589 30.4858C43.6589 30.3935 43.5851 30.3441 43.4784 30.3441C43.4107 30.3441 43.3759 30.3613 43.3718 30.3806C43.3656 30.4815 43.3656 30.5804 43.3656 30.6577H43.4497Z" fill="#CA005D"/>
    </svg>
    