<svg width="46" height="46" viewBox="0 0 46 46" fill="none" xmlns="http://www.w3.org/2000/svg">
    <g clip-path="url(#clip0_32_21255)">
    <path fill-rule="evenodd" clip-rule="evenodd" d="M0.0471802 14.0585C0.0471802 12.2706 1.27932 11.2054 3.04631 11.2054C3.8367 11.2054 4.40258 11.3935 4.76035 11.5928V12.8778H4.09226C3.89694 12.7008 3.56837 12.5332 3.12662 12.5332C2.41837 12.5332 1.92551 13.0342 1.92551 14.0808C1.92551 15.1275 2.37639 15.5856 3.08647 15.5856C3.64139 15.5856 3.93893 15.3975 4.16528 15.1983H4.78226V16.379C4.43361 16.6081 3.81662 16.88 2.93313 16.88C1.12599 16.88 0.0471802 15.8762 0.0471802 14.0585Z" fill="#004B8B"/>
    <path fill-rule="evenodd" clip-rule="evenodd" d="M35.8195 15.5316L38.3568 12.5853H35.9546V11.2891H40.4834V12.5853L37.937 15.5223H40.4323V16.798H35.8213V15.5334L35.8195 15.5316ZM31.6795 11.9577C32.1614 11.5499 32.8405 11.2053 33.6309 11.2053C34.4213 11.2053 35.1003 11.5406 35.1003 12.7623V16.7961H33.2512V13.2539C33.2512 12.7734 33.0559 12.6487 32.6141 12.6487C32.2746 12.6487 31.977 12.7436 31.7215 12.8256V16.7961H29.8724V11.2891H31.1556C31.4422 11.2891 31.6065 11.4046 31.6795 11.9577ZM27.0686 15.4683V14.4961C26.8842 14.4644 26.6688 14.444 26.4625 14.444C25.9697 14.444 25.6612 14.6432 25.6612 15.1032C25.6612 15.5632 25.9496 15.7718 26.3493 15.7718C26.6268 15.7718 26.8732 15.6359 27.0686 15.4683ZM27.1708 16.2728C26.7911 16.7011 26.2873 16.8687 25.621 16.8687C24.6663 16.8687 23.9051 16.3156 23.9051 15.228C23.9051 14.0678 24.7777 13.5147 26.0299 13.5147C26.4406 13.5147 26.7582 13.5556 27.0667 13.6189V13.2427C27.0667 12.7623 26.8203 12.5425 26.1522 12.5425C25.6192 12.5425 25.1774 12.6989 24.8689 12.9075H24.314V11.643C24.8178 11.4232 25.5462 11.2035 26.5118 11.2035C28.1236 11.2035 28.914 11.7473 28.914 13.1049V16.7942H27.9082C27.4774 16.7942 27.2712 16.6378 27.1689 16.2709L27.1708 16.2728ZM21.3478 16.7961V11.2891H22.5397C23.0947 11.2891 23.1859 11.4772 23.1859 12.3451V16.7961H21.3478ZM21.3167 10.0768C21.3167 9.56461 21.7274 9.18842 22.2714 9.18842C22.8154 9.18842 23.2261 9.56461 23.2261 10.0768C23.2261 10.5889 22.8154 10.9539 22.2714 10.9539C21.7274 10.9539 21.3167 10.5889 21.3167 10.0768ZM17.487 11.2891H18.073V10.9539C18.073 9.82534 18.7502 9.35416 19.9002 9.35416C20.342 9.35416 20.6194 9.41748 20.8348 9.50129V10.5572H20.5464C20.1357 10.5572 19.9203 10.641 19.9203 11.0284V11.2891H20.8348V12.5015H19.9203V16.7961H18.0712V12.5015H17.4852V11.2891H17.487ZM13.4803 11.9577C13.964 11.5499 14.6412 11.2053 15.4316 11.2053C16.222 11.2053 16.8993 11.5406 16.8993 12.7623V16.7961H15.0501V13.2539C15.0501 12.7734 14.8548 12.6487 14.4131 12.6487C14.0735 12.6487 13.776 12.7436 13.5205 12.8256V16.7961H11.6713V11.2891H12.9546C13.243 11.2891 13.4073 11.4046 13.4785 11.9577H13.4803ZM9.10482 14.0901C9.10482 12.9932 8.69411 12.4904 8.09903 12.4904C7.50395 12.4904 7.08228 12.9913 7.08228 14.0901C7.08228 15.1889 7.49299 15.647 8.09903 15.647C8.70506 15.647 9.10482 15.1777 9.10482 14.0901ZM5.21307 14.0678C5.21307 12.3023 6.4653 11.2053 8.09903 11.2053C9.73276 11.2053 10.974 12.3023 10.974 14.0678C10.974 15.8333 9.7218 16.8781 8.09903 16.8781C6.47625 16.8781 5.21307 15.8221 5.21307 14.0678Z" fill="#004B8B"/>
    <path fill-rule="evenodd" clip-rule="evenodd" d="M44.0958 15.4683V14.4961C43.9115 14.4645 43.6961 14.444 43.4898 14.444C42.997 14.444 42.6885 14.6432 42.6885 15.1032C42.6885 15.5632 42.9769 15.7718 43.3766 15.7718C43.6541 15.7718 43.9005 15.6359 44.0958 15.4683ZM44.1999 16.2728C43.8202 16.7011 43.3164 16.8688 42.6483 16.8688C41.6936 16.8688 40.9324 16.3156 40.9324 15.228C40.9324 14.0678 41.805 13.5147 43.059 13.5147C43.4697 13.5147 43.7874 13.5556 44.0958 13.619V13.2428C44.0958 12.7623 43.8494 12.5425 43.1813 12.5425C42.6483 12.5425 42.2066 12.699 41.8981 12.9075H41.3431V11.643C41.847 11.4232 42.5753 11.2035 43.5409 11.2035C45.1528 11.2035 45.945 11.7473 45.945 13.1049V16.7943H44.9392C44.5084 16.7943 44.3021 16.6378 44.1999 16.2709V16.2728Z" fill="#004B8B"/>
    <path fill-rule="evenodd" clip-rule="evenodd" d="M34.56 22.8562C30.4966 22.8562 26.5611 21.9791 24.3615 19.7126C24.0785 19.4202 24.0804 18.9509 24.367 18.6622C24.6535 18.3717 25.1135 18.3736 25.3965 18.666C27.3204 20.6494 30.6938 22.1132 34.5618 22.1132C34.7626 22.1132 34.925 22.2789 34.925 22.4838C34.925 22.6886 34.7626 22.8562 34.5618 22.8562H34.56Z" fill="#004B8B"/>
    <path fill-rule="evenodd" clip-rule="evenodd" d="M35.7209 22.8562C35.5201 22.8562 35.3577 22.6886 35.3577 22.4838C35.3577 22.2789 35.5201 22.1132 35.7209 22.1132C39.5871 22.1132 42.9604 20.6494 44.8862 18.666C45.1692 18.3736 45.6292 18.3717 45.9158 18.6622C46.0581 18.8056 46.1312 18.9956 46.1312 19.1856C46.1312 19.3755 46.0618 19.5655 45.9194 19.7126C43.7198 21.9809 39.7843 22.8562 35.7209 22.8562Z" fill="#004B8B"/>
    <path fill-rule="evenodd" clip-rule="evenodd" d="M2.92035 0.0595951L2.82178 0.108016C2.7798 0.206721 2.76154 0.234656 2.7652 0.338947L2.80718 0.36502V0.420891C2.80718 0.476761 2.86194 0.504696 2.91123 0.517733C3.02988 0.549393 2.95504 0.502834 3.05908 0.478623L3.17774 0.446964L3.24893 0.355708L3.27448 0.217895C3.19416 0.141538 3.30369 0.139676 3.20694 0.0484211L3.12662 0.0130364L3.09377 0.0316599C3.06091 0.0111741 3.039 0 3.0171 0C2.98972 0 2.96234 0.0186235 2.92035 0.0595951Z" fill="#338AC2"/>
    <path fill-rule="evenodd" clip-rule="evenodd" d="M15.6854 0.0594433L15.5868 0.107864C15.5448 0.206569 15.5266 0.234504 15.5302 0.338796L15.5722 0.364868V0.420739C15.5722 0.476609 15.627 0.504545 15.6762 0.517581C15.7949 0.549241 15.7201 0.502682 15.8241 0.478472L15.9428 0.446812L16.0139 0.355557L16.0395 0.217743C15.9592 0.141387 16.0687 0.139524 15.972 0.0482692L15.8916 0.0128846L15.8588 0.0315081C15.8259 0.00915993 15.804 -0.00201416 15.7821 -0.00201416C15.7547 -0.00201416 15.7292 0.0166093 15.6854 0.057581V0.0594433Z" fill="#338AC2"/>
    <path fill-rule="evenodd" clip-rule="evenodd" d="M2.506 5.20858C2.506 5.2719 2.45854 5.30729 2.36362 5.30915L2.276 5.35012L2.18838 5.32964L2.0606 5.38923C1.98941 5.35943 1.93647 5.34453 1.90362 5.34453C1.89997 5.34453 1.88719 5.3464 1.86163 5.35198C1.8379 5.35757 1.816 5.35943 1.79592 5.35943C1.77036 5.35943 1.75028 5.35943 1.73751 5.35385L1.62981 5.38923H1.60608L1.59695 5.39482L1.32679 5.39854L1.29759 5.4451L1.17528 5.40599L1.126 5.4302L1.00917 5.43951L0.936157 5.42462C0.90695 5.42834 0.877744 5.43206 0.850363 5.43765C0.822982 5.44324 0.806554 5.4451 0.802903 5.4451L0.739014 5.45441L0.709808 5.47304L0.739014 5.56243L0.777347 5.66486L0.757268 5.74308L0.806554 5.78219L0.777347 5.84178V5.9051C0.777347 5.9349 0.76822 5.97028 0.753617 6.01312L0.739014 6.17514H0.817506L0.97449 6.16024L1.04203 6.17514H1.12052L1.14973 6.15652L1.30124 6.14162L1.40893 6.177C1.46187 6.16769 1.49838 6.16397 1.52211 6.16211H1.68457L1.77766 6.13789L1.8306 6.16211L1.90362 6.15279C1.92917 6.15093 1.94925 6.14907 1.96203 6.14907L2.24679 6.11741L2.28147 6.13231C2.2906 6.12858 2.30338 6.12672 2.31616 6.12672C2.33806 6.12672 2.36727 6.13417 2.40013 6.14721C2.44211 6.2068 2.46401 6.26081 2.46401 6.30737C2.46401 6.32413 2.46401 6.33717 2.45854 6.34648L2.36544 6.36138L2.2833 6.40607H2.21028L2.17195 6.43587H2.03505L1.91274 6.46753L1.77036 6.48988L1.74116 6.48429L1.73203 6.4936L1.54584 6.47312L1.48195 6.49733L1.39433 6.48802C1.34505 6.51781 1.28481 6.53271 1.21362 6.53271H1.16981C1.15338 6.53457 1.12052 6.54202 1.06759 6.5532C0.99822 6.51409 0.965363 6.4936 0.965363 6.4936C0.965363 6.4936 0.956236 6.50105 0.936157 6.51781C0.916077 6.53457 0.894173 6.54575 0.866792 6.5532L0.773696 6.53271H0.715284C0.707982 6.56623 0.698855 6.6668 0.686077 6.83441C0.695204 6.87352 0.70068 6.90891 0.70068 6.9387L0.651395 7.06348L0.686077 7.12494L0.642268 7.20502L0.656871 7.27951L0.633141 7.32607C0.591157 7.55328 0.56195 7.69854 0.545522 7.76186C0.519966 7.86243 0.49076 7.92016 0.457903 7.93692L0.350204 7.88292H0.218776L0.253458 7.72834V7.65757L0.282665 7.62777L0.291792 7.56259L0.297268 7.53838V7.4732L0.244331 7.42292L0.255284 7.39312C0.255284 7.32235 0.269887 7.26089 0.299093 7.20688L0.275363 7.1864L0.28449 7.12494L0.269887 7.05603L0.299093 6.97595V6.7953L0.319173 6.62024L0.299093 6.55879V6.53457L0.220601 6.57368L0.107427 6.51409L0.0581409 6.5234C0.0252838 6.53085 0.00520442 6.53271 -0.000271767 6.53271C-0.0915416 6.53271 -0.137177 6.4787 -0.137177 6.36883C-0.137177 6.22915 -0.0696368 6.16024 0.0636171 6.16024C0.131157 6.16024 0.178617 6.16024 0.207823 6.16397L0.342903 6.17514V5.97773L0.319173 5.96842L0.342903 5.66672L0.293617 5.53263L0.288141 5.48794L0.253458 5.46745L0.0946489 5.55684L0.0161568 5.44696C-0.0440813 5.42089 -0.0732876 5.36874 -0.0732876 5.29239C-0.0532083 5.26259 -0.0440813 5.23838 -0.0440813 5.22348V5.10802H0.0928235C0.160363 5.06518 0.222427 5.04283 0.279014 5.04283C0.275363 5.04283 0.322823 5.05028 0.421395 5.06332C0.479808 5.05773 0.587506 5.05215 0.74449 5.04283L0.921553 5.06332L1.05298 5.05773L1.07306 5.04283C1.09497 5.0298 1.12052 5.02235 1.14608 5.02235C1.16981 5.02235 1.18624 5.02607 1.20084 5.03538L1.22092 5.04097C1.25012 5.03725 1.29393 5.0298 1.35235 5.02049C1.41076 5.01117 1.45457 5.00559 1.48378 5L1.48925 5.0149L1.51846 5.03911H1.53854C1.55497 5.03911 1.57687 5.03538 1.6079 5.0298C1.63711 5.02235 1.65901 5.02049 1.67179 5.02049H1.68639L1.81782 5.04283L1.9602 5.0596C2.00949 5.04656 2.05512 5.03911 2.09711 5.03911C2.12997 5.03911 2.161 5.04656 2.1902 5.0596H2.27417C2.30338 5.04656 2.33624 5.03911 2.37274 5.03911C2.46766 5.03911 2.51513 5.09312 2.51513 5.20113L2.506 5.20858ZM4.0229 6.90332C4.0229 6.97968 4.01012 7.0281 3.98457 7.04858L3.96084 7.06907L3.93711 7.13984L3.85862 7.16405C3.83671 7.21619 3.80203 7.25903 3.75639 7.28883L3.71259 7.30373L3.6487 7.37263L3.59028 7.38753C3.56655 7.44713 3.52092 7.47879 3.4479 7.48251C3.4406 7.49182 3.426 7.51231 3.40409 7.54211C3.35481 7.57563 3.30552 7.59611 3.25259 7.6017L3.22885 7.60729L3.19417 7.65198H3.0956L3.01711 7.71158L2.81632 7.56259L2.72322 7.36891L2.71774 7.12494L2.69766 7.06534L2.75608 6.62769L2.77616 6.60721C2.76703 6.55692 2.76155 6.5085 2.76155 6.46194C2.76155 6.43215 2.77068 6.37069 2.79076 6.27757L2.81449 6.16211C2.80901 6.14162 2.79441 6.12113 2.77616 6.09692L2.80536 6.00194L2.81449 5.88648L2.82362 5.87158C2.81084 5.84178 2.80171 5.80826 2.79989 5.77287C2.80354 5.76543 2.80536 5.75798 2.80901 5.74494C2.81266 5.73377 2.81449 5.72445 2.81449 5.717C2.80536 5.68721 2.79989 5.65927 2.79989 5.6332C2.79989 5.55312 2.8437 5.51773 2.93132 5.52332H2.98973C3.02806 5.50656 3.05362 5.49911 3.06274 5.49911C3.12846 5.49911 3.17227 5.53636 3.19417 5.60899V5.62947C3.20695 5.66858 3.21425 5.70769 3.21425 5.74494C3.21425 5.77474 3.2106 5.79709 3.20512 5.81012L3.17044 6.05968L3.20512 6.12858C3.20512 6.18818 3.18505 6.24219 3.14671 6.28874L3.16679 6.34834L3.1029 6.5383C3.0956 6.62211 3.0883 6.68356 3.07917 6.72826V6.85304L3.04997 6.92194L3.05544 6.97223L3.04632 7.08769L3.05544 7.17709L3.12846 7.23668L3.18687 7.22737L3.196 7.21247L3.23433 7.21806L3.29822 7.19757L3.35116 7.14356L3.37124 7.11377L3.40592 7.10818L3.41505 7.08397L3.42965 7.06348L3.45885 7.08397L3.50814 7.03368L3.53735 7.03927L3.54647 7.00389H3.5556L3.5702 6.96478L3.61401 6.94429L3.70711 6.8996C3.78195 6.84559 3.85679 6.81951 3.92798 6.81951H3.94806C3.98457 6.84186 4.0083 6.87352 4.02108 6.90891L4.0229 6.90332ZM7.41632 6.8251C7.41632 6.85117 7.39441 6.88656 7.35243 6.92939L7.29766 7.01506L7.27759 7.11563L7.23378 7.13053L7.22465 7.16032C7.17171 7.17709 7.1352 7.21806 7.11147 7.2851C7.07497 7.33166 7.03663 7.36518 6.99465 7.38567C6.97822 7.40243 6.96362 7.4136 6.95084 7.42105L6.92711 7.46575L6.8833 7.47506L6.75552 7.54397L6.58941 7.56445L6.5456 7.55514L6.47259 7.57004L6.44338 7.53466C6.39774 7.51231 6.36489 7.4881 6.34481 7.46575C6.30465 7.45644 6.27544 7.42478 6.25719 7.37077C6.20243 7.30372 6.17322 7.25158 6.17322 7.21061V7.19571L6.13854 7.13611L6.12941 7.1268L6.1002 7.03741L6.05639 6.94243L6.06552 6.82883L6.01624 6.76364L5.94322 6.3353C5.93409 6.27943 5.92862 6.23101 5.92862 6.19004L5.91949 6.16583L5.89393 6.13045L5.85013 6.19004L5.67124 6.37814L5.60735 6.48243L5.57631 6.5532L5.52338 6.63328L5.48505 6.67239L5.49052 6.6966L5.42116 6.85117L5.38282 6.90146L5.33354 6.91077L5.28973 6.95547C5.28973 7.02251 5.2587 7.06534 5.19663 7.08583L5.18751 7.09514C5.1583 7.16777 5.12544 7.21247 5.08893 7.22923L5.04512 7.29814C4.97393 7.36518 4.92647 7.40615 4.90274 7.42292C4.89362 7.45644 4.87536 7.48437 4.84981 7.50672C4.84251 7.51603 4.83155 7.53093 4.81512 7.54583C4.806 7.6017 4.76036 7.64267 4.67822 7.66502L4.62528 7.67992C4.55957 7.67619 4.50663 7.63895 4.46282 7.56445L4.38981 7.43968L4.41901 7.32049L4.40441 7.2553L4.41354 7.24599L4.41901 7.18081L4.36608 7.06162L4.40441 7.00202L4.38433 6.93684L4.42266 6.86794L4.43362 6.75247L4.41901 6.73198L4.44822 6.66121L4.43727 6.62583L4.43362 6.54575L4.44822 6.39676C4.43909 6.36324 4.43362 6.34275 4.43362 6.33158V6.29247L4.41901 6.25336L4.43362 6.0932V5.82502L4.51941 5.67603C4.61798 5.69279 4.68552 5.71514 4.72386 5.74308C4.76219 5.77101 4.78044 5.8213 4.78044 5.89579V5.94049L4.8206 6.00008L4.80052 6.10437L4.8206 6.30364L4.78592 6.39862L4.80052 6.50292V6.58858L4.75671 6.64259L4.80052 6.73198L4.76219 6.78599L4.75489 6.84L4.78409 6.89401L4.74393 6.9983L4.72933 7.043V7.08769L4.75489 7.13798L4.83885 7.05417C4.83885 7.00389 4.85528 6.97036 4.88814 6.9536C4.89179 6.92008 4.90457 6.89587 4.92647 6.87911L4.91187 6.86421L4.97576 6.80462L4.99036 6.78413V6.73943L5.06885 6.67984L5.08893 6.62955L5.13274 6.59976L5.32441 6.38C5.30798 6.40049 5.25505 6.46194 5.16378 6.56437V6.57368L5.1729 6.5383L5.23679 6.46381L5.2806 6.38V6.32972L5.35362 6.30551L5.36274 6.24032L5.38282 6.21984L5.3883 6.19563V6.16024L5.45766 6.08947V6.06526C5.45401 6.05595 5.45219 6.0485 5.45219 6.04478C5.45219 5.98518 5.48505 5.95166 5.55076 5.94607C5.57997 5.88648 5.62378 5.85109 5.68219 5.84178L5.71139 5.79709L5.72052 5.78777C5.74973 5.74494 5.79354 5.71514 5.85195 5.69838L5.89576 5.64437H6.01259L6.071 5.71328L6.12393 5.74308L6.12941 5.75798L6.16409 5.76729L6.17322 5.87158L6.25719 5.92186L6.22251 6.03174L6.27727 6.15093V6.29061L6.3156 6.48057L6.32473 6.65935L6.36854 6.76364L6.39774 6.89401C6.41782 6.91449 6.43243 6.94243 6.44155 6.97781L6.52917 7.00202V7.10259L6.57846 7.1566V7.1715L6.59854 7.17709L6.61862 7.20688L6.6387 7.18267C6.6387 7.18267 6.6387 7.18267 6.66243 7.18826C6.69893 7.18826 6.73544 7.15474 6.7756 7.08955L6.83401 7.07652L6.84862 7.05045C6.85774 7.02437 6.87782 7.00389 6.90703 6.98899L6.94171 6.99457L6.96179 6.97409L6.96727 6.94988L6.98187 6.92939C7.01473 6.90518 7.03663 6.87166 7.04576 6.8251L7.10052 6.76551L7.10965 6.72081L7.14433 6.64073L7.23743 6.60534L7.36886 6.65004L7.41266 6.7953C7.41266 6.7953 7.41266 6.80275 7.41814 6.80462V6.81951L7.41632 6.8251ZM9.43338 5.61457L9.38409 5.67976L9.42243 5.79895L9.35854 5.87344L9.33481 5.97773L9.3202 6.00194L9.32933 6.02615C9.32933 6.07271 9.31838 6.1081 9.29465 6.13045L9.28552 6.14534V6.16583C9.29465 6.19004 9.30013 6.21053 9.30013 6.23101C9.30013 6.24777 9.30013 6.25895 9.29465 6.2664L9.30013 6.28688L9.28005 6.34089L9.29465 6.40049L9.25632 6.4396L9.27092 6.5085L9.30013 6.54389L9.25632 6.583V6.66308L9.22163 6.74316L9.24536 6.82324L9.21616 6.86235L9.26544 6.89773L9.19608 7.0132L9.1906 7.0281L9.23989 7.03741L9.2052 7.15287V7.17336C9.2052 7.19571 9.2052 7.21433 9.19973 7.22737L9.2052 7.24227L9.2837 7.25158L9.34759 7.35215L9.3129 7.42664L9.36766 7.42105C9.38774 7.46016 9.3987 7.49555 9.40235 7.52534L9.32933 7.59984C9.30743 7.62405 9.27457 7.6464 9.23076 7.66875L9.14679 7.71344L9.12306 7.68923L9.07378 7.71344L8.92227 7.53466V7.44899C8.90219 7.38381 8.89306 7.32235 8.89306 7.26462V7.23482L8.86386 6.94243L8.90401 6.73385L8.87481 6.61466L8.79084 6.75433L8.74703 6.8847L8.7087 6.90518L8.63933 7.01506L8.51703 7.13053L8.48235 7.19012L8.37465 7.2851L8.35092 7.35028L8.19393 7.45085L8.02782 7.64267L7.93473 7.66316L7.87084 7.71344C7.7887 7.70972 7.72663 7.67806 7.68465 7.61846C7.53862 7.54397 7.46195 7.43968 7.45465 7.30373L7.47838 7.28883L7.4729 7.25903L7.46743 7.19943L7.43822 7.13425L7.46743 7.06348L7.47655 6.95919L7.51124 6.79344V6.77296C7.51124 6.77296 7.50576 6.75992 7.50576 6.75247C7.50576 6.73943 7.50941 6.72267 7.51489 6.70219C7.51124 6.69474 7.50941 6.6817 7.50941 6.66308C7.50941 6.63887 7.51854 6.60162 7.53862 6.54761L7.5733 6.53271C7.55322 6.51595 7.54409 6.49733 7.54409 6.4787V6.41352C7.54409 6.37441 7.56417 6.34275 7.60251 6.32413C7.61163 6.29061 7.62989 6.25709 7.65727 6.22356L7.63354 6.18445L7.69195 6.10996V6.08947C7.69195 6.02615 7.71386 5.96842 7.75584 5.91441L7.75036 5.82502L7.77044 5.80453V5.78964L7.76497 5.77846C7.76497 5.75425 7.77227 5.73935 7.78505 5.72445V5.69466C7.79782 5.66113 7.83251 5.61085 7.88727 5.54567C7.94203 5.47862 7.98401 5.42089 8.00957 5.37061L8.0333 5.39482L8.08806 5.37061L8.11179 5.3613L8.27243 5.2868L8.65028 5.30729V5.34267L8.76711 5.36688C8.84195 5.36688 8.89124 5.39109 8.91314 5.44138C8.91314 5.43206 8.91497 5.41903 8.91862 5.40599V5.38551L9.02084 5.48049L9.11393 5.50097L9.291 5.45628L9.35489 5.58105L9.4279 5.61085L9.43338 5.61457ZM8.9679 5.87344L8.94782 5.83806L8.90949 5.82874L8.75798 5.70397L8.65941 5.68907H8.58092L8.57179 5.66858L8.53346 5.68907L8.48965 5.66858H8.36187L8.37647 5.68907L8.2633 5.72818L8.24322 5.75239L8.22862 5.75798C8.1702 5.80826 8.13004 5.84923 8.10631 5.88275L8.07163 6.00194L8.05155 6.04664L8.10084 6.11555L8.01687 6.18073L8.026 6.20121C7.98949 6.26453 7.97306 6.32599 7.97306 6.38559L7.93473 6.43587V6.52526L7.89457 6.56996L7.88544 6.61466L7.87084 6.62397V6.69287L7.85624 6.71709C7.85624 6.75619 7.85259 6.78785 7.84711 6.81206L7.85624 6.83628L7.81243 6.93126L7.83251 6.96105L7.79782 7.01134L7.83251 7.10632L7.77957 7.17522L7.7887 7.2702V7.2851L7.80878 7.29441L7.83251 7.28883C7.84893 7.27207 7.86536 7.25717 7.88179 7.24413L7.87266 7.20502L7.94203 7.19571L7.95663 7.16032L8.24322 6.92008L8.27243 6.91077L8.30711 6.82696C8.32719 6.81951 8.35457 6.80648 8.38925 6.78785L8.42211 6.70964H8.46044L8.44584 6.62583L8.5152 6.61652C8.52251 6.60348 8.53163 6.58672 8.54624 6.56623C8.56084 6.54575 8.57727 6.52899 8.5937 6.51223L8.84378 6.17328L8.88211 6.09879L8.87663 6.0783L8.91131 6.02429L8.92044 5.97028L8.96425 5.93117L8.96973 5.87717L8.9679 5.87344ZM13.1243 6.8251C13.1243 6.85117 13.1024 6.88656 13.0604 6.92939L13.0075 7.01506L12.9874 7.11563L12.9436 7.13053L12.9345 7.16032C12.8816 7.17709 12.845 7.21806 12.8213 7.2851C12.7848 7.33166 12.7465 7.36518 12.7045 7.38567C12.6881 7.40243 12.6735 7.4136 12.6607 7.42105L12.637 7.46575L12.5931 7.47506L12.4654 7.54397L12.2993 7.56445L12.2554 7.55514L12.1824 7.57004L12.1532 7.53466C12.1076 7.51231 12.0747 7.4881 12.0546 7.46575C12.0163 7.45644 11.9853 7.42478 11.967 7.37077C11.9123 7.30372 11.8831 7.25158 11.8831 7.21061V7.19571L11.8484 7.13611L11.8393 7.1268L11.81 7.03741L11.7662 6.94243L11.7754 6.82883L11.7261 6.76364L11.6531 6.3353C11.6439 6.27943 11.6385 6.23101 11.6385 6.19004L11.6293 6.16583L11.6038 6.13045L11.56 6.19004L11.3811 6.37814L11.3172 6.48243L11.2862 6.5532L11.2332 6.63328L11.1949 6.67239L11.2004 6.6966L11.1328 6.85117L11.0927 6.90146L11.0434 6.91077L10.9996 6.95547C10.9996 7.02251 10.9685 7.06534 10.9065 7.08583L10.8973 7.09514C10.8681 7.16777 10.8353 7.21247 10.7988 7.22923L10.755 7.29814C10.6838 7.36518 10.6363 7.40615 10.6126 7.42292C10.6035 7.45644 10.5852 7.48437 10.5596 7.50672C10.5523 7.51603 10.5414 7.53093 10.525 7.54583C10.5158 7.6017 10.4702 7.64267 10.3881 7.66502L10.3351 7.67992C10.2694 7.67619 10.2165 7.63895 10.1727 7.56445L10.0996 7.43968L10.1289 7.32049L10.1143 7.2553L10.1234 7.24599L10.1289 7.18081L10.0741 7.06162L10.1124 7.00202L10.0923 6.93684L10.1307 6.86794L10.1416 6.75247L10.127 6.73198L10.1562 6.66121L10.1453 6.62583L10.1416 6.54575L10.1562 6.39676C10.1471 6.36324 10.1416 6.34275 10.1416 6.33158V6.29247L10.127 6.25336L10.1416 6.0932V5.82502L10.2274 5.67603C10.326 5.69279 10.3935 5.71514 10.4319 5.74308C10.4702 5.77101 10.4885 5.8213 10.4885 5.89579V5.94049L10.5268 6.00008L10.5067 6.10437L10.5268 6.30364L10.4921 6.39862L10.5067 6.50292V6.58858L10.4629 6.64259L10.5067 6.73198L10.4684 6.78599L10.4611 6.84L10.4903 6.89401L10.452 6.9983L10.4373 7.043V7.08769L10.4611 7.13798L10.545 7.05417C10.545 7.00389 10.5615 6.97036 10.5943 6.9536C10.598 6.92008 10.6108 6.89587 10.6327 6.87911L10.6181 6.86421L10.6819 6.80462L10.6966 6.78413V6.73943L10.775 6.67984L10.7951 6.62955L10.8389 6.59976L11.0306 6.38C11.0142 6.40049 10.9612 6.46194 10.87 6.56437V6.57368L10.8791 6.5383L10.943 6.46381L10.9868 6.38V6.32972L11.0598 6.30551L11.0689 6.24032L11.089 6.21984L11.0945 6.19563V6.16024L11.1639 6.08947V6.06526C11.1602 6.05595 11.1584 6.0485 11.1584 6.04478C11.1584 5.98518 11.1912 5.95166 11.257 5.94607C11.2862 5.88648 11.33 5.85109 11.3884 5.84178L11.4176 5.79709L11.4267 5.78777C11.4559 5.74494 11.4997 5.71514 11.5581 5.69838L11.6019 5.64437H11.7188L11.7772 5.71328L11.8319 5.74308L11.8374 5.75798L11.8721 5.76729L11.8812 5.87158L11.9652 5.92186L11.9305 6.03174L11.9853 6.15093V6.29061L12.0236 6.48057L12.0327 6.65935L12.0766 6.76364L12.1058 6.89401C12.1258 6.91449 12.1404 6.94243 12.1496 6.97781L12.2372 7.00202V7.10259L12.2865 7.1566V7.1715L12.3066 7.17709L12.3266 7.20688L12.3467 7.18267C12.3467 7.18267 12.3467 7.18267 12.3704 7.18826C12.407 7.18826 12.4435 7.15474 12.4836 7.08955L12.542 7.07652L12.5566 7.05045C12.5658 7.02437 12.5858 7.00389 12.615 6.98899L12.6497 6.99457L12.6698 6.97409L12.6753 6.94988L12.6899 6.92939C12.7227 6.90518 12.7446 6.87166 12.7538 6.8251L12.8085 6.76551L12.8177 6.72081L12.8523 6.64073L12.9454 6.60534L13.0769 6.65004L13.1207 6.7953C13.1207 6.7953 13.1207 6.80275 13.1262 6.80462V6.81951L13.1243 6.8251ZM15.0976 6.8549L15.0045 6.94429L14.999 6.97409C14.9899 7.03368 14.9607 7.08211 14.915 7.11935C14.8366 7.26834 14.727 7.37822 14.5865 7.44899L14.5135 7.50858L14.4496 7.51789L14.3711 7.57749L14.3163 7.58308L14.194 7.66316L14.1155 7.65385L14.0279 7.70413L13.9585 7.67433L13.9239 7.70413L13.8308 7.68923L13.7377 7.70413L13.703 7.67433L13.6044 7.65385L13.462 7.54397L13.3835 7.4434C13.3343 7.38008 13.3105 7.32607 13.3105 7.28324V7.26834L13.2612 7.19385V7.12866C13.2521 7.08769 13.2466 7.05231 13.2466 7.01879V6.9834L13.2229 6.8996L13.2466 6.84L13.2266 6.80089L13.285 6.70591L13.2704 6.62583L13.3087 6.49547L13.3288 6.46567L13.3489 6.34648L13.3397 6.32599L13.3981 6.26081L13.4073 6.21053L13.4456 6.09506L13.5095 5.95538L13.5971 5.8753L13.6172 5.83061L13.6464 5.7766L13.6555 5.72632L13.734 5.63134C13.7541 5.62389 13.776 5.6183 13.8016 5.61085C13.8143 5.54753 13.8965 5.51028 14.0462 5.50097C14.1739 5.52704 14.2543 5.56243 14.2908 5.60526C14.3273 5.61271 14.3546 5.62761 14.3747 5.64996L14.4769 5.65555L14.5445 5.74494C14.5609 5.77846 14.5719 5.81198 14.5773 5.84551L14.6157 5.88462L14.6011 5.95911C14.6047 5.98146 14.6066 6.0187 14.6066 6.06899L14.6321 6.08947V6.16397L14.6522 6.31854C14.5828 6.38745 14.5043 6.42842 14.4149 6.43773C14.3693 6.3502 14.3108 6.28502 14.2415 6.24219V6.07644L14.2068 6.02243L14.2104 5.98332L14.1593 5.92372L14.1356 5.9051L14.0918 5.92H14.0279C13.9841 5.92931 13.9439 5.96097 13.9056 6.01498C13.8673 6.06713 13.8271 6.12486 13.7869 6.18445L13.7815 6.23474L13.7523 6.25895V6.34834L13.6884 6.41725L13.6099 6.63514L13.6154 6.69474L13.577 6.78413L13.5916 6.89215L13.5624 6.90704L13.5533 7.04672L13.5588 7.07093L13.6172 7.13053L13.6427 7.23482L13.7121 7.2553L13.7176 7.29441L13.7997 7.31117L13.8636 7.32794C13.8873 7.3149 13.9147 7.30745 13.9458 7.30745H13.9804C14.0206 7.29069 14.0553 7.28324 14.0881 7.28324C14.11 7.27393 14.1393 7.26275 14.1758 7.25344C14.2141 7.19943 14.2707 7.17336 14.3419 7.17336H14.3711C14.3875 7.17336 14.3985 7.16405 14.4058 7.14915C14.4423 7.09328 14.4989 7.05603 14.5773 7.03927C14.6686 6.95547 14.7216 6.89028 14.7343 6.84C14.78 6.81393 14.8092 6.77296 14.8219 6.71522L14.8512 6.69474L14.8658 6.58113C15.0154 6.60348 15.0903 6.6817 15.0903 6.8102V6.84931L15.0976 6.8549ZM16.7277 6.90332C16.7277 6.97968 16.7149 7.0281 16.6893 7.04858L16.6656 7.06907L16.6419 7.13984L16.5634 7.16405C16.5415 7.21619 16.5068 7.25903 16.4612 7.28883L16.4173 7.30373L16.3535 7.37263L16.295 7.38753C16.2731 7.44713 16.2257 7.47879 16.1527 7.48251C16.1454 7.49182 16.1308 7.51231 16.1089 7.54211C16.0596 7.57563 16.0085 7.59611 15.9573 7.6017L15.9318 7.60729L15.8971 7.65198H15.7985L15.72 7.71158L15.5193 7.56259L15.4262 7.36891L15.4207 7.12494L15.4006 7.06534L15.459 6.62769L15.4791 6.60721C15.47 6.55692 15.4645 6.5085 15.4645 6.46194C15.4645 6.43215 15.4736 6.37069 15.4937 6.27757L15.5174 6.16211C15.5101 6.14162 15.4973 6.12113 15.4791 6.09692L15.5083 6.00194L15.5174 5.88648L15.5266 5.87158C15.5138 5.84178 15.5046 5.80826 15.5028 5.77287C15.5065 5.76543 15.5101 5.75798 15.512 5.74494C15.5156 5.73377 15.5174 5.72445 15.5174 5.717C15.5083 5.68721 15.5028 5.65927 15.5028 5.6332C15.5028 5.55312 15.5466 5.51773 15.6343 5.52332H15.6927C15.731 5.50656 15.7566 5.49911 15.7657 5.49911C15.8314 5.49911 15.8752 5.53636 15.8971 5.60899V5.62947C15.9099 5.66858 15.9172 5.70769 15.9172 5.74494C15.9172 5.77474 15.9135 5.79709 15.9081 5.81012L15.8734 6.05968L15.9081 6.12858C15.9081 6.18818 15.888 6.24219 15.8496 6.28874L15.8697 6.34834L15.8058 6.5383C15.8004 6.62211 15.7912 6.68356 15.7821 6.72826V6.85304L15.7529 6.92194L15.7584 6.97223L15.7493 7.08769L15.7584 7.17709L15.8314 7.23668L15.8898 7.22737L15.8989 7.21247L15.9373 7.21806L16.0012 7.19757L16.0541 7.14356L16.0742 7.11377L16.1089 7.10818L16.118 7.08397L16.1326 7.06348L16.1618 7.08397L16.2111 7.03368L16.2403 7.03927L16.2494 7.00389H16.2585L16.2731 6.96478L16.3169 6.94429L16.41 6.8996C16.4849 6.84559 16.5597 6.81951 16.6309 6.81951H16.651C16.6875 6.84186 16.7112 6.87352 16.724 6.90891L16.7277 6.90332ZM18.5403 7.22364C18.5403 7.26275 18.5111 7.31304 18.4527 7.37263C18.4362 7.42664 18.4125 7.46947 18.3796 7.503L18.3504 7.50858L18.2957 7.60356L18.2081 7.61846L18.115 7.67806L18.0657 7.76745H18.0109C17.9744 7.78235 17.9452 7.7898 17.9233 7.79352L17.8941 7.83263H17.8503C17.8083 7.83263 17.7663 7.86057 17.728 7.91644L17.6586 7.85684H17.6002C17.5582 7.85684 17.5217 7.84939 17.4925 7.83263H17.4085L17.3684 7.80842C17.2443 7.78794 17.1658 7.74138 17.1329 7.66502V7.65012L17.0745 7.62032L17.0453 7.53652L16.9869 7.49741V7.42292L16.9285 7.20502V7.0281L16.9577 6.94988V6.84559L16.9814 6.76737L16.9759 6.73198L17.0106 6.67239L17.0015 6.6817C17.0015 6.6519 17.0088 6.62024 17.0252 6.58672V6.56251L17.0106 6.44332C17.0106 6.38745 17.0343 6.33717 17.0836 6.29433C17.0873 6.28688 17.0891 6.27757 17.0891 6.26453C17.0891 6.2515 17.0836 6.22356 17.0727 6.18259C17.0617 6.14162 17.0562 6.11182 17.0562 6.09506C17.0562 6.05595 17.0654 6.01312 17.0854 5.97028C17.111 6.00939 17.1493 6.02988 17.1986 6.02988H17.2132C17.2205 6.01684 17.2351 6.00194 17.257 5.98518C17.2826 5.90138 17.3191 5.83247 17.3647 5.7766L17.3848 5.75611C17.3848 5.74308 17.3939 5.70397 17.414 5.64065H17.4523L17.4615 5.61644L17.5016 5.60713C17.5181 5.58105 17.529 5.56429 17.5327 5.56057C17.5381 5.55498 17.5728 5.53449 17.6385 5.49911C17.6513 5.4749 17.6714 5.45441 17.697 5.43393C17.7097 5.42648 17.7262 5.42089 17.7462 5.41344L17.7663 5.38364C17.8539 5.35385 17.9105 5.33895 17.9324 5.33895C17.958 5.33895 17.9835 5.3464 18.0054 5.35943L18.0292 5.35385L18.0639 5.37433C18.1022 5.40413 18.1423 5.42834 18.1807 5.44883L18.2646 5.51401V5.53449C18.3395 5.59409 18.3778 5.67976 18.3778 5.78777L18.3632 5.83806L18.3778 6.00194L18.334 6.03174L18.2847 6.16211L18.1916 6.2664L18.1862 6.34648C18.0821 6.42283 17.9854 6.48429 17.8977 6.53085C17.8685 6.57741 17.8229 6.59976 17.7608 6.59976H17.7462L17.6531 6.65935H17.5746L17.4578 6.70964L17.3702 6.66494H17.3611C17.3538 6.69101 17.3483 6.73198 17.341 6.78599L17.3027 6.81579L17.2972 6.87538L17.268 6.96105C17.2735 7.04113 17.2771 7.09328 17.2771 7.11563L17.2607 7.13053C17.2607 7.17522 17.2607 7.20688 17.257 7.22551C17.257 7.22923 17.257 7.23482 17.2534 7.24041V7.2553C17.2534 7.28138 17.2662 7.30372 17.2917 7.32049C17.3008 7.3596 17.3173 7.38567 17.341 7.39498L17.3757 7.42664L17.4834 7.45644V7.47134L17.5217 7.48065H17.6878L17.7864 7.46575L17.8357 7.43223L17.8649 7.42292L17.9142 7.34842L17.9397 7.34283L18.062 7.30373C18.0748 7.28138 18.0967 7.26089 18.1259 7.24413L18.1405 7.21992C18.2062 7.20688 18.2427 7.1715 18.2537 7.11563C18.2993 7.06907 18.3577 7.04672 18.4308 7.04672H18.4508C18.5129 7.11935 18.5439 7.17895 18.5439 7.22551L18.5403 7.22364ZM18.0547 5.78777C18.0547 5.77846 18.0493 5.75798 18.0401 5.72818L18.0164 5.72259L18.0073 5.72818H17.9872C17.9872 5.72818 17.9744 5.73377 17.9671 5.73377C17.9635 5.73377 17.9598 5.73377 17.9525 5.72818H17.9379L17.8886 5.76356L17.8448 5.76915L17.8193 5.77846L17.7353 5.88834L17.6823 5.92745L17.6039 6.06713L17.56 6.09692C17.5509 6.15279 17.5272 6.20121 17.4907 6.24219L17.4706 6.27757C17.5071 6.25336 17.5473 6.24219 17.5929 6.24219L17.6276 6.22729L17.6422 6.18259L17.7116 6.18818L17.7499 6.12858H17.7791L17.832 6.14907L17.8558 6.07457H17.8904V6.0187L17.9543 6.00381L17.9689 5.98891L17.9781 5.94421L18.042 5.84923C18.0474 5.83247 18.0511 5.81198 18.0511 5.78964L18.0547 5.78777ZM20.7034 5.77846L20.665 5.94235L20.4843 5.96656L20.3858 6.03174L20.3219 6.00194L20.2525 6.04105L20.1795 6.07085L20.1302 6.10437V6.123L20.0262 6.17514L19.9568 6.2664H19.9221C19.8692 6.32227 19.8327 6.35765 19.8108 6.37069L19.7414 6.48615L19.7177 6.49547C19.7085 6.52154 19.6958 6.56251 19.683 6.61466L19.6154 6.63887L19.5862 6.69846L19.5461 6.74874L19.5369 6.82324L19.4986 6.83814V6.91263L19.484 6.92753C19.4931 6.94429 19.5059 6.96292 19.5187 6.98154L19.4457 7.01134L19.4366 7.07652L19.3873 7.16032L19.4165 7.22551L19.3526 7.3149C19.3599 7.34842 19.3617 7.37077 19.3617 7.38381V7.40429C19.3581 7.4136 19.3562 7.42292 19.3562 7.4285L19.3672 7.4732L19.4512 7.56259L19.3873 7.67806L19.3289 7.72275L19.1919 7.79166L19.0112 7.71717V7.60356L18.9912 7.55887L19.0058 7.48437C18.9985 7.43036 18.9966 7.39126 18.9966 7.36518C18.9966 7.35587 18.9985 7.34283 19.0021 7.32607V7.29069L18.9966 7.24041C18.9747 7.21619 18.962 7.19012 18.962 7.16032C18.962 7.13425 18.9729 7.10445 18.9966 7.07093C18.9966 7.05417 18.993 7.00389 18.9875 6.92194L19.0021 6.90704L18.9875 6.84186L18.9966 6.78227L18.9875 6.74688L19.0021 6.63328L18.9729 6.583L18.993 6.52899L18.9729 6.46381C18.9766 6.44332 18.9784 6.41725 18.9784 6.38372C18.9784 6.33344 18.9729 6.29992 18.9583 6.28316L18.9784 6.25336L18.9583 6.16397L18.9145 6.09879L18.9382 6.0187L18.9181 5.98891L18.8981 5.86972V5.83061C18.8816 5.81012 18.8743 5.78591 18.8743 5.75611C18.8743 5.68907 18.9455 5.6332 19.0897 5.58664L19.212 5.61085L19.2358 5.70583L19.285 5.77101L19.2704 5.9051C19.2796 5.97215 19.2923 6.04478 19.3051 6.12486L19.3197 6.20494C19.3197 6.20494 19.327 6.22915 19.3289 6.25895C19.3289 6.27943 19.3216 6.29992 19.3051 6.32413L19.3197 6.4247L19.3106 6.53457L19.2905 6.58486L19.3051 6.60534L19.3143 6.65563C19.3343 6.63328 19.3453 6.60721 19.3489 6.58113L19.369 6.50664C19.3781 6.48615 19.3927 6.47126 19.4128 6.46194L19.4329 6.38745L19.5023 6.34834L19.5114 6.28874L19.5662 6.22915L19.6045 6.15466C19.6465 6.1081 19.6866 6.0783 19.7268 6.06526L19.7359 6.05036L19.7797 5.98146L19.829 5.97215L19.8436 5.95725L19.8637 5.92745L19.9166 5.89765L19.9458 5.86227L19.975 5.86785L20.0152 5.84737L20.0353 5.81757L20.0937 5.78777L20.1777 5.73377L20.2945 5.69466C20.3401 5.68907 20.3639 5.68534 20.3675 5.68534V5.69093H20.362L20.3675 5.69466C20.3803 5.69466 20.4004 5.68907 20.4259 5.67417C20.4423 5.66113 20.4643 5.65368 20.4935 5.65368C20.5062 5.65368 20.53 5.65741 20.5628 5.663C20.6468 5.66672 20.6943 5.70583 20.7052 5.78219L20.7034 5.77846ZM22.7113 5.61457L22.662 5.67976L22.7004 5.79895L22.6365 5.87344L22.6127 5.97773L22.5981 6.00194L22.6073 6.02615C22.6073 6.07271 22.5963 6.1081 22.5726 6.13045L22.5635 6.14534V6.16583C22.5726 6.19004 22.5781 6.21053 22.5781 6.23101C22.5781 6.24777 22.5781 6.25895 22.5726 6.2664L22.5781 6.28688L22.558 6.34089L22.5726 6.40049L22.5343 6.4396L22.5489 6.5085L22.5781 6.54389L22.5343 6.583V6.66308L22.4996 6.74316L22.5251 6.82324L22.4959 6.86235L22.5452 6.89773L22.4758 7.0132L22.4704 7.0281L22.5196 7.03741L22.485 7.15287V7.17336C22.485 7.19571 22.485 7.21433 22.4795 7.22737L22.485 7.24227L22.5635 7.25158L22.6273 7.35215L22.5927 7.42664L22.6474 7.42105C22.6675 7.46016 22.6785 7.49555 22.6821 7.52534L22.6091 7.59984C22.5854 7.62405 22.5543 7.6464 22.5105 7.66875L22.4266 7.71344L22.4028 7.68923L22.3535 7.71344L22.202 7.53466V7.44899C22.1819 7.38381 22.1728 7.32235 22.1728 7.26462V7.23482L22.1436 6.94243L22.1838 6.73385L22.1546 6.61466L22.0706 6.75433L22.0268 6.8847L21.9885 6.90518L21.9191 7.01506L21.7968 7.13053L21.7621 7.19012L21.6544 7.2851L21.6307 7.35028L21.4737 7.45085L21.3076 7.64267L21.2145 7.66316L21.1506 7.71344C21.0685 7.70972 21.0064 7.67806 20.9644 7.61846C20.8166 7.54397 20.7417 7.43968 20.7344 7.30373L20.7581 7.28883L20.7527 7.25903L20.7472 7.19943L20.718 7.13425L20.7472 7.06348L20.7563 6.95919L20.791 6.79344V6.77296C20.791 6.77296 20.7855 6.75992 20.7855 6.75247C20.7855 6.73943 20.7892 6.72267 20.7946 6.70219C20.791 6.69474 20.7892 6.6817 20.7892 6.66308C20.7892 6.63887 20.7983 6.60162 20.8184 6.54761L20.8531 6.53271C20.833 6.51595 20.8239 6.49733 20.8239 6.4787V6.41352C20.8239 6.37441 20.8439 6.34275 20.8823 6.32413C20.8914 6.29061 20.9096 6.25709 20.9352 6.22356L20.9115 6.18445L20.9699 6.10996V6.08947C20.9699 6.02615 20.9918 5.96842 21.0338 5.91441L21.0283 5.82502L21.0484 5.80453V5.78964L21.0429 5.77846C21.0429 5.75425 21.0502 5.73935 21.063 5.72445V5.69466C21.0758 5.66113 21.1104 5.61085 21.1652 5.54567C21.22 5.47862 21.2619 5.42089 21.2875 5.37061L21.3112 5.39482L21.366 5.37061L21.3897 5.3613L21.5522 5.2868L21.93 5.30729V5.34267L22.0469 5.36688C22.1217 5.36688 22.171 5.39109 22.1929 5.44138C22.1929 5.43206 22.1929 5.41903 22.1984 5.40599V5.38551L22.3006 5.48049L22.3937 5.50097L22.5708 5.45628L22.6346 5.58105L22.7077 5.61085L22.7113 5.61457ZM22.2458 5.87344L22.2258 5.83806L22.1874 5.82874L22.0359 5.70397L21.9373 5.68907H21.8589L21.8497 5.66858L21.8114 5.68907L21.7676 5.66858H21.6398L21.6544 5.68907L21.5412 5.72818L21.5212 5.75239L21.5066 5.75798C21.4481 5.80826 21.4062 5.84923 21.3843 5.88275L21.3496 6.00194L21.3295 6.04664L21.3788 6.11555L21.2948 6.18073L21.3039 6.20121C21.2674 6.26453 21.251 6.32599 21.251 6.38559L21.2127 6.43587V6.52526L21.1725 6.56996L21.1634 6.61466L21.1488 6.62397V6.69287L21.1342 6.71709C21.1342 6.75619 21.1305 6.78785 21.125 6.81206L21.1342 6.83628L21.0904 6.93126L21.1104 6.96105L21.0758 7.01134L21.1104 7.10632L21.0557 7.17522L21.0648 7.2702V7.2851L21.0849 7.29441L21.1086 7.28883C21.125 7.27207 21.1415 7.25717 21.1579 7.24413L21.1488 7.20502L21.2181 7.19571L21.2327 7.16032L21.5193 6.92008L21.5485 6.91077L21.5832 6.82696C21.6033 6.81951 21.6307 6.80648 21.6654 6.78785L21.6982 6.70964H21.7366L21.7219 6.62583L21.7913 6.61652C21.7968 6.60348 21.8077 6.58672 21.8223 6.56623C21.837 6.54575 21.8534 6.52899 21.868 6.51223L22.1181 6.17328L22.1564 6.09879L22.1509 6.0783L22.1856 6.02429L22.1947 5.97028L22.2385 5.93117L22.244 5.87717L22.2458 5.87344Z" fill="#338AC2"/>
    <path d="M9.81672 32.3319L8.67219 34.5537C8.64664 34.6021 8.57727 34.6021 8.55172 34.5537L7.40719 32.3319C7.39624 32.3095 7.37251 32.2965 7.34878 32.2965H6.79568C6.75735 32.2965 6.73362 32.3375 6.75187 32.371L8.55537 35.8145C8.58092 35.8629 8.64664 35.8629 8.67219 35.8145L10.4757 32.371C10.4939 32.3375 10.4702 32.2965 10.4319 32.2965H9.87695C9.85322 32.2965 9.82949 32.3095 9.81854 32.3319" fill="#004481"/>
    <path d="M10.4665 35.2967L11.6111 33.075C11.6366 33.0265 11.706 33.0265 11.7315 33.075L12.8761 35.2967C12.887 35.3191 12.9107 35.3321 12.9345 35.3321H13.4876C13.5259 35.3321 13.5496 35.2912 13.5314 35.2576L11.7279 31.8141C11.7023 31.7657 11.6366 31.7657 11.6111 31.8141L9.80757 35.2576C9.78931 35.2912 9.81305 35.3321 9.85138 35.3321H10.4063C10.43 35.3321 10.4538 35.3191 10.4647 35.2967" fill="#004481"/>
    <path d="M2.64654 33.9353C2.88567 33.8143 3.03535 33.5498 3.03535 33.2239C3.03535 32.6708 2.61186 32.2946 2.01496 32.2946H0.299082C0.262574 32.2946 0.233368 32.3244 0.233368 32.3617V35.7791C0.233368 35.8163 0.262574 35.8461 0.299082 35.8461H1.94011C2.76154 35.8461 3.19416 35.4848 3.19416 34.7809C3.19416 34.0769 2.64837 33.9335 2.64837 33.9335M0.875908 32.8105H1.89265C2.26686 32.8105 2.45853 32.9744 2.45853 33.2761C2.45853 33.5778 2.26869 33.7417 1.89265 33.7417H0.875908C0.8394 33.7417 0.810193 33.7119 0.810193 33.6746V32.8794C0.810193 32.8421 0.8394 32.8124 0.875908 32.8124M1.90726 35.334H0.875908C0.8394 35.334 0.810193 35.3042 0.810193 35.2669V34.3227C0.810193 34.2855 0.8394 34.2557 0.875908 34.2557H1.90726C2.39829 34.2557 2.61916 34.3972 2.61916 34.7958C2.61916 35.1943 2.40376 35.3358 1.90726 35.3358" fill="#004481"/>
    <path d="M6.16592 33.9353C6.40505 33.8143 6.55473 33.5498 6.55473 33.2239C6.55473 32.6708 6.13124 32.2946 5.53433 32.2946H3.81846C3.78195 32.2946 3.75275 32.3244 3.75275 32.3617V35.7791C3.75275 35.8163 3.78195 35.8461 3.81846 35.8461H5.45949C6.28092 35.8461 6.71354 35.4848 6.71354 34.7809C6.71354 34.0769 6.16775 33.9335 6.16775 33.9335M4.39529 32.8105H5.41203C5.78624 32.8105 5.97791 32.9744 5.97791 33.2761C5.97791 33.5778 5.78806 33.7417 5.41203 33.7417H4.39529C4.35878 33.7417 4.32957 33.7119 4.32957 33.6746V32.8794C4.32957 32.8421 4.35878 32.8124 4.39529 32.8124M5.42481 35.334H4.39346C4.35695 35.334 4.32775 35.3042 4.32775 35.2669V34.3227C4.32775 34.2855 4.35695 34.2557 4.39346 34.2557H5.42481C5.91584 34.2557 6.13672 34.3972 6.13672 34.7958C6.13672 35.1943 5.92132 35.3358 5.42481 35.3358" fill="#004481"/>
    <path d="M0.233368 30.8141V28.1602H1.87075V28.5774H0.673289V29.2869H1.55496L1.61702 29.6855H0.673289V30.8141H0.233368Z" fill="#004481"/>
    <path d="M1.9967 30.2982V28.9144H2.42932V30.1808C2.42932 30.382 2.50964 30.4825 2.71043 30.4825C2.89662 30.4825 3.05543 30.382 3.21607 30.2311V28.9163H3.64869V30.8159H3.25075L3.21607 30.5514C3.07916 30.7023 2.85464 30.8569 2.54797 30.8569C2.20662 30.8569 1.9967 30.6781 1.9967 30.3019" fill="#004481"/>
    <path d="M4.13425 30.8141V28.9145H4.53218L4.56687 29.1827C4.70377 29.0244 4.92829 28.8754 5.23861 28.8754C5.57631 28.8754 5.78623 29.0542 5.78623 29.4303V30.8141H5.35726V29.5589C5.35726 29.3465 5.27329 29.2404 5.0725 29.2404C4.88631 29.2404 4.7275 29.3372 4.56687 29.4881V30.8141H4.13425Z" fill="#004481"/>
    <path d="M6.14948 29.8755C6.14948 29.2162 6.46527 28.8754 6.89424 28.8754C7.14797 28.8754 7.35059 28.9648 7.48019 29.1305V28.1956L7.91281 28.1304V30.8159H7.51487L7.48019 30.5645C7.35424 30.7265 7.1644 30.8439 6.88693 30.8439C6.46162 30.8439 6.14948 30.5347 6.14948 29.8755ZM7.48201 30.2442V29.4695C7.33051 29.3186 7.2009 29.2404 7.02201 29.2404C6.75916 29.2404 6.58209 29.4452 6.58209 29.8717C6.58209 30.2628 6.75003 30.4807 7.02749 30.4807C7.20638 30.4807 7.35059 30.3801 7.48019 30.2442" fill="#004481"/>
    <path d="M8.27972 30.3448C8.27972 29.9257 8.62472 29.6669 9.49544 29.5663V29.5086C9.49544 29.3335 9.39322 29.2367 9.17234 29.2367C8.92957 29.2367 8.74338 29.3447 8.57179 29.4918L8.33631 29.2236C8.53345 29.0374 8.79996 28.8754 9.22893 28.8754C9.71084 28.8754 9.91711 29.1193 9.91711 29.5644V30.8159H9.53012L9.49544 30.572C9.31655 30.7582 9.08837 30.8439 8.81091 30.8439C8.50425 30.8439 8.27972 30.6576 8.27972 30.3448ZM9.49544 30.2833V29.8643C8.89488 29.9499 8.70139 30.0822 8.70139 30.274C8.70139 30.4248 8.80361 30.5031 8.96425 30.5031C9.18512 30.5031 9.36218 30.4211 9.49544 30.2852" fill="#004481"/>
    <path d="M10.2785 29.8643C10.2785 29.1361 10.7604 28.8754 11.1748 28.8754C11.5125 28.8754 11.7863 29.043 11.9305 29.3559L11.6111 29.5644C11.5162 29.3465 11.3902 29.2422 11.1748 29.2422C10.9211 29.2422 10.7112 29.4359 10.7112 29.8699C10.7112 30.2498 10.8773 30.5012 11.1748 30.5012C11.392 30.5012 11.5326 30.3764 11.6385 30.1455L11.9579 30.3503C11.79 30.7023 11.4979 30.855 11.1492 30.855C10.7166 30.855 10.2785 30.5608 10.2785 29.8661" fill="#004481"/>
    <path d="M12.2846 28.3967C12.2846 28.2645 12.3723 28.1639 12.5311 28.1639C12.6899 28.1639 12.7848 28.2645 12.7848 28.3967C12.7848 28.529 12.6935 28.6295 12.5311 28.6295C12.3686 28.6295 12.2846 28.529 12.2846 28.3967ZM12.3211 28.9145H12.7501V30.8141H12.3211V28.9145Z" fill="#004481"/>
    <path d="M13.1499 29.8643C13.1499 29.1659 13.6026 28.8753 14.0607 28.8753C14.5189 28.8753 14.968 29.1659 14.968 29.8643C14.968 30.5626 14.5153 30.8532 14.0607 30.8532C13.6062 30.8532 13.1499 30.5589 13.1499 29.8643ZM14.5372 29.868C14.5372 29.516 14.3857 29.2515 14.0589 29.2515C13.7322 29.2515 13.5807 29.4918 13.5807 29.868C13.5807 30.2442 13.7249 30.4844 14.0589 30.4844C14.3711 30.4844 14.5372 30.2293 14.5372 29.868ZM14.1684 28.1136H14.6357L14.1265 28.7096H13.8417L14.1684 28.1136Z" fill="#004481"/>
    <path d="M15.3495 30.8141V28.9145H15.7474L15.7821 29.1827C15.919 29.0244 16.1435 28.8754 16.4539 28.8754C16.7916 28.8754 17.0015 29.0542 17.0015 29.4303V30.8141H16.5725V29.5589C16.5725 29.3465 16.4885 29.2404 16.2877 29.2404C16.1016 29.2404 15.9427 29.3372 15.7821 29.4881V30.8141H15.3495Z" fill="#004481"/>
    <path d="M14.8165 35.334V32.6783H15.3933L16.0924 34.7846H16.0997L16.7788 32.6783H17.3665V35.334H16.9412V33.3506H16.9339C16.8956 33.5368 16.839 33.7063 16.7824 33.8925L16.2731 35.3359H15.8825L15.3769 33.8925C15.3166 33.7026 15.2783 33.5908 15.2217 33.332H15.2144V35.334H14.8165Z" fill="#004481"/>
    <path d="M17.8904 32.9148C17.8904 32.7826 17.9781 32.682 18.1369 32.682C18.2957 32.682 18.3906 32.7826 18.3906 32.9148C18.3906 33.047 18.2993 33.1476 18.1369 33.1476C17.9744 33.1476 17.8904 33.047 17.8904 32.9148ZM17.9251 33.4325H18.3541V35.334H17.9251V33.4325Z" fill="#004481"/>
    <path d="M18.7557 34.3823C18.7557 33.6541 19.2376 33.3915 19.6519 33.3915C19.9896 33.3915 20.2634 33.561 20.4077 33.872L20.0882 34.0806C19.9933 33.8609 19.8673 33.7584 19.6519 33.7584C19.3982 33.7584 19.1883 33.9521 19.1883 34.386C19.1883 34.766 19.3544 35.0174 19.6519 35.0174C19.8692 35.0174 20.0115 34.8926 20.1156 34.6617L20.435 34.8665C20.2671 35.2185 19.975 35.3731 19.6264 35.3731C19.1938 35.3731 18.7538 35.0788 18.7538 34.3823" fill="#004481"/>
    <path d="M20.7764 35.334V33.4325H21.1743L21.209 33.7417H21.2127C21.3258 33.5629 21.523 33.3934 21.8698 33.3934H21.8881L21.9264 33.7994C21.899 33.792 21.8424 33.792 21.8132 33.792C21.5285 33.792 21.3277 33.9242 21.209 34.1291V35.334H20.7764Z" fill="#004481"/>
    <path d="M22.0468 34.3823C22.0468 33.6821 22.4995 33.3915 22.9577 33.3915C23.4159 33.3915 23.8649 33.6821 23.8649 34.3823C23.8649 35.0826 23.4104 35.3731 22.9577 35.3731C22.505 35.3731 22.0468 35.0788 22.0468 34.3823ZM23.436 34.386C23.436 34.0341 23.2845 33.7696 22.9577 33.7696C22.631 33.7696 22.4795 34.0098 22.4795 34.386C22.4795 34.7622 22.6237 35.0025 22.9577 35.0025C23.2699 35.0025 23.436 34.7473 23.436 34.386Z" fill="#004481"/>
    <path d="M24.4034 33.2351C24.4034 32.9166 24.5257 32.6689 24.962 32.6689C25.046 32.6689 25.1738 32.6838 25.2048 32.6876L25.2322 33.0135C25.1975 33.0023 25.119 32.9949 25.0697 32.9949C24.9365 32.9949 24.8306 33.0377 24.8306 33.2425V33.4325H25.1957V33.7808H24.8306V35.334H24.4016V33.7808H24.0858V33.4325H24.4016V33.2351H24.4034ZM25.4585 32.9148C25.4585 32.7825 25.5461 32.682 25.7049 32.682C25.8638 32.682 25.9587 32.7825 25.9587 32.9148C25.9587 33.047 25.8674 33.1476 25.7049 33.1476C25.5425 33.1476 25.4585 33.047 25.4585 32.9148ZM25.4932 33.4325H25.9222V35.334H25.4932V33.4325Z" fill="#004481"/>
    <path d="M26.4497 35.334V33.4325H26.8476L26.8823 33.7007C27.0192 33.5424 27.2438 33.3915 27.5541 33.3915C27.8918 33.3915 28.1035 33.5703 28.1035 33.9484V35.334H27.6745V34.0787C27.6745 33.8664 27.5906 33.7603 27.3898 33.7603C27.2036 33.7603 27.0448 33.8571 26.8842 34.008V35.3358H26.4515L26.4497 35.334Z" fill="#004481"/>
    <path d="M28.4522 34.8647C28.4522 34.4457 28.7972 34.1868 29.6697 34.0862V34.0285C29.6697 33.8534 29.5675 33.7566 29.3466 33.7566C29.1038 33.7566 28.9177 33.8646 28.7461 34.0117L28.5106 33.7417C28.7077 33.5555 28.9742 33.3934 29.4032 33.3934C29.8851 33.3934 30.0932 33.6374 30.0932 34.0825V35.334H29.7062L29.6715 35.09C29.4927 35.2763 29.2627 35.3619 28.9852 35.3619C28.6785 35.3619 28.454 35.1757 28.454 34.8628M29.6679 34.8032V34.3842C29.0673 34.4699 28.8738 34.604 28.8738 34.7939C28.8738 34.9448 28.9761 35.023 29.1385 35.023C29.3594 35.023 29.5365 34.941 29.6697 34.8032" fill="#004481"/>
    <path d="M30.5587 35.334V33.4325H30.9566L30.9913 33.7007C31.1282 33.5424 31.3527 33.3915 31.6631 33.3915C32.0007 33.3915 32.2125 33.5703 32.2125 33.9484V35.334H31.7835V34.0787C31.7835 33.8664 31.6996 33.7603 31.4988 33.7603C31.3126 33.7603 31.1538 33.8571 30.9931 34.008V35.3358H30.5605L30.5587 35.334Z" fill="#004481"/>
    <path d="M32.5557 35.334V35.0788L33.5542 33.7808H32.6615L32.6049 33.4325H34.0926V33.6932L33.0905 34.9931H34.1237L34.1803 35.334H32.5557Z" fill="#004481"/>
    <path d="M34.3537 34.8647C34.3537 34.4457 34.6987 34.1868 35.5712 34.0862V34.0285C35.5712 33.8534 35.469 33.7566 35.2481 33.7566C35.0054 33.7566 34.8192 33.8646 34.6476 34.0117L34.4121 33.7417C34.6093 33.5555 34.8758 33.3934 35.3047 33.3934C35.7866 33.3934 35.9947 33.6374 35.9947 34.0825V35.334H35.6077L35.5731 35.09C35.3942 35.2763 35.1642 35.3619 34.8867 35.3619C34.58 35.3619 34.3555 35.1757 34.3555 34.8628M35.5694 34.8032V34.3842C34.9689 34.4699 34.7754 34.604 34.7754 34.7939C34.7754 34.9448 34.8776 35.023 35.04 35.023C35.2609 35.023 35.438 34.941 35.5712 34.8032" fill="#004481"/>
    <path d="M36.3324 35.0714L36.4985 34.7734C36.6665 34.9205 36.9001 35.0323 37.1429 35.0323C37.3857 35.0323 37.5153 34.9578 37.5153 34.8237C37.5153 34.6691 37.4058 34.6151 37.0973 34.5518C36.703 34.4698 36.4018 34.3618 36.4018 33.9521C36.4018 33.615 36.6756 33.3915 37.0881 33.3915C37.4222 33.3915 37.6467 33.4884 37.8439 33.6318L37.6923 33.9447C37.5171 33.8162 37.32 33.7398 37.1192 33.7398C36.9074 33.7398 36.807 33.818 36.807 33.9335C36.807 34.0583 36.9093 34.116 37.1867 34.1775C37.6047 34.2631 37.926 34.3637 37.926 34.766C37.926 35.1682 37.57 35.3694 37.1411 35.3694C36.7815 35.3694 36.515 35.2334 36.3361 35.0714" fill="#004481"/>
    </g>
    <defs>
    <clipPath id="clip0_32_21255">
    <rect width="46" height="46" fill="white"/>
    </clipPath>
    </defs>
    </svg>
    