<svg width="46" height="46" viewBox="0 0 46 46" fill="none" xmlns="http://www.w3.org/2000/svg">
    <path d="M43.7721 20.1948L42.2806 19.9371C42.2563 19.9326 42.2291 19.9311 42.2048 19.9311C41.9917 19.9311 41.8058 20.0815 41.7672 20.2931L41.7643 20.3124C41.7601 20.3408 41.7572 20.3661 41.7572 20.3899C41.7572 20.5985 41.9088 20.7832 42.1247 20.8204L42.5623 20.8949L41.7858 21.4833C41.6728 21.5697 41.6128 21.6993 41.6142 21.8304C41.6142 21.9213 41.6442 22.0166 41.7057 22.0956L41.7229 22.115C41.8058 22.2252 41.9388 22.2833 42.0704 22.2833H42.0718C42.1647 22.2833 42.2606 22.2535 42.3421 22.1924L43.1314 21.5936L43.0899 22.0762C43.0899 22.0867 43.0871 22.1001 43.0871 22.1135C43.0871 22.3369 43.2587 22.5246 43.4861 22.547L43.5075 22.5514H43.5118H43.5147C43.5261 22.5514 43.539 22.5514 43.5504 22.5514C43.7792 22.5514 43.9737 22.3801 43.9937 22.1507C43.9937 22.1507 44.1396 20.6476 44.1396 20.6238C44.1396 20.4152 43.988 20.2305 43.7735 20.1933" fill="#FFC40C"/>
    <path d="M45.764 20.4227L44.8017 20.2558C44.7845 20.2544 44.7673 20.2529 44.7516 20.2529C44.6143 20.2529 44.4942 20.3497 44.4699 20.4853L44.467 20.4987C44.4642 20.5151 44.4628 20.5329 44.4628 20.5478C44.4628 20.6834 44.56 20.8026 44.7001 20.8264L44.9833 20.8741L44.4813 21.2539C44.4084 21.3105 44.3698 21.394 44.3698 21.4789C44.3698 21.5385 44.3884 21.5995 44.4284 21.6502L44.4384 21.6636C44.4928 21.7336 44.5786 21.7723 44.663 21.7723C44.7244 21.7723 44.7845 21.7515 44.8374 21.7142L45.3465 21.3269L45.3208 21.6398C45.3208 21.6398 45.3193 21.6547 45.3193 21.6636C45.3193 21.8081 45.4294 21.9288 45.5767 21.9437L45.591 21.9451H45.5967C45.6053 21.9451 45.6139 21.9466 45.6196 21.9466C45.7669 21.9466 45.8927 21.8364 45.907 21.6889C45.907 21.6889 46 20.7162 46 20.7013C46 20.5657 45.9013 20.448 45.7626 20.4242" fill="#FFC40C"/>
    <path d="M45.4766 18.6291L44.5371 18.4667C44.52 18.4638 44.5042 18.4623 44.4885 18.4623C44.3541 18.4623 44.2368 18.5576 44.2139 18.6902L44.2111 18.7021C44.2068 18.72 44.2054 18.7379 44.2054 18.7528C44.2054 18.8853 44.3012 19 44.437 19.0239L44.7116 19.0715L44.2239 19.441C44.1524 19.4946 44.1153 19.5765 44.1153 19.66C44.1153 19.7181 44.1353 19.7777 44.1739 19.8253L44.1839 19.8387C44.2368 19.9073 44.3212 19.943 44.4027 19.943C44.4628 19.943 44.5228 19.9251 44.5729 19.8864L45.0705 19.5095L45.0433 19.8134C45.0433 19.8134 45.0433 19.8283 45.0433 19.8358C45.0433 19.9758 45.152 20.095 45.2936 20.1084L45.3079 20.1113H45.3351C45.4795 20.1113 45.5996 20.0041 45.6139 19.8596C45.6139 19.8596 45.7054 18.9136 45.7054 18.8973C45.7054 18.7647 45.611 18.65 45.4752 18.6261" fill="#EE2A24"/>
    <path d="M4.22133 25.6619C3.85383 25.7617 3.44342 25.8749 2.78419 25.8749C1.49291 25.8749 -3.8147e-06 25.1614 -3.8147e-06 23.1563C-3.8147e-06 21.3105 1.18117 20.3914 2.77847 20.3914C3.27182 20.3914 3.74944 20.5136 4.21418 20.6655L4.1098 21.8126C3.69367 21.5638 3.29041 21.4416 2.84711 21.4416C1.93049 21.4416 1.33275 22.1716 1.33275 23.1563C1.33275 24.1975 2.00628 24.8262 2.95007 24.8262C3.37478 24.8262 3.80521 24.704 4.15984 24.5536L4.22133 25.6604V25.6619Z" fill="#FFC40C"/>
    <path d="M7.4903 22.9194C7.34444 22.8762 7.19858 22.8762 7.04558 22.8762C6.43354 22.8762 6.08891 23.338 6.08891 24.1141V25.7841H4.77761V21.8289H5.97308V22.5574H5.98881C6.21475 22.0569 6.54222 21.7366 7.11135 21.7366C7.26436 21.7366 7.42452 21.7604 7.55751 21.7828L7.49173 22.9209L7.4903 22.9194Z" fill="#FFC40C"/>
    <path d="M9.03039 24.2035C9.10189 24.7502 9.50372 24.9647 10.1429 24.9647C10.5004 24.9647 10.9108 24.8813 11.3027 24.6593V25.6261C10.8808 25.8004 10.3989 25.8749 9.91127 25.8749C8.65717 25.8749 7.70193 25.1077 7.70193 23.8028C7.70193 22.4978 8.55564 21.7366 9.73538 21.7366C11.1439 21.7366 11.653 22.7764 11.653 23.9547V24.205H9.03039V24.2035ZM10.4733 23.4304C10.4733 22.9745 10.2688 22.6021 9.74253 22.6021C9.2692 22.6021 9.04326 22.9745 9.01466 23.4304H10.4733Z" fill="#FFC40C"/>
    <path d="M16.422 25.7826H15.2108V25.075H15.1965C15.0278 25.5189 14.4973 25.8734 13.8924 25.8734C12.7627 25.8734 12.1578 24.9022 12.1578 23.7328C12.1578 22.7615 12.7326 21.7351 13.7851 21.7351C14.3071 21.7351 14.7518 21.8796 15.0893 22.3354H15.1021V20.0875H16.422V25.7826ZM14.3071 24.8277C14.7432 24.8277 15.1107 24.3942 15.1107 23.8177C15.1107 23.2412 14.789 22.7853 14.3071 22.7853C13.7966 22.7853 13.5134 23.2397 13.5134 23.7655C13.5134 24.3942 13.8123 24.8277 14.3071 24.8277Z" fill="#FFC40C"/>
    <path d="M18.6757 21.1824H17.363V20.1784H18.6757V21.1824ZM17.363 21.8275H18.6757V25.7826H17.363V21.8275Z" fill="#FFC40C"/>
    <path d="M19.7253 24.4776C20.0742 24.6757 20.5633 24.8277 21.1238 24.8277C21.5543 24.8277 21.9618 24.7368 21.9618 24.3107C21.9618 23.3246 19.5566 23.9473 19.5566 22.0181C19.5566 20.743 20.7535 20.3929 21.7731 20.3929C22.2621 20.3929 22.7426 20.4703 23.0844 20.591L22.9971 21.6859C22.6468 21.5176 22.2535 21.4431 21.8689 21.4431C21.5257 21.4431 20.9551 21.4714 20.9551 21.9347C20.9551 22.7928 23.3618 22.2163 23.3618 24.1305C23.3618 25.504 22.2535 25.8764 21.1238 25.8764C20.6505 25.8764 20.0599 25.8019 19.6081 25.6485L19.7253 24.4791V24.4776Z" fill="#EE2A24"/>
    <path d="M26.9453 22.9581C26.7051 22.8077 26.4649 22.7391 26.1503 22.7391C25.5811 22.7391 25.1436 23.1488 25.1436 23.8326C25.1436 24.4627 25.6555 24.8739 26.2218 24.8739C26.5221 24.8739 26.8209 24.8053 27.0383 24.6832L27.0683 25.6991C26.7409 25.8138 26.3476 25.8734 25.9973 25.8734C24.7432 25.8734 23.7879 25.1152 23.7879 23.8102C23.7879 22.5053 24.7417 21.7366 25.9973 21.7366C26.3905 21.7366 26.7409 21.8051 27.0383 21.9585L26.9453 22.9596V22.9581Z" fill="#EE2A24"/>
    <path d="M27.4344 23.8102C27.4344 22.4978 28.3896 21.7366 29.6437 21.7366C30.8978 21.7366 31.8516 22.4978 31.8516 23.8102C31.8516 25.1226 30.8978 25.8749 29.6437 25.8749C28.3896 25.8749 27.4344 25.1167 27.4344 23.8102ZM30.496 23.8102C30.496 23.2173 30.2486 22.6945 29.6437 22.6945C29.0389 22.6945 28.79 23.2188 28.79 23.8102C28.79 24.4016 29.0374 24.9185 29.6437 24.9185C30.2501 24.9185 30.496 24.3942 30.496 23.8102Z" fill="#EE2A24"/>
    <path d="M32.1519 21.8274H32.9241V20.9396L34.214 20.5225V21.8274H35.1335V22.7853H34.214V24.2422C34.214 24.7219 34.3227 24.9647 34.7388 24.9647C34.8704 24.9647 35.0091 24.9334 35.1392 24.9111L35.1835 25.7989C34.9347 25.8302 34.6873 25.8734 34.3598 25.8734C33.1858 25.8734 32.9027 25.3342 32.9027 24.3927V22.7838H32.1505V21.826L32.1519 21.8274Z" fill="#EE2A24"/>
    <path d="M37.1898 21.1824H35.8785V20.1784H37.1898V21.1824ZM35.8771 21.8275H37.1884V25.7826H35.8771V21.8275Z" fill="#EE2A24"/>
    <path d="M40.5174 25.7826C40.5102 25.571 40.4874 25.3655 40.4874 25.1599H40.4745C40.1742 25.6545 39.811 25.8749 39.2719 25.8749C38.5211 25.8749 37.8505 25.4891 37.8505 24.6296C37.8505 23.4229 39.1117 23.2769 39.811 23.2769C40.0212 23.2769 40.2543 23.2993 40.423 23.3291C40.4159 22.7898 40.0298 22.6453 39.555 22.6453C39.1332 22.6453 38.7085 22.7317 38.3424 22.9417L38.3224 22.0152C38.7885 21.8185 39.2762 21.7336 39.8381 21.7336C40.8077 21.7336 41.6457 22.1686 41.6457 23.3737V24.847C41.6457 25.1584 41.6585 25.4712 41.7172 25.7811H40.5145L40.5174 25.7826ZM39.6136 24.9647C40.1084 24.9647 40.423 24.4925 40.423 24.0292C40.2543 24.0232 40.0655 24.0084 39.8696 24.0084C39.4249 24.0084 39.0745 24.1543 39.0745 24.5327C39.0745 24.8053 39.3076 24.9662 39.6136 24.9662" fill="#EE2A24"/>
    <path d="M21.131 28.2063C20.7377 28.2063 20.4389 28.5385 20.4389 28.9839C20.4389 29.4293 20.7377 29.766 21.131 29.766C21.3555 29.766 21.6243 29.6274 21.8231 29.4159L22.3207 29.9686C22.0062 30.3231 21.5285 30.551 21.0895 30.551C20.2072 30.551 19.5551 29.8866 19.5551 28.9913C19.5551 28.0961 20.2187 27.4585 21.1181 27.4585C21.5571 27.4585 22.0262 27.6655 22.3207 27.9933L21.8231 28.607C21.6401 28.3657 21.3712 28.2048 21.131 28.2048V28.2063Z" fill="#EE2A24"/>
    <path d="M25.3724 28.9973C25.3724 29.8866 24.7003 30.5525 23.7894 30.5525C22.8784 30.5525 22.2064 29.8911 22.2064 28.9973C22.2064 28.1035 22.8784 27.46 23.7894 27.46C24.7003 27.46 25.3724 28.1124 25.3724 28.9973ZM23.0872 29.0018C23.0872 29.4591 23.419 29.8002 23.8008 29.8002C24.1826 29.8002 24.4886 29.4591 24.4886 29.0018C24.4886 28.5444 24.1812 28.2108 23.8008 28.2108C23.4204 28.2108 23.0872 28.543 23.0872 29.0018Z" fill="#EE2A24"/>
    <path d="M26.2675 27.4853L27.4988 29.1775V27.4853H28.2867V30.5123H27.5531L26.3219 28.8275V30.5123H25.5297V27.4853H26.2675Z" fill="#EE2A24"/>
    <path d="M32.1863 27.4853V28.2018H31.3411V30.5123H30.4746V28.2018H29.6337V27.4853H32.1877H32.1863Z" fill="#EE2A24"/>
    <path d="M35.3208 28.9973C35.3208 29.8866 34.6487 30.5525 33.7378 30.5525C32.8269 30.5525 32.1548 29.8911 32.1548 28.9973C32.1548 28.1035 32.8269 27.46 33.7378 27.46C34.6487 27.46 35.3208 28.1124 35.3208 28.9973ZM33.0371 29.0018C33.0371 29.4591 33.3689 29.8002 33.7507 29.8002C34.1325 29.8002 34.4385 29.4591 34.4385 29.0018C34.4385 28.5444 34.1311 28.2108 33.7507 28.2108C33.3703 28.2108 33.0371 28.543 33.0371 29.0018Z" fill="#EE2A24"/>
    <path d="M38.3138 28.9973C38.3138 29.909 37.6789 30.5138 36.7222 30.5138H35.4781V27.4868H36.7508C37.6917 27.4868 38.3138 28.0871 38.3138 28.9988V28.9973ZM37.4343 29.0062C37.4343 28.5176 37.1483 28.1944 36.7336 28.1944H36.3404V29.8092H36.7751C37.1684 29.8092 37.4343 29.4889 37.4343 29.0062Z" fill="#EE2A24"/>
    <path d="M41.6142 28.9973C41.6142 29.8866 40.9421 30.5525 40.0312 30.5525C39.1203 30.5525 38.4482 29.8911 38.4482 28.9973C38.4482 28.1035 39.1203 27.46 40.0312 27.46C40.9421 27.46 41.6142 28.1124 41.6142 28.9973ZM39.3291 29.0018C39.3291 29.4591 39.6608 29.8002 40.0426 29.8002C40.4244 29.8002 40.7305 29.4591 40.7305 29.0018C40.7305 28.5444 40.423 28.2108 40.0426 28.2108C39.6623 28.2108 39.3291 28.543 39.3291 29.0018Z" fill="#EE2A24"/>
    </svg>
    