<svg width="46" height="46" viewBox="0 0 46 46" fill="none" xmlns="http://www.w3.org/2000/svg">
    <path fill-rule="evenodd" clip-rule="evenodd" d="M22.9672 23.8444C23.4586 23.8444 23.8786 23.3788 23.8786 22.7715C23.8786 22.1642 23.4557 21.6928 22.9672 21.6928H21.1174V23.3528H20.0749V20.5157H22.9284C24.0246 20.5157 24.8854 21.5424 24.8854 22.7715C24.8854 24.0006 24.0276 25.0186 22.9284 25.0186L14.9665 25.0099V22.1757H19.7681V23.3499H16.0091V23.8415H22.997H22.9701L22.9672 23.8444ZM26.3122 21.6841H25.1445V20.5099H26.3122V21.6841ZM26.3122 25.007H25.1326V22.1786H26.3122V25.007ZM19.7741 20.5157V21.6841H14.9725V20.5157H19.7741ZM13.6202 25.0099V23.5928C13.6202 23.4366 13.5189 23.3441 13.4236 23.3441H9.86114V22.1757H13.4147C13.51 22.1757 13.6232 22.0803 13.6232 21.927C13.6232 21.7737 13.501 21.6841 13.4057 21.6841H6.99569C6.49825 21.6841 6.07529 22.1497 6.07529 22.7657C6.07529 23.3817 6.49825 23.8386 6.99569 23.8386H9.81944V25.0128H6.9659C5.86976 25.0128 5.00298 23.9861 5.00298 22.7628C5.00298 21.5337 5.86976 20.507 6.9659 20.507H13.4266C14.1295 20.507 14.6687 21.1606 14.6687 21.9241C14.6687 22.2336 14.5793 22.5257 14.4304 22.7599C14.5793 22.9884 14.6687 23.2776 14.6687 23.5899V25.007H13.6261L13.6202 25.0099ZM31.2925 25.0099H30.1129V22.4505C30.0802 21.9328 29.7585 21.7246 29.4636 21.6841H27.6734V25.0099H26.4939L26.4849 20.5157H29.6304C29.7882 20.5215 29.8865 20.5157 30.0385 20.5533C30.101 20.5678 30.6521 20.7066 30.9201 21.0912C31.0989 21.3428 31.2806 21.5626 31.2925 22.1844H31.6678L34.0805 20.5157L36.0672 20.5244L32.8235 22.8206L36.0255 25.0186H33.9822L31.5397 23.3499H31.2954V25.0099H31.2925ZM40.8777 25.0186H36.0523L37.4404 21.9154H38.2148L38.1136 21.6841H37.5446L38.0659 20.5157H38.8731L40.8777 25.0186ZM39.0548 23.8415L38.4829 22.5314L37.911 23.8415H39.0548Z" fill="#F47A05"/>
    <path d="M5 19.9258H5.56892L5.81317 18.6735H6.47145L6.56379 18.2021H5.89955L6.05741 17.4011H6.7574L6.85569 16.9094H5.58381L5 19.9258Z" fill="#F47A05"/>
    <path d="M7.29653 17.4734C7.46334 17.4734 7.61822 17.349 7.6212 17.1234C7.62716 16.9701 7.54078 16.8313 7.3561 16.8313C7.15653 16.8313 7.04037 17.0135 7.04037 17.1755C7.03441 17.3403 7.11781 17.4705 7.29653 17.4705M7.07611 19.9258L7.50206 17.7365H6.93612L6.51017 19.9258H7.07611Z" fill="#F47A05"/>
    <path d="M7.93396 19.9258L8.15736 18.7661C8.23778 18.3496 8.41352 18.1588 8.54458 18.1588C8.6399 18.1588 8.68458 18.2311 8.68458 18.3323C8.68458 18.4161 8.66968 18.4884 8.65777 18.5636L8.39565 19.9229H8.95861L9.2118 18.5954C9.24456 18.4422 9.26541 18.3091 9.26541 18.179C9.26541 17.9158 9.14924 17.6989 8.83649 17.6989C8.59819 17.6989 8.39565 17.8117 8.24076 18.017H8.23182L8.25565 17.7365H7.77311C7.74035 17.9419 7.7046 18.1935 7.65695 18.448L7.37099 19.9258H7.93694H7.93396Z" fill="#F47A05"/>
    <path d="M10.4152 18.8499C10.3347 19.249 10.1888 19.4977 10.0369 19.4977C9.89688 19.4977 9.87008 19.3589 9.87008 19.1681C9.87603 18.847 10.0726 18.1154 10.445 18.1154C10.4777 18.1154 10.5164 18.1212 10.5611 18.1298L10.4152 18.8499ZM10.8441 19.9258C10.8381 19.6886 10.8798 19.2635 10.9335 19.009L11.1777 17.7915C11.0437 17.7365 10.8203 17.7018 10.5998 17.7018C9.65263 17.7018 9.31605 18.6417 9.31605 19.304C9.31605 19.6886 9.47392 19.9605 9.79561 19.9605C9.97135 19.9605 10.1828 19.8477 10.3616 19.5585H10.3764C10.3705 19.6886 10.3616 19.8101 10.3586 19.9258H10.8471H10.8441Z" fill="#F47A05"/>
    <path d="M11.6007 19.9258L11.8241 18.7661C11.9045 18.3496 12.0802 18.1588 12.2113 18.1588C12.3066 18.1588 12.3513 18.2311 12.3513 18.3323C12.3513 18.4161 12.3364 18.4884 12.3245 18.5636L12.0624 19.9229H12.6253L12.8785 18.5954C12.9113 18.4422 12.9321 18.3091 12.9321 18.179C12.9321 17.9158 12.816 17.6989 12.5032 17.6989C12.2649 17.6989 12.0624 17.8117 11.9075 18.017H11.8985L11.9224 17.7365H11.4398C11.4071 17.9419 11.3713 18.1935 11.3237 18.448L11.0377 19.9258H11.6036H11.6007Z" fill="#F47A05"/>
    <path d="M14.1266 19.4457C14.0551 19.463 13.9598 19.4949 13.8555 19.4949C13.6708 19.4949 13.5666 19.3329 13.5666 19.0842C13.5666 18.6186 13.8376 18.179 14.1683 18.179C14.2189 18.179 14.2725 18.1877 14.3261 18.2021L14.4661 17.7452C14.4125 17.7221 14.3261 17.7047 14.1921 17.7047C13.4981 17.7047 13.0036 18.3814 13.0036 19.1623C13.0036 19.5643 13.2062 19.9489 13.6947 19.9489C13.8793 19.9489 14.0253 19.9171 14.0878 19.8911L14.1295 19.4428L14.1266 19.4457Z" fill="#F47A05"/>
    <path d="M15.0142 17.4734C15.181 17.4734 15.3359 17.349 15.3389 17.1234C15.3448 16.9701 15.2584 16.8313 15.0738 16.8313C14.8742 16.8313 14.758 17.0135 14.758 17.1755C14.7521 17.3403 14.8355 17.4705 15.0142 17.4705M14.7938 19.9258L15.2197 17.7365H14.6538L14.2278 19.9258H14.7938Z" fill="#F47A05"/>
    <path d="M16.3278 18.3496C16.3278 18.5781 16.0806 18.6938 15.7827 18.6793C15.8452 18.367 16.0001 18.1472 16.1699 18.1472C16.2771 18.1472 16.3278 18.2224 16.3278 18.3496ZM16.5303 19.4052C16.3993 19.4688 16.2682 19.5122 16.0835 19.5122C15.9286 19.5122 15.8303 19.4457 15.7767 19.356C15.7261 19.2751 15.7231 19.1623 15.7261 19.1015C16.3397 19.1189 16.8282 18.8962 16.8282 18.2976C16.8222 17.9968 16.6435 17.7018 16.2414 17.7018C15.5355 17.7018 15.181 18.4942 15.181 19.1305C15.181 19.599 15.3895 19.9547 15.9316 19.9547C16.1848 19.9547 16.3754 19.9142 16.569 19.8332L16.5333 19.4081L16.5303 19.4052Z" fill="#F47A05"/>
    <path d="M17.2541 19.9258L17.4477 18.9136C17.5163 18.5434 17.7456 18.2658 17.9899 18.2658C18.0226 18.2658 18.0613 18.2715 18.0852 18.2715L18.1894 17.7134C18.1626 17.7047 18.1358 17.7047 18.1001 17.7047C17.9154 17.7047 17.7158 17.8262 17.555 18.1038H17.5401C17.555 17.9708 17.5639 17.8522 17.5728 17.7423H17.0903C17.0575 17.9447 17.0278 18.1935 16.9771 18.4451L16.6912 19.9315H17.2571L17.2541 19.9258Z" fill="#F47A05"/>
    <path d="M19.0324 18.8499C18.952 19.249 18.806 19.4977 18.6541 19.4977C18.5141 19.4977 18.4873 19.3589 18.4873 19.1681C18.4932 18.847 18.6898 18.1154 19.0622 18.1154C19.0949 18.1154 19.1336 18.1212 19.1783 18.1298L19.0324 18.8499ZM19.4613 19.9258C19.4553 19.6886 19.497 19.2635 19.5507 19.009L19.7949 17.7915C19.6609 17.7365 19.4375 17.7018 19.2171 17.7018C18.2698 17.7018 17.9333 18.6417 17.9333 19.304C17.9333 19.6886 18.0911 19.9605 18.4128 19.9605C18.5886 19.9605 18.8 19.8477 18.9788 19.5585H18.9937C18.9877 19.6886 18.9788 19.8101 18.9758 19.9258H19.4643H19.4613Z" fill="#F47A05"/>
    <path fill-rule="evenodd" clip-rule="evenodd" d="M25.5199 27.1384C25.5556 27.0863 25.5884 27.0574 25.6182 27.0487C25.6479 27.0401 25.6986 27.0429 25.773 27.0603C25.8922 27.0863 25.9905 27.1239 26.0679 27.176C26.1364 27.2251 26.1781 27.2974 26.196 27.3987C26.2109 27.4999 26.2258 27.7949 26.2377 28.2894C26.2496 28.7261 26.2675 28.9719 26.2943 29.024C26.3211 29.0847 26.3301 29.1223 26.3241 29.1396C26.3181 29.157 26.2764 29.1801 26.2049 29.2119C25.9964 29.3074 25.8386 29.3334 25.7373 29.29C25.636 29.2466 25.5884 29.1396 25.5973 28.9661C25.6033 28.8273 25.5943 28.7492 25.5645 28.729C25.5348 28.7116 25.4633 28.7405 25.3471 28.8071C25.225 28.8794 25.082 28.9343 24.9122 28.9661C24.7424 28.9979 24.6352 28.995 24.5875 28.9546C24.4952 28.8794 24.4386 28.7781 24.4148 28.6509C24.391 28.5236 24.388 28.2836 24.3999 27.9308C24.4178 27.4652 24.4475 27.2194 24.4863 27.1875C24.531 27.1557 24.6144 27.1673 24.7424 27.2194C24.8705 27.2714 24.945 27.3264 24.9718 27.3842C25.0075 27.4449 25.0105 27.6156 24.9837 27.899C24.9658 28.0841 24.9599 28.1997 24.9658 28.2518C24.9718 28.301 24.9926 28.3299 25.0254 28.3386C25.076 28.3472 25.1267 28.3096 25.1803 28.2287C25.2339 28.1361 25.2965 27.9771 25.3679 27.7515C25.4365 27.5288 25.4692 27.39 25.4573 27.3379C25.4424 27.2772 25.4633 27.2107 25.5169 27.1384" fill="#F47A05"/>
    <path fill-rule="evenodd" clip-rule="evenodd" d="M27.1402 26.9735C27.2117 26.9388 27.3487 26.9244 27.5453 26.9273C27.9504 26.9331 28.1589 27.0516 28.1738 27.2859C28.1828 27.4507 28.1113 27.6069 27.9594 27.7515C27.8075 27.8961 27.5989 28.0089 27.3368 28.087C27.2087 28.1217 27.2177 28.2055 27.3607 28.3415C27.4411 28.4138 27.5453 28.4456 27.6764 28.4398C27.7985 28.4398 27.8909 28.4629 27.9534 28.515C28.0189 28.567 28.0309 28.6249 27.9892 28.6856C27.9475 28.7405 27.8581 28.7984 27.7151 28.8591C27.5721 28.9199 27.459 28.9488 27.3756 28.9488C27.2504 28.9488 27.1194 28.8851 26.9794 28.7637C26.8424 28.6422 26.7262 28.4889 26.6398 28.3096C26.5505 28.1303 26.5088 27.9626 26.5177 27.8093C26.5237 27.6647 26.5922 27.5086 26.7173 27.3437C26.8424 27.1789 26.9854 27.0545 27.1432 26.9735M27.5692 27.335C27.5692 27.283 27.5394 27.2743 27.4709 27.3032C27.4411 27.3148 27.3994 27.335 27.3428 27.3669C27.2564 27.4131 27.2117 27.4565 27.2058 27.497C27.1998 27.5375 27.2356 27.5635 27.316 27.5722C27.3607 27.5809 27.4143 27.5577 27.4768 27.4999C27.5394 27.4449 27.5692 27.3871 27.5721 27.3321L27.5692 27.335Z" fill="#F47A05"/>
    <path fill-rule="evenodd" clip-rule="evenodd" d="M29.407 26.3113C29.4517 26.2679 29.5232 26.2505 29.6215 26.2563C29.7227 26.2621 29.7942 26.291 29.8419 26.3431C29.8806 26.3865 29.9193 26.5137 29.9551 26.7248C29.9908 26.9359 30.0146 27.1789 30.0266 27.4507C30.0295 27.6994 30.0474 27.8469 30.0802 27.8961C30.104 27.951 30.1278 28.1969 30.1546 28.6307L30.1904 29.2871L30.0593 29.3797C29.9729 29.4462 29.8657 29.5011 29.7376 29.5474L29.5529 29.6284L29.4457 29.5098C29.3742 29.4231 29.3415 29.3536 29.3444 29.3016C29.3444 29.2438 29.3355 29.2091 29.3087 29.2033C29.2819 29.1975 29.2223 29.2148 29.127 29.2553C29.0168 29.3103 28.9244 29.3363 28.85 29.3334C28.7755 29.3334 28.6891 29.2929 28.5849 29.2177C28.4806 29.1425 28.3943 29.0529 28.3257 28.9546C28.2662 28.8678 28.2334 28.7955 28.2274 28.7434C28.2185 28.6914 28.2245 28.5757 28.2423 28.3993C28.293 27.8672 28.4806 27.471 28.8053 27.2078C28.9662 27.0719 29.1002 26.9909 29.2074 26.9649C29.2789 26.9475 29.3206 26.9244 29.3325 26.8984C29.3444 26.8723 29.3504 26.7913 29.3534 26.6525C29.3534 26.4646 29.3712 26.3518 29.407 26.3171M29.3832 27.7457C29.3772 27.6705 29.3683 27.6185 29.3504 27.5895C29.3325 27.5606 29.3057 27.5404 29.267 27.5346C29.2312 27.5288 29.1955 27.5404 29.1627 27.5722C29.13 27.604 29.0883 27.6647 29.0376 27.7544C28.9542 27.8903 28.8976 28.0291 28.8679 28.165C28.847 28.2605 28.847 28.3733 28.8679 28.5063C28.8887 28.6393 28.9155 28.7145 28.9542 28.7348C28.99 28.7579 29.0555 28.7434 29.1508 28.6914C29.2461 28.6364 29.2998 28.5844 29.3147 28.5294C29.3444 28.4224 29.3683 28.2894 29.3832 28.1274C29.3981 27.9655 29.398 27.8411 29.3861 27.7486L29.3832 27.7457Z" fill="#F47A05"/>
    <path fill-rule="evenodd" clip-rule="evenodd" d="M31.0065 27.0314C31.078 26.9967 31.215 26.9822 31.4116 26.9851C31.8167 26.9909 32.0252 27.1095 32.0401 27.3437C32.049 27.5086 31.9776 27.6647 31.8256 27.8093C31.6737 27.9539 31.4652 28.0667 31.2031 28.1448C31.075 28.1795 31.084 28.2634 31.2269 28.3993C31.3074 28.4716 31.4116 28.5034 31.5427 28.4976C31.6648 28.4976 31.7571 28.5208 31.8227 28.5728C31.8852 28.6249 31.8971 28.6827 31.8584 28.7434C31.8167 28.7984 31.7274 28.8562 31.5844 28.917C31.4414 28.9777 31.3282 29.0066 31.2448 29.0066C31.1197 29.0066 30.9886 28.943 30.8487 28.8215C30.7116 28.7001 30.5955 28.5468 30.5091 28.3675C30.4197 28.1882 30.378 28.0204 30.387 27.8672C30.3929 27.7226 30.4614 27.5664 30.5865 27.4016C30.7116 27.2367 30.8546 27.1124 31.0125 27.0343M31.4354 27.3929C31.4354 27.3408 31.4057 27.3321 31.3372 27.3611C31.3074 27.3726 31.2657 27.3929 31.2091 27.4247C31.1227 27.471 31.078 27.5143 31.072 27.5548C31.0661 27.5953 31.1018 27.6213 31.1823 27.63C31.2269 27.6387 31.2806 27.6156 31.3431 27.5577C31.4057 27.5028 31.4354 27.4449 31.4384 27.39L31.4354 27.3929Z" fill="#F47A05"/>
    <path fill-rule="evenodd" clip-rule="evenodd" d="M32.7818 27.0054C32.9367 26.9735 33.0826 26.9678 33.2137 26.9938C33.3477 27.0198 33.449 27.0719 33.5265 27.1528C33.6009 27.2338 33.6218 27.3206 33.589 27.4189C33.5592 27.4883 33.4728 27.5462 33.3299 27.5924C33.1839 27.6387 33.0975 27.6329 33.0677 27.5838C33.0439 27.5433 33.0022 27.5288 32.9426 27.5404C32.8801 27.5519 32.8354 27.5809 32.8026 27.6271C32.758 27.7023 32.758 27.7717 32.8026 27.8411C32.8473 27.9077 32.9397 27.9828 33.0826 28.0638C33.2137 28.1361 33.3179 28.2171 33.3954 28.3067C33.4758 28.3964 33.5116 28.4803 33.5086 28.5526C33.5056 28.6278 33.4311 28.7348 33.2852 28.8765C33.1392 29.0182 33.0022 29.1136 32.8741 29.1628C32.7192 29.2206 32.618 29.2466 32.5703 29.2438C32.5197 29.2438 32.4601 29.2004 32.3946 29.1252C32.2516 28.9719 32.1831 28.8389 32.189 28.7203C32.195 28.5988 32.2754 28.5757 32.4303 28.6538C32.5733 28.7261 32.6626 28.7319 32.6984 28.6711C32.7341 28.6075 32.6984 28.5352 32.5912 28.4513C32.5673 28.4311 32.5405 28.4138 32.5137 28.3964C32.3797 28.3183 32.2814 28.22 32.2158 28.0956C32.1712 27.9973 32.1473 27.873 32.1444 27.7284C32.1414 27.5838 32.1622 27.4739 32.2069 27.4044C32.2427 27.3408 32.329 27.2656 32.4631 27.176C32.5971 27.0863 32.7043 27.0285 32.7848 27.0054" fill="#F47A05"/>
    <path fill-rule="evenodd" clip-rule="evenodd" d="M38.2059 26.6381C38.2059 26.6381 38.2089 25.7589 38.8612 25.73C39.5135 25.7011 39.0876 26.077 38.9148 26.2679C38.7421 26.4559 38.4055 26.6815 38.2059 26.641" fill="#F47A05"/>
    <path fill-rule="evenodd" clip-rule="evenodd" d="M34.9413 27.0574C35.1171 26.9967 35.269 27.0401 35.4 27.1875L35.5132 27.3206L35.6919 27.2454C35.9481 27.1297 36.1328 27.1702 36.243 27.3669L36.3294 27.5172L36.5408 27.3264C36.6332 27.2425 36.7017 27.1875 36.7434 27.1673C36.7851 27.1471 36.8327 27.1442 36.8804 27.1615C37.1068 27.2165 37.2557 27.3553 37.3242 27.5809C37.357 27.6908 37.3778 27.7891 37.3838 27.8758C37.3927 27.9626 37.4017 28.1824 37.4136 28.5381L37.4255 28.9401L37.2795 29.0789C37.1932 29.1512 37.1247 29.1917 37.074 29.1975C37.0234 29.2033 36.9698 29.1743 36.9161 29.1165C36.8834 29.0818 36.8655 29.0182 36.8566 28.9256C36.8476 28.836 36.8476 28.6625 36.8566 28.4051C36.8685 27.9279 36.8417 27.6908 36.7791 27.6936C36.7344 27.6965 36.657 27.8122 36.5557 28.0378C36.4664 28.2373 36.4098 28.4282 36.3889 28.6133C36.3681 28.7579 36.3353 28.8678 36.2877 28.943C36.24 29.0182 36.1626 29.0702 36.0583 29.1049C36.0106 29.1194 35.9749 29.1223 35.9451 29.1136C35.9153 29.1049 35.8796 29.0818 35.8349 29.0413C35.7843 28.9921 35.7545 28.9401 35.7485 28.8794C35.7426 28.8215 35.7485 28.6509 35.7723 28.3704C35.8021 27.9771 35.7902 27.7804 35.7396 27.7804C35.7098 27.7804 35.6621 27.8267 35.5936 27.9192C35.543 27.9886 35.5132 28.0523 35.5013 28.1043C35.4894 28.1564 35.4864 28.2402 35.4894 28.3559C35.4983 28.5323 35.5341 28.6885 35.5966 28.8244L35.6919 29.0269L35.4507 29.2062C35.2928 29.3305 35.1915 29.3912 35.1409 29.3912C35.0873 29.3912 35.0188 29.3421 34.9413 29.2466C34.8847 29.1859 34.8549 29.1367 34.846 29.0934C34.8371 29.0529 34.84 28.9835 34.8519 28.8909C34.8788 28.7608 34.8817 28.6133 34.8609 28.4485C34.84 28.2836 34.8311 28.0204 34.8311 27.6618C34.8311 27.3784 34.8311 27.2107 34.84 27.1586C34.849 27.1066 34.8817 27.0719 34.9353 27.0545" fill="#F47A05"/>
    <path fill-rule="evenodd" clip-rule="evenodd" d="M38.4472 26.9041C38.7689 26.8376 38.9744 26.8492 39.0667 26.9388C39.1591 27.0285 39.1829 27.2396 39.1412 27.5751C39.1114 27.8151 39.1114 28.058 39.1412 28.3067C39.2127 29.0297 39.1412 29.3565 38.9238 29.29C38.8344 29.264 38.7689 29.2235 38.7331 29.1686C38.6974 29.1136 38.6795 29.0326 38.6855 28.9314C38.6914 28.8244 38.6825 28.7637 38.6586 28.7521C38.6378 28.7377 38.5931 28.7637 38.5276 28.8302C38.4472 28.9083 38.3131 28.9314 38.1225 28.8996C37.9319 28.8678 37.7919 28.8013 37.7055 28.6972C37.6191 28.5931 37.5774 28.434 37.5774 28.2229C37.5774 28.0089 37.628 27.7659 37.7204 27.4854C37.7651 27.364 37.8604 27.2425 38.0063 27.1239C38.1523 27.0053 38.2982 26.9302 38.4472 26.9012M38.5633 27.3408C38.5246 27.2974 38.4829 27.2801 38.4442 27.2888C38.4055 27.2974 38.3518 27.335 38.2863 27.4016C38.2029 27.4739 38.1433 27.5519 38.1046 27.6329C38.0659 27.7139 38.0331 27.8325 38.0063 27.9886C37.9885 28.0898 37.9825 28.1593 37.9855 28.1968C37.9885 28.2344 38.0123 28.272 38.051 28.3067C38.1106 28.3588 38.1791 28.3819 38.2536 28.3733C38.3012 28.3675 38.337 28.3414 38.3638 28.2952C38.3906 28.2518 38.4293 28.1477 38.4799 27.9857C38.5484 27.7688 38.5901 27.6185 38.605 27.5288C38.6169 27.4391 38.605 27.3755 38.5633 27.335V27.3408Z" fill="#F47A05"/>
    <path fill-rule="evenodd" clip-rule="evenodd" d="M40.0556 26.8694C40.2135 26.8376 40.3565 26.8318 40.4905 26.8579C40.6216 26.8839 40.7258 26.9359 40.8033 27.0169C40.8777 27.0979 40.8986 27.1847 40.8658 27.283C40.836 27.3524 40.7497 27.4102 40.6067 27.4565C40.4637 27.5028 40.3743 27.497 40.3446 27.4478C40.3207 27.4073 40.279 27.3929 40.2195 27.4044C40.1569 27.416 40.1122 27.4449 40.0795 27.4912C40.0348 27.5664 40.0318 27.6358 40.0795 27.7052C40.1241 27.7717 40.2165 27.8469 40.3595 27.9279C40.4905 28.0002 40.5948 28.0812 40.6722 28.1708C40.7526 28.2605 40.7884 28.3443 40.7854 28.4166C40.7824 28.4918 40.708 28.5988 40.562 28.7405C40.4161 28.8823 40.279 28.9777 40.1539 29.0269C39.999 29.0847 39.8978 29.1107 39.8471 29.1078C39.7965 29.1078 39.7399 29.0644 39.6714 28.9893C39.5284 28.8389 39.4599 28.7029 39.4659 28.5844C39.4718 28.4629 39.5522 28.4398 39.7071 28.5179C39.8501 28.5902 39.9395 28.5959 39.9752 28.5323C40.011 28.4687 39.9752 28.3964 39.868 28.3125C39.8441 28.2923 39.8173 28.2749 39.7905 28.2576C39.6565 28.1795 39.5552 28.0812 39.4927 27.9568C39.448 27.8585 39.4242 27.7341 39.4212 27.5895C39.4212 27.4449 39.4391 27.335 39.4837 27.2656C39.5195 27.202 39.6059 27.1268 39.7399 27.0372C39.8739 26.9475 39.9812 26.8897 40.0616 26.8665" fill="#F47A05"/>
    <path fill-rule="evenodd" clip-rule="evenodd" d="M22.4995 25.6143C22.5144 25.5941 22.5859 25.5883 22.711 25.597C22.8361 25.6056 22.9314 25.6201 22.9999 25.6432C23.0357 25.6635 23.1816 25.675 23.4408 25.6779C23.6552 25.6808 23.8488 25.7068 24.0246 25.756C24.2003 25.8052 24.3254 25.8659 24.3939 25.9382C24.4595 26.0105 24.4982 26.1233 24.5101 26.2737C24.519 26.3749 24.5161 26.453 24.5012 26.5108C24.4863 26.5687 24.4505 26.6496 24.388 26.7595C24.2688 26.9793 24.1318 27.1875 23.9799 27.39C23.828 27.5924 23.694 27.7486 23.5718 27.8585L23.3335 28.0725L23.3574 28.3386C23.3603 28.3733 23.3723 28.4716 23.3901 28.6306C23.408 28.7897 23.4229 28.9112 23.4348 28.9893C23.4646 29.2438 23.4676 29.3826 23.4408 29.4086C23.4169 29.4317 23.3008 29.4722 23.0923 29.5301C22.8838 29.5879 22.7467 29.6168 22.6842 29.6168C22.5859 29.6168 22.5204 29.5792 22.4846 29.5069C22.4489 29.4346 22.431 29.3103 22.434 29.1339C22.437 29.0182 22.4399 28.6133 22.4399 27.9192C22.4399 26.453 22.4578 25.6866 22.4995 25.6201M23.9888 26.2245C23.962 26.1667 23.9293 26.132 23.8935 26.1204C23.8578 26.1088 23.7565 26.1002 23.5927 26.0915C23.4557 26.0886 23.3663 26.0915 23.3186 26.0973C23.271 26.1059 23.2442 26.1204 23.2323 26.1435C23.2114 26.2014 23.2114 26.4212 23.2263 26.8058C23.2412 27.1904 23.2621 27.3929 23.2859 27.416C23.3216 27.4507 23.3782 27.416 23.4616 27.3177C23.7327 26.9938 23.9054 26.7364 23.9799 26.5397C24.0097 26.4588 24.0276 26.4009 24.0305 26.3604C24.0305 26.3228 24.0186 26.2766 23.9918 26.2216L23.9888 26.2245Z" fill="#F47A05"/>
    </svg>
    