<svg width="46" height="46" viewBox="0 0 46 46" fill="none" xmlns="http://www.w3.org/2000/svg">
    <g clip-path="url(#clip0_32_21249)">
    <path d="M43.7077 13H1.79134C0.663686 13 -0.250458 13.9562 -0.250458 15.1357V30.7976C-0.250458 31.9771 0.663686 32.9333 1.79134 32.9333H43.7077C44.8354 32.9333 45.7495 31.9771 45.7495 30.7976V15.1357C45.7495 13.9562 44.8354 13 43.7077 13Z" fill="#087BF6"/>
    <path d="M27.8072 29.0178C27.6201 29.0178 27.4669 28.8577 27.4669 28.6619V16.7927C27.4669 16.5969 27.6201 16.4367 27.8072 16.4367H29.667C29.8542 16.4367 30.0073 16.5969 30.0073 16.7927V28.6619C30.0073 28.8577 29.8542 29.0178 29.667 29.0178H27.8072Z" fill="white"/>
    <path fill-rule="evenodd" clip-rule="evenodd" d="M33.3882 28.5426C34.1487 28.9502 35.0267 29.1531 36.0255 29.1531C36.8184 29.1531 37.5177 29.0285 38.1268 28.7793C38.5284 28.6067 38.8857 28.3896 39.1971 28.1226C39.4676 27.8912 39.4591 27.473 39.2226 27.2043L38.525 26.4176C38.3957 26.2717 38.1779 26.2663 38.0281 26.3891C37.8069 26.5671 37.5687 26.7095 37.3135 26.8145C36.9664 26.9622 36.5597 27.0352 36.0918 27.0352C35.5712 27.0352 35.1152 26.9391 34.7238 26.7469C34.3444 26.544 34.0449 26.2556 33.8288 25.8819C33.7165 25.6719 33.6349 25.4459 33.5838 25.2038H39.9032C40.0784 25.2038 40.2248 25.065 40.2401 24.8834C40.2401 24.871 40.2418 24.8603 40.2435 24.8479C40.2537 24.7126 40.2588 24.5933 40.2588 24.4919C40.2588 23.5077 40.058 22.6659 39.6565 21.9664C39.2549 21.2545 38.707 20.7117 38.0128 20.3379C37.3288 19.9535 36.558 19.7613 35.7005 19.7613C34.8429 19.7613 34.0126 19.9642 33.3065 20.3717C32.6004 20.7669 32.0423 21.3204 31.6288 22.034C31.2272 22.7353 31.0265 23.5433 31.0265 24.4581C31.0265 25.3729 31.2324 26.1702 31.6458 26.8821C32.0576 27.5833 32.6395 28.1368 33.3882 28.5444V28.5426ZM33.5532 23.659C33.5957 23.376 33.6757 23.1215 33.7948 22.8955C33.9786 22.5342 34.2338 22.2565 34.5605 22.0643C34.8974 21.8614 35.2819 21.76 35.7158 21.76C36.1497 21.76 36.5308 21.8614 36.8558 22.0643C37.1808 22.2565 37.436 22.527 37.6215 22.8777C37.744 23.1108 37.8257 23.3706 37.8665 23.6572H33.5532V23.659Z" fill="#F2994A"/>
    <path fill-rule="evenodd" clip-rule="evenodd" d="M24.0691 29.0178C23.8819 29.0178 23.7288 28.8577 23.7288 28.6619V27.8841C23.5382 28.2187 23.2779 28.4893 22.9478 28.6957C22.4594 29 21.8299 29.1531 21.0591 29.1531C20.3751 29.1531 19.7898 29.0339 19.3015 28.7972C18.8131 28.548 18.4388 28.2152 18.1785 27.7969C17.9181 27.3787 17.7871 26.9088 17.7871 26.3891C17.7871 25.8694 17.9113 25.3711 18.1615 24.9653C18.4218 24.5578 18.8284 24.2427 19.3831 24.0167C19.9361 23.78 20.6593 23.6608 21.5491 23.6608H23.5688C23.5688 23.0948 23.4004 22.6552 23.0635 22.3384C22.7385 22.0216 22.2331 21.8632 21.5491 21.8632C21.0829 21.8632 20.6218 21.9415 20.1658 22.0999C20.1233 22.1141 20.0824 22.1284 20.0416 22.1426C19.475 22.3491 18.7706 22.1925 18.4966 21.6354C18.2789 21.1922 18.4031 20.6405 18.8352 20.4287C19.1415 20.2792 19.4767 20.1511 19.8408 20.0478C20.5146 19.8556 21.1969 19.7595 21.8928 19.7595C23.2285 19.7595 24.2647 20.087 25.0032 20.7437C25.7416 21.3987 26.1109 22.422 26.1109 23.812V28.6619C26.1109 28.8577 25.9594 29.0178 25.7706 29.0178H24.0742H24.0691ZM23.5654 25.202V26.1346C23.414 26.5422 23.169 26.8519 22.8321 27.0672C22.4952 27.2701 22.1157 27.3716 21.6921 27.3716C21.2463 27.3716 20.8941 27.2755 20.6337 27.0832C20.3836 26.8803 20.2594 26.608 20.2594 26.2699C20.2594 25.9656 20.3683 25.711 20.5844 25.5064C20.8124 25.3035 21.2242 25.202 21.8214 25.202H23.5637H23.5654Z" fill="white"/>
    <path fill-rule="evenodd" clip-rule="evenodd" d="M13.4143 28.9128C12.652 29.2261 11.8268 29.3738 10.9522 29.3738H7.38587C6.64572 29.3738 6.04509 28.7473 6.04509 27.9731V17.7822C6.04509 17.0098 6.64572 16.3815 7.38587 16.3815H10.9522C11.8285 16.3815 12.6537 16.5328 13.416 16.8496C14.1748 17.1593 14.8384 17.6078 15.3948 18.2004C15.9495 18.786 16.3715 19.4837 16.6641 20.2774C16.9619 21.0819 17.1031 21.9557 17.1031 22.8812C17.1031 23.8067 16.9619 24.6806 16.6641 25.485C16.3698 26.2788 15.9478 26.9765 15.3914 27.5638C14.835 28.1511 14.1714 28.5978 13.416 28.9111H13.4126L13.4143 28.9128ZM13.7529 22.9115C13.7529 22.2476 13.6678 21.6977 13.5181 21.2421C13.3649 20.7722 13.1591 20.4109 12.9157 20.1297C12.6741 19.8503 12.3781 19.6314 12.0139 19.4765C11.6532 19.3217 11.2244 19.2327 10.7106 19.2327H9.06014V26.5813H10.7106C11.2244 26.5813 11.6532 26.4924 12.0139 26.3375C12.3798 26.1809 12.6758 25.9638 12.9191 25.6897C13.1608 25.4085 13.3649 25.0472 13.5181 24.5791C13.6678 24.1235 13.7529 23.5735 13.7529 22.9097V22.9115Z" fill="white"/>
    </g>
    <defs>
    <clipPath id="clip0_32_21249">
    <rect width="46" height="46" fill="white"/>
    </clipPath>
    </defs>
    </svg>

    