<svg width="46" height="46" viewBox="0 0 46 46" fill="none" xmlns="http://www.w3.org/2000/svg">
    <g clip-path="url(#clip0_32_21254)">
    <path d="M32.3166 17.1704H34.5178C34.5569 17.1704 34.5924 17.1985 34.6022 17.238L35.8473 22.3229H35.9624L37.1707 17.238C37.1805 17.1972 37.2148 17.1691 37.2552 17.1691H39.4429C39.4992 17.1691 39.5396 17.2265 39.5225 17.2827L37.227 24.7664C37.2025 24.8455 37.1328 24.8979 37.0544 24.8979H34.7063C34.6267 24.8979 34.5569 24.8443 34.5337 24.7664L32.2382 17.2827C32.2211 17.2265 32.2615 17.1691 32.3178 17.1691L32.3166 17.1704Z" fill="#196EFF"/>
    <path d="M40.2056 18.0508C40.7051 17.3197 41.3748 16.9522 42.2158 16.9522C43.1218 16.9522 43.8184 17.3376 44.3093 18.1083H44.3509L45.7539 17.1946C45.7796 17.1781 45.809 17.1691 45.8384 17.1691H45.9266C45.9682 17.1691 46.0012 17.2036 46.0012 17.247V24.7779C46.0012 24.8455 45.9486 24.8991 45.8849 24.8991H43.7339C43.669 24.8991 43.6176 24.8443 43.6176 24.7779V23.2518H43.5062C43.4046 23.8298 43.1916 24.2854 42.8684 24.6171C42.544 24.9489 42.1424 25.1161 41.6613 25.1161C40.9683 25.1161 40.4272 24.7575 40.0391 24.0391C39.651 23.322 39.4564 22.3178 39.4564 21.0265C39.4564 19.7352 39.7061 18.7922 40.2056 18.0496V18.0508ZM41.8829 21.0137C41.8829 22.3918 42.1828 23.0796 42.7839 23.0796C43.0618 23.0796 43.2785 22.9009 43.4352 22.5449C43.5919 22.1889 43.6703 21.6772 43.6703 21.0137C43.6703 19.6458 43.3752 18.9619 42.7827 18.9619C42.4962 18.9619 42.2746 19.138 42.1179 19.4889C41.9612 19.8398 41.8829 20.3489 41.8829 21.0137Z" fill="#196EFF"/>
    <path d="M22.1002 19.1201C22.4846 19.1201 22.8494 19.2337 23.1959 19.4621C23.2436 19.494 23.3061 19.4595 23.3061 19.4009V17.3567C23.3061 17.2929 23.2693 17.2329 23.213 17.2087C22.8164 17.0403 22.3512 16.9522 21.8088 16.9522C20.8294 16.9522 20.0349 17.3274 19.4252 18.0789C18.8155 18.8407 18.5095 19.8219 18.5095 21.0265C18.5095 22.231 18.8192 23.2365 19.4387 23.9881C20.0581 24.7396 20.8576 25.1148 21.837 25.1148C22.4662 25.1148 23.0416 24.9859 23.5607 24.7281C23.5999 24.709 23.6244 24.6669 23.6244 24.621V22.6036C23.6244 22.5462 23.5632 22.5117 23.5166 22.5424C23.0869 22.8129 22.6376 22.9481 22.17 22.9481C21.8002 22.9481 21.5015 22.7771 21.2763 22.4352C21.0498 22.0932 20.9359 21.6185 20.9359 21.0124C20.9359 20.4063 21.0424 19.9623 21.2542 19.6254C21.4673 19.2886 21.7488 19.1201 22.1002 19.1201Z" fill="#196EFF"/>
    <path d="M15.166 16.9535C14.2417 16.9535 13.5023 17.3197 12.9477 18.0521C12.3931 18.7935 12.1164 19.7862 12.1164 21.029C12.1164 22.2719 12.4029 23.2276 12.9758 23.9842C13.5488 24.7409 14.3801 25.1186 15.4709 25.1186C16.1895 25.1186 16.8726 24.954 17.5215 24.6273C17.5545 24.6108 17.5754 24.5725 17.5705 24.5342L17.3917 22.7376C17.3868 22.6942 17.3428 22.6687 17.3036 22.6866C16.6902 22.9877 16.1613 23.1383 15.7194 23.1383C15.3399 23.1383 15.0265 23.0107 14.7767 22.7555C14.527 22.5003 14.3788 22.1506 14.3335 21.7079H17.8998C17.9537 21.7079 18.0002 21.667 18.0087 21.6122C18.0442 21.3812 18.0626 21.1439 18.0626 20.8989C18.0626 19.7135 17.7969 18.7603 17.2656 18.0381C16.7343 17.3159 16.034 16.9548 15.1648 16.9548L15.166 16.9535ZM15.9838 20.6666H14.2931C14.3568 19.4915 14.658 18.9032 15.1942 18.9032C15.4623 18.9032 15.6606 19.0449 15.7904 19.3294C15.9202 19.6139 15.9851 19.9916 15.9851 20.4638V20.6654L15.9838 20.6666Z" fill="#196EFF"/>
    <path d="M27.1465 15.0178H26.8907C26.8527 15.0178 26.816 15.0319 26.7878 15.0574L24.048 17.4537C24.0112 17.4856 23.9904 17.5328 23.9904 17.5813V18.9849C23.9904 19.0449 24.0369 19.0921 24.0933 19.0921H24.8351V22.9788C24.8351 24.4041 25.7044 25.1173 27.4416 25.1173C27.8113 25.1173 28.17 25.0561 28.514 24.9336C28.5434 24.9234 28.5642 24.8928 28.5642 24.8596V22.855C28.5642 22.8103 28.5214 22.7797 28.4797 22.795C28.2741 22.8703 28.0941 22.9073 27.9398 22.9073C27.4587 22.9073 27.2188 22.6572 27.2188 22.1558V19.0921H28.4834C28.5422 19.0921 28.5912 19.0423 28.5912 18.9798V17.2814C28.5912 17.2202 28.5434 17.1692 28.4834 17.1692H27.2188V15.0944C27.2188 15.051 27.1857 15.0165 27.1441 15.0165L27.1465 15.0178Z" fill="#196EFF"/>
    <path d="M11.7442 17.1704H10.4429V16.2019C10.4429 15.7209 10.7012 15.4797 11.219 15.4797C11.3366 15.4797 11.459 15.5001 11.5839 15.5422C11.6157 15.5524 11.6488 15.5295 11.6488 15.4938V13.5861C11.6488 13.5351 11.6157 13.4904 11.568 13.4802C11.3598 13.4356 11.1052 13.4126 10.8028 13.4126C9.86869 13.4126 9.17577 13.6193 8.72279 14.034C8.26982 14.4487 8.04333 15.1033 8.04333 16.1215V24.746C8.04333 24.8302 8.10945 24.8991 8.19025 24.8991H10.3009C10.3719 24.8991 10.4282 24.8392 10.4282 24.7664V19.0908H11.743C11.8055 19.0908 11.8557 19.0385 11.8557 18.9734V17.2865C11.8557 17.2215 11.8055 17.1691 11.743 17.1691L11.7442 17.1704Z" fill="#196EFF"/>
    <path d="M30.4985 16.5924C30.8499 16.5924 31.1449 16.4673 31.3861 16.2172C31.6261 15.9761 31.746 15.6775 31.746 15.3215C31.746 14.9655 31.6261 14.6784 31.3861 14.4334C31.1462 14.1884 30.8499 14.0646 30.4985 14.0646C30.1472 14.0646 29.8509 14.1846 29.6109 14.4257C29.3612 14.6758 29.2363 14.9744 29.2363 15.3215C29.2363 15.6686 29.3588 15.9786 29.6036 16.2249C29.8485 16.4699 30.1459 16.5937 30.4985 16.5937V16.5924Z" fill="#196EFF"/>
    <path d="M31.5967 17.1704H29.3857C29.3417 17.1704 29.3061 17.2075 29.3061 17.2534V24.8175C29.3061 24.8633 29.3417 24.9004 29.3857 24.9004H31.5967C31.6406 24.9004 31.6763 24.8633 31.6763 24.8175V17.2534C31.6763 17.2075 31.6406 17.1704 31.5967 17.1704Z" fill="#196EFF"/>
    <path d="M4.45015 22.1035H6.94762C7.09576 22.1035 7.21696 22.2286 7.21696 22.3843V24.6185C7.21696 24.7729 7.09698 24.8993 6.94762 24.8993H0.66232C0.296269 24.9005 0 24.5905 0 24.2089V22.605C0 22.2886 0.135892 21.9861 0.369724 21.7833L2.82802 19.6549C2.93575 19.5617 2.92229 19.3869 2.80231 19.3117L0.470112 17.8672C0.178741 17.686 0 17.3581 0 17.0046V15.3956C0 15.0332 0.237505 14.7181 0.574174 14.6313L6.88396 13.0082C7.05413 12.9648 7.21818 13.0988 7.21818 13.28V15.4977C7.21818 15.6266 7.13371 15.7389 7.01373 15.7695L4.07431 16.5249C3.9225 16.5644 3.88332 16.7711 4.01065 16.8668L5.6744 18.1211C5.89722 18.2896 6.02944 18.5588 6.02944 18.8459V19.6983C6.02944 19.9433 5.93272 20.1781 5.76255 20.3465L4.32405 21.7718C4.20285 21.8917 4.28488 22.1035 4.45138 22.1035H4.45015Z" fill="#196EFF"/>
    <path d="M16.2568 28.8573H18.9355V29.5081H17.9537V32.3855H17.2424V29.5081H16.2556V28.8573H16.2568Z" fill="#196EFF"/>
    <path d="M19.5256 29.8143V31.3315C19.5256 31.6798 19.6847 31.8853 19.97 31.8853C20.2552 31.8853 20.5013 31.6479 20.5013 31.2753V29.8143H21.1538V32.3842H20.5111V32.092C20.303 32.3587 20.003 32.4595 19.6933 32.4595C19.1522 32.4595 18.8718 32.1315 18.8718 31.477V29.8143H19.5244H19.5256Z" fill="#196EFF"/>
    <path d="M23.1616 29.8143V29.5974C23.1616 29.0334 23.3746 28.791 23.9353 28.791C24.1092 28.791 24.2928 28.8114 24.4385 28.8459V29.3448C24.3418 29.3244 24.2059 29.309 24.119 29.309C23.8962 29.309 23.8141 29.4252 23.8141 29.6012V29.8131H24.3797V30.3324H23.8141V32.3842H23.1616V30.3324H22.7221V29.8131H23.1616V29.8143Z" fill="#196EFF"/>
    <path d="M25.0653 28.7552C25.2832 28.7552 25.4473 28.9211 25.4473 29.138C25.4473 29.355 25.2832 29.5157 25.0653 29.5157C24.8474 29.5157 24.6833 29.3499 24.6833 29.138C24.6833 28.9262 24.8425 28.7552 25.0653 28.7552ZM24.736 29.8143H25.3885V32.3842H24.736V29.8143Z" fill="#196EFF"/>
    <path d="M25.9199 29.8143H26.5577V30.1423C26.7903 29.8654 27.0609 29.739 27.3939 29.739C27.9546 29.739 28.2594 30.067 28.2594 30.7267V32.3855H27.6069V30.8581C27.6069 30.5097 27.4379 30.3081 27.1282 30.3081C26.8185 30.3081 26.5724 30.5404 26.5724 30.9181V32.3842H25.9199V29.8143Z" fill="#196EFF"/>
    <path d="M28.6634 31.0993C28.6634 30.2928 29.1813 29.739 29.8289 29.739C30.1435 29.739 30.4141 29.8552 30.5928 30.0963V29.8143H31.2453V32.3842H30.6259V32.092C30.4226 32.3485 30.1619 32.4595 29.8228 32.4595C29.1653 32.4595 28.6622 31.8904 28.6622 31.0993H28.6634ZM29.3306 31.0993C29.3306 31.5829 29.6159 31.9108 29.9831 31.9108C30.3504 31.9108 30.6308 31.5778 30.6308 31.0993C30.6308 30.6208 30.3504 30.2928 29.9831 30.2928C29.6159 30.2928 29.3306 30.6208 29.3306 31.0993Z" fill="#196EFF"/>
    <path d="M31.784 29.8143H32.4218V30.1423C32.6544 29.8654 32.925 29.739 33.258 29.739C33.8187 29.739 34.1235 30.067 34.1235 30.7267V32.3855H33.471V30.8581C33.471 30.5097 33.3021 30.3081 32.9923 30.3081C32.6826 30.3081 32.4365 30.5404 32.4365 30.9181V32.3842H31.784V29.8143Z" fill="#196EFF"/>
    <path d="M34.5178 31.0993C34.5178 30.2928 35.0883 29.739 35.8277 29.739C36.4802 29.739 36.954 30.1576 37.0507 30.7471H36.408C36.3211 30.4498 36.0885 30.2941 35.8326 30.2941C35.4604 30.2941 35.185 30.6271 35.185 31.1005C35.185 31.5739 35.4604 31.9121 35.8326 31.9121C36.0983 31.9121 36.3554 31.736 36.4374 31.3774H37.0801C36.9736 32.129 36.4227 32.4608 35.8277 32.4608C35.0932 32.4608 34.5178 31.921 34.5178 31.1005V31.0993Z" fill="#196EFF"/>
    <path d="M37.7914 28.7552C38.0093 28.7552 38.1734 28.9211 38.1734 29.138C38.1734 29.355 38.0093 29.5157 37.7914 29.5157C37.5735 29.5157 37.4095 29.3499 37.4095 29.138C37.4095 28.9262 37.5686 28.7552 37.7914 28.7552ZM37.4621 29.8143H38.1146V32.3842H37.4621V29.8143Z" fill="#196EFF"/>
    <path d="M38.5039 31.0993C38.5039 30.2928 39.0744 29.739 39.8053 29.739C40.3709 29.739 41.0724 30.0874 41.0724 31.0342C41.0724 31.0993 41.0626 31.2205 41.0528 31.2817H39.1761C39.2299 31.7003 39.476 31.9121 39.809 31.9121C40.0844 31.9121 40.273 31.7806 40.3844 31.5548H41.0516C40.8827 32.1647 40.3991 32.462 39.8041 32.462C39.0744 32.462 38.5027 31.9121 38.5027 31.1018L38.5039 31.0993ZM40.4236 30.8275C40.3611 30.4995 40.1138 30.2928 39.8139 30.2928C39.5139 30.2928 39.2581 30.5353 39.1907 30.8275H40.4236Z" fill="#196EFF"/>
    <path d="M41.4825 29.8143H42.1155V30.2928C42.3579 29.8794 42.7484 29.748 43.194 29.7429V30.3834C43.1548 30.3783 43.1071 30.3783 43.0581 30.3783C42.5256 30.3783 42.135 30.7164 42.135 31.3966V32.3842H41.4825V29.8143Z" fill="#196EFF"/>
    <path d="M43.385 31.0993C43.385 30.2928 43.9029 29.739 44.5505 29.739C44.8651 29.739 45.1357 29.8552 45.3144 30.0963V29.8143H45.967V32.3842H45.3475V32.092C45.1443 32.3485 44.8835 32.4595 44.5444 32.4595C43.887 32.4595 43.3838 31.8904 43.3838 31.0993H43.385ZM44.0522 31.0993C44.0522 31.5829 44.3375 31.9108 44.7048 31.9108C45.072 31.9108 45.3524 31.5778 45.3524 31.0993C45.3524 30.6208 45.072 30.2928 44.7048 30.2928C44.3375 30.2928 44.0522 30.6208 44.0522 31.0993Z" fill="#196EFF"/>
    </g>
    <defs>
    <clipPath id="clip0_32_21254">
    <rect width="46" height="46" fill="white"/>
    </clipPath>
    </defs>
    </svg>
    