<svg width="46" height="46" viewBox="0 0 46 46" fill="none" xmlns="http://www.w3.org/2000/svg">
    <g clip-path="url(#clip0_32_21258)">
    <path d="M45.9932 23.0341C45.9932 30.5965 45.9918 38.1589 46 45.7213C46 45.9543 45.9543 46 45.7213 46C30.574 45.9932 15.4267 45.9932 0.279407 46C0.0463407 46 0.000681481 45.9543 0.000681481 45.7213C0.00681482 30.574 0.00681482 15.426 0 0.278726C0 0.0456593 0.0456593 0 0.278726 0C15.426 0.00681481 30.5733 0.00681481 45.7206 0C45.9537 0 46 0.0456593 45.9993 0.278726C45.9911 7.86362 45.9932 15.4485 45.9932 23.0341Z" fill="#FEFEFE"/>
    <path d="M33.6996 19.4978C33.7191 19.3731 33.6908 19.2396 33.8839 19.2191C34.0884 19.1973 33.899 18.9881 33.9752 18.89C33.9984 18.8089 33.9097 18.8361 33.8946 18.7925C33.7185 18.7271 33.5361 18.6971 33.3631 18.5997C33.2064 18.5117 33.1706 18.4334 33.2121 18.2616C33.248 18.1138 33.2536 17.957 33.2725 17.8044C32.9108 17.9632 32.841 17.9032 32.6862 17.4909C32.6038 17.2721 32.5239 17.1277 32.6485 16.866C32.773 16.6056 32.5151 16.391 32.2723 16.1988C32.0741 16.0414 31.942 16.0223 31.7502 16.1163C31.7357 16.1232 31.7131 16.1095 31.6942 16.1054C31.82 15.9262 31.4061 15.8213 31.6457 15.6039C31.776 15.486 31.6149 15.1704 31.4281 15.1657C31.318 15.1629 31.2073 15.2025 31.0953 15.212C30.9865 15.2216 30.8934 15.197 30.7971 15.1132C30.6487 14.9844 30.4713 14.8944 30.3065 14.7881C30.2952 14.6573 30.3681 14.6914 30.4335 14.7125C30.465 14.7138 30.5065 14.7295 30.5254 14.7138C30.6682 14.598 30.8116 14.5994 30.9796 14.6539C31.0903 14.69 31.218 14.6157 31.279 14.5121C31.3727 14.3533 31.2085 14.2579 31.1482 14.1216C31.2803 14.1148 31.4004 14.1107 31.5206 14.1026C31.6634 14.093 31.7282 13.9772 31.72 13.8545C31.7124 13.7461 31.6049 13.7073 31.5011 13.7148C31.44 13.7196 31.3696 13.7475 31.3193 13.7243C31.2079 13.6725 31.0425 13.7598 30.9821 13.5765C30.9242 13.4013 31.0569 13.3373 31.1482 13.2548C31.3123 13.1062 31.1595 12.9427 31.1859 12.7812C30.7814 12.9781 30.6795 12.4425 30.3757 12.4125C30.3291 12.4438 30.2845 12.4466 30.2417 12.405C30.0957 12.3593 30.0574 12.296 30.1763 12.1542C30.2536 12.0622 30.3807 12.1065 30.4449 12.0056C30.3631 11.9375 30.3574 11.8114 30.4203 11.6785C30.4606 11.5927 30.4071 11.515 30.365 11.4625C30.3134 11.3984 30.2322 11.361 30.1442 11.4168C30.0171 11.4966 29.9165 11.5967 29.8976 11.7562C29.8491 11.6915 29.8057 11.5749 29.7466 11.564C29.4308 11.5082 29.4843 11.1354 29.2968 10.9725C29.2736 10.9527 29.3082 10.8464 29.3239 10.7824C29.4214 10.3851 29.4031 10.3537 29.0119 10.2767C29.0509 10.1868 29.083 10.0948 29.1289 10.0109C29.2012 9.87942 29.1754 9.75675 29.0729 9.68111C28.9546 9.59388 28.903 9.72131 28.8276 9.80105C28.6816 9.95438 28.4281 10.0007 28.4256 10.2931C28.4023 10.3183 28.3784 10.3176 28.3539 10.2951C28.3054 10.276 28.257 10.2386 28.2092 10.2406C27.9852 10.2501 27.8393 10.1881 27.9683 9.80377C27.7424 10.0103 27.6707 10.1909 27.5952 10.368C27.6374 10.4103 27.6367 10.4573 27.6084 10.5071C27.5072 10.6127 27.4329 10.5207 27.3688 10.4566C27.2927 10.3803 27.3688 10.3197 27.4059 10.2542C27.5355 10.0273 27.6644 9.81468 27.5134 9.51755C27.4638 9.41942 27.526 9.32946 27.3713 9.42487C27.1731 9.54685 27.2599 9.18771 27.1033 9.21088C26.9209 9.19317 27.0574 9.00303 26.9743 8.93148C26.7208 8.82925 26.6095 9.08822 26.4912 9.21634C26.4189 9.29539 26.2887 9.41192 26.2805 9.60205C26.2742 9.73903 26.1346 9.67429 26.0339 9.61023C25.8439 9.48893 25.8106 9.23133 25.6294 9.10457C25.5325 9.03711 25.4539 8.91171 25.3841 9.13047C25.3426 9.26131 25.0318 9.18431 25.1633 9.45758C25.0236 9.4862 24.8966 9.43032 24.7852 9.3574C24.5072 9.17545 24.2518 9.11956 24.0536 9.44259C23.8586 9.46644 24.0838 9.09231 23.8221 9.20134C23.7951 9.23201 23.7674 9.23269 23.7391 9.20407C23.7473 9.04596 23.9461 8.90967 23.7416 8.72294C23.5485 8.54644 23.4013 8.64117 23.2396 8.73725C23.0742 8.83539 22.9207 8.95737 22.7773 8.69023C22.7596 8.65684 22.6351 8.60028 22.4917 8.66025C22.2539 8.75906 21.9318 8.59823 21.7525 8.93148C21.7406 8.79245 21.3908 9.10117 21.5374 8.74134C21.5487 8.71272 21.4776 8.60505 21.4468 8.64934C21.3751 8.75225 21.2266 8.61118 21.1826 8.77678C21.1562 8.87696 21.2084 8.95873 21.2078 9.04869C20.9272 9.06164 20.7102 8.9049 20.5485 8.72158C20.3768 8.52736 20.2302 8.63708 20.1069 8.70522C19.8395 8.85311 19.5898 8.78155 19.486 8.42377C19.4539 8.63094 19.2187 8.73521 19.4332 8.94034C19.5552 9.05687 19.3998 9.06573 19.352 9.11343C19.1092 9.35672 19.1256 9.44191 19.4634 9.57343C19.3243 9.76425 19.1853 9.95097 19.1444 10.2236C18.9784 10.1186 18.745 9.90736 18.6456 10.0634C18.521 10.259 18.2222 10.3885 18.2939 10.7149C18.3789 10.7319 18.4261 10.6842 18.4776 10.6481C18.5242 10.6147 18.5777 10.5895 18.606 10.6624C18.6305 10.7265 18.6299 10.8042 18.5475 10.8246C18.4267 10.8553 18.2877 10.8458 18.1851 10.9085C18.0643 10.9821 17.8964 10.7824 17.8851 10.9085C17.8693 11.0781 17.7637 11.2533 17.8404 11.423C17.8851 11.5218 17.8882 11.5872 17.8152 11.6594C17.7662 11.7078 17.6014 11.6962 17.7045 11.8271C17.7813 11.9245 17.8209 12.0942 18.0134 12.0547C18.2556 12.005 18.2625 12.0234 18.3116 12.3069C18.3248 12.3818 18.3663 12.36 18.4015 12.3614C18.6154 12.3682 18.6613 12.6442 18.8532 12.6905C18.9148 12.7055 18.8708 12.7825 18.8538 12.7948C18.6204 12.9747 18.7997 13.0606 18.9167 13.1723C18.9563 13.2098 19.0186 13.278 18.9639 13.3454C18.935 13.3816 18.8727 13.404 18.8255 13.404C18.7217 13.404 18.6173 13.3816 18.5129 13.3768C18.3015 13.3672 18.0536 13.402 18.2663 13.0279C18.3009 12.9672 18.3474 12.8193 18.2285 12.7587C18.1052 12.6953 17.9694 12.649 17.836 12.7301C17.5957 12.8766 17.4611 12.8916 17.5768 12.5188C17.59 12.4759 17.5252 12.405 17.4963 12.3471C17.4762 12.251 17.4359 12.3328 17.4045 12.3348C17.2868 12.3089 17.2107 12.3416 17.0899 12.4043C16.837 12.5358 16.8182 12.8745 16.5609 12.9481C16.4609 12.9768 16.3722 13.1049 16.3772 13.1485C16.43 13.5928 16.2023 13.3304 16.074 13.2861C15.996 13.4122 16.0948 13.4872 16.1218 13.5744C16.1973 13.8211 16.1054 14.0167 15.8828 13.9983C15.694 13.9826 15.6915 14.0174 15.7224 14.2041C15.7419 14.322 15.7324 14.493 15.5965 14.6014C15.5217 14.6607 15.5928 14.7622 15.6343 14.8263C15.745 14.9953 15.7022 15.1071 15.5462 15.2025C15.3934 15.2965 15.3072 15.4083 15.3713 15.6332C15.4129 15.777 15.3405 15.9828 15.2204 16.0475C14.8945 16.2233 14.8272 16.5021 14.8788 16.851C14.7712 16.851 14.7857 16.7746 14.7643 16.7126C14.7152 16.5736 14.1503 16.2962 14.0384 16.3603C13.9119 16.4325 13.9201 16.5668 13.9887 16.6745C14.0585 16.7849 14.1459 16.8878 14.2837 16.93C14.1981 17.0602 13.9377 16.9989 13.9755 17.2237C14.0075 17.4166 14.0786 17.6265 14.3403 17.5549C14.3781 17.8044 14.7599 17.7158 14.7228 18.0422C14.6429 18.1083 14.5668 18.0538 14.4913 17.9911C14.4152 17.9277 14.3472 17.9632 14.3026 18.0306C14.2761 18.0708 14.261 18.141 14.2743 18.1874C14.3019 18.2896 14.3736 18.2296 14.429 18.2146C14.4995 18.1962 14.5536 18.2146 14.5844 18.2875C14.6234 18.3795 14.5693 18.4388 14.5133 18.4913C14.2629 18.7244 14.2843 18.907 14.6001 19.0263C14.8379 19.1155 14.8247 19.3977 14.9819 19.5428C14.9958 19.5558 14.9782 19.6335 14.9549 19.6614C14.9253 19.6968 14.8775 19.69 14.8536 19.6396C14.8102 19.5496 14.7731 19.3738 14.6586 19.5115C14.5825 19.6028 14.6272 19.7738 14.7756 19.8427C14.8121 19.8597 14.8436 19.8904 14.9209 19.9463C14.646 20.0246 14.4057 20.0608 14.2334 20.3054C14.1428 20.4342 14.1378 20.4989 14.2277 20.5637C14.3957 20.6857 14.5567 20.8588 14.7964 20.7661C14.841 20.749 14.8989 20.7593 14.9486 20.7688C15.2109 20.8186 15.2128 20.8213 15.3676 20.5623C15.4179 20.4778 15.4544 20.409 15.5569 20.4983C15.6796 20.6053 15.8268 20.6066 15.9752 20.5807L15.9702 20.5766C16.0136 20.8833 15.7343 20.6427 15.6771 20.779C15.9671 21.3508 16.2149 21.4442 16.7578 21.1722C16.9006 21.1007 16.9931 21.0557 17.0509 21.2888C17.1296 21.6057 17.217 21.6173 17.4051 21.389C17.429 21.3597 17.4749 21.3481 17.5133 21.3372C17.6875 21.2888 17.8844 21.2963 17.8234 20.9733C17.8045 20.8717 17.9725 20.7286 18.0675 20.5862C18.1631 20.7674 17.9637 20.8329 18.0228 20.976C18.2487 20.9412 18.4676 20.839 18.7041 20.8301C18.889 20.8233 18.9243 20.6427 18.9658 20.4921C18.9985 20.3722 18.9777 20.2632 18.8393 20.2325C18.6601 20.193 18.7676 20.0962 18.823 20.0587C19.2942 19.7418 19.7219 19.3213 20.3673 19.5626C20.9102 19.7657 21.4279 20.0294 21.9601 20.2563C22.2665 20.3872 22.4652 20.8404 22.4369 21.207C22.4099 21.5552 22.3866 21.9048 22.3828 22.2544C22.3728 23.1342 21.9909 23.3687 21.4644 23.5956C21.1379 23.7367 20.802 23.5002 20.507 23.7053C20.0339 24.0338 19.508 23.8934 19.0016 23.9207C18.862 23.9282 18.7142 23.9411 18.6135 24.0338C18.3732 24.2553 18.0971 24.2376 17.814 24.2376C16.001 24.2341 14.1881 24.2307 12.3751 24.2423C12.1248 24.2437 12.0631 24.1667 12.0637 23.9009C12.0707 17.9747 12.0713 12.0486 12.0631 6.12241C12.0631 5.84573 12.1399 5.79121 12.3783 5.79121C19.9654 5.79802 27.5531 5.79802 35.1402 5.79053C35.3931 5.79053 35.4742 5.84368 35.4736 6.1374C35.4648 12.052 35.4654 17.9672 35.4723 23.8818C35.4723 24.1585 35.4132 24.2444 35.1465 24.243C32.9561 24.2307 30.7657 24.2355 28.5759 24.2382C28.4149 24.2382 28.2715 24.2171 28.1343 24.1088C27.8016 23.8477 27.4115 23.9275 27.0385 23.9254C26.88 23.9248 26.7447 23.9098 26.6007 23.8041C26.4032 23.659 26.1723 23.5554 25.9213 23.6944C25.8125 23.7551 25.7213 23.6808 25.681 23.5976C25.5319 23.2882 25.2142 23.2031 25.0079 22.9748C24.8418 22.7914 24.5273 23.0306 24.4474 22.801C24.3807 22.6088 24.4015 22.4085 24.204 22.264C24.0631 22.1604 24.1153 21.9198 24.1052 21.7522C24.0844 21.3951 23.8668 21.098 23.9177 20.7116C23.9656 20.3477 24.1499 20.1718 24.416 20.0444C24.5619 19.9742 24.6978 19.8945 24.8116 19.7745C25.2753 19.2852 25.9465 19.292 26.3843 19.8945C26.5768 20.1589 27.1624 20.3347 27.4084 20.2195C27.4493 20.2332 27.4644 20.2809 27.5015 20.2993C27.8638 20.4928 28.2243 20.6904 28.5879 20.8799C28.8949 21.0394 29.0414 20.9412 29.0496 20.58C29.122 20.5064 29.2308 20.5903 29.3025 20.5119C29.4786 20.5289 29.6177 20.4069 29.7768 20.3613C30.1039 20.2672 30.4184 20.1562 30.6713 20.5535C30.7525 20.6816 30.9104 20.6836 31.0349 20.503C31.128 20.3681 31.2733 20.1132 31.4388 20.4662C31.4746 20.5426 31.5457 20.4642 31.5986 20.4642C31.7395 20.4628 31.8791 20.3831 32.0288 20.4894C32.1075 20.5453 32.1999 20.4921 32.2088 20.3347C32.2119 20.2781 32.1232 20.0798 32.3214 20.1003C32.3975 19.9715 32.4981 19.9578 32.6183 20.024C32.6692 20.0519 32.729 20.1105 32.7667 20.0035C32.7762 19.9613 32.7938 19.9251 32.8233 19.8965C33.0586 19.8992 33.2782 19.8727 33.3989 19.6035C33.4625 19.4624 33.6053 19.5312 33.7072 19.4897C33.7424 19.5108 33.782 19.5169 33.821 19.5244C33.7839 19.5053 33.7399 19.5183 33.7034 19.4978H33.6996Z" fill="#8BC53E"/>
    <path d="M33.7833 36.4838C33.8845 36.6133 34.0305 36.6085 34.1538 36.6542C35.0401 36.9785 35.5887 37.6253 35.6931 38.6414C35.7981 39.6649 35.5081 40.5284 34.6677 41.0981C34.0273 41.5322 33.3071 41.6794 32.5673 41.6978C31.8766 41.7155 31.1846 41.6774 30.4933 41.6821C30.202 41.6842 30.0989 41.5833 30.1007 41.248C30.1133 38.8424 30.1058 36.4361 30.1045 34.0305C30.1045 33.9057 30.1058 33.7804 30.0982 33.6563C30.0718 33.2263 29.9177 33.0471 29.5264 32.9837C29.4541 32.9721 29.3805 32.9653 29.3088 32.9489C29.1666 32.9156 28.9848 32.8999 28.9961 32.6893C29.0081 32.4767 29.188 32.4392 29.3471 32.4283C29.6189 32.4099 29.8913 32.4044 30.163 32.3969C31.1984 32.3697 32.2364 32.2702 33.2637 32.4999C33.4977 32.5523 33.7329 32.6252 33.9518 32.7288C35.2314 33.3333 35.4603 35.035 34.3947 36.0149C34.206 36.1887 33.989 36.3271 33.7814 36.4845L33.7833 36.4838Z" fill="#0172AD"/>
    <path d="M22.1224 34.4107C22.0393 34.5654 22.0702 34.7392 22.0695 34.9041C22.0645 37.0038 22.0639 39.1034 22.0639 41.2037C22.0639 41.3905 22.0809 41.5649 21.8469 41.6167C21.5229 41.6883 21.4298 41.6188 21.4304 41.2548C21.4348 39.0073 21.4405 36.7605 21.4455 34.5129C21.4455 34.3317 21.4468 34.1497 21.4392 33.9684C21.4128 33.321 21.1668 33.0321 20.5755 32.9176C20.3981 32.8835 20.1025 32.9551 20.1257 32.6382C20.1503 32.3056 20.4403 32.4637 20.6108 32.4556C21.0605 32.4337 21.5116 32.4556 21.962 32.446C22.1922 32.4412 22.3507 32.5326 22.4891 32.7363C24.0291 35.0104 25.7898 37.0801 27.5468 39.1538C27.5958 39.2118 27.6311 39.2826 27.6908 39.3753C27.8261 39.1695 27.7858 38.9978 27.7858 38.8417C27.789 36.8327 27.7902 34.8237 27.7827 32.8147C27.782 32.5837 27.8198 32.4549 28.0626 32.4433C28.3148 32.431 28.4193 32.5128 28.4168 32.8065C28.4035 34.1913 28.4029 35.5761 28.4061 36.9608C28.4092 38.4587 28.4218 39.9573 28.4293 41.4552C28.43 41.5983 28.4696 41.766 28.2897 41.8246C28.1186 41.8798 28.0532 41.7237 27.9663 41.6153C26.0767 39.2601 24.187 36.9043 22.296 34.5497C22.2507 34.4932 22.2186 34.4121 22.1236 34.4107H22.1224Z" fill="#0172AD"/>
    <path d="M19.3463 39.5722C19.3463 40.0377 19.3457 40.5031 19.3463 40.9686C19.3463 41.1587 19.2897 41.2971 19.1016 41.3475C17.8403 41.6869 16.5746 41.877 15.2794 41.5683C13.4916 41.143 12.1391 39.731 11.8812 37.998C11.4736 35.255 13.0035 32.9803 15.548 32.4964C16.7313 32.2715 17.8837 32.4317 19.0387 32.6845C19.201 32.7199 19.2796 32.8085 19.2834 32.9789C19.2953 33.4907 19.3645 33.9957 19.4224 34.5027C19.4375 34.6356 19.4639 34.7903 19.2846 34.8271C19.1179 34.8612 19.0292 34.7576 18.9884 34.5974C18.6436 33.2522 17.6428 32.8515 16.4784 32.876C14.4635 32.9182 13.1809 34.331 13.1431 36.5144C13.1211 37.7711 13.3425 38.9494 14.0974 39.9573C15.075 41.263 16.7288 41.3829 17.7334 41.1042C18.0196 41.0245 18.1825 40.8384 18.2064 40.51C18.2461 39.977 18.2555 39.4434 18.2165 38.9112C18.1926 38.5854 18.0435 38.3578 17.7044 38.3394C17.4849 38.3272 17.2654 38.306 17.0477 38.2761C16.9301 38.2597 16.8112 38.2072 16.8168 38.0491C16.8231 37.8794 16.9458 37.8719 17.0685 37.8719C17.7283 37.8726 18.3889 37.8801 19.0487 37.8651C19.2922 37.8597 19.3557 37.9694 19.3501 38.2093C19.3394 38.6631 19.3469 39.1177 19.3469 39.5716H19.3444L19.3463 39.5722Z" fill="#0172AD"/>
    <path d="M14.2207 28.1063C14.9247 28.3605 15.1272 28.9057 15.0586 29.5831C14.9832 30.3334 14.5799 30.7403 13.876 30.7873C13.3438 30.8234 12.8085 30.7948 12.2744 30.803C12.1228 30.8057 12.0756 30.7409 12.0756 30.5828C12.0788 29.0509 12.0794 27.5196 12.075 25.9876C12.075 25.8056 12.1373 25.7532 12.2964 25.7566C12.7569 25.7654 13.2186 25.7436 13.6785 25.7661C14.5441 25.8084 15.0385 26.6439 14.7403 27.5271C14.6516 27.7901 14.4686 27.9489 14.2207 28.1063Z" fill="#9A9A9A"/>
    <path d="M30.6814 28.2842C30.6808 26.7999 31.6917 25.6973 33.0542 25.6959C34.4061 25.6946 35.4484 26.8149 35.4522 28.274C35.4566 29.7296 34.4105 30.8636 33.0643 30.8636C31.6998 30.8636 30.682 29.7623 30.6814 28.2842Z" fill="#9A9A9A"/>
    <path d="M21.0517 26.648C21.053 27.9524 21.0548 29.2574 21.0555 30.5617C21.0555 30.6708 21.0806 30.8084 20.9121 30.7948C20.7649 30.7832 20.8001 30.6544 20.8001 30.5617C20.7982 28.9848 20.7994 27.4079 20.8001 25.8309C20.8001 25.8002 20.8139 25.7703 20.8435 25.6517C21.9034 27.1489 22.9301 28.5984 23.9561 30.0472C24.1322 30.0002 24.0448 29.8462 24.0454 29.7474C24.0523 28.5405 24.0485 27.3336 24.0517 26.126C24.0517 26.0054 24.0171 25.8779 24.085 25.7634C24.2039 25.7491 24.2876 25.7689 24.287 25.9345C24.2794 27.5557 24.2763 29.177 24.2706 30.7982C24.2706 30.805 24.2574 30.8112 24.209 30.8568C23.1804 29.4046 22.1538 27.9544 21.1266 26.5042C20.9882 26.4831 21.0335 26.573 21.0523 26.6473L21.0517 26.648Z" fill="#9B9B9B"/>
    <path d="M17.8127 25.7137C18.0253 26.2888 18.2373 26.864 18.4512 27.4385C18.8343 28.4675 19.2199 29.4945 19.5967 30.5263C19.6237 30.6006 19.7407 30.7178 19.6118 30.7846C19.4973 30.8439 19.3973 30.7832 19.3457 30.6347C19.235 30.3171 19.1022 30.0084 18.9959 29.6894C18.9393 29.5184 18.867 29.4352 18.6839 29.4387C18.0668 29.4509 17.4491 29.4496 16.832 29.4387C16.6665 29.4359 16.5879 29.502 16.5357 29.6642C16.435 29.9736 16.313 30.2748 16.2111 30.5842C16.152 30.7641 16.0651 30.852 15.855 30.7621C16.4772 29.0761 17.0993 27.3915 17.7215 25.7062C17.7517 25.7082 17.7819 25.7103 17.812 25.713L17.8127 25.7137Z" fill="#9A9A9A"/>
    <path d="M25.5822 28.2712C25.5834 27.172 26.1345 26.2575 27.0145 25.8929C27.9864 25.4901 29.0514 25.7136 29.6515 26.4476C29.7044 26.5123 29.7956 26.5669 29.7635 26.6711C29.7503 26.7141 29.688 26.7502 29.6415 26.7686C29.5509 26.804 29.515 26.7113 29.4672 26.6582C28.8029 25.9269 28.0103 25.7995 27.158 26.1471C26.2823 26.5042 25.908 27.277 25.8583 28.2447C25.8105 29.1735 26.3389 30.0431 27.1271 30.4029C27.9248 30.7668 28.8608 30.576 29.4509 29.9279C29.4804 29.8959 29.5106 29.8639 29.5364 29.8284C29.6006 29.7432 29.661 29.6771 29.7673 29.7753C29.8868 29.8857 29.7912 29.9525 29.7333 30.024C29.2005 30.6816 28.5073 30.9249 27.7298 30.8493C26.4377 30.7239 25.5803 29.6724 25.5822 28.2706V28.2712Z" fill="#9A9A9A"/>
    <path d="M21.5543 18.907C21.8173 18.7918 22.0689 18.9152 22.3199 18.9472C22.4916 18.969 22.6457 19.5626 22.5407 19.72C22.5023 19.7773 22.4514 19.7786 22.4029 19.7602C22.1003 19.6464 21.7512 19.581 21.6996 19.1462C21.6852 19.0242 21.5644 19.0133 21.5543 18.907Z" fill="#8DC641"/>
    <path d="M24.3977 18.7496C24.5858 19.0944 24.4109 19.5367 24.0504 19.6042C23.885 19.6355 23.8661 19.4965 23.9328 19.395C24.0586 19.2028 24.0152 19.0045 23.9938 18.8055C23.98 18.6808 23.9297 18.5411 24.0674 18.477C24.2228 18.4041 24.226 18.6195 24.3222 18.6678C24.3876 18.6515 24.4115 18.6794 24.3983 18.7489L24.3977 18.7496Z" fill="#8EC743"/>
    <path d="M20.3925 18.6297C20.517 18.5738 20.6252 18.6004 20.6969 18.6842C20.8743 18.8921 21.0838 19.0093 21.343 19.0495C21.5015 19.074 21.538 19.2423 21.4965 19.365C21.4512 19.4993 21.3316 19.3875 21.2543 19.3636C20.7875 19.2178 20.7888 19.2144 20.3925 18.6297Z" fill="#8EC743"/>
    <path d="M27.414 13.8341C27.0416 13.9254 26.7208 13.875 26.5295 13.43C26.6874 13.492 26.7981 13.3523 26.9542 13.3482C27.285 13.3393 27.3253 13.6044 27.4096 13.8402L27.414 13.8348V13.8341Z" fill="#92C849"/>
    <path d="M24.0844 25.7641C24.0819 27.1489 24.08 28.5343 24.0775 29.9191C24.0775 30.1133 24.0749 30.1133 23.9561 30.0472C24.0617 29.9477 24.0114 29.8142 24.012 29.6969C24.0158 28.4996 24.0127 27.3022 24.0171 26.1049C24.0171 25.9904 23.9605 25.8534 24.0844 25.7634V25.7641Z" fill="#C7C7C7"/>
    <path d="M21.1423 11.8073C21.1851 11.9627 21.1926 12.0077 21.2096 12.0479C21.2706 12.1896 21.3121 12.4282 21.248 12.4718C21.1027 12.5713 20.9033 12.5883 20.7227 12.6135C20.6126 12.6292 20.6529 12.5202 20.6391 12.4472C20.6133 12.3103 20.6384 12.2244 20.7693 12.1992C20.9397 12.1665 21.0882 12.1051 21.1423 11.8066V11.8073Z" fill="#8DC641"/>
    <path d="M16.491 18.5138C16.2551 18.7019 15.9896 18.8055 15.6902 18.7973C15.6166 18.7952 15.4769 18.86 15.4876 18.7441C15.499 18.6221 15.5851 18.3809 15.6927 18.4259C15.9607 18.539 16.2431 18.2657 16.491 18.5138Z" fill="#91C847"/>
    <path d="M18.7991 14.3799C18.5959 14.8065 18.5789 14.8127 18.2367 14.6021C18.1631 14.5564 18.0719 14.5224 18.1411 14.4079C18.1889 14.3281 18.2537 14.1905 18.3518 14.2682C18.5198 14.4011 18.6877 14.3063 18.8544 14.324C18.8657 14.3779 18.8638 14.4147 18.7991 14.3799Z" fill="#90C846"/>
    <path d="M26.7504 18.1015C26.5944 18.2303 26.5309 18.5165 26.2975 18.4238C26.222 18.3938 26.1188 18.2255 26.2138 18.0776C26.3962 17.7941 26.5692 18.1117 26.7498 18.1015H26.7504Z" fill="#91C847"/>
    <path d="M25.1488 18.6072C25.2916 18.6106 25.3375 18.7959 25.318 18.8355C25.23 19.0147 25.0607 19.1156 24.8947 19.2028C24.7959 19.2546 24.7726 19.1714 24.7708 19.0829C24.8406 18.8723 24.8701 18.6242 25.1482 18.6079L25.1488 18.6072Z" fill="#90C746"/>
    <path d="M24.4354 17.7199C24.3555 17.7165 24.2926 17.694 24.297 17.634C24.3014 17.5754 24.3385 17.4841 24.3794 17.4705C24.5719 17.4064 24.7701 17.3607 24.9682 17.3165C25.0173 17.3055 25.0827 17.328 25.0777 17.3989C25.0739 17.448 25.0305 17.5359 25.0098 17.5345C24.7871 17.5141 24.5939 17.5925 24.4354 17.7206V17.7199Z" fill="#98CB53"/>
    <path d="M16.1645 20.2434C16.4149 20.1684 16.5332 20.5003 16.7728 20.4765C16.8143 20.4724 16.8263 20.5637 16.7967 20.6189C16.7382 20.7279 16.6193 20.7518 16.5577 20.6891C16.435 20.5651 16.3017 20.5576 16.1551 20.563C16.1394 20.5385 16.1343 20.5119 16.1387 20.4826C16.1752 20.4063 16.1167 20.317 16.1645 20.242V20.2434Z" fill="#9FCF60"/>
    <path d="M19.9301 18.5472C20.1629 18.5077 20.2031 18.7298 20.2887 18.8736C20.3321 18.9472 20.2792 19.0501 20.1861 18.9929C20.0377 18.9015 19.8313 18.8593 19.8175 18.6106C19.8364 18.5506 19.8961 18.5751 19.9307 18.5479L19.9301 18.5472Z" fill="#91C848"/>
    <path d="M27.1568 18.5922C27.1316 18.6119 27.0926 18.6263 27.0832 18.6521C26.9674 18.9813 26.7856 18.9622 26.5686 18.77C26.7284 18.5854 26.9404 18.5445 27.1612 18.5295C27.1788 18.5452 27.1838 18.5595 27.1769 18.5731C27.17 18.586 27.1631 18.5922 27.1568 18.5922Z" fill="#92C849"/>
    <path d="M20.0767 16.2465C20.2616 16.2772 20.2843 15.9024 20.5183 16.055C20.6265 16.1259 20.5743 16.1906 20.5246 16.271C20.3679 16.5232 20.2277 16.3208 20.076 16.2465H20.0767Z" fill="#9BCD59"/>
    <path d="M19.3728 19.2443C19.1759 19.3609 19.0129 19.4304 18.8569 19.2546C18.8223 19.2157 18.7814 19.1305 18.8374 19.1135C19.0161 19.059 19.1954 19.0685 19.3728 19.2443Z" fill="#95CA4F"/>
    <path d="M30.2712 17.2653C30.2536 17.0146 30.5776 17.065 30.4668 16.8156C30.4536 16.7856 30.6367 16.7133 30.7065 16.7597C30.7977 16.8203 30.726 16.9437 30.6763 16.9887C30.5643 17.0902 30.4291 17.1611 30.2712 17.266V17.2653Z" fill="#96CA51"/>
    <path d="M26.1408 18.5894C26.0911 18.7339 25.9672 18.7734 25.8508 18.7939C25.7545 18.8109 25.786 18.7032 25.7879 18.6487C25.7936 18.5049 25.8911 18.4238 26.0011 18.402C26.1062 18.3816 26.1119 18.5056 26.1408 18.5901V18.5894Z" fill="#99CC55"/>
    <path d="M26.7913 15.2945C26.6239 15.4513 26.4541 15.4635 26.3321 15.347C26.271 15.2891 26.3402 15.1262 26.4377 15.009C26.5013 15.1718 26.6321 15.2257 26.7913 15.2945Z" fill="#9BCD58"/>
    <path d="M27.6166 14.307C27.7342 14.4222 27.548 14.4215 27.5556 14.4951C27.46 14.4017 27.2989 14.5864 27.2228 14.4024C27.2039 14.3567 27.1737 14.3165 27.1479 14.2729C27.2536 14.1646 27.3675 14.2457 27.4744 14.2416C27.5342 14.232 27.5757 14.2695 27.6166 14.307Z" fill="#93C94B"/>
    <path d="M27.1391 14.6553C27.2177 14.6785 27.3498 14.6621 27.3379 14.7698C27.3209 14.9204 27.1674 14.8993 27.0617 14.9197C26.9869 14.934 26.9038 14.9163 26.9101 14.8059C26.9189 14.643 27.0353 14.6553 27.1391 14.6546V14.6553Z" fill="#98CB53"/>
    <path d="M25.1488 18.6072C24.9909 18.7353 24.872 18.9009 24.7713 19.0822C24.7688 19.0277 24.7663 18.9725 24.7638 18.9179C24.7204 18.8409 24.7751 18.7748 24.7839 18.7033C24.8626 18.597 24.8676 18.4654 24.8884 18.3394C24.9286 18.291 24.9689 18.2426 25.0091 18.1942C25.1136 18.2862 25.0827 18.4416 25.1507 18.5513C25.1507 18.5697 25.1507 18.5881 25.1488 18.6065V18.6072Z" fill="#F3F8EC"/>
    <path d="M28.5734 19.2035C28.4646 19.1994 28.4149 19.1483 28.4212 19.0331C28.4262 18.9418 28.4419 18.8654 28.5457 18.9097C28.6256 18.9445 28.7691 18.8988 28.7716 19.0338C28.7735 19.1394 28.664 19.1864 28.574 19.2028L28.5734 19.2035Z" fill="#9DCE5C"/>
    <path d="M24.3977 18.7496C24.3725 18.7224 24.3473 18.6958 24.3215 18.6685C24.3203 18.4177 24.5612 18.4811 24.6845 18.261C24.6801 18.5765 24.6424 18.7455 24.397 18.7496H24.3977Z" fill="#95CA4F"/>
    <path d="M29.7573 16.4455C29.6447 16.4837 29.5667 16.3917 29.5811 16.3195C29.6038 16.2043 29.7296 16.1838 29.8302 16.1573C29.9391 16.1286 29.9252 16.1968 29.9428 16.282C29.9875 16.5028 29.8101 16.3849 29.7579 16.4449L29.7573 16.4455Z" fill="#9BCD59"/>
    <path d="M27.1769 19.5231C26.9938 19.4222 26.8095 19.4958 26.7435 19.2927C26.7202 19.2226 26.795 19.2055 26.841 19.1973C27.0209 19.164 27.092 19.2934 27.1769 19.5231Z" fill="#99CC55"/>
    <path d="M19.1488 13.1969C19.2683 13.1246 19.3633 13.0817 19.4413 13.0149C19.5049 12.9604 19.5514 12.8514 19.62 12.9938C19.6659 13.0885 19.6206 13.1901 19.5388 13.2126C19.4256 13.2432 19.2973 13.2882 19.1488 13.1969Z" fill="#99CC56"/>
    <path d="M20.7239 18.1921C20.9328 18.2542 20.9812 18.4068 20.9844 18.5826C20.9856 18.6371 20.9259 18.6317 20.8869 18.616C20.7063 18.5417 20.6982 18.385 20.7239 18.1928V18.1921Z" fill="#95CA4F"/>
    <path d="M27.4983 20.3006C27.4675 20.274 27.436 20.2475 27.4052 20.2209C27.414 20.1473 27.4952 20.0914 27.4543 20.0055C27.3945 19.8801 27.5015 19.8863 27.5556 19.8604C27.6097 19.8345 27.6795 19.81 27.7153 19.889C27.7462 19.9565 27.7053 20.0158 27.6669 20.0689C27.6109 20.1459 27.5543 20.2229 27.4983 20.3006Z" fill="#96CA50"/>
    <path d="M26.9536 18.3087C27.1064 18.2099 27.063 17.9782 27.2624 17.9918C27.3146 17.9952 27.3568 18.0599 27.3341 18.1179C27.2788 18.2617 27.1894 18.3618 26.9536 18.3087Z" fill="#9CCD5B"/>
    <path d="M32.8239 20.0308C32.8541 20.0887 32.9057 20.1528 32.8572 20.2134C32.7994 20.2864 32.7459 20.2087 32.6956 20.1794C32.5767 20.1112 32.4741 19.9558 32.3175 20.1003C32.3213 19.9715 32.388 19.9088 32.5024 19.8979C32.6264 19.8952 32.7484 19.8966 32.8245 20.0301L32.8239 20.0308Z" fill="#EAF4DE"/>
    <path d="M28.7558 20.379C28.7665 20.4629 28.7143 20.4894 28.6665 20.4928C28.5243 20.5031 28.501 20.3831 28.4897 20.2714C28.4777 20.1589 28.5545 20.0921 28.6407 20.1112C28.7747 20.1405 28.6287 20.3361 28.7558 20.379Z" fill="#9DCE5D"/>
    <path d="M25.1507 18.5513C24.8827 18.535 25.0897 18.2978 25.0091 18.1942C25.1526 18.1929 25.2199 18.3748 25.4281 18.3332C25.2972 18.4361 25.2243 18.4934 25.1507 18.5513Z" fill="#9CCD5A"/>
    <path d="M18.8764 17.6313C18.8613 17.48 18.9683 17.4037 19.028 17.3076C19.0683 17.2435 19.1067 17.0956 19.1985 17.1658C19.2866 17.2333 19.2451 17.3566 19.1482 17.4166C19.0526 17.4759 19.0048 17.6054 18.8758 17.6306L18.8764 17.6313Z" fill="#98CB54"/>
    <path d="M30.5102 19.5755C30.4876 19.6062 30.463 19.626 30.4567 19.6512C30.4165 19.8154 30.3297 19.9245 30.168 19.9422C30.1548 19.9435 30.1372 19.8924 30.1215 19.8659C30.2643 19.7963 30.2567 19.4979 30.5102 19.5755Z" fill="#9DCD5C"/>
    <path d="M21.3807 11.2097C21.1857 11.2519 21.0642 11.3065 20.9762 11.1892C20.9347 11.134 20.9743 11.0134 21.0422 10.993C21.1957 10.9473 21.2108 11.1327 21.3813 11.209L21.3807 11.2097Z" fill="#97CB52"/>
    <path d="M24.9456 12.9052C25.0249 12.9427 25.0576 13.0061 25.0418 13.0517C24.9959 13.1819 24.8707 13.2071 24.7651 13.2419C24.7009 13.263 24.6713 13.1485 24.6883 13.1362C24.7846 13.0667 24.8934 13.0177 24.9456 12.9059V12.9052Z" fill="#9FCF60"/>
    <path d="M31.2595 20.0185C31.34 19.889 31.4287 19.7909 31.5658 19.797C31.5834 19.7977 31.6243 19.9074 31.608 19.9367C31.5256 20.0867 31.3865 20.0328 31.2589 20.0185H31.2595Z" fill="#97CB51"/>
    <path d="M21.6431 15.903C21.6066 15.9896 21.5657 16.0755 21.5349 16.1647C21.5078 16.2424 21.4877 16.3187 21.3889 16.256C21.2782 16.1852 21.3826 16.1368 21.4009 16.0755C21.4399 15.9467 21.4606 15.8035 21.6431 15.903Z" fill="#A0CF61"/>
    <path d="M22.0998 13.7168C22.028 13.8116 21.9318 13.7727 21.8437 13.7618C21.789 13.755 21.7355 13.7175 21.7802 13.6514C21.8318 13.5758 21.9123 13.5431 22.001 13.5676C22.0677 13.586 22.1092 13.631 22.0998 13.7168Z" fill="#98CB54"/>
    <path d="M27.0001 16.3957C26.9938 16.4653 27.058 16.5695 26.9265 16.5613C26.8441 16.5559 26.7705 16.4898 26.8127 16.4155C26.8542 16.3433 26.7856 16.1865 26.9228 16.1981C27.031 16.2077 27.0284 16.3085 27.0001 16.3957Z" fill="#AED679"/>
    <path d="M23.9278 13.3318C23.8259 13.4409 23.717 13.4824 23.5962 13.4593C23.5843 13.4572 23.5642 13.3393 23.5868 13.3121C23.6994 13.1731 23.8133 13.3455 23.9278 13.3318Z" fill="#97CB52"/>
    <path d="M22.7665 13.5335C22.8105 13.4204 22.8306 13.2875 22.9835 13.3127C23.0382 13.3216 23.0722 13.3843 23.0521 13.4402C22.9992 13.5874 22.8935 13.5853 22.7665 13.5335Z" fill="#ADD577"/>
    <path d="M25.747 11.3194C25.7898 11.361 25.8709 11.4012 25.8854 11.4605C25.9124 11.5736 25.808 11.5647 25.7438 11.5722C25.6929 11.5784 25.6036 11.6077 25.6174 11.5C25.6262 11.4325 25.6382 11.3419 25.747 11.3201V11.3194Z" fill="#A8D36F"/>
    <path d="M18.5896 19.4058C18.5525 19.534 18.4329 19.521 18.343 19.5551C18.3059 19.5694 18.2392 19.5619 18.2442 19.5128C18.2574 19.3724 18.4015 19.3909 18.477 19.3207C18.5349 19.2668 18.5588 19.3472 18.5896 19.4058Z" fill="#9ACC57"/>
    <path d="M22.8175 12.4132C22.8288 12.1951 22.9263 12.1031 23.1962 12.1174C23.0232 12.2523 22.9207 12.3328 22.8175 12.4132Z" fill="#A0CF62"/>
    <path d="M26.9925 11.1825C26.8038 11.2124 26.7742 11.438 26.6094 11.3222C26.5547 11.284 26.5949 11.2601 26.6214 11.2233C26.7075 11.102 26.8013 11.0939 26.9925 11.1825Z" fill="#94C94D"/>
    <path d="M25.4891 13.6937C25.5734 13.5717 25.6634 13.4524 25.8578 13.5553C25.754 13.6964 25.625 13.7012 25.4891 13.6937Z" fill="#A0CF61"/>
    <path d="M24.8884 18.34C25.0179 18.4974 24.9179 18.6188 24.8349 18.7421C24.7053 18.7421 24.7493 18.6521 24.7619 18.5785C24.7575 18.4702 24.8047 18.3939 24.8884 18.34Z" fill="#A6D26C"/>
    <path d="M19.1104 18.706C19.2551 18.6978 19.3796 18.5397 19.5262 18.6474C19.5394 18.6569 19.5375 18.7278 19.5256 18.7346C19.3853 18.8123 19.2488 18.7128 19.1104 18.7053V18.706Z" fill="#98CB54"/>
    <path d="M19.9697 11.7528C20.0603 11.4782 20.183 11.4912 20.3346 11.53C20.2666 11.6983 20.1276 11.6588 19.9697 11.7528Z" fill="#9ECE5E"/>
    <path d="M15.9557 21.0782C16.0111 21.0142 16.0192 20.9999 16.023 21.0012C16.1595 21.038 16.2879 20.8499 16.4256 20.9842C16.4369 20.9951 16.4413 21.0374 16.4382 21.0387C16.2954 21.1062 16.1488 21.0639 15.9551 21.0782H15.9557Z" fill="#96CA50"/>
    <path d="M21.5065 18.0729C21.3914 18.1928 21.3077 18.2733 21.1807 18.2222C21.1618 18.2147 21.1385 18.154 21.1467 18.1431C21.2323 18.0293 21.348 18.0545 21.5065 18.0729Z" fill="#A2D065"/>
    <path d="M29.5912 19.6853C29.6189 19.4733 29.756 19.4958 29.9089 19.5142C29.885 19.6546 29.7881 19.6778 29.6918 19.703C29.6535 19.7302 29.6201 19.7248 29.5912 19.6853Z" fill="#8EC743"/>
    <path d="M16.1645 20.2434C16.2608 20.3409 16.335 20.437 16.1545 20.5235C16.0928 20.5521 16.0349 20.5535 16.0091 20.4731C15.984 20.3961 16.0318 20.3538 16.0872 20.3204C16.1129 20.2945 16.1387 20.2686 16.1645 20.2427V20.2434Z" fill="#F6FAF1"/>
    <path d="M31.3211 19.0692C31.4337 19.0971 31.4935 19.1728 31.5061 19.3268C31.3822 19.3193 31.3073 19.2512 31.2475 19.1523C31.2331 19.0842 31.2538 19.0528 31.3205 19.0692H31.3211Z" fill="#9FCF60"/>
    <path d="M16.0878 20.3211C16.0174 20.4247 16.0218 20.4997 16.1551 20.5235C16.1551 20.5371 16.1551 20.5508 16.1551 20.5644C16.0929 20.5692 16.0306 20.5733 15.9683 20.578L15.9733 20.5821C15.9702 20.4969 15.8243 20.4683 15.8903 20.362C15.9362 20.2877 16.0142 20.2911 16.0878 20.3211Z" fill="#99CC56"/>
    <path d="M32.0294 19.1803C31.9345 19.273 31.8464 19.3289 31.7413 19.2641C31.6998 19.2382 31.7256 19.1817 31.7539 19.1531C31.8539 19.0515 31.9288 19.1633 32.0294 19.181V19.1803Z" fill="#A3D167"/>
    <path d="M20.1163 15.5405C20.1817 15.672 20.3063 15.5255 20.3836 15.6407C20.2088 15.6652 20.0351 15.7211 19.859 15.6195C19.8974 15.5412 19.9697 15.5282 20.0395 15.5112C20.0691 15.5078 20.0949 15.5187 20.1163 15.5405Z" fill="#C6E2A2"/>
    <path d="M20.1163 15.5405C20.0905 15.5425 20.0653 15.5452 20.0396 15.5473C19.8955 15.578 19.7521 15.6045 19.6105 15.533C19.7804 15.4417 19.9502 15.3013 20.1157 15.5405H20.1163Z" fill="#D0E7B3"/>
    <path d="M19.2985 16.4271C19.5105 16.239 19.4954 16.5348 19.5942 16.5879C19.4709 16.5859 19.3325 16.6159 19.3017 16.4237L19.2985 16.4278V16.4271Z" fill="#9BCD59"/>
    <path d="M23.2685 17.6415C23.0622 17.7553 22.9854 17.6838 22.9288 17.465C23.0534 17.5298 23.1427 17.5761 23.2685 17.6415Z" fill="#9DCE5C"/>
    <path d="M27.409 13.8395C27.4291 13.8395 27.4511 13.8327 27.47 13.8395C27.5468 13.8668 27.6197 13.7346 27.6908 13.8306C27.704 13.8484 27.6807 13.9274 27.6556 13.9431C27.538 14.016 27.4694 13.9376 27.414 13.8341L27.4096 13.8395H27.409Z" fill="#90C747"/>
    <path d="M19.4426 16.0353C19.5633 15.9971 19.6778 16.0073 19.8043 16.1034C19.6508 16.2043 19.5495 16.0986 19.4426 16.0353Z" fill="#9ECE5D"/>
    <path d="M20.8196 14.6103C20.7322 14.7112 20.6623 14.7711 20.5661 14.7228C20.5497 14.7146 20.5453 14.6308 20.5623 14.5994C20.6378 14.4617 20.7152 14.5756 20.819 14.6103H20.8196Z" fill="#9DCE5D"/>
    <path d="M25.2085 10.1493C25.0884 10.1923 24.9852 10.1405 24.9393 10.0328C24.9166 9.98031 25.0179 9.95373 25.0777 9.94215C25.1903 9.89853 25.1657 10.0342 25.2186 10.0682C25.2337 10.0975 25.2299 10.1248 25.2085 10.1486V10.1493Z" fill="#97CB52"/>
    <path d="M19.3017 16.423C19.1897 16.4768 19.0897 16.3726 18.9708 16.4005C19.1935 16.2281 19.201 16.2288 19.2979 16.4271L19.301 16.423H19.3017Z" fill="#8FC745"/>
    <path d="M21.5909 13.3761C21.5179 13.4422 21.4449 13.4858 21.3562 13.417C21.3216 13.3904 21.3027 13.3304 21.3436 13.3086C21.4311 13.2609 21.5204 13.2657 21.5909 13.3761Z" fill="#A1D063"/>
    <path d="M32.8239 20.0308C32.7409 19.9176 32.5723 20.0485 32.5018 19.8986C32.6069 19.7534 32.7138 19.8577 32.8195 19.8965C32.8208 19.9408 32.8227 19.9858 32.8239 20.0301V20.0308Z" fill="#A3D167"/>
    <path d="M26.9762 8.93011C27.0749 8.99281 26.9982 9.15092 27.1051 9.20952C27.0592 9.27699 27.0227 9.35672 26.907 9.38739C26.9535 9.22179 26.9963 9.07936 26.9762 8.93011Z" fill="#9ECE5F"/>
    <path d="M26.3119 19.0324C26.2024 19.0719 26.1112 19.181 25.8898 19.1094C26.0854 19.0767 26.1634 18.9397 26.3119 19.0324Z" fill="#B7DA8A"/>
    <path d="M29.3031 11.8748C29.2314 11.9593 29.1571 11.99 29.0754 11.9034C29.0596 11.8871 29.0609 11.8189 29.0678 11.8155C29.1534 11.7815 29.2395 11.7644 29.3031 11.8741V11.8748Z" fill="#9CCD5A"/>
    <path d="M27.2706 15.7252C27.2177 15.702 27.168 15.6788 27.175 15.6086C27.1806 15.5528 27.2221 15.5378 27.2662 15.5432C27.3203 15.5494 27.3819 15.58 27.3819 15.6352C27.3819 15.6911 27.3234 15.7204 27.2706 15.7252Z" fill="#A8D36F"/>
    <path d="M23.9196 12.1883H23.6C23.6835 12.0856 23.79 12.0856 23.9196 12.1883Z" fill="#9FCE60"/>
    <path d="M16.9112 14.489C16.8716 14.5571 16.825 14.6137 16.7401 14.5885C16.6961 14.5755 16.6615 14.5346 16.6948 14.4965C16.7338 14.4522 16.7911 14.4188 16.8464 14.4024C16.8993 14.3867 16.9037 14.446 16.9112 14.489Z" fill="#9DCE5D"/>
    <path d="M30.2007 15.1119C30.1529 15.1248 30.1158 15.1105 30.1139 15.054C30.1114 14.9729 30.1573 14.9279 30.2284 14.9374C30.263 14.9422 30.3184 14.9769 30.3221 15.0049C30.3347 15.0989 30.2435 15.0778 30.2001 15.1112L30.2007 15.1119Z" fill="#A3D167"/>
    <path d="M29.8076 11.9872C29.9259 12.0179 30.0083 12.0772 29.9863 12.2373C29.858 12.2305 29.8353 12.1331 29.8051 12.0445C29.7875 12.0309 29.7818 12.0179 29.7881 12.0056C29.7944 11.9934 29.8007 11.9872 29.8076 11.9872Z" fill="#A1D064"/>
    <path d="M23.2025 12.2497C23.288 12.1706 23.3603 12.1788 23.4245 12.251C23.4333 12.2612 23.4189 12.3212 23.4063 12.3246C23.3377 12.3451 23.2679 12.3478 23.2025 12.2497Z" fill="#A3D168"/>
    <path d="M19.6105 15.533C19.7533 15.5378 19.8968 15.5426 20.0396 15.5473C19.9993 15.6305 19.9175 15.5923 19.8584 15.6196C19.7798 15.5766 19.6546 15.6918 19.6105 15.533Z" fill="#90C746"/>
    <path d="M27.6165 14.307C27.5574 14.3152 27.5052 14.307 27.4744 14.2416C27.4737 14.1618 27.5033 14.0474 27.5618 14.0664C27.6461 14.0944 27.6694 14.2055 27.6165 14.3063V14.307Z" fill="#9CCD5B"/>
    <path d="M31.3211 19.0692C31.2966 19.0972 31.2727 19.1244 31.2481 19.1524C31.2192 19.1803 31.1789 19.2376 31.1626 19.2307C31.0833 19.1967 31.1192 19.1088 31.1399 19.0679C31.189 18.9718 31.2595 19.027 31.3205 19.0692H31.3211Z" fill="#BEDE95"/>
    <path d="M25.2085 10.1493C25.2104 10.1316 25.211 10.1146 25.2091 10.0969C25.1947 10.0825 25.1896 10.0682 25.194 10.0532C25.1984 10.0389 25.2035 10.0314 25.2079 10.0314C25.2746 10.0335 25.3419 10.0355 25.4086 10.0376C25.4381 10.0485 25.4589 10.0689 25.4715 10.0996C25.3916 10.167 25.2997 10.1568 25.2079 10.1493H25.2085Z" fill="#B2D881"/>
    <path d="M21.7946 15.1336C21.7845 15.2018 21.7292 15.2004 21.682 15.1977C21.6587 15.1963 21.616 15.167 21.6172 15.1534C21.6216 15.0934 21.6568 15.0566 21.716 15.0566C21.7594 15.0566 21.794 15.0716 21.7952 15.1343L21.7946 15.1336Z" fill="#B7DB89"/>
    <path d="M23.0653 12.8043C23.127 12.7355 23.2207 12.7157 23.2641 12.7819C23.2937 12.8261 23.205 12.8766 23.1433 12.8895C23.0735 12.9086 23.054 12.8732 23.066 12.8043H23.0653Z" fill="#8CC63F"/>
    <path d="M26.5535 12.987C26.6566 12.9468 26.7101 12.9979 26.7548 13.0579C26.7623 13.0674 26.7365 13.1287 26.7208 13.1321C26.6334 13.1485 26.6006 13.0749 26.5535 12.9877V12.987Z" fill="#AAD473"/>
    <path d="M25.2085 10.0314C25.2111 10.0532 25.2111 10.075 25.2092 10.0968C25.1651 10.045 25.1211 9.99392 25.0777 9.94213C25.1431 9.88011 25.2136 9.85558 25.2947 9.90669C25.2658 9.94826 25.2375 9.98983 25.2085 10.0314Z" fill="#B8DB8B"/>
    <path d="M30.436 14.7125C30.3913 14.7336 30.3297 14.7207 30.3089 14.7881C30.2592 14.7854 30.18 14.7691 30.2108 14.7132C30.268 14.6116 30.3592 14.6505 30.436 14.7118V14.7125Z" fill="#C8E2A4"/>
    <path d="M16.9553 17.3042C16.915 17.3567 16.8735 17.4037 16.8219 17.3642C16.7974 17.3458 16.7823 17.2817 16.7917 17.249C16.8087 17.1924 16.8597 17.2224 16.8949 17.234C16.9276 17.2442 16.9823 17.2469 16.9553 17.3042Z" fill="#90C745"/>
    <path d="M29.3912 14.0964C29.3553 14.0658 29.2993 14.0406 29.2993 14.014C29.2981 13.9567 29.3534 13.9751 29.3874 13.9779C29.4289 13.9806 29.4692 14.0017 29.4629 14.0542C29.461 14.0705 29.4189 14.0815 29.3912 14.0964Z" fill="#E2F0D0"/>
    <path d="M24.7619 18.5786C24.7708 18.6413 24.7745 18.7067 24.8349 18.7421C24.811 18.8007 24.7877 18.8593 24.7638 18.9179C24.6581 18.8055 24.7047 18.6917 24.7619 18.5779V18.5786Z" fill="#AAD473"/>
    <path d="M33.8953 18.7926C33.9708 18.7735 34.0651 18.6672 34.1154 18.7646C34.1557 18.843 34.0456 18.8737 33.9758 18.89C33.9487 18.8573 33.9223 18.8253 33.8953 18.7926Z" fill="#F7FAF2"/>
    <path d="M19.9301 18.5472C19.908 18.6017 19.864 18.6092 19.8168 18.6099C19.7904 18.5493 19.6904 18.4818 19.7835 18.4239C19.8672 18.3714 19.8734 18.5132 19.9301 18.5472Z" fill="#ADD578"/>
    <path d="M19.5344 18.336C19.4759 18.338 19.4338 18.3121 19.4325 18.2453C19.4325 18.2242 19.4614 18.2024 19.4765 18.1813C19.5136 18.2147 19.5621 18.2412 19.5854 18.2835C19.6105 18.3285 19.5583 18.3257 19.5338 18.336H19.5344Z" fill="#9ECE5E"/>
    <path d="M23.0653 12.8044C23.0911 12.833 23.1169 12.8609 23.1427 12.8896C23.0735 12.9645 22.9949 12.9979 22.8942 12.9618C22.8974 12.8323 23.0131 12.8596 23.0653 12.8044Z" fill="#A9D370"/>
    <path d="M17.4056 12.3342C17.4654 12.2817 17.4862 12.1822 17.5749 12.1679C17.5843 12.1665 17.6101 12.2122 17.6113 12.2367C17.6139 12.3178 17.5667 12.3478 17.4975 12.3457C17.4667 12.3417 17.4365 12.3376 17.4056 12.3335V12.3342Z" fill="#F7FAF2"/>
    <path d="M22.2582 11.6588C22.3362 11.5702 22.4388 11.5572 22.5187 11.6226C22.5564 11.6533 22.4834 11.7017 22.4344 11.7146C22.3847 11.6615 22.3029 11.729 22.2582 11.6588Z" fill="#C9E3A7"/>
    <path d="M27.6103 10.5057C27.6059 10.4593 27.6014 10.413 27.597 10.3667C27.6543 10.3694 27.7455 10.3346 27.7575 10.4021C27.7776 10.5139 27.6719 10.4887 27.6103 10.5057Z" fill="#C5E2A1"/>
    <path d="M28.0802 19.4229C28.1512 19.4297 28.1651 19.4713 28.1682 19.5163C28.1726 19.5776 28.1343 19.5878 28.0902 19.5776C28.0519 19.5687 28.0028 19.5551 28.0141 19.5033C28.0217 19.4693 28.0625 19.4434 28.0802 19.4229Z" fill="#95CA50"/>
    <path d="M25.4721 10.0995C25.4513 10.0791 25.4299 10.058 25.4092 10.0375C25.4985 10.0219 25.5885 9.998 25.6834 10.0396C25.6268 10.1329 25.5413 10.0845 25.4721 10.0995Z" fill="#91C847"/>
    <path d="M23.7409 9.20341C23.7686 9.20273 23.7963 9.20205 23.824 9.20068C23.7963 9.28246 23.7617 9.39763 23.6692 9.34039C23.6101 9.30359 23.6963 9.24021 23.7409 9.20273V9.20341Z" fill="#ACD577"/>
    <path d="M29.5912 19.6852C29.6245 19.6914 29.6579 19.6968 29.6912 19.703C29.6006 19.7861 29.5044 19.8045 29.3918 19.7445C29.4484 19.6464 29.5239 19.6866 29.5906 19.6852H29.5912Z" fill="#96CA51"/>
    <path d="M27.1568 18.5921C27.1561 18.571 27.1574 18.5506 27.1618 18.5295C27.2222 18.4484 27.2945 18.4545 27.3895 18.5036C27.3027 18.5369 27.2297 18.5642 27.1574 18.5921H27.1568Z" fill="#ADD577"/>
    <path d="M18.7991 14.3799C18.8173 14.3615 18.8362 14.3424 18.8544 14.324C18.9016 14.3329 18.9878 14.3383 18.9633 14.3942C18.923 14.4869 18.8519 14.4344 18.7991 14.3792V14.3799Z" fill="#AAD475"/>
    <path d="M19.942 13.5928C20.0477 13.5492 20.115 13.5519 20.1767 13.6501C20.0854 13.6794 20.0301 13.6399 19.942 13.5928Z" fill="#B0D77E"/>
    <path d="M28.2312 13.2861C28.1488 13.2739 28.0645 13.2671 28.0148 13.1785C28.0619 13.1662 28.1091 13.1533 28.1557 13.141C28.2117 13.171 28.2532 13.2091 28.2312 13.2861Z" fill="#ABD474"/>
    <path d="M29.2993 20.5126C29.2345 20.6189 29.1351 20.578 29.0464 20.5807C29.1017 20.4315 29.2213 20.5637 29.2993 20.5126Z" fill="#C3E09C"/>
    <path d="M28.2311 13.2861C28.206 13.2378 28.1808 13.1894 28.1556 13.141C28.1638 13.1015 28.1934 13.0272 28.206 13.0503C28.2424 13.1164 28.3739 13.1928 28.2311 13.2855V13.2861Z" fill="#92C849"/>
    <path d="M17.5944 16.8353C17.5384 16.8197 17.5107 16.7856 17.5157 16.7399C17.5176 16.7243 17.5736 16.6977 17.5868 16.7065C17.6164 16.7263 17.6352 16.7658 17.6585 16.7979C17.6346 16.8122 17.6107 16.8265 17.5944 16.8353Z" fill="#98CC55"/>
    <path d="M22.7515 14.5762C22.7496 14.6164 22.7282 14.643 22.6936 14.628C22.6691 14.6171 22.6408 14.5871 22.6357 14.5605C22.6319 14.5394 22.6603 14.491 22.6747 14.4903C22.7206 14.489 22.7464 14.5258 22.7521 14.5762H22.7515Z" fill="#AAD473"/>
    <path d="M22.2582 11.6588C22.3199 11.6663 22.3903 11.6404 22.4344 11.7147C22.3601 11.7242 22.3042 11.8231 22.2205 11.7665C22.2148 11.7624 22.245 11.6963 22.2582 11.6588Z" fill="#94C94D"/>
    <path d="M32.0408 19.0931C32.0169 19.0495 31.998 19.0154 31.9785 18.9813C32.0049 18.9704 32.0314 18.9513 32.0584 18.9506C32.1081 18.9486 32.1289 18.9881 32.1157 19.0331C32.1094 19.0549 32.0748 19.0672 32.0408 19.0931Z" fill="#A9D371"/>
    <path d="M17.061 15.8813C17.0365 15.8704 16.9949 15.8731 17.0107 15.824C17.0251 15.7797 17.0522 15.7402 17.1 15.7545C17.1214 15.7613 17.1497 15.7981 17.1497 15.8213C17.1497 15.8799 17.1044 15.8847 17.061 15.8813Z" fill="#94C94E"/>
    <path d="M21.0517 26.648C20.9951 26.5839 20.9712 26.4953 21.0209 26.436C21.0643 26.3842 21.1046 26.4531 21.1253 26.5049C21.0637 26.5301 21.0681 26.5955 21.0511 26.648H21.0517Z" fill="#C3C3C3"/>
    <path d="M30.2435 12.4057C30.2882 12.4084 30.3328 12.4112 30.3775 12.4132C30.3498 12.4759 30.3089 12.5952 30.2964 12.5918C30.2007 12.5659 30.2637 12.4691 30.2435 12.405V12.4057Z" fill="#A9D371"/>
    <path d="M29.8075 11.9873C29.8 12.0064 29.7994 12.0254 29.805 12.0445C29.7365 12.0091 29.6528 11.9934 29.6333 11.8857C29.7207 11.8707 29.7685 11.9205 29.8075 11.9873Z" fill="#8EC643"/>
    <path d="M28.3557 10.2938C28.3796 10.2938 28.4035 10.2924 28.4274 10.2917C28.513 10.3613 28.4828 10.4635 28.4136 10.4696C28.2984 10.4792 28.3809 10.3538 28.3557 10.2938Z" fill="#98CC56"/>
    <path d="M33.6996 19.4979C33.7996 19.3766 33.9198 19.4086 34.1198 19.4665C33.9405 19.5762 33.8443 19.7384 33.7034 19.4897L33.6996 19.4979Z" fill="#F5FAF0"/>
    <path d="M31.2506 38.6509C31.2506 38.1595 31.2563 37.752 31.2481 37.3445C31.2431 37.1066 31.3374 36.9758 31.5538 36.9649C32.1854 36.9329 32.8094 36.9697 33.3926 37.275C34.4029 37.8031 34.8023 39.4748 34.16 40.4704C33.9921 40.7308 33.7612 40.9018 33.4913 41.0095C33.0397 41.1894 32.5691 41.2153 32.0992 41.1396C31.6337 41.0647 31.3978 40.7771 31.3098 40.2639C31.2135 39.7017 31.2657 39.134 31.25 38.6522L31.2506 38.6509Z" fill="#FEFEFE"/>
    <path d="M31.998 32.9026C32.9831 32.9046 33.6291 33.4007 33.8002 34.2771C34.0242 35.4241 33.5115 36.2255 32.444 36.3849C32.1861 36.4231 31.9244 36.4436 31.664 36.4504C31.2658 36.4613 31.2525 36.4408 31.2519 36.021C31.2507 35.1603 31.2507 34.3003 31.2519 33.4396C31.2519 32.9993 31.3092 32.9346 31.7168 32.9039C31.8105 32.8971 31.9049 32.9026 31.9986 32.9026H31.998Z" fill="#FEFEFE"/>
    <path d="M13.2602 28.2747C13.515 28.2931 13.8194 28.2365 14.117 28.3428C14.5995 28.5159 14.7976 28.8601 14.775 29.5075C14.7561 30.0404 14.5277 30.3525 14.049 30.4697C13.5426 30.5938 13.0274 30.5038 12.516 30.5256C12.377 30.5318 12.377 30.4234 12.377 30.3171C12.377 29.7044 12.3808 29.0925 12.3751 28.4798C12.3732 28.3094 12.4449 28.2672 12.5852 28.272C12.7941 28.2795 13.0042 28.274 13.2602 28.274V28.2747Z" fill="#FEFEFE"/>
    <path d="M12.377 27.0105C12.377 26.7618 12.3845 26.5124 12.3745 26.2643C12.3676 26.0898 12.4223 26.0224 12.5884 26.0278C12.9431 26.0394 13.2992 26.0156 13.6527 26.0387C14.3384 26.083 14.7007 26.7073 14.4749 27.4146C14.3415 27.8331 14.0402 27.9769 13.6754 27.9959C13.3105 28.015 12.9444 27.9939 12.5795 28.0048C12.4034 28.0103 12.3701 27.9183 12.3751 27.7567C12.382 27.508 12.377 27.2593 12.377 27.0105Z" fill="#FEFEFE"/>
    <path d="M35.1483 28.3094C35.1414 29.5968 34.2312 30.591 33.0636 30.5876C31.8558 30.5842 30.9745 29.592 30.984 28.2467C30.9934 26.9417 31.881 25.9672 33.058 25.9706C34.262 25.974 35.1559 26.9744 35.1483 28.3094Z" fill="#FEFEFE"/>
    <path d="M18.8053 29.1736C18.1467 29.1736 17.5315 29.1708 16.9169 29.1749C16.6596 29.1763 16.7848 29.0155 16.8225 28.9112C17.0729 28.2161 17.3308 27.5244 17.5843 26.8313C17.6416 26.6746 17.6944 26.5151 17.7617 26.3188C18.1127 27.2784 18.4518 28.2059 18.8053 29.1736Z" fill="#FEFEFE"/>
    </g>
    <defs>
    <clipPath id="clip0_32_21258">
    <rect width="46" height="46" fill="white"/>
    </clipPath>
    </defs>
    </svg>
    