<svg width="46" height="46" viewBox="0 0 46 46" fill="none" xmlns="http://www.w3.org/2000/svg">
    <path fill-rule="evenodd" clip-rule="evenodd" d="M23.0059 11.9852V10.9873H19.9474V11.9852V12.9799V13.9778H21.8218V14.9756H19.9474V17.963H23.0059V16.9682H20.8876V15.9735H22.7679V12.9799H20.8876V11.9852H23.0059ZM17.1005 14.4814C17.1005 10.9003 19.8416 8 23.2262 8C26.6108 8 29.3549 10.9003 29.3549 14.4814C29.3549 18.0624 26.6108 20.9627 23.2262 20.9627C19.8416 20.9627 17.1005 18.0624 17.1005 14.4814ZM18.0494 14.4814C18.0494 11.4567 20.3675 9.00096 23.2291 9.00096C26.0908 9.00096 28.4059 11.4567 28.4059 14.4814C28.4059 17.506 26.0878 19.9587 23.2291 19.9587C20.3705 19.9587 18.0494 17.506 18.0494 14.4814ZM23.4789 16.9713V17.9661H26.5344V16.9713V15.9766V14.9819H24.657V13.9871H26.5344V10.9967H23.4789V11.9914H25.5913V12.9893H23.708V15.9797H25.5913V16.9744H23.4789V16.9713Z" fill="#C7000D"/>
    <path d="M24.7892 28.9083C25.3856 28.9083 25.8351 28.756 26.126 28.4544C26.4227 28.1467 26.4844 27.7488 26.4844 27.469C26.4844 26.8566 26.2406 26.4307 25.7617 26.2069L25.7411 26.1976L25.7617 26.1852C25.9791 26.067 26.2641 25.8215 26.2641 25.0972C26.2641 24.6993 26.1201 24.3387 25.8616 24.0869C25.5766 23.8102 25.1594 23.661 24.6599 23.661H22.0657V28.9021H24.7892V28.9083ZM23.0088 25.722V24.6278H24.5806C24.8568 24.6278 25.321 24.6278 25.321 25.2029C25.321 25.4142 25.2358 25.5635 25.0624 25.6474C24.9097 25.7251 24.7158 25.7313 24.5835 25.7313H23.0088V25.7189V25.722ZM23.0088 26.6981V26.6888H24.7246C24.8832 26.6888 25.1094 26.7136 25.2887 26.838C25.4561 26.9561 25.5443 27.1271 25.5443 27.3509C25.5443 27.5312 25.4973 27.6711 25.4062 27.7643C25.2387 27.9415 24.9479 27.9415 24.7363 27.9415H23.0029V27.9291L23.0088 26.6981Z" fill="#0E141B"/>
    <path d="M16.2221 23.6644H15.232V28.9085H16.2221V23.6644Z" fill="#0E141B"/>
    <path d="M17.0241 26.2411C17.0241 26.7509 17.1064 27.1675 17.2709 27.5219C17.4119 27.8172 17.6058 28.0659 17.8908 28.3052C18.3345 28.6751 18.9544 28.8648 19.7388 28.8648H21.0903V27.8731H19.8123C19.1013 27.8731 18.5871 27.6866 18.2816 27.3198C18.0642 27.0587 17.9525 26.7074 17.9496 26.2753C17.9496 25.8121 18.07 25.4422 18.3168 25.1811C18.6253 24.8516 19.1277 24.6837 19.8123 24.6837H21.0903V23.7014H19.7858C19.3451 23.7014 18.9779 23.748 18.6577 23.8413C18.3403 23.9377 18.0759 24.0776 17.8585 24.2734C17.5471 24.5532 17.0212 25.178 17.0212 26.2411H17.0241Z" fill="#0E141B"/>
    <path d="M27.081 26.2411C27.081 26.7478 27.1662 27.1955 27.3307 27.5654C27.4747 27.8887 27.6803 28.1684 27.9506 28.3954C28.3678 28.7435 28.9554 28.9052 29.7986 28.9052H31.2265V27.9166H29.875C29.167 27.9166 28.6528 27.7208 28.3414 27.3416C28.1269 27.0711 28.0153 26.7136 28.0094 26.2722C28.0065 25.7935 28.1328 25.4142 28.3884 25.1407C28.6969 24.8112 29.1993 24.6433 29.8721 24.6433H31.2236V23.661H29.8457C29.405 23.661 29.0377 23.7076 28.7175 23.804C28.4002 23.8973 28.1357 24.0403 27.9183 24.2361C27.6657 24.4599 27.081 25.1034 27.081 26.238V26.2411Z" fill="#0E141B"/>
    <path d="M6.84098 36.1294V37.8454H5.94489V33.4281H8.00737C8.13664 33.4281 8.2806 33.4374 8.43631 33.4592C8.59203 33.4778 8.7448 33.5307 8.8917 33.6177C9.0386 33.7048 9.15613 33.8415 9.24427 34.0343C9.33241 34.227 9.37647 34.4508 9.38235 34.7057C9.38823 34.9606 9.36179 35.1782 9.30596 35.3616C9.23251 35.5917 9.12968 35.7626 9.00041 35.8683C8.87114 35.974 8.73305 36.0455 8.58909 36.0797C8.44513 36.1139 8.24828 36.1326 8.00443 36.1326H6.83804L6.84098 36.1294ZM6.84098 35.2124H8.08963C8.18952 35.2124 8.26297 35.1938 8.31586 35.1534C8.36874 35.1161 8.40987 35.0663 8.43925 35.0104C8.46863 34.9544 8.48332 34.8736 8.48332 34.7648C8.48332 34.656 8.46569 34.5721 8.42456 34.5099C8.37755 34.4384 8.31879 34.3918 8.24828 34.37C8.17777 34.3482 8.09257 34.3358 7.99855 34.3358H6.84098V35.2093V35.2124Z" fill="#231916"/>
    <path d="M10.7985 36.0828V36.9315H13.378V37.8485H9.8877V33.4312H13.378V34.3482H10.7985V35.172H13.0196V36.089H10.7985V36.0828Z" fill="#231916"/>
    <path d="M17.0006 35.9274C17.0358 35.9616 17.0769 36.0269 17.121 36.117C17.1651 36.2072 17.1945 36.2942 17.2092 36.3781C17.2238 36.4621 17.2356 36.5553 17.2444 36.6641C17.2503 36.7729 17.2562 36.8817 17.2562 36.9968V37.8423H16.3483V37.0527C16.3483 36.9159 16.3366 36.7947 16.3101 36.6921C16.2837 36.5895 16.2572 36.5118 16.2279 36.4559C16.1985 36.3999 16.1573 36.3533 16.1045 36.3129C16.0516 36.2725 15.9693 36.2352 15.8547 36.1947C15.7431 36.1543 15.5727 36.1357 15.3435 36.1357H14.8117V37.8516H13.9156V33.4374H15.9752C16.1015 33.4374 16.2455 33.4468 16.4041 33.4654C16.5628 33.4841 16.7185 33.5369 16.8654 33.6208C17.0123 33.7048 17.1298 33.8416 17.215 34.0374C17.3002 34.2301 17.3443 34.4571 17.3502 34.712C17.3561 34.97 17.3296 35.1782 17.2709 35.3399C17.1974 35.5419 17.0887 35.7005 16.9447 35.8124L16.9095 35.8404C16.933 35.8621 16.9624 35.8901 17.0006 35.9243V35.9274ZM14.8117 35.2218H16.0604C16.1603 35.2218 16.2367 35.2031 16.2896 35.1658C16.3424 35.1285 16.3806 35.0819 16.41 35.0259C16.4394 34.97 16.4541 34.886 16.4541 34.7803C16.4541 34.6747 16.4365 34.5876 16.3953 34.5223C16.3483 34.4539 16.2896 34.4073 16.2161 34.3856C16.1427 34.3638 16.0604 34.3514 15.9664 34.3514H14.8088V35.2218H14.8117Z" fill="#231916"/>
    <path d="M17.7997 36.1823V33.4281H18.6958V36.1823C18.6958 36.3564 18.7135 36.4932 18.7487 36.5957C18.784 36.6983 18.8457 36.7854 18.9309 36.8569C19.0161 36.9252 19.1218 36.9719 19.2482 36.9936C19.3745 37.0154 19.4803 37.0216 19.5655 37.0185C19.7946 37.0154 19.9621 36.9657 20.0679 36.8755C20.1707 36.7822 20.2442 36.6828 20.2824 36.574C20.3235 36.4652 20.3441 36.3346 20.3441 36.1823V33.4281H21.2431V36.1139C21.2431 36.3688 21.2196 36.5926 21.1755 36.7885C21.1314 36.9843 21.0462 37.1677 20.9258 37.3356C20.8024 37.5034 20.6202 37.6402 20.3764 37.7397C20.1325 37.8392 19.8681 37.892 19.5772 37.8982C19.3158 37.9076 19.0748 37.8796 18.8516 37.8143C18.6283 37.749 18.4285 37.6433 18.2522 37.491C18.0759 37.3418 17.9584 37.1553 17.8967 36.9346C17.835 36.7139 17.8056 36.4621 17.8056 36.1823H17.7997Z" fill="#231916"/>
    <path d="M28.024 35.8248C28.1004 35.915 28.1651 36.0238 28.2179 36.1574C28.2708 36.2911 28.2943 36.4528 28.2914 36.6455C28.2855 36.804 28.2591 36.9501 28.215 37.0807C28.1709 37.2112 28.0945 37.3418 27.9888 37.4661C27.883 37.5905 27.739 37.6837 27.5598 37.7428C27.3806 37.8019 27.1456 37.833 26.8547 37.833H24.754V33.4374H26.9076C27.031 33.4374 27.1573 33.4468 27.2837 33.4623C27.41 33.4747 27.5187 33.4996 27.6127 33.5338C27.7038 33.568 27.8007 33.6302 27.9036 33.7172C28.0064 33.8043 28.0916 33.9193 28.1592 34.056C28.2267 34.1959 28.2561 34.3669 28.2532 34.569C28.2473 34.7617 28.2121 34.9296 28.1445 35.0757C28.0769 35.2218 28.0152 35.3275 27.9535 35.3927L27.7949 35.5699C27.8712 35.6507 27.9476 35.7378 28.024 35.8248ZM25.6472 35.1658H26.8106C26.9487 35.1658 27.0457 35.1534 27.1015 35.1285C27.1573 35.1036 27.2043 35.0601 27.2455 34.9948C27.2836 34.9296 27.3042 34.8518 27.3042 34.7586C27.3013 34.569 27.2601 34.4539 27.1867 34.4135C27.1132 34.3762 27.0339 34.3545 26.9546 34.3514H25.6442V35.1658H25.6472ZM25.6472 36.0797V36.919H26.8518C26.9722 36.919 27.0604 36.9035 27.1191 36.8724C27.1749 36.8413 27.219 36.7978 27.2484 36.7419C27.2778 36.6859 27.2954 36.5926 27.3013 36.4683C27.3072 36.344 27.2719 36.2476 27.1896 36.1823C27.1074 36.1139 26.9928 36.0797 26.843 36.0797H25.6501H25.6472Z" fill="#231916"/>
    <path d="M30.0189 36.9501L29.7104 37.8454H28.7879L30.2305 33.4281H31.294L32.6573 37.8454H31.7259L31.4439 36.9501H30.016H30.0189ZM31.2088 36.1046L30.7593 34.6373L30.2716 36.1046H31.2088Z" fill="#231916"/>
    <path d="M33.1831 33.4281H33.9999L35.6363 35.946V33.4281H36.5236V37.8329H35.7362L34.0586 35.2124V37.8454H33.1831V33.4281Z" fill="#231916"/>
    <path d="M37.9691 35.2218L39.3265 33.4406H40.393L39.0738 35.2808L40.6222 37.8454H39.5645L38.4774 36.0331L37.9691 36.5864V37.8423H37.076V33.4406H37.9691V35.2218Z" fill="#231916"/>
    </svg>
    