<svg width="46" height="46" viewBox="0 0 46 46" fill="none" xmlns="http://www.w3.org/2000/svg">
    <g clip-path="url(#clip0_34_30850)">
    <path d="M0 0C15.3332 0 30.6668 0 46 0C46 15.3332 46 30.6668 46 46C30.6668 46 15.3332 46 0 46C0 30.6668 0 15.3332 0 0ZM21.4365 37.1717C25.3386 37.1717 29.2408 37.1744 33.143 37.1671C33.523 37.1662 33.9103 37.1399 34.281 37.0622C35.0097 36.9095 35.639 36.5447 36.1408 35.9959C36.8823 35.1854 37.1827 34.2245 37.1804 33.1191C37.1643 25.1464 37.1717 17.1732 37.1717 9.2C37.1717 9.131 37.1919 9.05188 37.1648 8.99576C37.133 8.92998 37.0663 8.84994 37.0024 8.83706C36.8773 8.81176 36.7434 8.82786 36.6128 8.82786C31.4686 8.82786 26.3244 8.82786 21.1807 8.82786C18.3213 8.82786 15.4615 8.83246 12.6022 8.82464C12.0465 8.82326 11.5143 8.92216 11.0271 9.16964C9.60158 9.89368 8.83246 11.0552 8.83154 12.6712C8.82648 20.7207 8.82924 28.7702 8.8297 36.8202C8.8297 36.8814 8.81038 36.9536 8.83568 37.0015C8.87064 37.0673 8.9309 37.1386 8.99668 37.1639C9.07028 37.1919 9.16274 37.1717 9.24738 37.1717C13.3106 37.1717 17.3737 37.1717 21.4369 37.1717H21.4365Z" fill="#04BD4F"/>
    <path d="M21.4365 37.1717C17.3733 37.1717 13.3101 37.1717 9.24694 37.1717C9.16276 37.1717 9.0703 37.1919 8.99624 37.1639C8.93 37.1386 8.86974 37.0673 8.83524 37.0015C8.80994 36.9536 8.82926 36.8814 8.82926 36.8202C8.82926 28.7707 8.82604 20.7212 8.8311 12.6712C8.83202 11.0556 9.60114 9.89414 11.0267 9.16964C11.5134 8.92216 12.046 8.82326 12.6017 8.82464C15.4611 8.83246 18.3209 8.82786 21.1803 8.82786C26.3244 8.82786 31.4686 8.82786 36.6123 8.82786C36.7425 8.82786 36.8764 8.81176 37.002 8.83706C37.0659 8.84994 37.1321 8.92998 37.1643 8.99576C37.1915 9.05188 37.1712 9.131 37.1712 9.2C37.1712 17.1732 37.1639 25.1459 37.18 33.1191C37.1823 34.2245 36.8819 35.1854 36.1404 35.9959C35.6385 36.5447 35.0088 36.9095 34.2806 37.0622C33.9098 37.1399 33.5225 37.1662 33.1426 37.1671C29.2404 37.1744 25.3382 37.1717 21.436 37.1717H21.4365ZM15.456 24.363C15.456 26.8157 15.456 29.2684 15.456 31.7211C15.456 32.0119 15.4694 32.0155 15.7605 31.9548C16.1272 31.8785 16.4961 31.8145 16.865 31.7492C17.3383 31.6655 17.8126 31.5882 18.2855 31.5026C18.849 31.401 19.4111 31.291 19.9746 31.1898C20.5528 31.0859 21.1324 30.9907 21.7106 30.8858C22.304 30.7781 22.8951 30.6585 23.4885 30.5523C24.0824 30.4456 24.679 30.3545 25.2724 30.2464C26.0305 30.1084 26.7863 29.9561 27.5439 29.8172C28.4455 29.6516 29.348 29.4924 30.2505 29.3337C30.4608 29.2969 30.5495 29.21 30.5491 28.9703C30.5408 24.1109 30.5431 19.251 30.544 14.3916C30.544 14.0613 30.5091 14.0364 30.1884 14.1027C29.7698 14.1892 29.3499 14.2715 28.929 14.3456C28.1621 14.4808 27.3926 14.6022 26.6267 14.7416C25.7021 14.9095 24.7811 15.0958 23.8565 15.2633C22.9319 15.4312 22.0041 15.5807 21.0791 15.7481C20.148 15.9165 19.2197 16.0995 18.2896 16.2716C17.4409 16.4284 16.5936 16.5936 15.7408 16.7233C15.4928 16.761 15.4514 16.8553 15.4519 17.0734C15.4579 19.5031 15.4556 21.9328 15.4556 24.3625L15.456 24.363Z" fill="#00339F"/>
    <path d="M15.456 24.363C15.456 21.9333 15.4583 19.5035 15.4523 17.0738C15.4519 16.8558 15.4933 16.7615 15.7412 16.7238C16.5941 16.594 17.4414 16.4289 18.2901 16.272C19.2202 16.1 20.1485 15.9174 21.0795 15.7486C22.0041 15.5811 22.9324 15.4316 23.857 15.2637C24.7816 15.0958 25.7025 14.91 26.6271 14.7421C27.3935 14.6027 28.1626 14.4813 28.9294 14.346C29.3503 14.272 29.7703 14.1896 30.1889 14.1031C30.5091 14.0369 30.5445 14.0617 30.5445 14.392C30.544 19.2515 30.5417 24.1114 30.5495 28.9708C30.5495 29.21 30.4612 29.2974 30.251 29.3342C29.3485 29.4924 28.446 29.6521 27.5444 29.8177C26.7863 29.9566 26.031 30.1088 25.2729 30.2468C24.6795 30.3549 24.0829 30.4465 23.489 30.5527C22.8956 30.659 22.3045 30.7786 21.7111 30.8862C21.1333 30.9911 20.5533 31.0863 19.9751 31.1903C19.4116 31.292 18.8494 31.4014 18.2859 31.5031C17.8131 31.5882 17.3388 31.6655 16.8655 31.7497C16.4965 31.815 16.1276 31.8789 15.761 31.9553C15.4698 32.016 15.4565 32.0123 15.4565 31.7216C15.4565 29.2689 15.4565 26.8162 15.4565 24.3634L15.456 24.363Z" fill="#04BD4F"/>
    </g>
    <defs>
    <clipPath id="clip0_34_30850">
    <rect width="46" height="46" fill="white"/>
    </clipPath>
    </defs>
    </svg>
    