<svg width="47" height="46" viewBox="0 0 47 46" fill="none" xmlns="http://www.w3.org/2000/svg">
    <g clip-path="url(#clip0_32_21262)">
    <path d="M23.183 0H23.1822C10.4788 0 0.180664 10.2982 0.180664 23.0016V23.0024C0.180664 35.7058 10.4788 46.0039 23.1822 46.0039H23.183C35.8865 46.0039 46.1846 35.7058 46.1846 23.0024V23.0016C46.1846 10.2982 35.8865 0 23.183 0Z" fill="#0057FF"/>
    <path d="M37.2471 22.8214H37.2091C37.1451 22.8341 37.0645 22.9194 36.9673 23.0759C36.7467 23.547 36.2243 24.316 35.4007 25.3814C34.6617 26.2769 34.2183 26.7251 34.0697 26.7251H34.0508C34.0294 26.7124 34.0191 26.6951 34.0191 26.6745V26.6429C34.0405 26.537 34.0808 26.3836 34.1401 26.1845C34.3946 25.4249 34.7044 24.6219 35.0696 23.777C35.4474 22.9155 35.6363 22.397 35.6363 22.2231V22.1852C35.6363 22.0919 35.5809 21.9923 35.4711 21.8856C35.1739 21.6564 34.951 21.5418 34.8024 21.5418H34.7447C34.6681 21.5418 34.5985 21.5947 34.5345 21.7006C34.4839 21.7773 34.3819 22.0492 34.2286 22.5155C34.1393 22.3756 34.065 22.265 34.0057 22.1844C33.624 21.7473 33.2414 21.5284 32.8597 21.5284H32.783C32.3459 21.5284 31.8954 21.8429 31.433 22.4705C31.1611 22.8696 30.9296 23.3004 30.7391 23.7635C30.664 23.9619 30.5944 24.1524 30.5312 24.3342C30.5178 24.354 30.5043 24.3745 30.4909 24.3943C30.2317 24.7721 29.8689 25.2155 29.4018 25.7253C28.6675 26.4809 28.0897 26.8587 27.6693 26.8587H27.6123C27.557 26.8587 27.4938 26.846 27.4211 26.8207C27.2085 26.7401 27.1026 26.5386 27.1026 26.2161C27.1026 25.9568 27.1705 25.5941 27.3065 25.1269H27.3128C27.5381 25.3348 27.7862 25.4391 28.0581 25.4391H28.1348C28.3766 25.4391 28.6335 25.3546 28.9054 25.1846C29.0287 25.104 29.171 24.9681 29.3322 24.7768C29.7906 24.1398 30.0198 23.558 30.0198 23.0317V22.9747C30.0198 22.8135 29.9985 22.661 29.9558 22.5163C29.8878 22.2618 29.7772 22.0856 29.6246 21.9876C29.2168 21.707 28.7971 21.5671 28.364 21.5671C28.1134 21.5671 27.9008 21.6248 27.727 21.7394C27.6123 21.79 27.4337 21.9409 27.1919 22.1915C26.9666 22.4634 26.7904 22.7179 26.6631 22.9558C26.3999 23.4142 26.158 23.9856 25.9367 24.6685C25.917 24.7302 25.8988 24.7895 25.8806 24.8479C25.555 25.3103 25.1938 25.7924 24.797 26.2928C24.3046 26.8998 24.0051 27.2033 23.8991 27.2033C23.8778 27.1993 23.8675 27.1843 23.8675 27.159V27.1274C23.8675 27.1061 23.8739 27.0744 23.8865 27.0317C24.307 25.8683 24.7528 24.678 25.2238 23.4592C25.5171 22.7756 25.6633 22.3575 25.6633 22.2049C25.6633 22.0943 25.6103 21.9884 25.5044 21.8864C25.2033 21.6485 24.9654 21.5299 24.7915 21.5299H24.7725C24.6793 21.5299 24.5939 21.6042 24.518 21.7528C24.4801 21.8382 24.3884 22.0879 24.2445 22.5045C24.1726 22.3733 24.0786 22.2389 23.964 22.103C23.6075 21.7125 23.236 21.5173 22.8495 21.5173C22.2931 21.5173 21.758 21.9378 21.2451 22.7779C21.0712 23.0751 20.9052 23.415 20.7487 23.7967C20.6444 24.0726 20.5511 24.3318 20.4697 24.5753C20.2934 24.8171 20.0974 25.0756 19.8824 25.3506C19.1355 26.2596 18.6874 26.7132 18.5388 26.7132H18.5135C18.4922 26.7045 18.4819 26.6832 18.4819 26.6492V26.6429C18.4819 26.5876 18.5562 26.3354 18.7048 25.8849C18.9213 25.2653 19.2288 24.4899 19.628 23.5604C19.9504 22.8214 20.1117 22.3693 20.1117 22.2041C20.1117 22.0856 20.0524 21.9725 19.933 21.8666C19.6359 21.6414 19.4106 21.5291 19.258 21.5291H19.2138C19.1759 21.5291 19.1371 21.5418 19.0992 21.5671C18.9972 21.6603 18.8186 22.0405 18.5641 22.7068C18.3436 23.3525 18.1436 23.845 17.9658 24.184C17.8172 24.4512 17.6599 24.7065 17.4947 24.9483C17.3501 25.1522 17.1786 25.3641 16.9786 25.5854C16.5968 25.9932 16.3139 26.2074 16.1313 26.2287C16.0547 26.2287 16.0167 26.1734 16.0167 26.0628V26.0311C16.0167 25.8738 16.0807 25.598 16.208 25.2036C16.5858 24.1548 17.0063 23.1826 17.4686 22.2871C17.5706 22.1172 17.6212 22.0263 17.6212 22.0136C17.6212 21.9243 17.4663 21.8248 17.1564 21.7141C16.9438 21.5742 16.7612 21.5038 16.6087 21.5038H16.5384C16.4878 21.5038 16.449 21.5125 16.4238 21.5291C16.3645 21.5291 16.2918 21.6098 16.2072 21.771C15.842 22.5606 15.4429 23.6221 15.0098 24.9554C14.7806 25.6518 14.666 26.1339 14.666 26.401C14.666 26.8934 14.8082 27.2799 15.0928 27.5597C15.2793 27.7083 15.4366 27.7826 15.5638 27.7826C15.8231 27.7826 16.1685 27.5747 16.6016 27.1582C16.9027 26.8397 17.1533 26.5401 17.3532 26.2604C17.3066 26.4342 17.2829 26.5726 17.2829 26.6745C17.2829 26.8484 17.3193 27.0183 17.3912 27.1843C17.5904 27.5834 17.8962 27.7826 18.308 27.7826C18.5886 27.7826 18.9703 27.4981 19.4541 26.929C19.6714 26.6642 19.8785 26.39 20.0769 26.1078C20.0563 26.258 20.0461 26.3939 20.0461 26.5149C20.0461 26.7615 20.084 26.9756 20.1607 27.1582C20.3266 27.5787 20.6618 27.7889 21.1668 27.7889C21.298 27.7889 21.3984 27.7787 21.4664 27.7573C21.8141 27.6728 22.203 27.3621 22.6314 26.8278L22.3958 27.5408C22.0734 28.445 21.9121 29.0014 21.9121 29.2092C21.9121 29.3744 21.9461 29.5428 22.0141 29.7127C22.256 30.1585 22.5871 30.3814 23.0076 30.3814H23.0455L23.0582 30.375C23.0582 30.345 23.0558 30.2984 23.0519 30.2351C23.0558 30.0739 23.0645 29.9404 23.0772 29.8336C23.0772 29.719 23.1364 29.5388 23.2558 29.2922C23.387 29.0251 23.5253 28.7824 23.6699 28.5659C23.8399 28.2727 24.3283 27.6743 25.1345 26.7701C25.3084 26.5567 25.4673 26.3504 25.6119 26.1521V26.2224C25.6119 26.4303 25.6522 26.6405 25.7328 26.8531C25.864 27.2222 26.094 27.4878 26.4205 27.649C26.5904 27.747 26.8156 27.7953 27.0954 27.7953H27.1784C27.7554 27.7953 28.3205 27.5913 28.8722 27.1843C29.1267 26.9891 29.4176 26.7006 29.7448 26.318C29.8712 26.1631 29.9906 26.0098 30.1028 25.8588C30.0554 26.1157 30.0309 26.341 30.0309 26.5346V26.5473C30.0309 26.7385 30.0562 26.9227 30.1076 27.1013C30.2815 27.5645 30.615 27.7953 31.1074 27.7953H31.203C31.5089 27.7953 31.8227 27.6467 32.1452 27.3495C32.4084 27.0863 32.6099 26.8571 32.7498 26.6619L32.7372 26.7828C32.7372 26.9693 32.8012 27.1582 32.9284 27.3495C33.1576 27.6427 33.4319 27.7889 33.7496 27.7889H33.7749C33.7836 27.7889 33.7899 27.7913 33.7939 27.7953C33.8026 27.7913 33.8105 27.7889 33.8192 27.7889H33.8634C34.1567 27.7889 34.5851 27.4388 35.1502 26.7385C35.524 26.2588 35.8718 25.7537 36.1943 25.2226C36.9246 23.9833 37.2897 23.2316 37.2897 22.9684V22.9178C37.2897 22.8752 37.2747 22.8435 37.2455 22.8222L37.2471 22.8214ZM23.1665 24.7578C22.9539 25.093 22.7057 25.4226 22.4211 25.745C22.0939 26.1141 21.8821 26.2991 21.7841 26.2991H21.7525C21.6632 26.2777 21.6189 26.1908 21.6189 26.0383V26.0066C21.6189 25.8327 21.7019 25.4905 21.8671 24.9815C22.0837 24.3784 22.3255 23.837 22.5934 23.3573C22.9246 22.7843 23.2115 22.4974 23.4534 22.4974C23.5 22.4974 23.53 22.5037 23.5427 22.5163C23.7253 22.5882 23.8162 22.7495 23.8162 23C23.8162 23.4759 23.5996 24.0615 23.1665 24.7578ZM27.6432 24.248C28.2249 22.9747 28.6596 22.3377 28.9489 22.3377H28.9615C29.0595 22.3377 29.1077 22.4223 29.1077 22.5922V22.6562C29.1077 22.8514 29.0524 23.1194 28.9426 23.4584C28.8493 23.709 28.7576 23.9042 28.6691 24.0441C28.334 24.5666 28.0368 24.8274 27.7775 24.8274H27.7712C27.6606 24.8274 27.5586 24.7808 27.4653 24.6875C27.4954 24.6029 27.5546 24.4559 27.644 24.248H27.6432ZM33.7884 23.0443C33.7884 23.5754 33.4975 24.2646 32.9158 25.1143C32.7206 25.3949 32.4866 25.6747 32.2155 25.9553C31.9989 26.1932 31.844 26.3117 31.7508 26.3117L31.7002 26.2991C31.6322 26.2524 31.5982 26.1592 31.5982 26.0185C31.6069 25.9252 31.6172 25.8612 31.6298 25.8272C31.6298 25.7166 31.7144 25.4052 31.8843 24.8914C32.1135 24.2718 32.3704 23.7153 32.655 23.2229C32.9561 22.7471 33.2114 22.51 33.4193 22.51H33.4445C33.4698 22.51 33.4975 22.5124 33.5275 22.5163C33.7014 22.6017 33.7884 22.7542 33.7884 22.9747V23.0451V23.0443Z" fill="white"/>
    <path d="M16.1653 28.128C16.1432 28.128 16.1218 28.1304 16.1005 28.1343C15.8452 28.132 15.5575 28.1541 15.2374 28.2015C14.888 28.2529 14.5181 28.3082 14.1277 28.3675C13.7815 28.4268 13.4448 28.4781 13.1176 28.5224C12.7896 28.5667 12.5082 28.5927 12.2727 28.5999C12.2798 28.2979 12.3517 27.9209 12.4877 27.468C12.6236 27.0151 13.7554 24.3168 13.9759 23.8015C14.1965 23.2862 14.4454 22.7621 14.7213 22.2278C14.9971 21.6943 15.2753 21.1901 15.5551 20.7151C15.8349 20.24 16.1052 19.8188 16.3668 19.4504C16.6285 19.0821 16.8585 18.8063 17.0568 18.6221C16.9904 18.5194 16.8766 18.4198 16.7146 18.3242C16.5526 18.2285 16.3755 18.1455 16.1843 18.076C15.993 18.0064 15.8049 17.9543 15.6215 17.9211C15.4373 17.8879 15.2864 17.8752 15.1686 17.8823L15.0801 17.9266C14.9402 18.0594 14.7489 18.3091 14.5063 18.6775C14.2636 19.0458 14.0004 19.4797 13.7167 19.9808C13.433 20.4811 13.15 21.0296 12.8663 21.6264C12.5825 22.2223 12.3288 22.819 12.1043 23.415C11.8799 24.0109 10.752 26.8018 10.6271 27.3582C10.5022 27.9138 10.4216 28.4908 10.5418 28.7809C10.6405 29.018 10.7844 29.3144 10.9859 29.4582C11.2065 29.6163 11.2689 29.6297 11.5084 29.719C11.7083 29.7933 12.0443 29.7831 12.1842 29.787C12.3241 29.791 12.4347 29.7926 12.5153 29.7926H12.5707C12.8797 29.7775 13.2053 29.7522 13.5476 29.7151C13.8898 29.6779 14.2336 29.6416 14.5798 29.6044C14.8817 29.5673 15.2074 29.5286 15.5567 29.4882C15.906 29.4479 15.9155 29.429 16.1882 29.4147C16.4411 29.3981 16.6419 29.1168 16.6419 28.7722C16.6419 28.4276 16.4285 28.1288 16.1645 28.1288L16.1653 28.128Z" fill="white"/>
    <path d="M22.8061 15.3966C22.8282 15.1887 22.8677 14.9848 22.9215 14.7864C21.0506 14.7864 19.3956 14.7864 18.2883 14.7864C17.95 14.7864 17.6765 15.0607 17.6765 15.399C17.6765 15.7373 17.9508 16.0115 18.2891 16.0115H22.791C22.7792 15.8116 22.7831 15.6061 22.8061 15.3966Z" fill="#00FFFF"/>
    <path d="M23.3665 12.9203C23.6937 12.9203 23.6004 12.9203 24.0185 12.9203C24.6658 12.2754 25.5139 11.8344 26.4284 11.7174C26.294 11.7024 26.1573 11.6953 26.0182 11.6953H25.9945H23.3672C23.029 11.6953 22.7547 11.9695 22.7547 12.3078C22.7547 12.6461 23.0282 12.9203 23.3665 12.9203Z" fill="#00FFFF"/>
    <path d="M19.6912 14.4663H23.0234C23.1862 14.0197 23.4273 13.6056 23.7268 13.2412C22.1232 13.2412 20.7218 13.2412 19.6904 13.2412C19.3521 13.2412 19.0786 13.5155 19.0786 13.8538C19.0786 14.192 19.3529 14.4663 19.6912 14.4663Z" fill="#00FFFF"/>
    <path d="M22.8251 16.3324C21.438 16.3324 20.2184 16.3324 19.2992 16.3324C18.9609 16.3324 18.6874 16.6067 18.6874 16.9449C18.6874 17.2832 18.9617 17.5575 19.3 17.5575H23.2685C23.0464 17.1931 22.893 16.779 22.8251 16.3324Z" fill="#00FFFF"/>
    <path d="M23.4914 17.8784C22.7737 17.8784 22.1042 17.8784 21.4451 17.8784C21.1068 17.8784 20.8333 18.1526 20.8333 18.4909C20.8333 18.8292 21.1076 19.1034 21.4459 19.1034H25.9629C24.9354 19.0616 24.0612 18.5968 23.4914 17.8784Z" fill="#00FFFF"/>
    <path d="M27.3081 12.3331C25.5937 12.3331 24.0557 13.7233 23.8715 15.4385C23.6881 17.1536 24.9282 18.5439 26.6426 18.5439C28.3569 18.5439 29.895 17.1536 30.0791 15.4385C30.2625 13.7233 29.0224 12.3331 27.3081 12.3331ZM26.9453 16.7252C26.7493 16.8817 26.5019 16.9892 26.226 17.0382C26.226 17.0382 25.8672 17.0959 25.5882 17.0643C25.295 17.0311 25.0207 16.9536 24.85 16.8327L24.748 16.76L25.1013 16.2162L25.212 16.2873C25.3969 16.4067 25.6593 16.4778 25.9146 16.4778C26.2561 16.4778 26.5303 16.3221 26.5817 16.0984C26.6094 15.9783 26.6007 15.836 26.1478 15.6661C25.6617 15.4899 25.1819 15.2322 25.3131 14.6607C25.4135 14.2245 25.8316 13.9107 26.377 13.7842C26.5374 13.7471 26.8718 13.7399 27.014 13.7637C27.2432 13.8024 27.4456 13.8451 27.6226 13.9415L27.7491 14.0102L27.3839 14.5525L27.278 14.4948C27.1863 14.4442 26.9951 14.3391 26.656 14.3391C26.2829 14.3391 26.1106 14.5145 26.0767 14.6647C26.0498 14.7801 26.0711 14.871 26.5817 15.0733C27.0117 15.2361 27.4891 15.5025 27.3476 16.1174C27.2954 16.345 27.1531 16.5608 26.9469 16.7252H26.9453ZM27.8313 17.5638H27.1958L28.2225 13.2768H28.858L27.8313 17.5638Z" fill="#00FFFF"/>
    </g>
    <defs>
    <clipPath id="clip0_32_21262">
    <rect width="46" height="46" fill="white" transform="translate(0.180664)"/>
    </clipPath>
    </defs>
    </svg>
    