<svg width="46" height="46" viewBox="0 0 46 46" fill="none" xmlns="http://www.w3.org/2000/svg">
    <path d="M3.72231 23.2806L0.598115 25.3891C-0.30101 25.9977 -0.173149 26.6189 0.892232 26.8326L4.67139 27.5898C4.33739 26.9699 4.07719 26.295 3.90721 25.5754C3.73238 24.8044 3.6746 24.0339 3.72194 23.2806H3.72231Z" fill="#FFD100"/>
    <path d="M7.78255 12.4955L7.44147 16.9918C8.19372 16.5094 9.04252 16.1401 9.96737 15.9208C10.6469 15.7616 11.328 15.6907 11.9945 15.6989L9.74482 12.03C8.80246 10.4916 7.91973 10.7006 7.78293 12.4955H7.78255Z" fill="#FFD100"/>
    <path d="M18.253 18.7435L19.8745 12.797C20.3863 10.9238 19.6139 10.4508 18.1553 11.752L13.5381 15.8703C15.3949 16.2549 17.0694 17.2761 18.253 18.7435Z" fill="#FFD100"/>
    <path d="M3.95866 21.7689C4.3456 20.2764 5.16085 18.9192 6.30041 17.869L2.35612 16.7918C0.602975 16.3126 0.104953 17.0659 1.25346 18.4635L3.95866 21.7685V21.7689Z" fill="#FFD100"/>
    <path d="M18.8777 27.9047C18.4498 28.6231 17.907 29.2757 17.2703 29.8325L18.1665 30.0968C19.9159 30.6105 20.4258 29.8666 19.3071 28.4467L18.8777 27.9047Z" fill="#FFD100"/>
    <path d="M5.23985 32.3622C5.0516 33.4206 5.59025 33.7665 6.49162 33.1614L9.13009 31.3842C7.86118 30.9356 6.71491 30.1815 5.80497 29.187L5.23985 32.3622Z" fill="#FFD100"/>
    <path d="M12.0497 31.8489L13.2291 33.4383C13.8729 34.3041 14.4966 34.154 14.6773 33.0928L14.9849 31.2407C14.5968 31.3999 14.1916 31.5305 13.77 31.6305C13.1948 31.7666 12.6178 31.8356 12.0497 31.8493V31.8489Z" fill="#FFD100"/>
    <path d="M12.6401 21.6473C11.8714 21.6473 11.2448 21.983 10.8937 22.4873C10.5634 21.972 10.0314 21.6473 9.30454 21.6473C8.69133 21.6473 8.16758 21.9485 7.8854 22.4653V22.1724C7.8854 21.8034 7.60246 21.7877 7.20397 21.7877C6.80548 21.7877 6.52478 21.8034 6.52478 22.2908V26.2224C6.52478 26.593 6.82933 26.6291 7.20397 26.6291C7.57861 26.6291 7.8854 26.5934 7.8854 26.2224V24.0272C7.8854 23.4288 8.14559 22.8559 8.90754 22.8559C9.60872 22.8559 9.89352 23.3739 9.89352 24.0272V26.2224C9.89352 26.593 10.2119 26.6291 10.5835 26.6291C10.9552 26.6291 11.2664 26.5934 11.2664 26.2224V24.0272C11.2664 23.4288 11.5389 22.8559 12.2856 22.8559C12.9927 22.8559 13.2753 23.3739 13.2753 24.0272V26.2224C13.2753 26.593 13.5817 26.6291 13.9552 26.6291C14.3288 26.6291 14.6482 26.5934 14.6482 26.2224V23.9135C14.6482 22.5649 14.0167 21.6469 12.6401 21.6469V21.6473Z" fill="#00953B"/>
    <path d="M16.3395 21.7877C15.9668 21.7877 15.6603 21.8026 15.6603 22.1716V26.2216C15.6603 26.593 15.8337 26.6291 16.3395 26.6291C16.8454 26.6291 17.0217 26.642 17.0217 26.1581V22.1716C17.0217 21.8026 16.7153 21.7877 16.3395 21.7877Z" fill="#00953B"/>
    <path d="M16.3392 19.7662H16.3354C15.8027 19.7681 15.5873 19.8936 15.5873 20.4575C15.5873 21.0214 15.8027 21.1457 16.3354 21.1473H16.3392C16.8778 21.1457 17.0888 21.0218 17.0888 20.4575C17.0888 19.8932 16.8778 19.7681 16.3392 19.7662Z" fill="#00953B"/>
    <path d="M20.9313 21.6473C20.3397 21.6473 19.76 21.8904 19.4219 22.4414V20.3936C19.4219 20.0223 19.1136 20.0085 18.7398 20.0085C18.3659 20.0085 18.0594 20.0223 18.0594 20.3936V26.2017C18.0594 26.5711 18.3193 26.6291 18.7152 26.6291C19.111 26.6291 19.3772 26.5934 19.3772 26.2225V25.9907C19.7064 26.4832 20.2629 26.7883 20.9313 26.7883C22.4391 26.7883 23.2339 25.5397 23.2339 24.2147C23.2339 22.8896 22.4291 21.6469 20.9313 21.6469V21.6473ZM20.6372 25.6436C19.8529 25.6436 19.4219 24.9672 19.4219 24.2151C19.4219 23.4629 19.8648 22.7892 20.6372 22.7892C21.4095 22.7892 21.8722 23.4296 21.8722 24.2151C21.8722 25.0005 21.4181 25.6436 20.6372 25.6436Z" fill="#00953B"/>
    <path d="M28.3446 21.7873C27.9696 21.7873 27.6636 21.7943 27.6636 22.1618V22.441C27.3363 21.8908 26.7436 21.6465 26.155 21.6465C24.6583 21.6465 23.8497 22.8911 23.8497 24.217C23.8497 25.5428 24.6482 26.7879 26.155 26.7879C26.8241 26.7879 27.3825 26.5067 27.7124 25.9801V26.2208C27.7124 26.5934 27.9696 26.6287 28.3681 26.6287C28.7666 26.6287 29.0242 26.6036 29.0242 26.2342V22.1618C29.0242 21.7943 28.7178 21.7873 28.3446 21.7873ZM26.4494 25.6432C25.6689 25.6432 25.2133 25.0013 25.2133 24.2174C25.2133 23.4335 25.6689 22.7888 26.4494 22.7888C27.23 22.7888 27.6639 23.4649 27.6639 24.2154C27.6639 24.966 27.2319 25.6432 26.4494 25.6432Z" fill="#00953B"/>
    <path d="M32.8604 21.6469C32.1584 21.6469 31.672 21.9724 31.398 22.4657V22.174C31.398 21.7881 31.1024 21.7881 30.7162 21.7881C30.33 21.7881 30.0366 21.7881 30.0366 22.174V26.235C30.0366 26.6044 30.3397 26.6295 30.7162 26.6295C31.0927 26.6295 31.398 26.6044 31.398 26.235V24.0272C31.398 23.4312 31.7044 22.8567 32.4645 22.8567C33.1664 22.8567 33.4959 23.3747 33.4959 24.0272V26.235C33.4959 26.6044 33.8016 26.6295 34.1781 26.6295C34.5546 26.6295 34.8577 26.6044 34.8577 26.235V23.9594C34.8577 22.6092 34.1297 21.6469 32.8596 21.6469H32.8604Z" fill="#00953B"/>
    <path d="M43.4043 21.6473C41.8711 21.6473 40.8049 22.8002 40.8049 24.215C40.8049 25.6299 41.8711 26.7867 43.4043 26.7867C44.9375 26.7867 45.9999 25.6311 45.9999 24.215C45.9999 22.799 44.9334 21.6473 43.4043 21.6473ZM43.4043 25.6197C42.6218 25.6197 42.1469 24.9672 42.1469 24.215C42.1469 23.4629 42.6218 22.8123 43.4043 22.8123C44.1867 22.8123 44.6642 23.4649 44.6642 24.215C44.6642 24.9652 44.1882 25.6197 43.4043 25.6197Z" fill="#00953B"/>
    <path d="M39.3731 25.2785C39.1532 25.4267 38.8863 25.6369 38.3991 25.6369C37.5271 25.6369 37.0768 24.9636 37.0768 24.2135C37.0768 23.4633 37.5271 22.7892 38.3991 22.7892C38.8892 22.7892 39.1562 22.999 39.3768 23.148C39.5964 23.2986 39.6721 23.3256 40.0094 22.9578C40.3442 22.5904 40.283 22.4618 40.1358 22.3072C39.8081 21.9484 39.1945 21.6465 38.3886 21.6465C36.7451 21.6465 35.7144 22.7751 35.7144 24.2131C35.7144 25.6511 36.7447 26.7796 38.3886 26.7796C39.1945 26.7796 39.8078 26.4777 40.1358 26.1189C40.3341 25.8781 40.3293 25.8177 40.0094 25.4683C39.6695 25.1009 39.5942 25.1334 39.3727 25.2781L39.3731 25.2785Z" fill="#00953B"/>
    </svg>
    