<svg width="46" height="46" viewBox="0 0 46 46" fill="none" xmlns="http://www.w3.org/2000/svg">
    <g clip-path="url(#clip0_32_21251)">
    <path d="M44.7074 0H1.29255C0.578695 0 0 0.936448 0 2.09161V43.9084C0 45.0635 0.578695 46 1.29255 46H44.7074C45.4213 46 46 45.0635 46 43.9084V2.09161C46 0.936448 45.4213 0 44.7074 0Z" fill="#E42313"/>
    <path d="M31.4932 23.5202V30.1755H28.4014V23.9965C28.4014 22.652 27.5976 22.0233 26.6081 22.0233C25.4749 22.0233 24.6915 22.7176 24.6915 24.256V30.1743H21.5996V15H24.6915V20.355C25.2485 19.5524 26.2787 19.032 27.6395 19.032C29.7215 19.032 31.4944 20.5932 31.4944 23.5202H31.4932Z" fill="white"/>
    <path d="M15.3729 19.0257C12.3637 19.0257 9.92474 21.5911 9.92474 24.7562C9.92474 27.9214 12.3637 30.4868 15.3729 30.4868C18.382 30.4868 20.821 27.9214 20.821 24.7562C20.821 21.5911 18.382 19.0257 15.3729 19.0257ZM15.3729 27.3115C14.0312 27.3115 12.9435 26.1675 12.9435 24.7562C12.9435 23.345 14.0312 22.2009 15.3729 22.2009C16.7145 22.2009 17.8022 23.345 17.8022 24.7562C17.8022 26.1675 16.7145 27.3115 15.3729 27.3115Z" fill="white"/>
    <path d="M32.1629 28.4241C32.1629 27.2977 33.0481 26.3665 34.1191 26.3665C35.19 26.3665 36.0753 27.2977 36.0753 28.4241C36.0753 29.5506 35.19 30.4817 34.1191 30.4817C33.0481 30.4817 32.1629 29.5506 32.1629 28.4241Z" fill="white"/>
    <path d="M32.2671 20.6247V15.5254C32.2671 15.2381 32.4887 15.0038 32.7618 15.0038H35.4751C35.7482 15.0038 35.9698 15.2369 35.9698 15.5254V20.6247C35.9698 20.6474 35.9686 20.6713 35.9651 20.694L35.4092 25.0788C35.3769 25.3371 35.166 25.5312 34.9181 25.5312H33.3153C33.0673 25.5312 32.8577 25.3384 32.8241 25.0788L32.2683 20.694C32.2659 20.6713 32.2635 20.6486 32.2635 20.6247H32.2671Z" fill="white"/>
    </g>
    <defs>
    <clipPath id="clip0_32_21251">
    <rect width="46" height="46" fill="white"/>
    </clipPath>
    </defs>
    </svg>
    