<svg width="46" height="46" viewBox="0 0 46 46" fill="none" xmlns="http://www.w3.org/2000/svg">
    <g clip-path="url(#clip0_32_21144)">
    <mask id="mask0_32_21144" style="mask-type:luminance" maskUnits="userSpaceOnUse" x="0" y="0" width="46" height="46">
    <path d="M22.008 0.0139883C9.42698 0.447625 -0.419847 10.9985 0.0137899 23.5796C0.086529 25.703 0.448362 27.749 1.06012 29.6813C1.0741 29.726 1.08903 29.7708 1.10302 29.8156C1.48443 31.0297 1.71011 32.3148 1.7558 33.6493C1.81828 35.4584 1.54411 37.2014 0.990175 38.8175C0.978052 38.8511 0.965928 38.8846 0.954738 38.9191C0.788743 39.4171 0.706678 39.9524 0.726261 40.5073C0.767294 41.7 1.26714 42.7687 2.04955 43.5511C2.83196 44.3335 3.90067 44.8324 5.09434 44.8725C5.64921 44.8912 6.18449 44.8091 6.68154 44.6431C6.71511 44.6319 6.74962 44.6198 6.78319 44.6077C8.3993 44.0528 10.1422 43.7777 11.9514 43.8393C13.2849 43.884 14.5709 44.1088 15.7851 44.4893C15.8299 44.5033 15.8746 44.5182 15.9194 44.5322C17.8516 45.1421 19.8977 45.5029 22.022 45.5748C34.6031 46.0009 45.1484 36.1485 45.5746 23.5675C45.7974 16.9967 43.2161 10.9817 38.9068 6.67334C34.771 2.54027 29.0656 0 22.8082 0C22.5424 0 22.2766 0.00466276 22.008 0.0139883Z" fill="white"/>
    </mask>
    <g mask="url(#mask0_32_21144)">
    <path d="M45.7963 0H-0.420044V46H45.7963V0Z" fill="url(#paint0_radial_32_21144)"/>
    </g>
    <path d="M27.1811 15.7629C27.1811 16.5547 26.5395 17.1963 25.7478 17.1963C24.956 17.1963 24.3145 16.5547 24.3145 15.7629C24.3145 14.9712 24.956 14.3296 25.7478 14.3296C26.5395 14.3296 27.1811 14.9712 27.1811 15.7629Z" fill="#F478C4"/>
    <path d="M20.9963 14.3296H20.6671C19.9611 14.3296 19.3886 14.9022 19.3886 15.6081V27.2706C19.3886 27.9766 19.9611 28.5491 20.6671 28.5491H20.9963C21.7022 28.5491 22.2748 27.9766 22.2748 27.2706V15.6081C22.2748 14.9022 21.7022 14.3296 20.9963 14.3296ZM12.9045 17.7325C11.4609 17.7325 11.1308 18.2146 10.0444 18.2146C9.41584 18.2146 9.0708 18.0094 8.24736 18.0094C7.76243 18.0094 7.10498 18.2985 7.10498 19.2703V24.8506L7.1171 31.5855C7.11804 32.2672 7.67104 32.8184 8.3518 32.8184H8.74067C9.42237 32.8184 9.97537 32.2654 9.97537 31.5837V29.2681C9.97537 28.4708 10.5079 28.1724 10.9536 28.1724C11.2698 28.1724 11.9393 28.441 12.6723 28.441C16.5312 28.441 17.6531 25.8074 17.6531 23.27C17.6531 19.771 16.0575 17.7343 12.9045 17.7343M12.3049 26.781C10.6608 26.781 9.75902 25.1444 9.75902 23.1245C9.75902 21.1046 10.7354 19.468 12.3049 19.468C13.8744 19.468 14.8508 21.1046 14.8508 23.1245C14.8508 25.1444 13.976 26.781 12.3049 26.781ZM25.9127 18.0738H25.5835C24.8766 18.0738 24.305 18.6464 24.305 19.3523V27.2706C24.305 27.9766 24.8776 28.5491 25.5835 28.5491H25.9127C26.6186 28.5491 27.1912 27.9766 27.1912 27.2706V19.3523C27.1912 18.6464 26.6186 18.0738 25.9127 18.0738ZM38.3343 20.5022C38.2802 19.2115 37.5761 17.8005 35.2261 17.8005C34.0856 17.8005 33.6762 18.2817 32.4601 18.2817C31.8447 18.2817 31.6591 18.0775 30.6892 18.0775C29.9264 18.0775 29.2298 18.5457 29.2298 19.3728V27.348C29.2298 28.0111 29.7679 28.5491 30.4309 28.5491H30.9168C31.5807 28.5491 32.1188 28.0101 32.1179 27.3462C32.1151 25.7244 32.1179 23.1758 32.1179 21.4328C32.1179 20.2373 32.8304 19.5248 33.8133 19.5248C34.7701 19.5248 35.4993 20.1636 35.4993 21.4375C35.4993 23.1646 35.4993 25.7235 35.4993 27.349C35.4993 28.012 36.0374 28.5501 36.7005 28.5501H37.1378C37.8009 28.5501 38.3492 28.0129 38.3492 27.3499C38.3492 25.6545 38.3511 23.1394 38.3492 22.7561C38.3492 22.0054 38.3632 21.2529 38.3334 20.5022" fill="white"/>
    </g>
    <defs>
    <radialGradient id="paint0_radial_32_21144" cx="0" cy="0" r="1" gradientUnits="userSpaceOnUse" gradientTransform="translate(0.334391 45.3426) scale(39.5309)">
    <stop stop-color="#2D76FF"/>
    <stop offset="1" stop-color="#00E2CD"/>
    </radialGradient>
    <clipPath id="clip0_32_21144">
    <rect width="46" height="46" fill="white"/>
    </clipPath>
    </defs>
    </svg>
    