<svg width="47" height="46" viewBox="0 0 47 46" fill="none" xmlns="http://www.w3.org/2000/svg">
    <g clip-path="url(#clip0_32_21269)">
    <path d="M35.7708 0H11.2375C5.30963 0 0.50415 4.80548 0.50415 10.7333V35.2667C0.50415 41.1945 5.30963 46 11.2375 46H35.7708C41.6987 46 46.5042 41.1945 46.5042 35.2667V10.7333C46.5042 4.80548 41.6987 0 35.7708 0Z" fill="#EC111A"/>
    <path d="M31.5081 14.3367H23.6881C19.2415 14.3367 15.5615 17.6947 15.0862 22.034C14.3962 20.792 14.0128 19.366 14.0128 17.848C14.0128 13.064 17.8921 9.20001 22.6608 9.20001H36.1388L31.4928 14.3367H31.5081Z" fill="white"/>
    <path d="M15.8834 31.6633H23.7034C28.1501 31.6633 31.8301 28.3053 32.3054 23.966C32.9954 25.208 33.3788 26.634 33.3788 28.152C33.3788 32.936 29.4994 36.8 24.7308 36.8H11.2374L15.8834 31.6633Z" fill="white"/>
    <path d="M23.6881 29.9613C27.5215 29.9613 30.6495 26.8487 30.6495 23.0153C30.6495 19.182 27.5368 16.0693 23.6881 16.0693C19.8395 16.0693 16.7268 19.182 16.7268 23.0153C16.7268 26.8487 19.8395 29.9613 23.6881 29.9613Z" fill="white"/>
    </g>
    <defs>
    <clipPath id="clip0_32_21269">
    <rect width="46" height="46" fill="white" transform="translate(0.50415)"/>
    </clipPath>
    </defs>
    </svg>
    