<svg width="47" height="46" viewBox="0 0 47 46" fill="none" xmlns="http://www.w3.org/2000/svg">
    <g clip-path="url(#clip0_32_21272)">
    <path d="M46.6121 0H0.612061V46H46.6121V0Z" fill="#5A1B7D"/>
    <path d="M32.7064 28.309C31.3585 28.4122 30.0106 28.5224 28.6652 28.6528C27.8392 28.7324 27.0175 28.8531 26.1534 28.9607C26.2441 28.3483 26.328 27.7805 26.4187 27.1699C26.5345 27.2539 26.5932 27.2967 26.6528 27.3396C27.4832 27.9345 28.2781 27.8558 28.9538 27.0938C29.4749 26.5059 29.754 25.7841 29.9726 25.0414C30.319 23.8621 30.5549 22.6679 30.2309 21.4387C29.9492 20.3688 28.9227 20.0967 28.1287 20.8753C27.9697 21.0311 27.8072 21.1824 27.669 21.3145C27.6335 21.1885 27.6361 21.0092 27.5489 20.9217C27.1644 20.5368 26.5345 20.7292 26.4325 21.2524C26.1387 22.7536 25.8596 24.2575 25.552 25.7561C25.514 25.9416 25.3637 26.1218 25.2237 26.26C25.1312 26.351 24.9627 26.3633 24.8288 26.4114C24.7804 26.2644 24.6776 26.1104 24.694 25.9713C24.7545 25.4403 24.8392 24.9119 24.9411 24.387C25.12 23.4719 25.3239 22.562 25.5045 21.6478C25.5702 21.3163 25.4362 21.1063 25.0898 21.0206C24.6007 20.8998 24.5134 20.9357 24.198 21.5087C23.3444 21.0004 22.7283 21.087 22.0284 21.8193C21.4331 22.4422 21.0702 23.2024 20.7876 24.0056C20.3979 25.1131 20.1905 26.2408 20.4627 27.4131C20.5828 27.9319 20.8559 28.3151 21.3899 28.4734C21.9619 28.6431 22.4371 28.4804 22.8302 28.0579C23.0048 27.8706 23.1387 27.6458 23.3063 27.4175C23.4187 27.8313 23.6615 28.1576 24.084 28.1314C24.4529 28.1077 24.8124 27.9301 25.1822 27.8182C25.1209 28.1296 25.0301 28.4551 24.999 28.7857C24.9714 29.0832 24.8297 29.1689 24.5592 29.2109C23.0523 29.441 21.548 29.6886 20.0436 29.9336C19.5658 30.0114 19.0906 30.0998 18.5583 30.1934C18.7769 29.406 18.9783 28.6886 19.1753 27.9704C19.711 26.016 20.2528 24.0633 20.7755 22.1054C20.912 21.5953 20.7003 21.3941 20.1931 21.5175C19.5952 21.6627 19.2245 22.0459 19.018 22.639C18.6041 23.8236 18.1799 25.0046 17.7098 26.1664C17.5768 26.4954 17.2977 26.7823 17.0315 27.0299C16.908 27.1445 16.603 27.2058 16.4759 27.1297C16.3463 27.0518 16.2694 26.7683 16.285 26.5846C16.3144 26.2286 16.412 25.876 16.5036 25.5287C16.6954 24.8087 16.9278 24.0983 17.0929 23.3722C17.2009 22.898 16.8155 22.5209 16.2746 22.4947C15.9212 22.4772 15.8227 22.6504 15.7951 23.2068C15.7821 23.4745 15.7225 23.7466 15.6439 24.0047C15.5255 24.3966 15.3449 24.771 15.2412 25.1665C15.0459 25.911 14.8481 26.6581 14.7271 27.4166C14.639 27.973 14.7582 28.5312 15.2801 28.8636C15.8063 29.1987 16.323 29.0587 16.7913 28.7079C17.0531 28.511 17.2916 28.2818 17.5837 28.0299C17.3089 28.8802 17.0592 29.6842 16.7835 30.4786C16.7438 30.5941 16.5917 30.6877 16.4716 30.7542C15.8054 31.1242 15.0969 31.4296 14.4705 31.8574C13.0543 32.8249 12.0632 34.1241 11.7107 35.8572C11.5551 36.6201 11.6934 37.3103 12.3198 37.8116C12.9679 38.3295 13.6755 38.2455 14.372 37.9035C15.0442 37.5728 15.522 37.0181 15.9679 36.4311C16.876 35.2378 17.4014 33.8564 17.855 32.4435C17.9423 32.1705 18.0736 32.0376 18.3466 31.9825C19.9011 31.6684 21.4521 31.3359 23.0065 31.021C23.5189 30.9169 24.0382 30.846 24.5826 30.755C24.5912 30.9414 24.5635 31.0796 24.6102 31.182C24.6975 31.3718 24.796 31.6369 24.9515 31.692C25.1062 31.7471 25.3844 31.6316 25.5218 31.4995C25.679 31.3473 25.7827 31.1032 25.8328 30.881C25.8864 30.6404 26.0022 30.5547 26.2225 30.5258C27.637 30.343 29.0515 30.1566 30.4651 29.9668C31.3049 29.8539 32.1483 29.7542 32.9812 29.6011C33.4098 29.5224 33.548 29.1418 33.3778 28.7341C33.2508 28.4279 33.0097 28.2862 32.7056 28.3098L32.7064 28.309ZM26.836 25.96C27.0961 24.9784 27.3354 23.9898 27.6465 23.0248C27.7545 22.6898 28.0129 22.381 28.2643 22.122C28.5616 21.8158 28.8614 21.9234 28.9651 22.3372C29.0195 22.5515 29.0299 22.7773 29.0472 22.9006C29.0005 23.9102 28.7387 24.7632 28.3481 25.5707C28.1192 26.0448 27.7735 26.4201 27.1747 26.3677C26.9337 26.3467 26.7608 26.2408 26.8352 25.96H26.836ZM23.9751 22.9479C23.6546 24.0397 23.3029 25.1227 22.9521 26.2058C22.908 26.3423 22.8095 26.4683 22.711 26.5759C22.4552 26.8558 22.0776 26.8217 21.9221 26.4779C21.7977 26.2032 21.7528 25.8909 21.6957 25.6809C21.8383 24.59 22.0535 23.6381 22.8095 22.9251C23.0005 22.7449 23.2502 22.6084 23.4964 22.5148C23.8014 22.3984 24.0684 22.6312 23.9751 22.9487V22.9479ZM14.3763 35.9928C14.2035 36.1984 13.9926 36.3856 13.7645 36.5229C13.6263 36.6061 13.3584 36.655 13.2625 36.5772C13.1424 36.4792 13.0603 36.2141 13.0992 36.0566C13.1917 35.6883 13.3282 35.3191 13.5139 34.9893C14.1214 33.9115 15.0019 33.1303 16.2115 32.5721C15.732 33.8721 15.2006 35.0156 14.3763 35.9937V35.9928ZM31.9227 24.6302C31.9677 24.4019 32.08 24.2995 32.3297 24.2479C33.7425 23.9539 34.8372 22.7904 35.0843 21.3661C35.2407 20.4676 34.7249 19.8194 33.8254 19.7818C33.3338 19.7616 32.9 19.9165 32.5414 20.2516C31.12 21.5805 30.5618 23.2899 30.4141 25.1717C30.4469 25.4858 30.4633 25.7859 30.5126 26.079C30.6854 27.1008 31.47 27.6169 32.4576 27.3624C33.2983 27.1463 33.9524 26.6336 34.5391 26.0098C34.9305 25.5925 34.9772 25.3992 34.7491 24.8822C34.559 24.45 34.3836 24.443 34.0475 24.7815C33.7278 25.1035 33.3795 25.4044 33.0089 25.6625C32.7358 25.8524 32.3885 25.9827 32.08 25.7421C31.7629 25.4946 31.8389 25.1192 31.8787 24.7728C31.8839 24.7247 31.9124 24.6792 31.9219 24.6302H31.9227ZM33.1238 21.3854C33.2508 21.185 33.5014 20.9934 33.7062 21.1675C33.828 21.2708 33.8565 21.612 33.79 21.7948C33.5463 22.4597 33.008 22.8026 32.3686 22.996C32.3245 22.9636 32.2805 22.9304 32.2355 22.898C32.5293 22.3923 32.8101 21.8779 33.1238 21.3854Z" fill="white"/>
    <path d="M24.7616 7.82001C21.8403 7.82001 19.472 10.2095 19.472 13.1569C19.472 14.5633 20.0128 15.8421 20.8941 16.796L20.7694 19.0579C20.758 19.2634 20.9854 19.3927 21.1539 19.2758L22.8191 18.1209C23.4212 18.3609 24.0761 18.4946 24.7625 18.4946C27.6838 18.4946 30.052 16.1052 30.052 13.1578C30.052 10.2104 27.6838 7.82089 24.7625 7.82089L24.7616 7.82001ZM25.1461 15.2789C25.0118 15.51 24.8257 15.6889 24.5939 15.8103C24.3648 15.9298 24.0866 15.99 23.7679 15.99C23.2685 15.99 22.8638 15.8395 22.5645 15.5419C22.2643 15.2443 22.1072 14.8396 22.0958 14.3374C22.0958 14.3348 22.087 14.2338 22.1607 14.1488C22.2178 14.0824 22.3047 14.0478 22.4179 14.0443C22.5505 14.0425 22.654 14.0717 22.7181 14.1364C22.7681 14.186 22.7848 14.2471 22.7839 14.2878C22.8068 14.5075 22.8594 14.6899 22.9402 14.8148C23.0192 14.9379 23.1359 15.0397 23.2852 15.1159C23.437 15.193 23.6108 15.2319 23.8031 15.2319C24.0769 15.2319 24.2894 15.1682 24.4351 15.0415C24.5781 14.9175 24.6475 14.7608 24.6475 14.5615C24.6475 14.4455 24.6229 14.3481 24.572 14.2639C24.522 14.1807 24.4438 14.1107 24.3403 14.0558C24.2253 13.9947 23.9655 13.9061 23.5704 13.791C23.1956 13.6821 22.934 13.574 22.7708 13.4598C22.6049 13.3446 22.4732 13.1958 22.381 13.0178C22.2889 12.8398 22.2415 12.6379 22.2415 12.4156C22.2415 12.0171 22.3758 11.6858 22.64 11.4316C22.9024 11.1784 23.2588 11.0499 23.6986 11.0499C23.9979 11.0499 24.2648 11.1093 24.4921 11.2271C24.7221 11.3466 24.9038 11.5193 25.0311 11.7425C25.1566 11.963 25.2251 12.2234 25.2339 12.5183C25.2339 12.5263 25.2391 12.6352 25.1601 12.7229C25.1215 12.7663 25.0469 12.8194 24.9187 12.823C24.7853 12.8283 24.6826 12.7964 24.6141 12.7309C24.5422 12.6627 24.536 12.583 24.536 12.5679C24.5132 12.3058 24.4333 12.1074 24.299 11.9834C24.1638 11.8594 23.9672 11.7965 23.7144 11.7965C23.4616 11.7965 23.2571 11.8514 23.1272 11.9604C23.0008 12.0658 22.9393 12.1977 22.9393 12.366C22.9393 12.521 22.9823 12.6361 23.0701 12.7167C23.1368 12.7787 23.3124 12.8779 23.7697 13.0019C24.1559 13.1064 24.4219 13.1958 24.5825 13.2756C24.8318 13.4004 25.0241 13.5687 25.1522 13.7742C25.2813 13.9805 25.3471 14.2285 25.3471 14.511C25.3471 14.7935 25.2795 15.0486 25.1452 15.2798L25.1461 15.2789ZM28.2956 11.8426L26.2503 15.5968C26.1854 15.7164 26.0607 15.7908 25.9256 15.7908C25.8632 15.7908 25.8018 15.7748 25.7474 15.7447C25.5683 15.6455 25.5033 15.4179 25.6008 15.2372L27.646 11.483C27.7443 11.3032 27.9699 11.2368 28.149 11.3351C28.3281 11.4343 28.393 11.6619 28.2947 11.8426H28.2956Z" fill="#10CAB3"/>
    </g>
    <defs>
    <clipPath id="clip0_32_21272">
    <rect x="0.612061" width="46" height="46" rx="23" fill="white"/>
    </clipPath>
    </defs>
    </svg>
    