<?xml version="1.0" standalone="no"?>
<!DOCTYPE svg PUBLIC "-//W3C//DTD SVG 1.1//EN" "http://www.w3.org/Graphics/SVG/1.1/DTD/svg11.dtd" >
<svg xmlns="http://www.w3.org/2000/svg">
<metadata></metadata>
<defs>
<font id="daxcompact-mediumregular" horiz-adv-x="991" >
<font-face units-per-em="2048" ascent="1720" descent="-328" />
<missing-glyph horiz-adv-x="483" />
<glyph horiz-adv-x="2048" />
<glyph horiz-adv-x="2048" />
<glyph unicode="&#xd;" horiz-adv-x="2048" />
<glyph unicode=" "  horiz-adv-x="483" />
<glyph unicode="&#x09;" horiz-adv-x="483" />
<glyph unicode="&#xa0;" horiz-adv-x="483" />
<glyph unicode="!" horiz-adv-x="557" d="M139 123q0 58 40.5 98.5t99.5 40.5t99 -40t40 -99t-40 -99t-99 -40t-99.5 40.5t-40.5 98.5zM145 1720h267l-43 -1220h-181z" />
<glyph unicode="&#x22;" horiz-adv-x="825" d="M127 1679q34 58 104 58q69 0 103 -58l-41 -555h-123zM492 1679q34 58 104 58q68 0 102 -58l-41 -555h-122z" />
<glyph unicode="#" horiz-adv-x="1310" d="M111 518v162h196l49 381h-176v162h197l61 497h178l-63 -497h295l61 497h178l-63 -497h176v-162h-196l-48 -381h174v-162h-196l-64 -518h-178l66 518h-295l-64 -518h-178l66 518h-176zM485 680h293l49 381h-295z" />
<glyph unicode="$" horiz-adv-x="940" d="M82 61l70 177q37 -23 99 -42.5t120 -19.5q119 0 182 67.5t63 178.5q0 61 -18 114t-48 94.5t-69 80t-82 75t-86 74.5t-82 84t-69 97.5t-48 120.5t-18 149q0 171 88.5 283t251.5 139l-20 303h178l-29 -295q158 -5 264 -82l-59 -160q-32 22 -90.5 39.5t-114.5 17.5 q-124 0 -186 -69t-62 -178q0 -75 29.5 -138.5t76 -111.5t103 -94.5t113.5 -98t103.5 -111t76 -146t29.5 -189.5q0 -168 -91.5 -285t-252.5 -147l20 -316h-176l29 308q-85 3 -165.5 26.5t-129.5 54.5z" />
<glyph unicode="%" horiz-adv-x="1757" d="M94 1151q0 592 299 592t299 -592q0 -590 -299 -590t-299 590zM258 1159q0 -228 31.5 -338t103.5 -110t102.5 109.5t30.5 338.5t-30.5 338t-102.5 109t-103.5 -109.5t-31.5 -337.5zM567 18l492 1719l129 -35l-492 -1718zM1065 569q0 590 299 590t299 -590 q0 -592 -299 -592t-299 592zM1231 575q0 -229 30.5 -338.5t102.5 -109.5t103.5 110t31.5 338t-31.5 338.5t-103.5 110.5t-102.5 -110t-30.5 -339z" />
<glyph unicode="&#x26;" horiz-adv-x="1110" d="M82 475q0 83 20 156t51.5 126t74.5 97t83.5 71.5t83.5 47.5v4q-46 19 -87 49t-78.5 73.5t-60 106t-22.5 135.5q0 180 107 291t293 111q154 0 258 -84l-53 -158q-25 20 -75.5 37.5t-101.5 17.5q-96 0 -152 -61.5t-56 -163.5q0 -109 63 -177.5t164 -68.5q173 0 420 168 l65 -172q-28 -19 -85 -44.5t-99 -37.5v-938q-45 -34 -138.5 -59t-201.5 -25q-222 0 -347.5 133t-125.5 365zM307 494q0 -155 67.5 -244.5t180.5 -89.5q81 0 125 22v748q-191 -58 -282 -162.5t-91 -273.5z" />
<glyph unicode="'" horiz-adv-x="460" d="M127 1679q34 58 104 58q69 0 103 -58l-41 -555h-123z" />
<glyph unicode="(" horiz-adv-x="638" d="M100 768q0 272 92.5 550t268.5 546l129 -66q-127 -215 -192.5 -485.5t-65.5 -544.5t65.5 -544.5t192.5 -485.5l-129 -66q-176 268 -268.5 546t-92.5 550z" />
<glyph unicode=")" horiz-adv-x="638" d="M49 -262q127 215 192.5 485.5t65.5 544.5t-65.5 544.5t-192.5 485.5l129 66q176 -268 268.5 -546t92.5 -550t-92.5 -550t-268.5 -546z" />
<glyph unicode="*" d="M125 1300l47 175l268 -144l-28 389h168l-29 -389l268 144l47 -175l-278 -77l209 -297l-138 -119l-163 346l-164 -346l-137 119l208 297z" />
<glyph unicode="+" d="M131 737v160h281v346h168v-346h280v-160h-278v-348h-170v348h-281z" />
<glyph unicode="," horiz-adv-x="497" d="M29 -328l121 512q21 33 57.5 53.5t77.5 20.5q46 0 71.5 -21.5t32.5 -52.5l-219 -512h-141z" />
<glyph unicode="-" horiz-adv-x="679" d="M117 709v188h446v-188h-446z" />
<glyph unicode="." horiz-adv-x="497" d="M109 123q0 59 40.5 99t98.5 40q59 0 100 -40.5t41 -98.5t-41 -98.5t-100 -40.5q-58 0 -98.5 40t-40.5 99z" />
<glyph unicode="/" horiz-adv-x="913" d="M41 -248l604 2075l170 -55l-604 -2075z" />
<glyph unicode="0" d="M94 860q0 436 96 659.5t306 223.5q106 0 183.5 -58t125 -172.5t70 -275.5t22.5 -377t-22.5 -377t-70 -275.5t-125 -172.5t-183.5 -58q-210 0 -306 223.5t-96 659.5zM307 866q0 -361 44.5 -529.5t144.5 -168.5t144 168.5t44 529.5q0 362 -44 530.5t-144 168.5t-144.5 -169 t-44.5 -530z" />
<glyph unicode="1" d="M141 1485q126 19 248.5 84.5t159.5 150.5h160v-1720h-222v1411q-61 -28 -155 -52t-170 -30z" />
<glyph unicode="2" d="M55 0l463 954q88 183 88 312q0 132 -68 208t-198 76q-114 0 -209 -51l-57 160q56 35 141 59.5t180 24.5q218 0 327 -126t109 -331q0 -168 -120 -393l-365 -680h518v-213h-809z" />
<glyph unicode="3" d="M74 61l61 175q35 -25 95 -43.5t124 -18.5q123 0 196 92.5t73 227.5q0 155 -98 246t-246 91v148q142 6 235.5 99t93.5 227q0 107 -62.5 178t-180.5 71q-59 0 -119.5 -16.5t-95.5 -38.5l-58 160q55 34 140 59t169 25q106 0 189.5 -34t134.5 -92.5t77.5 -132t26.5 -157.5 q0 -74 -24 -141t-62 -114.5t-77 -79.5t-78 -52v-4q31 -16 62.5 -39t69 -62.5t66 -86t47.5 -113t19 -139.5q0 -143 -54.5 -260t-162.5 -188t-252 -71q-91 0 -173.5 24t-135.5 60z" />
<glyph unicode="4" d="M92 379v170l496 1171h207v-1171h104v-170h-104v-379h-209v379h-494zM242 549h352v672l4 184h-4q-29 -98 -62 -176z" />
<glyph unicode="5" d="M90 61l62 175q36 -24 97 -43t124 -19q123 0 195.5 98t72.5 242q0 192 -125 287.5t-364 42.5l59 876h637v-207h-475l-31 -493q121 11 220 -20.5t166 -98t103.5 -165.5t36.5 -222q0 -109 -31.5 -206.5t-89.5 -171t-145.5 -116.5t-193.5 -43q-96 0 -182 24.5t-136 59.5z" />
<glyph unicode="6" d="M98 618q0 182 40 348t105.5 289.5t152 225t176 165.5t180.5 99l67 -180q-144 -58 -269.5 -204t-182.5 -353q57 26 135 26q126 0 217.5 -69t136.5 -185.5t45 -265.5q0 -108 -25 -203.5t-72.5 -170.5t-125 -119t-174.5 -44q-189 0 -297.5 173.5t-108.5 467.5zM307 621 q0 -215 51.5 -334t145.5 -119q92 0 140 96t48 256q0 162 -58.5 260.5t-180.5 98.5q-75 0 -125 -21q-21 -119 -21 -237z" />
<glyph unicode="7" d="M111 1513v207h819l-146 -460q-234 -732 -335 -1260h-275l502 1513h-565z" />
<glyph unicode="8" d="M94 418q0 77 20.5 146.5t60 129.5t82.5 108t103 101q-116 109 -176.5 209.5t-60.5 230.5q0 176 105 288t268 112q165 0 269.5 -111.5t104.5 -288.5q0 -67 -17.5 -125.5t-55.5 -112.5t-75.5 -94.5t-98.5 -97.5q63 -58 105.5 -105.5t84.5 -110t63 -132.5t21 -147 q0 -197 -115.5 -319t-285.5 -122q-173 0 -287.5 120.5t-114.5 320.5zM285 426q0 -107 59.5 -181.5t147.5 -74.5t144 74t56 182q0 101 -50.5 182t-154.5 176q-100 -90 -151 -173t-51 -185zM315 1341q0 -85 44.5 -155t138.5 -160q98 92 145 162t47 153q0 97 -51.5 161.5 t-136.5 64.5q-86 0 -136.5 -64t-50.5 -162z" />
<glyph unicode="9" d="M90 1206q0 108 25 203.5t72.5 170.5t125 119t174.5 44q189 0 297.5 -173.5t108.5 -467.5q0 -182 -40 -348t-105.5 -289.5t-151.5 -225t-175.5 -165.5t-180.5 -99l-68 181q144 58 270 204t183 353q-59 -27 -136 -27q-126 0 -217.5 69t-136.5 185.5t-45 265.5zM299 1212 q0 -78 13.5 -142.5t41.5 -115.5t75 -79.5t110 -28.5q78 0 125 20q20 113 20 240q0 216 -52 337.5t-145 121.5q-92 0 -140 -96.5t-48 -256.5z" />
<glyph unicode=":" horiz-adv-x="497" d="M109 123q0 59 40.5 99t98.5 40q59 0 100 -40.5t41 -98.5t-41 -98.5t-100 -40.5q-58 0 -98.5 40t-40.5 99zM109 770q0 58 40.5 98.5t98.5 40.5q59 0 100 -40.5t41 -98.5t-41.5 -99.5t-99.5 -41.5t-98.5 41t-40.5 100z" />
<glyph unicode=";" horiz-adv-x="497" d="M29 -328l121 512q21 33 57.5 53.5t77.5 20.5q46 0 71.5 -21.5t32.5 -52.5l-219 -512h-141zM111 770q0 58 40.5 98.5t98.5 40.5t98.5 -40.5t40.5 -98.5q0 -59 -40.5 -100t-98.5 -41t-98.5 41t-40.5 100z" />
<glyph unicode="&#x3c;" d="M131 743v148l729 309v-184l-559 -199l559 -199v-184z" />
<glyph unicode="=" d="M131 557v160h729v-160h-729zM131 918v159h729v-159h-729z" />
<glyph unicode="&#x3e;" d="M131 434v184l559 199l-559 199v184l729 -309v-148z" />
<glyph unicode="?" horiz-adv-x="835" d="M70 1659q47 34 124 59t152 25q96 0 172.5 -31.5t124.5 -86t73 -124t25 -147.5q0 -141 -70 -253t-182 -181l-20 -420h-182l-23 469q114 53 183 152t69 202q0 98 -54 161.5t-153 63.5q-49 0 -99 -16.5t-81 -36.5zM238 123q0 59 40 99t99 40t100 -40.5t41 -98.5t-41 -98.5 t-100 -40.5t-99 40t-40 99z" />
<glyph unicode="@" horiz-adv-x="1761" d="M98 692q0 174 37 333t109.5 289.5t173 226.5t233.5 149t285 53q145 0 265.5 -45.5t205 -126t143 -191t86 -239t27.5 -271.5q0 -193 -48 -342t-133 -241t-196.5 -138.5t-243.5 -46.5q-254 0 -387 156.5t-133 456.5q0 270 111 429t301 159q99 0 169 -37t105 -84v-897 q53 18 98 58t85 107.5t63 175t23 244.5q0 117 -18 220.5t-59.5 196.5t-103 160t-153.5 106.5t-207 39.5q-152 0 -276.5 -70.5t-205.5 -193.5t-125 -286t-44 -351q0 -150 28.5 -282t87 -242.5t143 -190t203.5 -123.5t261 -44q162 0 293.5 55.5t216.5 138.5l84 -129 q-236 -225 -594 -225q-174 0 -320.5 50t-254.5 142t-183.5 220.5t-113.5 287.5t-38 342zM707 713q0 -228 76 -340t247 -113v862q-35 31 -104 31q-106 0 -162.5 -116.5t-56.5 -323.5z" />
<glyph unicode="A" horiz-adv-x="1046" d="M31 0l370 1720h244l371 -1720h-236l-73 383h-388l-73 -383h-215zM346 547h334l-133 684q-9 48 -16.5 107t-10.5 94l-4 34h-4q-13 -126 -33 -235z" />
<glyph unicode="B" horiz-adv-x="1032" d="M131 61v1598q53 34 143 59t193 25q227 0 342 -120.5t115 -346.5q0 -75 -23 -143t-59.5 -115t-76 -78.5t-77.5 -46.5v-4q40 -15 80 -44t82.5 -78t69 -126.5t26.5 -171.5q0 -245 -122.5 -368.5t-348.5 -123.5q-105 0 -199 24.5t-145 59.5zM346 182q55 -22 121 -22 q254 0 254 323q0 328 -307 328h-68v-629zM346 956h66q288 0 288 314q0 156 -56 228.5t-181 72.5q-77 0 -117 -21v-594z" />
<glyph unicode="C" horiz-adv-x="872" d="M96 860q0 431 123.5 657t362.5 226q76 0 137 -24.5t96 -59.5l-53 -160q-25 21 -67.5 35t-82.5 14q-284 0 -284 -682t284 -682q90 0 150 49l53 -172q-35 -35 -95 -59.5t-138 -24.5q-239 0 -362.5 226t-123.5 657z" />
<glyph unicode="D" horiz-adv-x="1075" d="M131 61v1598q129 84 326 84q262 0 392 -230.5t130 -650.5q0 -203 -31.5 -364t-94.5 -277.5t-163 -178.5t-233 -62q-112 0 -195 23.5t-131 57.5zM352 188q45 -18 111 -18q289 0 289 694q0 701 -289 701q-63 0 -111 -19v-1358z" />
<glyph unicode="E" horiz-adv-x="815" d="M131 0v1720h584v-180h-361v-569h322v-180h-322v-605h361v-186h-584z" />
<glyph unicode="F" horiz-adv-x="806" d="M131 0v1720h584v-180h-361v-569h322v-180h-322v-791h-223z" />
<glyph unicode="G" horiz-adv-x="1058" d="M96 860q0 422 145.5 652.5t405.5 230.5q93 0 167 -25t110 -59l-54 -160q-33 21 -86 36t-108 15q-170 0 -261 -168.5t-91 -521.5q0 -346 77 -517t213 -171q77 0 109 18v607h-170v176h387v-912q-119 -84 -315 -84q-260 0 -394.5 226t-134.5 657z" />
<glyph unicode="H" horiz-adv-x="1073" d="M131 0v1720h223v-749h365v749h223v-1720h-223v791h-365v-791h-223z" />
<glyph unicode="I" horiz-adv-x="497" d="M137 0v1720h223v-1720h-223z" />
<glyph unicode="J" horiz-adv-x="509" d="M-41 -160q78 16 133 94t55 197v1589h226v-1581q0 -219 -114 -348.5t-300 -140.5v190z" />
<glyph unicode="K" horiz-adv-x="1015" d="M135 0v1720h223v-813h4q23 56 48 111l323 702h232l-400 -825l414 -895h-248l-321 743q-11 25 -23 58t-19 53l-6 20h-4v-874h-223z" />
<glyph unicode="L" horiz-adv-x="753" d="M135 0v1720h223v-1534h334v-186h-557z" />
<glyph unicode="M" horiz-adv-x="1462" d="M78 0l176 1720h223l221 -1089q9 -44 16.5 -97.5t11.5 -85.5l3 -32h4q11 117 31 215l221 1089h223l176 -1720h-227l-88 1155q-4 47 -6 103t-2 88v32h-4q-15 -117 -35 -223l-227 -1155h-146l-229 1155l-35 223h-4q0 -117 -8 -223l-88 -1155h-207z" />
<glyph unicode="N" horiz-adv-x="1140" d="M131 0v1720h205l426 -1093q15 -38 30 -84t23 -73l8 -26h4q-4 101 -4 187v1089h187v-1720h-183l-448 1147q-16 39 -31.5 85t-23.5 72l-7 27h-4q4 -100 4 -188v-1143h-186z" />
<glyph unicode="O" horiz-adv-x="1089" d="M96 860q0 214 25 374.5t78.5 276t140 174t205.5 58.5q234 0 341 -224.5t107 -658.5t-107 -658.5t-341 -224.5q-119 0 -205.5 58.5t-140 174t-78.5 276t-25 374.5zM326 866q0 -362 51 -529t168 -167t168 167t51 529t-51 530.5t-168 168.5t-168 -168.5t-51 -530.5z" />
<glyph unicode="P" horiz-adv-x="987" d="M131 0v1659q53 35 139.5 59.5t184.5 24.5q121 0 212 -36t145.5 -102.5t81 -153.5t26.5 -194q0 -230 -124 -364.5t-360 -134.5q-36 0 -86 8v-766h-219zM350 932q30 -6 78 -6q268 0 268 329q0 156 -55 236t-182 80q-61 0 -109 -21v-618z" />
<glyph unicode="Q" horiz-adv-x="1089" d="M96 860q0 214 25 374.5t78.5 276t140 174t205.5 58.5q234 0 341 -224.5t107 -658.5q0 -624 -221 -803l303 -215l-178 -151l-279 295q-52 -9 -73 -9q-119 0 -205.5 58.5t-140 174t-78.5 276t-25 374.5zM326 866q0 -362 51 -529t168 -167t168 167t51 529t-51 530.5 t-168 168.5t-168 -168.5t-51 -530.5z" />
<glyph unicode="R" horiz-adv-x="1019" d="M131 0v1659q55 35 143.5 59.5t182.5 24.5q120 0 210.5 -35.5t145.5 -101t82 -154t27 -199.5q0 -76 -23 -143.5t-58.5 -114.5t-81.5 -83.5t-89.5 -57.5t-85.5 -31l389 -823h-248l-315 717l-56 143h-4v-860h-219zM350 922q14 -4 53 -4q138 0 215.5 81.5t77.5 237.5 q0 166 -55 249t-178 83q-65 0 -113 -19v-628z" />
<glyph unicode="S" horiz-adv-x="856" d="M70 61l59 177q32 -24 87 -42t110 -18q100 0 159.5 73.5t59.5 172.5q0 76 -25.5 142t-66 117t-89 100.5t-97.5 103t-89.5 113.5t-66 143.5t-25.5 181.5q0 194 113.5 306t294.5 112q85 0 157 -25t111 -59l-51 -160q-28 22 -81.5 38.5t-107.5 16.5q-97 0 -156 -65t-59 -164 q0 -75 26 -141t67 -116.5t90.5 -100t99.5 -103.5t91 -114t67 -144t26 -182q0 -193 -116 -320t-298 -127q-88 0 -166.5 24.5t-123.5 59.5z" />
<glyph unicode="T" horiz-adv-x="847" d="M51 1540v180h746v-180h-260v-1540h-226v1540h-260z" />
<glyph unicode="U" horiz-adv-x="1052" d="M131 389v1331h223v-1335q0 -98 50 -154.5t131 -56.5t130.5 56.5t49.5 154.5v1335h207v-1331q0 -192 -111 -302t-285 -110t-284.5 110t-110.5 302z" />
<glyph unicode="V" horiz-adv-x="1009" d="M33 1720h241l211 -1183q8 -47 14.5 -101.5t8.5 -85.5l2 -31h4q11 112 29 218l211 1183h223l-359 -1720h-227z" />
<glyph unicode="W" horiz-adv-x="1529" d="M49 1720h230l163 -1155l21 -196h4q6 104 22 196l195 1155h182l193 -1155q6 -40 11.5 -89t7.5 -78l3 -29h4q9 106 21 196l166 1155h209l-295 -1720h-209l-189 1124q-7 41 -12 90.5t-6 79.5l-2 29h-4q-7 -107 -23 -199l-188 -1124h-209z" />
<glyph unicode="X" horiz-adv-x="995" d="M41 0l328 885l-301 835h237l197 -633h4l205 633h217l-301 -813l327 -907h-245l-215 684h-5l-221 -684h-227z" />
<glyph unicode="Y" horiz-adv-x="960" d="M23 1720h243l221 -745h5l223 745h223l-346 -979v-741h-223v741z" />
<glyph unicode="Z" horiz-adv-x="813" d="M47 0l428 1542h-401v178h671l-417 -1536h420v-184h-701z" />
<glyph unicode="[" horiz-adv-x="614" d="M133 -328v2257h414v-151h-215v-1950h215v-156h-414z" />
<glyph unicode="\" horiz-adv-x="913" d="M98 1772l172 55l604 -2075l-169 -55z" />
<glyph unicode="]" horiz-adv-x="614" d="M68 -172h215v1950h-215v151h413v-2257h-413v156z" />
<glyph unicode="^" d="M129 1065l266 408q39 59 101 59q61 0 100 -59l266 -408l-98 -107l-268 351l-269 -351z" />
<glyph unicode="_" d="M-20 -238h1032v-174h-1032v174z" />
<glyph unicode="`" horiz-adv-x="483" d="M35 1653q19 39 86 39q60 0 115 -39l112 -277h-104z" />
<glyph unicode="a" horiz-adv-x="909" d="M78 373q0 111 38.5 196.5t109.5 140t157.5 86t194.5 46.5v63q0 193 -172 193q-121 0 -234 -64l-47 154q50 33 135 57.5t180 24.5q168 0 257 -95t89 -284v-825q-123 -86 -331 -86q-184 0 -280.5 111.5t-96.5 281.5zM285 385q0 -106 46 -174t134 -68q68 0 113 25v528 q-142 -22 -217.5 -94t-75.5 -217z" />
<glyph unicode="b" horiz-adv-x="958" d="M123 61v1659h215v-493q71 39 168 39q172 0 267 -164.5t95 -448.5q0 -323 -112 -498t-332 -175q-191 0 -301 81zM338 172q38 -20 98 -20q113 0 163 125.5t50 363.5q0 232 -47.5 348.5t-150.5 116.5q-57 0 -113 -29v-905z" />
<glyph unicode="c" horiz-adv-x="765" d="M90 625q0 315 100.5 480t284.5 165q145 0 227 -82l-53 -146q-59 54 -137 54q-98 0 -149.5 -117.5t-51.5 -349.5q0 -229 53 -346t148 -117q88 0 137 53l53 -158q-77 -81 -225 -81q-185 0 -286 164.5t-101 480.5z" />
<glyph unicode="d" horiz-adv-x="958" d="M90 616q0 313 105 479.5t294 166.5q86 0 132 -23v481h215v-1659q-113 -81 -318 -81t-316.5 163t-111.5 473zM309 627q0 -473 215 -473q71 0 97 16v917q-35 13 -84 13q-124 0 -176 -118t-52 -355z" />
<glyph unicode="e" horiz-adv-x="952" d="M90 608q0 328 103 495t296 167q127 0 212 -77t123 -208.5t38 -314.5q0 -33 -4 -99l-551 -67q3 -146 66 -242t168 -96q153 0 239 59l56 -164q-48 -35 -129 -58t-183 -23q-210 0 -322 164.5t-112 463.5zM303 653l344 43q-2 96 -11 168.5t-27.5 130t-50.5 87.5t-77 30 q-89 0 -135 -121q-43 -114 -43 -312v-26z" />
<glyph unicode="f" horiz-adv-x="622" d="M70 1092v157h108v152q0 170 78 251t221 81q33 0 68 -7v-155q-12 2 -41 2q-111 0 -111 -168v-156h152v-157h-152v-1092h-215v1092h-108z" />
<glyph unicode="g" horiz-adv-x="958" d="M90 647q0 185 48 323.5t149 219t245 80.5q94 0 174 -23.5t130 -58.5v-1077q0 -219 -105 -339t-287 -120q-95 0 -180 23t-139 59l61 166q33 -25 96.5 -43.5t127.5 -18.5q107 0 159 68.5t52 181.5v45q-71 -41 -175 -41q-164 0 -260 151t-96 404zM309 666q0 -406 191 -406 q65 0 121 29v796q-40 21 -99 21q-74 0 -122.5 -56t-69.5 -152t-21 -232z" />
<glyph unicode="h" horiz-adv-x="966" d="M123 0v1720h217v-506q33 23 85.5 39.5t106.5 16.5q153 0 232.5 -89.5t79.5 -252.5v-928h-217v920q0 97 -35.5 141.5t-118.5 44.5q-74 0 -133 -41v-1065h-217z" />
<glyph unicode="i" horiz-adv-x="473" d="M115 1620q0 51 35 86t86 35t86.5 -35t35.5 -86t-34.5 -87t-85.5 -36t-87 36t-36 87zM129 0v1249h215v-1249h-215z" />
<glyph unicode="j" horiz-adv-x="485" d="M-23 -172q80 6 121 64.5t41 181.5v1175h217v-1171q0 -214 -91 -317t-288 -109v176zM125 1618q0 51 36 87t87 36t87 -36t36 -87t-36 -87t-87 -36t-87 36t-36 87z" />
<glyph unicode="k" horiz-adv-x="942" d="M129 0v1720h213v-1056h4q18 47 41 88l270 497h234l-346 -598l360 -651h-246l-272 539l-41 96h-4v-635h-213z" />
<glyph unicode="l" horiz-adv-x="473" d="M129 0v1720h215v-1720h-215z" />
<glyph unicode="m" horiz-adv-x="1470" d="M123 0v1188q133 82 348 82q189 0 277 -113q47 50 121 81.5t163 31.5q149 0 232.5 -89.5t83.5 -252.5v-928h-218v920q0 186 -145 186q-82 0 -141 -68v-1038h-217v926q0 83 -40 131.5t-120 48.5q-72 0 -127 -25v-1081h-217z" />
<glyph unicode="n" horiz-adv-x="966" d="M123 0v1188q142 82 348 82q373 0 373 -342v-928h-217v920q0 91 -37.5 138.5t-122.5 47.5q-75 0 -127 -25v-1081h-217z" />
<glyph unicode="o" horiz-adv-x="950" d="M90 625q0 312 95 478.5t290 166.5t290 -166.5t95 -478.5t-95 -478.5t-290 -166.5t-290 166.5t-95 478.5zM309 631q0 -239 37 -359t129 -120t129 120t37 359t-37 358t-129 119t-129 -119t-37 -358z" />
<glyph unicode="p" horiz-adv-x="958" d="M123 -328v1516q48 35 129.5 58.5t185.5 23.5q206 0 318 -163.5t112 -473.5q0 -313 -105.5 -479t-295.5 -166q-85 0 -129 22v-338h-215zM338 172q32 -12 82 -12q124 0 176.5 119t52.5 356q0 473 -215 473q-67 0 -96 -18v-918z" />
<glyph unicode="q" horiz-adv-x="958" d="M90 596q0 323 111.5 498.5t330.5 175.5q180 0 304 -82v-1516h-215v351q-71 -39 -168 -39q-172 0 -267.5 164t-95.5 448zM309 616q0 -232 47 -347t150 -115q65 0 115 26v905q-40 21 -99 21q-76 0 -124 -60.5t-68.5 -166.5t-20.5 -263z" />
<glyph unicode="r" horiz-adv-x="622" d="M123 0v1188q59 36 150.5 59t191.5 23q51 0 121 -8l-45 -189q-45 23 -103 25h-8q-53 0 -90 -19v-1079h-217z" />
<glyph unicode="s" horiz-adv-x="735" d="M61 61l54 164q30 -25 77 -42t97 -17q64 0 106.5 43.5t42.5 112.5q0 54 -20 98.5t-51.5 76t-70 62t-77 65t-70 75t-51.5 101.5t-20 136q0 151 86.5 242.5t226.5 91.5q77 0 140.5 -23.5t103.5 -58.5l-51 -152q-68 56 -156 56q-64 0 -101.5 -42t-37.5 -114q0 -50 20.5 -92 t53 -72.5t72 -60.5t79 -65t72 -77t53 -105.5t20.5 -141.5q0 -152 -96.5 -247t-243.5 -95q-155 0 -258 81z" />
<glyph unicode="t" horiz-adv-x="630" d="M70 1092v157h108v271l215 73v-344h152v-157h-152v-781q0 -147 101 -147q16 0 51 10v-164q-40 -22 -111 -22q-121 0 -188.5 79t-67.5 220v805h-108z" />
<glyph unicode="u" horiz-adv-x="964" d="M123 344v905h217v-925q0 -170 154 -170q94 0 133 28v1067h215v-1188q-53 -35 -147 -58t-206 -23q-366 0 -366 364z" />
<glyph unicode="v" horiz-adv-x="917" d="M49 1249h227l156 -757q9 -44 17 -96.5t12 -83.5l4 -31h4q13 113 33 211l160 757h206l-305 -1249h-211z" />
<glyph unicode="w" horiz-adv-x="1419" d="M59 1249h211l146 -788q6 -36 11.5 -78.5t8.5 -66.5l2 -25h4q9 90 25 170l164 788h176l160 -788q7 -36 13.5 -78.5t9.5 -66.5l3 -25h4q9 88 23 170l147 788h193l-268 -1249h-191l-164 741q-8 36 -14 78.5t-8 66.5l-2 25h-4q-9 -90 -27 -170l-164 -741h-188z" />
<glyph unicode="x" horiz-adv-x="880" d="M37 0l287 629l-271 620h221l168 -438h4l179 438h202l-270 -594l287 -655h-234l-172 461h-4l-184 -461h-213z" />
<glyph unicode="y" horiz-adv-x="917" d="M49 1249h225l158 -762q9 -44 17 -97t12 -84l4 -32h4q13 115 33 213l160 762h206l-395 -1577h-219l111 355z" />
<glyph unicode="z" horiz-adv-x="751" d="M59 0l355 1092h-332v157h594l-344 -1083h348v-166h-621z" />
<glyph unicode="{" horiz-adv-x="724" d="M102 721v153q146 0 146 199v508q0 340 385 340v-141q-184 0 -184 -199v-508q0 -121 -48.5 -192t-124.5 -80v-4q76 -9 124.5 -80.5t48.5 -192.5v-514q0 -198 184 -198v-148q-385 0 -385 346v514q0 106 -38 151.5t-108 45.5z" />
<glyph unicode="|" horiz-adv-x="446" d="M133 -328v2048h180v-2048h-180z" />
<glyph unicode="}" horiz-adv-x="724" d="M92 -188q184 0 184 198v514q0 121 48.5 192.5t124.5 80.5v4q-76 9 -124.5 80t-48.5 192v508q0 199 -184 199v141q387 0 387 -340v-508q0 -107 37.5 -153t106.5 -46v-153q-69 0 -106.5 -45t-37.5 -152v-514q0 -346 -387 -346v148z" />
<glyph unicode="~" d="M125 844q23 65 77.5 105t131.5 40q40 0 82 -16.5t71 -36.5t68.5 -36.5t75.5 -16.5q46 0 87 21t68 57l80 -109q-23 -66 -77.5 -106.5t-131.5 -40.5q-40 0 -82 17t-71 37t-68.5 37t-75.5 17q-95 0 -155 -80z" />
<glyph horiz-adv-x="1249" d="M94 602v150l187 -17q-10 147 2 281l-189 -17v148l201 -17q47 295 201.5 454t388.5 159q171 0 284 -84l-69 -156q-85 51 -197 51q-311 0 -383 -424l475 17v-148l-491 17q-10 -121 0 -283l491 19v-150l-477 16q32 -217 129 -329.5t256 -112.5q110 0 195 51l71 -166 q-113 -84 -284 -84q-240 0 -395 166t-199 475z" />
<glyph horiz-adv-x="538" d="M92 -328l121 512q19 32 53.5 53t71.5 21q80 0 96 -74l-213 -512h-129z" />
<glyph d="M-6 -311l37 164q38 -19 78 -19q58 0 102 43.5t55 136.5l113 893h-166v158h186l45 348q21 162 111.5 244t228.5 82q87 0 146 -35l-35 -152q-38 19 -78 19q-59 0 -103 -45.5t-55 -139.5l-41 -321h201v-158h-219l-121 -927q-21 -162 -110.5 -244t-227.5 -82q-91 0 -147 35z " />
<glyph horiz-adv-x="921" d="M92 -328l121 512q19 32 53.5 53t71.5 21q80 0 96 -74l-213 -512h-129zM473 -328l121 512q19 32 53.5 53t71.5 21q42 0 66.5 -21.5t31.5 -52.5l-215 -512h-129z" />
<glyph unicode="&#x85;" horiz-adv-x="1488" d="M109 123q0 59 40.5 99t98.5 40q59 0 100 -40.5t41 -98.5t-41 -98.5t-100 -40.5q-58 0 -98.5 40t-40.5 99zM604 123q0 59 40 99t99 40t100.5 -40.5t41.5 -98.5t-41.5 -98.5t-100.5 -40.5t-99 40t-40 99zM1100 123q0 59 40 99t99 40t100 -40.5t41 -98.5t-41 -98.5 t-100 -40.5t-99 40t-40 99z" />
<glyph horiz-adv-x="1105" d="M98 1047v202h348v471h213v-471h349v-202h-349v-1375h-213v1375h-348z" />
<glyph horiz-adv-x="1105" d="M98 383v203h348v461h-348v202h348v471h213v-471h349v-202h-349v-461h349v-203h-349v-711h-213v711h-348z" />
<glyph horiz-adv-x="483" d="M-8 1417l184 207q30 33 66 33q35 0 65 -33l185 -207l-52 -63l-198 155l-199 -155z" />
<glyph horiz-adv-x="2207" d="M94 1245q0 112 15 200.5t46.5 156.5t84.5 104.5t125 36.5t125 -36.5t84 -104.5t46 -156.5t15 -200.5q0 -151 -25.5 -258.5t-87.5 -173t-157 -65.5q-72 0 -125 36.5t-84.5 104t-46.5 156t-15 200.5zM242 1251q0 -181 28.5 -275.5t94.5 -94.5t93 93.5t27 276.5t-27 277 t-93 94t-94.5 -95t-28.5 -276zM467 18l491 1719l121 -35l-491 -1718zM913 475q0 112 15 200.5t46.5 156.5t84.5 104.5t125 36.5t125 -36.5t84 -104.5t46 -156.5t15 -200.5t-15 -200.5t-46 -156.5t-84 -104.5t-125 -36.5t-125 36.5t-84.5 104.5t-46.5 156.5t-15 200.5z M1061 481q0 -181 28.5 -275.5t94.5 -94.5t93.5 94t27.5 276t-27.5 276.5t-93.5 94.5t-94.5 -95t-28.5 -276zM1573 475q0 112 15 200.5t46 156.5t84 104.5t125 36.5t125 -36.5t84.5 -104.5t46.5 -156.5t15 -200.5t-15 -200.5t-46.5 -156.5t-84.5 -104.5t-125 -36.5t-125 36.5 t-84 104.5t-46 156.5t-15 200.5zM1722 481q0 -182 27.5 -276t93.5 -94t94.5 94.5t28.5 275.5t-28.5 276t-94.5 95t-93.5 -94.5t-27.5 -276.5z" />
<glyph horiz-adv-x="856" d="M70 61l59 177q32 -24 87 -42t110 -18q100 0 159.5 73.5t59.5 172.5q0 76 -25.5 142t-66 117t-89 100.5t-97.5 103t-89.5 113.5t-66 143.5t-25.5 181.5q0 194 113.5 306t294.5 112q85 0 157 -25t111 -59l-51 -160q-28 22 -81.5 38.5t-107.5 16.5q-97 0 -156 -65t-59 -164 q0 -75 26 -141t67 -116.5t90.5 -100t99.5 -103.5t91 -114t67 -144t26 -182q0 -193 -116 -320t-298 -127q-88 0 -166.5 24.5t-123.5 59.5zM223 2073l51 63l197 -154l199 154l51 -63l-182 -207q-30 -33 -68 -33q-35 0 -65 33z" />
<glyph horiz-adv-x="587" d="M121 778l225 463l121 -53l-152 -410l152 -409l-121 -54z" />
<glyph horiz-adv-x="1386" d="M96 860q0 199 28 358.5t84 278t147.5 182.5t211.5 64q95 0 166 -23h553v-180h-362v-569h325v-180h-325v-607h362v-184h-553q-62 -23 -166 -23q-120 0 -211.5 64t-147.5 182.5t-84 278t-28 358.5zM326 864q0 -218 25 -370.5t81.5 -240t142.5 -87.5q81 0 132 22v1354 q-53 21 -132 21q-86 0 -142.5 -88t-81.5 -240.5t-25 -370.5z" />
<glyph horiz-adv-x="813" d="M47 0l428 1542h-401v178h671l-417 -1536h420v-184h-701zM158 2073l51 63l199 -154l196 154l51 -63l-182 -207q-30 -33 -65 -33q-38 0 -68 33z" />
<glyph horiz-adv-x="538" d="M104 1208l213 512h129l-118 -512q-19 -32 -53.5 -52.5t-71.5 -20.5q-43 0 -67.5 21t-31.5 52z" />
<glyph horiz-adv-x="538" d="M92 1153l121 512q19 32 53.5 53t71.5 21q80 0 96 -74l-213 -512h-129z" />
<glyph horiz-adv-x="921" d="M104 1208l213 512h129l-118 -512q-19 -32 -53.5 -52.5t-71.5 -20.5q-43 0 -67.5 21t-31.5 52zM485 1208l215 512h129l-120 -512q-19 -32 -53.5 -52.5t-71.5 -20.5q-43 0 -67.5 21t-31.5 52z" />
<glyph horiz-adv-x="921" d="M92 1153l121 512q19 32 53.5 53t71.5 21q80 0 96 -74l-213 -512h-129zM473 1153l121 512q19 32 53.5 53t71.5 21q42 0 66.5 -21.5t31.5 -52.5l-215 -512h-129z" />
<glyph horiz-adv-x="696" d="M98 815q0 103 73.5 176.5t176.5 73.5t176.5 -73.5t73.5 -176.5t-73.5 -176.5t-176.5 -73.5t-176.5 73.5t-73.5 176.5z" />
<glyph horiz-adv-x="716" d="M0 737v160h717v-160h-717z" />
<glyph horiz-adv-x="1433" d="M131 737v160h1172v-160h-1172z" />
<glyph horiz-adv-x="483" d="M-25 1462q20 46 63.5 77.5t96.5 31.5q45 0 106 -33t103 -33q33 0 60.5 16t41.5 40l62 -72q-20 -46 -63 -76.5t-97 -30.5q-46 0 -106 33t-103 33q-64 0 -102 -55z" />
<glyph horiz-adv-x="1638" d="M61 1599v121h539v-121h-184v-882h-168v882h-187zM637 717l119 1003h170l145 -626l23 -125h4q8 68 20 125l148 626h170l118 -1003h-170l-53 672l-4 122h-4q-9 -65 -23 -122l-155 -672h-115l-153 672l-21 122h-4q-2 -67 -6 -122l-55 -672h-154z" />
<glyph horiz-adv-x="735" d="M61 61l54 164q30 -25 77 -42t97 -17q64 0 106.5 43.5t42.5 112.5q0 54 -20 98.5t-51.5 76t-70 62t-77 65t-70 75t-51.5 101.5t-20 136q0 151 86.5 242.5t226.5 91.5q77 0 140.5 -23.5t103.5 -58.5l-51 -152q-68 56 -156 56q-64 0 -101.5 -42t-37.5 -114q0 -50 20.5 -92 t53 -72.5t72 -60.5t79 -65t72 -77t53 -105.5t20.5 -141.5q0 -152 -96.5 -247t-243.5 -95q-155 0 -258 81zM127 1602l51 63l199 -154l198 154l52 -63l-185 -207q-30 -33 -65 -33q-36 0 -66 33z" />
<glyph horiz-adv-x="587" d="M121 369l149 409l-149 410l119 53l227 -463l-227 -463z" />
<glyph horiz-adv-x="1484" d="M90 625q0 309 95.5 477t281.5 168q108 0 177 -60.5t99 -160.5q33 102 108.5 161.5t178.5 59.5q180 0 272.5 -161.5t92.5 -438.5q0 -33 -4 -99l-551 -67q9 -155 69 -246.5t164 -91.5q156 0 240 59l55 -164q-48 -35 -128 -58t-177 -23q-111 0 -196 61t-122 162 q-28 -102 -97.5 -162.5t-180.5 -60.5q-186 0 -281.5 168t-95.5 477zM309 631q0 -239 37 -359t129 -120t129 120t37 359t-37 358t-129 119t-129 -119t-37 -358zM836 653l344 43q-2 96 -11 168.5t-27.5 130t-50.5 87.5t-77 30q-89 0 -135 -121t-43 -338z" />
<glyph horiz-adv-x="751" d="M59 0l355 1092h-332v157h594l-344 -1083h348v-166h-621zM125 1602l51 63l197 -154l198 154l52 -63l-183 -207q-30 -33 -67 -33q-36 0 -66 33z" />
<glyph horiz-adv-x="960" d="M23 1720h243l221 -745h5l223 745h223l-346 -979v-741h-223v741zM233 1946q0 40 29.5 69t69.5 29t69 -29t29 -69t-29 -69.5t-69 -29.5t-69.5 29.5t-29.5 69.5zM549 1946q0 40 29 69t69 29t69 -29t29 -69t-29 -69.5t-69 -29.5t-69 29.5t-29 69.5z" />
<glyph unicode="&#xa1;" horiz-adv-x="557" d="M139 1270q0 58 40.5 98.5t99.5 40.5t99 -40.5t40 -98.5q0 -59 -40.5 -99.5t-98.5 -40.5q-59 0 -99.5 41t-40.5 99zM145 -328l43 1221h181l43 -1221h-267z" />
<glyph unicode="&#xa2;" horiz-adv-x="880" d="M104 625q0 267 97.5 431.5t263.5 200.5l-25 312h172l-24 -299q138 -8 217 -82l-57 -146q-78 54 -164 54q-120 0 -188 -120t-68 -347q0 -226 67.5 -344.5t188.5 -118.5q103 0 164 53l57 -158q-29 -31 -85 -54t-132 -27l24 -308h-172l25 320q-166 36 -263.5 200.5 t-97.5 432.5z" />
<glyph unicode="&#xa3;" d="M74 0q79 111 142 283t63 335q0 102 -17 199h-184v178h143q-2 8 -8.5 36.5t-9 39.5t-7.5 36.5t-7.5 42t-5.5 40.5t-4 47t-1 47q0 207 115 333t328 126q98 0 175.5 -24.5t118.5 -59.5l-57 -160q-30 21 -86 38t-117 17q-123 0 -191.5 -77t-68.5 -232q0 -99 31 -250h326v-178 h-297q16 -114 16 -196q0 -104 -33 -218t-76 -192h553v-211h-841z" />
<glyph unicode="&#xa4;" horiz-adv-x="1126" d="M102 276l144 209q-105 130 -105 314q0 180 101 311l-140 201l140 96l131 -190q92 53 190 53q99 0 191 -53l131 190l139 -96l-139 -201q100 -130 100 -311q0 -185 -104 -314l143 -209l-139 -96l-135 197q-82 -49 -187 -49q-104 0 -186 49l-135 -197zM350 805 q0 -137 60.5 -228.5t152.5 -91.5t152.5 91.5t60.5 228.5t-60.5 227t-152.5 90t-152.5 -90t-60.5 -227z" />
<glyph unicode="&#xa5;" horiz-adv-x="1105" d="M55 1720h244l262 -772h4l262 772h224l-240 -608l176 16v-149l-219 18l-102 -260l321 19v-150l-321 19v-625h-226v625l-321 -19v150l321 -19l-102 260l-219 -18v149l176 -16z" />
<glyph unicode="&#xa6;" horiz-adv-x="446" d="M133 -328v799h180v-799h-180zM133 942v778h180v-778h-180z" />
<glyph unicode="&#xa7;" horiz-adv-x="1028" d="M96 801q0 70 22.5 135t59 112t72.5 79.5t72 54.5q-80 112 -80 223q0 155 95 246.5t247 91.5q80 0 146 -25t101 -59l-55 -148q-79 60 -168 60q-76 0 -121 -46.5t-45 -123.5q0 -27 6.5 -52t26.5 -55.5t30.5 -46.5t48 -53.5t47 -46.5t56.5 -53q50 -47 80 -77.5t72 -81 t65 -93.5t40.5 -100.5t17.5 -116.5q0 -83 -38 -163t-83 -129t-92 -81q90 -122 90 -258q0 -147 -103.5 -245.5t-248.5 -98.5q-77 0 -152 24.5t-121 59.5l64 160q78 -58 180 -58q69 0 119.5 47.5t50.5 122.5q0 38 -13 75.5t-29 64.5t-50.5 64t-56 56.5t-66.5 59.5 q-41 36 -59.5 52.5t-55.5 53.5t-55.5 61t-45 63.5t-39 73.5t-22.5 79t-10 92zM281 821q0 -48 15.5 -93.5t37.5 -80t60 -75t69 -68t78.5 -69t76.5 -68.5q49 38 88 101.5t39 135.5q0 54 -19 104.5t-58 99t-74 85t-92.5 90.5t-87.5 86q-51 -33 -92 -99t-41 -149z" />
<glyph unicode="&#xa8;" horiz-adv-x="483" d="M-14 1475q0 40 29 69t69 29t69 -29t29 -69t-29 -69.5t-69 -29.5t-69 29.5t-29 69.5zM301 1475q0 40 29 69t69 29t69.5 -29t29.5 -69t-29.5 -69.5t-69.5 -29.5t-69 29.5t-29 69.5z" />
<glyph unicode="&#xa9;" horiz-adv-x="1671" d="M98 860q0 253 88 452.5t257 315t393 115.5t392.5 -115.5t256.5 -315t88 -452.5t-88 -452.5t-256.5 -315t-392.5 -115.5t-393 115.5t-257 315t-88 452.5zM268 862q0 -219 64.5 -386.5t194.5 -265t309 -97.5t309 97.5t194 265t64 386.5q0 163 -37.5 300.5t-108 238 t-178.5 157t-243 56.5q-179 0 -309 -98t-194.5 -266.5t-64.5 -387.5zM504 870q0 248 98 383.5t266 135.5q122 0 197 -66l-45 -102q-57 41 -133 41q-103 0 -160 -98t-57 -290t58 -290.5t159 -98.5q41 0 77 14t56 31l45 -110q-75 -66 -197 -66q-169 0 -266.5 134t-97.5 382z " />
<glyph unicode="&#xaa;" horiz-adv-x="892" d="M94 1024q0 87 38 155t106 111.5t151 69.5t184 37v49q0 151 -163 151q-63 0 -127 -14.5t-103 -34.5l-45 127q46 26 131.5 46t175.5 20q158 0 243 -76t85 -227v-660q-117 -69 -313 -69q-175 0 -269 90t-94 225zM287 1032q0 -82 48 -136t132 -54q60 0 106 20v418 q-286 -34 -286 -248z" />
<glyph unicode="&#xab;" horiz-adv-x="962" d="M121 778l225 463l121 -53l-152 -410l152 -409l-121 -54zM496 778l227 463l119 -53l-150 -410l150 -409l-119 -54z" />
<glyph unicode="&#xac;" d="M131 737v160h729v-508h-168v348h-561z" />
<glyph unicode="&#xad;" horiz-adv-x="679" d="M117 709v188h446v-188h-446z" />
<glyph unicode="&#xae;" horiz-adv-x="1671" d="M98 860q0 253 88 452.5t257 315t393 115.5t392.5 -115.5t256.5 -315t88 -452.5t-88 -452.5t-256.5 -315t-392.5 -115.5t-393 115.5t-257 315t-88 452.5zM268 862q0 -219 64.5 -386.5t194.5 -265t309 -97.5t309 97.5t194 265t64 386.5q0 163 -37.5 300.5t-108 238 t-178.5 157t-243 56.5q-179 0 -309 -98t-194.5 -266.5t-64.5 -387.5zM592 367v972q96 47 231 47q151 0 229 -74t78 -204q0 -98 -60.5 -164t-143.5 -76l231 -501h-176l-207 507h-29v-507h-153zM745 928q28 -4 58 -4q84 0 128 52.5t44 125.5q0 180 -152 180q-38 0 -78 -12 v-342z" />
<glyph unicode="&#xaf;" horiz-adv-x="483" d="M0 1411v127h483v-127h-483z" />
<glyph unicode="&#xb0;" d="M115 1360q0 158 111.5 270.5t269.5 112.5t269.5 -112.5t111.5 -270.5t-111.5 -269.5t-269.5 -111.5t-269.5 111.5t-111.5 269.5zM283 1362q0 -91 61.5 -154t151.5 -63t151.5 63t61.5 154t-61.5 155t-151.5 64t-151.5 -64t-61.5 -155z" />
<glyph unicode="&#xb1;" d="M131 223v148h729v-148h-729zM131 836v159h281v318h168v-318h280v-159h-278v-320h-170v320h-281z" />
<glyph unicode="&#xb2;" horiz-adv-x="722" d="M76 686l291 563q61 122 61 197q0 68 -37.5 113t-114.5 45q-74 0 -145 -39l-41 116q39 25 97 43.5t116 18.5q142 0 217.5 -79t75.5 -206q0 -90 -96 -264l-197 -350h315v-158h-542z" />
<glyph unicode="&#xb3;" horiz-adv-x="722" d="M82 727l49 125q62 -43 154 -43q68 0 110.5 49.5t42.5 124.5q0 87 -57.5 136.5t-157.5 51.5v109q91 9 147 61t56 127q0 60 -36.5 98t-100.5 38q-70 0 -146 -37l-43 114q40 25 97.5 43.5t111.5 18.5q128 0 202.5 -73.5t74.5 -184.5q0 -72 -45.5 -137t-96.5 -95v-4 q63 -32 112.5 -98.5t49.5 -167.5q0 -136 -87 -227.5t-216 -91.5q-127 0 -221 63z" />
<glyph unicode="&#xb4;" horiz-adv-x="483" d="M135 1376l113 277q55 39 114 39q68 0 87 -39l-209 -277h-105z" />
<glyph unicode="&#xb5;" horiz-adv-x="964" d="M123 -328v1577h217v-1059q69 -38 145 -38q91 0 142 30v1067h215v-1188q-114 -81 -299 -81q-49 0 -109 16t-94 35v-359h-217z" />
<glyph unicode="&#xb6;" d="M33 1339q0 82 22 150t66.5 120.5t118 81.5t170.5 29h518v-129h-92v-1919h-150v1919h-244v-1919h-149v1305q-124 28 -192 123.5t-68 238.5z" />
<glyph unicode="&#xb7;" horiz-adv-x="497" d="M109 803q0 59 40.5 99t98.5 40q59 0 100 -40.5t41 -98.5q0 -59 -41.5 -100t-99.5 -41t-98.5 41t-40.5 100z" />
<glyph unicode="&#xb8;" horiz-adv-x="483" d="M2 -365l45 84q108 -11 176 8t68 52q0 31 -44.5 43t-144.5 6l41 82q25 2 68 2q235 0 235 -127q0 -75 -88.5 -116.5t-234.5 -41.5q-64 0 -121 8z" />
<glyph unicode="&#xb9;" horiz-adv-x="722" d="M98 1577q87 11 165.5 50.5t103.5 92.5h116v-1034h-164v827q-83 -36 -204 -43z" />
<glyph unicode="&#xba;" horiz-adv-x="929" d="M94 1225q0 249 92 382.5t279 133.5t279 -133.5t92 -382.5t-92 -382.5t-279 -133.5t-279 133.5t-92 382.5zM301 1229q0 -187 38.5 -283t125.5 -96t125.5 96t38.5 283t-38.5 283t-125.5 96t-125.5 -96t-38.5 -283z" />
<glyph unicode="&#xbb;" horiz-adv-x="962" d="M121 369l149 409l-149 410l119 53l227 -463l-227 -463zM496 369l151 409l-151 410l120 53l226 -463l-226 -463z" />
<glyph unicode="&#xbc;" horiz-adv-x="1515" d="M61 1561q89 10 165 55t104 104h116v-1034h-163v811q-77 -34 -205 -41zM371 27l628 1720l144 -53l-629 -1721zM870 217v117l330 700h152v-700h65v-117h-65v-217h-160v217h-322zM985 334h213v358l4 119h-4q-18 -60 -43 -113z" />
<glyph unicode="&#xbd;" horiz-adv-x="1515" d="M61 1577q87 11 165.5 50.5t103.5 92.5h116v-1034h-163v827q-82 -36 -205 -43zM330 27l628 1720l142 -53l-629 -1721zM885 0l307 563q63 117 63 197q0 70 -34.5 114t-106.5 44q-71 0 -131 -39l-41 116q39 25 93.5 43.5t105.5 18.5q140 0 210 -77.5t70 -207.5 q0 -106 -96 -264l-211 -350h313v-158h-542z" />
<glyph unicode="&#xbe;" horiz-adv-x="1515" d="M80 727l49 125q62 -43 154 -43q68 0 110.5 49.5t42.5 124.5q0 87 -57.5 136.5t-157.5 51.5v109q91 9 146 61t55 127q0 60 -36.5 98t-100.5 38q-68 0 -144 -37l-45 114q40 25 98.5 43.5t112.5 18.5q128 0 202.5 -73.5t74.5 -184.5q0 -72 -45.5 -137t-96.5 -95v-4 q63 -32 112.5 -98.5t49.5 -167.5q0 -136 -87 -227.5t-216 -91.5q-127 0 -221 63zM420 25l629 1720l143 -53l-629 -1721zM870 217v117l330 700h152v-700h65v-117h-65v-217h-160v217h-322zM985 334h213v358l4 119h-4q-18 -60 -43 -113z" />
<glyph unicode="&#xbf;" horiz-adv-x="835" d="M94 39q0 141 70 253t182 181l21 420h182l22 -469q-114 -53 -183 -152t-69 -202q0 -98 54 -162t153 -64q49 0 99.5 17t81.5 37l59 -164q-47 -33 -124.5 -58.5t-152.5 -25.5q-96 0 -172.5 31.5t-124.5 86t-73 124t-25 147.5zM317 1270q0 58 41.5 98.5t100.5 40.5t99 -40.5 t40 -98.5q0 -59 -40.5 -99.5t-98.5 -40.5q-59 0 -100.5 41t-41.5 99z" />
<glyph unicode="&#xc0;" horiz-adv-x="1046" d="M31 0l370 1720h244l371 -1720h-236l-73 383h-388l-73 -383h-215zM276 2124q19 39 86 39q60 0 115 -39l113 -277h-107zM346 547h334l-133 684q-9 48 -16.5 107t-10.5 94l-4 34h-4q-13 -126 -33 -235z" />
<glyph unicode="&#xc1;" horiz-adv-x="1046" d="M31 0l370 1720h244l371 -1720h-236l-73 383h-388l-73 -383h-215zM346 547h334l-133 684q-9 48 -16.5 107t-10.5 94l-4 34h-4q-13 -126 -33 -235zM457 1847l110 277q55 39 115 39q69 0 88 -39l-209 -277h-104z" />
<glyph unicode="&#xc2;" horiz-adv-x="1046" d="M31 0l370 1720h244l371 -1720h-236l-73 383h-388l-73 -383h-215zM274 1888l183 207q30 33 65 33q38 0 68 -33l182 -207l-51 -63l-199 155l-196 -155zM346 547h334l-133 684q-9 48 -16.5 107t-10.5 94l-4 34h-4q-13 -126 -33 -235z" />
<glyph unicode="&#xc3;" horiz-adv-x="1046" d="M31 0l370 1720h244l371 -1720h-236l-73 383h-388l-73 -383h-215zM256 1933q20 46 63.5 77.5t96.5 31.5q45 0 105.5 -33t103.5 -33q33 0 60.5 16t41.5 40l61 -72q-20 -46 -62.5 -76.5t-96.5 -30.5q-45 0 -106 33t-103 33q-65 0 -103 -55zM346 547h334l-133 684 q-9 48 -16.5 107t-10.5 94l-4 34h-4q-13 -126 -33 -235z" />
<glyph unicode="&#xc4;" horiz-adv-x="1046" d="M31 0l370 1720h244l371 -1720h-236l-73 383h-388l-73 -383h-215zM266 1946q0 40 29.5 69t69.5 29t69 -29t29 -69t-29 -69.5t-69 -29.5t-69.5 29.5t-29.5 69.5zM346 547h334l-133 684q-9 48 -16.5 107t-10.5 94l-4 34h-4q-13 -126 -33 -235zM582 1946q0 40 29 69t69 29 t69 -29t29 -69t-29 -69.5t-69 -29.5t-69 29.5t-29 69.5z" />
<glyph unicode="&#xc5;" horiz-adv-x="1046" d="M31 0l370 1720h244l371 -1720h-236l-73 383h-388l-73 -383h-215zM346 547h334l-133 684q-9 48 -16.5 107t-10.5 94l-4 34h-4q-13 -126 -33 -235zM354 2003q0 71 49 119.5t119 48.5q71 0 120.5 -49t49.5 -119t-49.5 -119t-120.5 -49q-70 0 -119 48.5t-49 119.5zM436 2003 q0 -37 24.5 -62.5t61.5 -25.5t61.5 25.5t24.5 62.5t-25 63.5t-61 26.5t-61 -26.5t-25 -63.5z" />
<glyph unicode="&#xc6;" horiz-adv-x="1368" d="M4 0l467 1720h723v-180h-455l101 -569h354v-180h-330l105 -607h346v-184h-547l-55 383h-394l-98 -383h-217zM354 547h340l-98 692q-7 49 -12.5 108t-7.5 93l-1 35h-4q-18 -127 -45 -236z" />
<glyph unicode="&#xc7;" horiz-adv-x="872" d="M96 860q0 431 123.5 657t362.5 226q76 0 137 -24.5t96 -59.5l-53 -160q-25 21 -67.5 35t-82.5 14q-284 0 -284 -682t284 -682q90 0 150 49l53 -172q-35 -35 -95 -59.5t-138 -24.5q-239 0 -362.5 226t-123.5 657zM236 -365l45 84q108 -11 175.5 8t67.5 52q0 31 -44 43 t-144 6l41 82q25 2 67 2q236 0 236 -127q0 -75 -89 -116.5t-235 -41.5q-63 0 -120 8z" />
<glyph unicode="&#xc8;" horiz-adv-x="815" d="M131 0v1720h584v-180h-361v-569h322v-180h-322v-605h361v-186h-584zM199 2124q19 39 86 39q59 0 114 -39l113 -277h-104z" />
<glyph unicode="&#xc9;" horiz-adv-x="815" d="M131 0v1720h584v-180h-361v-569h322v-180h-322v-605h361v-186h-584zM326 1847l112 277q55 39 115 39q67 0 86 -39l-207 -277h-106z" />
<glyph unicode="&#xca;" horiz-adv-x="815" d="M131 0v1720h584v-180h-361v-569h322v-180h-322v-605h361v-186h-584zM174 1888l182 207q30 33 66 33q37 0 67 -33l183 -207l-51 -63l-199 155l-197 -155z" />
<glyph unicode="&#xcb;" horiz-adv-x="815" d="M131 0v1720h584v-180h-361v-569h322v-180h-322v-605h361v-186h-584zM166 1946q0 40 29 69t69 29t69 -29t29 -69t-29 -69.5t-69 -29.5t-69 29.5t-29 69.5zM483 1946q0 40 29.5 69t69.5 29t69 -29t29 -69t-29 -69.5t-69 -29.5t-69.5 29.5t-29.5 69.5z" />
<glyph unicode="&#xcc;" horiz-adv-x="497" d="M14 2124q19 39 88 39q60 0 115 -39l111 -277h-105zM137 0v1720h223v-1720h-223z" />
<glyph unicode="&#xcd;" horiz-adv-x="497" d="M137 0v1720h223v-1720h-223zM170 1847l113 277q55 39 114 39q67 0 86 -39l-207 -277h-106z" />
<glyph unicode="&#xce;" horiz-adv-x="497" d="M0 1888l182 207q30 33 68 33q35 0 65 -33l183 -207l-52 -63l-196 155l-199 -155zM137 0v1720h223v-1720h-223z" />
<glyph unicode="&#xcf;" horiz-adv-x="497" d="M-8 1946q0 40 29 69t69 29t69 -29t29 -69t-29 -69.5t-69 -29.5t-69 29.5t-29 69.5zM135 0v1720h223v-1720h-223zM307 1946q0 40 29.5 69t69.5 29t69 -29t29 -69t-29 -69.5t-69 -29.5t-69.5 29.5t-29.5 69.5z" />
<glyph unicode="&#xd0;" horiz-adv-x="1105" d="M68 791v178h94v690q129 84 325 84q262 0 392.5 -230.5t130.5 -650.5q0 -203 -31.5 -364t-94.5 -277.5t-163.5 -178.5t-233.5 -62q-211 0 -325 81v730h-94zM381 188q45 -18 113 -18q290 0 290 694q0 701 -290 701q-66 0 -113 -19v-577h180v-178h-180v-603z" />
<glyph unicode="&#xd1;" horiz-adv-x="1140" d="M131 0v1720h205l426 -1093q15 -38 30 -84t23 -73l8 -26h4q-4 101 -4 187v1089h187v-1720h-183l-448 1147q-16 39 -31.5 85t-23.5 72l-7 27h-4q4 -100 4 -188v-1143h-186zM301 1933q20 46 63.5 77.5t96.5 31.5q45 0 106 -33t103 -33q33 0 60.5 16t41.5 40l62 -72 q-20 -46 -63 -76.5t-97 -30.5q-46 0 -106 33t-103 33q-65 0 -103 -55z" />
<glyph unicode="&#xd2;" horiz-adv-x="1089" d="M96 860q0 214 25 374.5t78.5 276t140 174t205.5 58.5q234 0 341 -224.5t107 -658.5t-107 -658.5t-341 -224.5q-119 0 -205.5 58.5t-140 174t-78.5 276t-25 374.5zM307 2124q19 39 86 39q60 0 115 -39l113 -277h-107zM326 866q0 -362 51 -529t168 -167t168 167t51 529 t-51 530.5t-168 168.5t-168 -168.5t-51 -530.5z" />
<glyph unicode="&#xd3;" horiz-adv-x="1089" d="M96 860q0 214 25 374.5t78.5 276t140 174t205.5 58.5q234 0 341 -224.5t107 -658.5t-107 -658.5t-341 -224.5q-119 0 -205.5 58.5t-140 174t-78.5 276t-25 374.5zM326 866q0 -362 51 -529t168 -167t168 167t51 529t-51 530.5t-168 168.5t-168 -168.5t-51 -530.5z M469 1847l111 277q55 39 114 39q69 0 88 -39l-209 -277h-104z" />
<glyph unicode="&#xd4;" horiz-adv-x="1089" d="M96 860q0 214 25 374.5t78.5 276t140 174t205.5 58.5q234 0 341 -224.5t107 -658.5t-107 -658.5t-341 -224.5q-119 0 -205.5 58.5t-140 174t-78.5 276t-25 374.5zM295 1888l182 207q30 33 68 33q35 0 65 -33l183 -207l-52 -63l-196 155l-199 -155zM326 866 q0 -362 51 -529t168 -167t168 167t51 529t-51 530.5t-168 168.5t-168 -168.5t-51 -530.5z" />
<glyph unicode="&#xd5;" horiz-adv-x="1089" d="M96 860q0 214 25 374.5t78.5 276t140 174t205.5 58.5q234 0 341 -224.5t107 -658.5t-107 -658.5t-341 -224.5q-119 0 -205.5 58.5t-140 174t-78.5 276t-25 374.5zM285 1933q20 47 63 78t96 31q46 0 106 -33t103 -33q33 0 61 16t42 40l61 -72q-20 -46 -63 -76.5t-97 -30.5 q-45 0 -105 33t-103 33q-65 0 -103 -55zM326 866q0 -362 51 -529t168 -167t168 167t51 529t-51 530.5t-168 168.5t-168 -168.5t-51 -530.5z" />
<glyph unicode="&#xd6;" horiz-adv-x="1089" d="M96 860q0 214 25 374.5t78.5 276t140 174t205.5 58.5q234 0 341 -224.5t107 -658.5t-107 -658.5t-341 -224.5q-119 0 -205.5 58.5t-140 174t-78.5 276t-25 374.5zM289 1946q0 40 29 69t69 29t69 -29t29 -69t-29 -69.5t-69 -29.5t-69 29.5t-29 69.5zM326 866 q0 -362 51 -529t168 -167t168 167t51 529t-51 530.5t-168 168.5t-168 -168.5t-51 -530.5zM604 1946q0 40 29 69t69 29t69.5 -29t29.5 -69t-29.5 -69.5t-69.5 -29.5t-69 29.5t-29 69.5z" />
<glyph unicode="&#xd7;" d="M121 489l268 330l-268 330l129 100l246 -301l245 301l129 -100l-268 -332l268 -328l-129 -102l-245 303l-246 -303z" />
<glyph unicode="&#xd8;" horiz-adv-x="1089" d="M96 860q0 214 25 374.5t78.5 276t140 174t205.5 58.5q165 0 268 -115l92 223l86 -39l-114 -274q116 -215 116 -678q0 -434 -107 -658.5t-341 -224.5q-168 0 -271 115l-92 -221l-84 37l115 276q-117 217 -117 676zM311 866q0 -218 23 -389l387 930q-54 166 -176 166 q-124 0 -179 -170.5t-55 -536.5zM371 319q54 -159 174 -159q124 0 177.5 169.5t53.5 536.5q0 237 -20 383z" />
<glyph unicode="&#xd9;" horiz-adv-x="1052" d="M131 389v1331h223v-1335q0 -98 50 -154.5t131 -56.5t130.5 56.5t49.5 154.5v1335h207v-1331q0 -192 -111 -302t-285 -110t-284.5 110t-110.5 302zM299 2124q19 39 86 39q60 0 115 -39l112 -277h-106z" />
<glyph unicode="&#xda;" horiz-adv-x="1052" d="M131 389v1331h223v-1335q0 -98 50 -154.5t131 -56.5t130.5 56.5t49.5 154.5v1335h207v-1331q0 -192 -111 -302t-285 -110t-284.5 110t-110.5 302zM455 1847l110 277q55 39 115 39q69 0 88 -39l-209 -277h-104z" />
<glyph unicode="&#xdb;" horiz-adv-x="1052" d="M131 389v1331h223v-1335q0 -98 50 -154.5t131 -56.5t130.5 56.5t49.5 154.5v1335h207v-1331q0 -192 -111 -302t-285 -110t-284.5 110t-110.5 302zM281 1888l184 207q30 33 65 33q36 0 66 -33l184 -207l-51 -63l-199 155l-198 -155z" />
<glyph unicode="&#xdc;" horiz-adv-x="1052" d="M131 389v1331h223v-1335q0 -98 50 -154.5t131 -56.5t130.5 56.5t49.5 154.5v1335h207v-1331q0 -192 -111 -302t-285 -110t-284.5 110t-110.5 302zM279 1946q0 40 29 69t69 29t69 -29t29 -69t-29 -69.5t-69 -29.5t-69 29.5t-29 69.5zM594 1946q0 40 29 69t69 29t69.5 -29 t29.5 -69t-29.5 -69.5t-69.5 -29.5t-69 29.5t-29 69.5z" />
<glyph unicode="&#xdd;" horiz-adv-x="960" d="M23 1720h243l221 -745h5l223 745h223l-346 -979v-741h-223v741zM422 1847l110 277q55 39 115 39q69 0 88 -39l-209 -277h-104z" />
<glyph unicode="&#xde;" horiz-adv-x="987" d="M131 0v1720h219v-329q35 14 105 14q122 0 212.5 -35.5t145 -101t81 -151.5t26.5 -193q0 -228 -126.5 -362t-357.5 -134q-36 0 -86 8v-436h-219zM350 600q30 -6 78 -6q268 0 268 328q0 158 -55 236.5t-182 78.5q-55 0 -109 -20v-617z" />
<glyph unicode="&#xdf;" horiz-adv-x="1046" d="M123 0v1174q0 273 98.5 421t294.5 148q186 0 286.5 -133t100.5 -342q0 -53 -7.5 -119.5t-16.5 -99.5q-89 -27 -133 -76t-44 -129q0 -50 27.5 -98.5t66 -91.5t77.5 -90t66.5 -112.5t27.5 -140.5q0 -144 -84 -237.5t-226 -93.5q-61 0 -123.5 25t-93.5 56l43 160 q16 -18 57 -34.5t78 -16.5q62 0 97 42t35 110q0 54 -26.5 106t-64 95t-75 88t-64 105.5t-26.5 127.5q0 99 51.5 165t130.5 101q10 62 10 154q0 316 -170 313q-93 -1 -134.5 -94.5t-41.5 -292.5v-1190h-217z" />
<glyph unicode="&#xe0;" horiz-adv-x="909" d="M78 373q0 111 38.5 196.5t109.5 140t157.5 86t194.5 46.5v63q0 193 -172 193q-121 0 -234 -64l-47 154q50 33 135 57.5t180 24.5q168 0 257 -95t89 -284v-825q-123 -86 -331 -86q-184 0 -280.5 111.5t-96.5 281.5zM229 1653q19 39 86 39q60 0 115 -39l113 -277h-107z M285 385q0 -106 46 -174t134 -68q68 0 113 25v528q-142 -22 -217.5 -94t-75.5 -217z" />
<glyph unicode="&#xe1;" horiz-adv-x="909" d="M78 373q0 111 38.5 196.5t109.5 140t157.5 86t194.5 46.5v63q0 193 -172 193q-121 0 -234 -64l-47 154q50 33 135 57.5t180 24.5q168 0 257 -95t89 -284v-825q-123 -86 -331 -86q-184 0 -280.5 111.5t-96.5 281.5zM285 385q0 -106 46 -174t134 -68q68 0 113 25v528 q-142 -22 -217.5 -94t-75.5 -217zM371 1376l110 277q55 39 115 39q69 0 88 -39l-209 -277h-104z" />
<glyph unicode="&#xe2;" horiz-adv-x="909" d="M78 373q0 111 38.5 196.5t109.5 140t157.5 86t194.5 46.5v63q0 193 -172 193q-121 0 -234 -64l-47 154q50 33 135 57.5t180 24.5q168 0 257 -95t89 -284v-825q-123 -86 -331 -86q-184 0 -280.5 111.5t-96.5 281.5zM195 1417l184 207q30 33 65 33q36 0 66 -33l184 -207 l-51 -63l-199 155l-198 -155zM285 385q0 -106 46 -174t134 -68q68 0 113 25v528q-142 -22 -217.5 -94t-75.5 -217z" />
<glyph unicode="&#xe3;" horiz-adv-x="909" d="M78 373q0 111 38.5 196.5t109.5 140t157.5 86t194.5 46.5v63q0 193 -172 193q-121 0 -234 -64l-47 154q50 33 135 57.5t180 24.5q168 0 257 -95t89 -284v-825q-123 -86 -331 -86q-184 0 -280.5 111.5t-96.5 281.5zM186 1462q20 46 63.5 77.5t96.5 31.5q46 0 107 -33 t104 -33q33 0 60.5 16t41.5 40l60 -72q-20 -46 -62.5 -76.5t-95.5 -30.5q-45 0 -107 33t-104 33q-64 0 -102 -55zM285 385q0 -106 46 -174t134 -68q68 0 113 25v528q-142 -22 -217.5 -94t-75.5 -217z" />
<glyph unicode="&#xe4;" horiz-adv-x="909" d="M78 373q0 111 38.5 196.5t109.5 140t157.5 86t194.5 46.5v63q0 193 -172 193q-121 0 -234 -64l-47 154q50 33 135 57.5t180 24.5q168 0 257 -95t89 -284v-825q-123 -86 -331 -86q-184 0 -280.5 111.5t-96.5 281.5zM209 1475q0 40 29 69t69 29t69.5 -29t29.5 -69 t-29.5 -69.5t-69.5 -29.5t-69 29.5t-29 69.5zM285 385q0 -106 46 -174t134 -68q68 0 113 25v528q-142 -22 -217.5 -94t-75.5 -217zM524 1475q0 40 29.5 69t69.5 29t69 -29t29 -69t-29 -69.5t-69 -29.5t-69.5 29.5t-29.5 69.5z" />
<glyph unicode="&#xe5;" horiz-adv-x="909" d="M78 373q0 111 38.5 196.5t109.5 140t157.5 86t194.5 46.5v63q0 193 -172 193q-121 0 -234 -64l-47 154q50 33 135 57.5t180 24.5q168 0 257 -95t89 -284v-825q-123 -86 -331 -86q-184 0 -280.5 111.5t-96.5 281.5zM285 385q0 -106 46 -174t134 -68q68 0 113 25v528 q-142 -22 -217.5 -94t-75.5 -217zM293 1532q0 70 49.5 119t120.5 49t119.5 -49t48.5 -119t-48.5 -119t-119.5 -49t-120.5 49t-49.5 119zM375 1532q0 -37 25.5 -62.5t62.5 -25.5t61.5 25.5t24.5 62.5t-25 63.5t-61 26.5q-37 0 -62.5 -26.5t-25.5 -63.5z" />
<glyph unicode="&#xe6;" horiz-adv-x="1421" d="M78 373q0 111 39 196.5t110 140t158 86t195 46.5v63q0 92 -44.5 142.5t-129.5 50.5q-121 0 -234 -64l-47 154q50 34 129.5 58t161.5 24q65 0 114.5 -13.5t81 -39.5t50.5 -52.5t34 -62.5q35 69 105 118.5t162 49.5q183 0 275.5 -161.5t92.5 -438.5q0 -66 -2 -99l-553 -67 q8 -154 68 -246t166 -92q157 0 241 59l54 -164q-48 -35 -127 -58t-177 -23q-110 0 -189 58t-112 132q-27 -79 -91 -134.5t-175 -55.5q-167 0 -261.5 105.5t-94.5 287.5zM285 385q0 -109 41.5 -175.5t115.5 -66.5q60 0 99 48t39 124v381q-142 -22 -218.5 -94.5t-76.5 -216.5z M772 653l344 43q-2 96 -10.5 168.5t-26.5 130t-50 87.5t-77 30q-89 0 -136 -121.5t-44 -337.5z" />
<glyph unicode="&#xe7;" horiz-adv-x="765" d="M90 625q0 315 100.5 480t284.5 165q145 0 227 -82l-53 -146q-59 54 -137 54q-98 0 -149.5 -117.5t-51.5 -349.5q0 -229 53 -346t148 -117q88 0 137 53l53 -158q-77 -81 -225 -81q-185 0 -286 164.5t-101 480.5zM168 -365l43 84q108 -11 176 8t68 52q0 31 -44.5 43 t-144.5 6l41 82q25 2 70 2q120 0 176.5 -31t56.5 -96q0 -75 -88.5 -116.5t-234.5 -41.5q-62 0 -119 8z" />
<glyph unicode="&#xe8;" horiz-adv-x="952" d="M90 608q0 328 103 495t296 167q127 0 212 -77t123 -208.5t38 -314.5q0 -33 -4 -99l-551 -67q3 -146 66 -242t168 -96q153 0 239 59l56 -164q-48 -35 -129 -58t-183 -23q-210 0 -322 164.5t-112 463.5zM246 1653q19 39 86 39q59 0 114 -39l113 -277h-106zM303 653l344 43 q-2 96 -11 168.5t-27.5 130t-50.5 87.5t-77 30q-89 0 -135 -121t-43 -338z" />
<glyph unicode="&#xe9;" horiz-adv-x="952" d="M90 608q0 328 103 495t296 167q127 0 212 -77t123 -208.5t38 -314.5q0 -33 -4 -99l-551 -67q3 -146 66 -242t168 -96q153 0 239 59l56 -164q-48 -35 -129 -58t-183 -23q-210 0 -322 164.5t-112 463.5zM303 653l344 43q-2 96 -11 168.5t-27.5 130t-50.5 87.5t-77 30 q-89 0 -135 -121t-43 -338zM401 1376l111 277q55 39 115 39q69 0 88 -39l-209 -277h-105z" />
<glyph unicode="&#xea;" horiz-adv-x="952" d="M90 608q0 328 103 495t296 167q127 0 212 -77t123 -208.5t38 -314.5q0 -33 -4 -99l-551 -67q3 -146 66 -242t168 -96q153 0 239 59l56 -164q-48 -35 -129 -58t-183 -23q-210 0 -322 164.5t-112 463.5zM233 1417l183 207q30 33 67 33q36 0 66 -33l182 -207l-51 -63 l-197 155l-198 -155zM303 653l344 43q-2 96 -11 168.5t-27.5 130t-50.5 87.5t-77 30q-89 0 -135 -121t-43 -338z" />
<glyph unicode="&#xeb;" horiz-adv-x="952" d="M90 608q0 328 103 495t296 167q127 0 212 -77t123 -208.5t38 -314.5q0 -33 -4 -99l-551 -67q3 -146 66 -242t168 -96q153 0 239 59l56 -164q-48 -35 -129 -58t-183 -23q-210 0 -322 164.5t-112 463.5zM229 1475q0 40 29.5 69t69.5 29t69 -29t29 -69t-29 -69.5t-69 -29.5 t-69.5 29.5t-29.5 69.5zM303 653l344 43q-2 96 -11 168.5t-27.5 130t-50.5 87.5t-77 30q-89 0 -135 -121t-43 -338zM545 1475q0 40 29 69t69 29t69 -29t29 -69t-29 -69.5t-69 -29.5t-69 29.5t-29 69.5z" />
<glyph unicode="&#xec;" horiz-adv-x="473" d="M6 1653q19 39 88 39q60 0 115 -39l110 -277h-104zM129 0v1249h215v-1249h-215z" />
<glyph unicode="&#xed;" horiz-adv-x="473" d="M129 0v1249h215v-1249h-215zM154 1376l110 277q55 39 115 39q69 0 88 -39l-209 -277h-104z" />
<glyph unicode="&#xee;" horiz-adv-x="473" d="M-12 1417l182 207q30 33 68 33q35 0 65 -33l182 -207l-51 -63l-196 155l-199 -155zM129 0v1249h215v-1249h-215z" />
<glyph unicode="&#xef;" horiz-adv-x="473" d="M-20 1475q0 40 29 69t69 29t69 -29t29 -69t-29 -69.5t-69 -29.5t-69 29.5t-29 69.5zM129 0v1249h215v-1249h-215zM297 1475q0 40 29 69t69 29t69.5 -29t29.5 -69t-29.5 -69.5t-69.5 -29.5t-69 29.5t-29 69.5z" />
<glyph unicode="&#xf0;" horiz-adv-x="954" d="M90 627q0 304 98.5 470.5t272.5 166.5q39 0 92 -17q-33 102 -84 205l-152 -55q-47 94 -59 110l152 56q-37 60 -82 118l182 62q48 -61 82 -117l141 51q27 -36 62 -106l-142 -51q100 -193 153.5 -425.5t53.5 -467.5q0 -312 -95 -479.5t-290 -167.5t-290 167.5t-95 479.5z M309 631q0 -239 37 -359t129 -120t129 120t37 359t-53 469q-40 14 -92 14q-187 0 -187 -483z" />
<glyph unicode="&#xf1;" horiz-adv-x="966" d="M123 0v1188q142 82 348 82q373 0 373 -342v-928h-217v920q0 91 -37.5 138.5t-122.5 47.5q-75 0 -127 -25v-1081h-217zM201 1462q20 47 63 78t96 31q46 0 106 -33t103 -33q33 0 61 16t42 40l61 -72q-20 -46 -63 -76.5t-97 -30.5q-45 0 -105.5 33t-102.5 33q-65 0 -103 -55 z" />
<glyph unicode="&#xf2;" horiz-adv-x="950" d="M90 625q0 312 95 478.5t290 166.5t290 -166.5t95 -478.5t-95 -478.5t-290 -166.5t-290 166.5t-95 478.5zM236 1653q19 39 88 39q59 0 114 -39l111 -277h-105zM309 631q0 -239 37 -359t129 -120t129 120t37 359t-37 358t-129 119t-129 -119t-37 -358z" />
<glyph unicode="&#xf3;" horiz-adv-x="950" d="M90 625q0 312 95 478.5t290 166.5t290 -166.5t95 -478.5t-95 -478.5t-290 -166.5t-290 166.5t-95 478.5zM309 631q0 -239 37 -359t129 -120t129 120t37 359t-37 358t-129 119t-129 -119t-37 -358zM401 1376l111 277q55 39 115 39q69 0 88 -39l-209 -277h-105z" />
<glyph unicode="&#xf4;" horiz-adv-x="950" d="M90 625q0 312 95 478.5t290 166.5t290 -166.5t95 -478.5t-95 -478.5t-290 -166.5t-290 166.5t-95 478.5zM225 1417l185 207q30 33 65 33q36 0 66 -33l184 -207l-51 -63l-199 155l-199 -155zM309 631q0 -239 37 -359t129 -120t129 120t37 359t-37 358t-129 119t-129 -119 t-37 -358z" />
<glyph unicode="&#xf5;" horiz-adv-x="950" d="M90 625q0 312 95 478.5t290 166.5t290 -166.5t95 -478.5t-95 -478.5t-290 -166.5t-290 166.5t-95 478.5zM209 1462q20 47 62.5 78t95.5 31q45 0 107 -33t104 -33q33 0 60.5 16t41.5 40l61 -72q-20 -46 -62.5 -76.5t-96.5 -30.5q-46 0 -107 33t-104 33q-65 0 -103 -55z M309 631q0 -239 37 -359t129 -120t129 120t37 359t-37 358t-129 119t-129 -119t-37 -358z" />
<glyph unicode="&#xf6;" horiz-adv-x="950" d="M90 625q0 312 95 478.5t290 166.5t290 -166.5t95 -478.5t-95 -478.5t-290 -166.5t-290 166.5t-95 478.5zM219 1475q0 40 29 69t69 29t69.5 -29t29.5 -69t-29.5 -69.5t-69.5 -29.5t-69 29.5t-29 69.5zM309 631q0 -239 37 -359t129 -120t129 120t37 359t-37 358t-129 119 t-129 -119t-37 -358zM535 1475q0 40 29 69t69 29t69 -29t29 -69t-29 -69.5t-69 -29.5t-69 29.5t-29 69.5z" />
<glyph unicode="&#xf7;" d="M131 737v160h729v-160h-729zM381 508q0 47 34 81t81 34t80.5 -34t33.5 -81t-33.5 -81t-80.5 -34t-81 34t-34 81zM381 1126q0 47 34 81t81 34t80.5 -34t33.5 -81t-33.5 -80.5t-80.5 -33.5t-81 33.5t-34 80.5z" />
<glyph unicode="&#xf8;" horiz-adv-x="950" d="M90 625q0 645 385 645q134 0 221 -78l86 180l76 -39l-100 -215q102 -157 102 -493q0 -645 -385 -645q-135 0 -221 77l-84 -180l-78 39l103 213q-105 162 -105 496zM299 631q0 -152 14 -250l295 625q-41 110 -133 110q-50 0 -85 -32.5t-54.5 -97.5t-28 -150.5t-8.5 -204.5 zM344 248q42 -105 131 -105q50 0 85 33t54.5 98.5t28 151.5t8.5 205q0 135 -12 237z" />
<glyph unicode="&#xf9;" horiz-adv-x="964" d="M123 344v905h217v-925q0 -170 154 -170q94 0 133 28v1067h215v-1188q-53 -35 -147 -58t-206 -23q-366 0 -366 364zM250 1653q19 39 88 39q60 0 115 -39l112 -277h-106z" />
<glyph unicode="&#xfa;" horiz-adv-x="964" d="M123 344v905h217v-925q0 -170 154 -170q94 0 133 28v1067h215v-1188q-53 -35 -147 -58t-206 -23q-366 0 -366 364zM401 1376l113 277q55 39 115 39q67 0 86 -39l-209 -277h-105z" />
<glyph unicode="&#xfb;" horiz-adv-x="964" d="M123 344v905h217v-925q0 -170 154 -170q94 0 133 28v1067h215v-1188q-53 -35 -147 -58t-206 -23q-366 0 -366 364zM233 1417l183 207q30 33 67 33q36 0 66 -33l182 -207l-51 -63l-197 155l-198 -155z" />
<glyph unicode="&#xfc;" horiz-adv-x="964" d="M123 344v905h217v-925q0 -170 154 -170q94 0 133 28v1067h215v-1188q-53 -35 -147 -58t-206 -23q-366 0 -366 364zM227 1475q0 40 29.5 69t69.5 29t69 -29t29 -69t-29 -69.5t-69 -29.5t-69.5 29.5t-29.5 69.5zM543 1475q0 40 29 69t69 29t69 -29t29 -69t-29 -69.5 t-69 -29.5t-69 29.5t-29 69.5z" />
<glyph unicode="&#xfd;" horiz-adv-x="917" d="M49 1249h225l158 -762q9 -44 17 -97t12 -84l4 -32h4q13 115 33 213l160 762h206l-395 -1577h-219l111 355zM395 1376l113 277q55 39 115 39q67 0 86 -39l-207 -277h-107z" />
<glyph unicode="&#xfe;" horiz-adv-x="958" d="M123 -328v2048h217v-493q72 39 168 39q172 0 267 -164.5t95 -448.5q0 -322 -109.5 -494.5t-322.5 -172.5q-49 0 -98 18v-332h-217zM340 172q38 -20 98 -20q113 0 163 125.5t50 363.5q0 232 -47.5 348.5t-150.5 116.5q-57 0 -113 -29v-905z" />
<glyph unicode="&#xff;" horiz-adv-x="917" d="M49 1249h225l158 -762q9 -44 17 -97t12 -84l4 -32h4q13 115 33 213l160 762h206l-395 -1577h-219l111 355zM213 1475q0 40 29 69t69 29t69.5 -29t29.5 -69t-29.5 -69.5t-69.5 -29.5t-69 29.5t-29 69.5zM528 1475q0 40 29.5 69t69.5 29t69 -29t29 -69t-29 -69.5t-69 -29.5 t-69.5 29.5t-29.5 69.5z" />
<glyph unicode="&#x2000;" horiz-adv-x="1085" />
<glyph unicode="&#x2001;" horiz-adv-x="2171" />
<glyph unicode="&#x2002;" horiz-adv-x="1085" />
<glyph unicode="&#x2003;" horiz-adv-x="2171" />
<glyph unicode="&#x2004;" horiz-adv-x="723" />
<glyph unicode="&#x2005;" horiz-adv-x="542" />
<glyph unicode="&#x2006;" horiz-adv-x="361" />
<glyph unicode="&#x2007;" horiz-adv-x="361" />
<glyph unicode="&#x2008;" horiz-adv-x="271" />
<glyph unicode="&#x2009;" horiz-adv-x="434" />
<glyph unicode="&#x200a;" horiz-adv-x="120" />
<glyph unicode="&#x2010;" horiz-adv-x="679" d="M117 709v188h446v-188h-446z" />
<glyph unicode="&#x2011;" horiz-adv-x="679" d="M117 709v188h446v-188h-446z" />
<glyph unicode="&#x2012;" horiz-adv-x="679" d="M117 709v188h446v-188h-446z" />
<glyph unicode="&#x2013;" horiz-adv-x="1257" d="M117 709v188h1024v-188h-1024z" />
<glyph unicode="&#x2014;" horiz-adv-x="2281" d="M117 709v188h2048v-188h-2048z" />
<glyph unicode="&#x202f;" horiz-adv-x="434" />
<glyph unicode="&#x205f;" horiz-adv-x="542" />
<glyph unicode="&#xe000;" horiz-adv-x="1249" d="M0 0v1249h1249v-1249h-1249z" />
<glyph unicode="&#xfb01;" horiz-adv-x="1097" d="M70 1092v157h108v152q0 170 78 251t221 81q33 0 68 -7v-155q-12 2 -41 2q-111 0 -111 -168v-156h152v-157h-152v-1092h-215v1092h-108zM737 1618q0 51 36 87t87 36t87 -36t36 -87t-36 -87t-87 -36t-87 36t-36 87zM752 0v1249h217v-1249h-217z" />
<glyph unicode="&#xfb02;" horiz-adv-x="1097" d="M70 1092v157h108v152q0 170 78 251t221 81q33 0 68 -7v-155q-12 2 -41 2q-111 0 -111 -168v-156h152v-157h-152v-1092h-215v1092h-108zM752 0v1720h217v-1720h-217z" />
</font>
</defs>
</svg>
