<svg width="90" height="19" viewBox="0 0 90 19" fill="none" xmlns="http://www.w3.org/2000/svg">
    <g clip-path="url(#clip0_1586_1071)">
    <path d="M15.47 9.37872H12.6664V5.97431H9.24526V3.17067H15.47V9.37872ZM18.574 18.7409V0.0666504H11.6651H-0.0834961V12.4827C-0.0834961 15.9372 2.72014 18.7409 6.17462 18.7409H18.574Z" fill="#FFDC09"/>
    <path d="M54.8709 10.8641H53.2188V18.7243H54.8876L54.8709 10.8641ZM46.193 10.8641H44.5242V18.7243H46.193V15.4868H49.4973V18.741H51.1494V10.8641H50.3317C49.8644 10.8641 49.4806 11.2479 49.4806 11.7152V13.9514H46.1763V10.8641H46.193ZM34.094 10.8641H32.4418V18.7243H34.094V10.8641ZM27.669 12.3994C28.8205 12.3994 29.3712 12.7332 29.3712 13.5342C29.3712 14.3019 28.8038 14.7024 27.669 14.7024H26.4507V12.3994H27.669ZM27.9527 10.8641H24.7652V18.7243H26.4341V16.2377H27.9527C28.8539 16.2377 29.6048 15.9874 30.1722 15.4868C30.7396 14.9861 31.0233 14.3186 31.0233 13.5008C31.0233 12.6998 30.7396 12.049 30.1889 11.5817C29.6215 11.0977 28.8872 10.8641 27.9527 10.8641ZM29.5214 5.47378C29.5214 6.14131 29.0374 6.39163 28.1029 6.39163H26.4341V4.62267H28.1529C29.0708 4.62267 29.5214 4.90638 29.5214 5.47378ZM29.3378 2.40313C29.3378 2.93716 28.9039 3.22086 28.0361 3.22086H26.4507V1.60209H27.9694C28.9373 1.60209 29.3378 1.81904 29.3378 2.40313ZM30.2056 3.83832C30.7396 3.42112 31.0066 2.88709 31.0066 2.25294C31.0066 0.851119 29.9386 0.0834576 28.2865 0.0834576H24.7485V7.94365H28.47C29.2878 7.94365 29.9386 7.7267 30.4392 7.30949C30.9399 6.87559 31.1902 6.32488 31.1902 5.64066C31.2069 4.90638 30.8731 4.3056 30.2056 3.83832ZM36.714 4.90638H34.7615L35.7461 2.33638L36.714 4.90638ZM37.8822 7.92696H39.6011L36.7474 0.600795C36.6139 0.267029 36.3135 0.0667693 35.9631 0.0667693H34.9451L31.8744 7.92696H33.61L34.2275 6.37495H37.2648L37.8822 7.92696ZM39.7346 10.7473C38.5498 10.7473 37.5818 11.1144 36.7975 11.8654C36.0131 12.5997 35.6126 13.601 35.6126 14.8192C35.6126 16.0375 36.0131 17.0054 36.7975 17.7564C37.5985 18.4907 38.5998 18.8745 39.7847 18.8745C41.1031 18.8745 42.1711 18.3738 42.9888 17.3892L41.8707 16.2044C41.3367 16.9386 40.6191 17.3058 39.7346 17.3058C39.0504 17.3058 38.483 17.0888 38.0157 16.6382C37.5485 16.1877 37.3148 15.5702 37.3148 14.8025C37.3148 14.0349 37.5485 13.4341 38.0157 13.0002C38.483 12.5496 39.0337 12.3327 39.6345 12.3327C40.2353 12.3327 40.786 12.5162 41.2199 12.8667C41.5537 13.1337 42.0376 13.0836 42.338 12.7833L42.8553 12.2492C42.071 11.2312 41.0196 10.7473 39.7346 10.7473ZM46.1596 7.92696H47.6783V0.0667693H46.0261V5.39034L43.089 0.483977C42.9388 0.233652 42.6551 0.0667693 42.3547 0.0667693H40.8361V7.92696H42.5049V2.62008L45.442 7.50975C45.5922 7.77676 45.8592 7.92696 46.1596 7.92696ZM51.6167 5.82423C51.1494 5.37365 50.9158 4.75618 50.9158 3.98852C50.9158 3.22086 51.1494 2.62008 51.6167 2.18618C52.084 1.7356 52.618 1.51865 53.2355 1.51865C53.8362 1.51865 54.387 1.71891 54.8375 2.05268C55.1713 2.31969 55.6386 2.25294 55.939 1.95255L56.4563 1.43521C55.6553 0.4506 54.6206 -0.0500488 53.3356 -0.0500488C52.1507 -0.0500488 51.1828 0.317094 50.3985 1.06807C49.6141 1.80235 49.2136 2.78696 49.2136 4.0219C49.2136 5.24014 49.6141 6.20806 50.3985 6.94235C51.1995 7.67663 52.1841 8.06046 53.3857 8.06046C54.704 8.06046 55.7721 7.55981 56.5898 6.57521L55.4717 5.39034C54.9377 6.12462 54.2201 6.49176 53.3356 6.49176C52.6347 6.49176 52.0673 6.27482 51.6167 5.82423ZM58.4422 10.8641H56.9069V18.7243H58.5757V13.4341L61.4962 18.3238C61.6464 18.5741 61.9301 18.741 62.2305 18.741H63.7491V10.8641H62.097V16.1877L59.1598 11.2646C59.0096 11.031 58.7426 10.8641 58.4422 10.8641ZM63.8158 3.98852C63.8158 4.68943 63.5989 5.27352 63.1817 5.75748C62.7645 6.24144 62.1971 6.47508 61.4795 6.47508C60.7452 6.47508 60.1778 6.24144 59.7606 5.75748C59.3434 5.27352 59.1264 4.68943 59.1264 3.98852C59.1264 3.28761 59.3434 2.70352 59.7606 2.23625C60.1945 1.75229 60.7786 1.51865 61.4795 1.51865C62.1637 1.51865 62.7144 1.76898 63.1483 2.25294C63.5822 2.72021 63.8158 3.3043 63.8158 3.98852ZM64.3165 6.90897C65.1008 6.14131 65.5014 5.17339 65.5014 3.98852C65.5014 2.82034 65.1008 1.85242 64.3165 1.10144C63.5321 0.333782 62.5642 -0.0500488 61.4294 -0.0500488C60.2946 -0.0500488 59.3267 0.333782 58.559 1.10144C57.7914 1.86911 57.3909 2.82034 57.3909 3.98852C57.3909 5.17339 57.7914 6.12462 58.559 6.90897C59.3267 7.67663 60.2946 8.06046 61.4294 8.06046C62.5809 8.04378 63.5321 7.67663 64.3165 6.90897ZM67.6875 16.6216C67.2203 16.171 66.9866 15.5535 66.9866 14.7858C66.9866 14.0182 67.2203 13.4174 67.6875 12.9835C68.1548 12.5329 68.7055 12.316 69.323 12.316C69.9238 12.316 70.4745 12.5162 70.9084 12.85C71.2421 13.117 71.7094 13.0503 72.0098 12.7499L72.5271 12.2158C71.7261 11.2312 70.6914 10.7306 69.3897 10.7306C68.2049 10.7306 67.2369 11.0977 66.4526 11.8487C65.6683 12.583 65.2677 13.5843 65.2677 14.8025C65.2677 16.0208 65.6683 16.9887 66.4526 17.7397C67.2536 18.474 68.2549 18.8578 69.4565 18.8578C70.7749 18.8578 71.8429 18.3571 72.6606 17.3725L71.5425 16.1877C71.0085 16.922 70.2909 17.2891 69.4064 17.2891C68.7222 17.3058 68.1548 17.0721 67.6875 16.6216ZM79.1524 18.741H80.8045V10.8641H79.9868C79.5195 10.8641 79.1357 11.2479 79.1357 11.7152V13.9514H75.8314V10.8641H74.1626V18.7243H75.8314V15.4868H79.1357V18.741H79.1524ZM86.9959 15.7037H85.0434L86.028 13.1337L86.9959 15.7037ZM89.883 18.741L87.0126 11.4148C86.8791 11.0977 86.5787 10.8808 86.2282 10.8808H85.2102L82.1396 18.741H83.8752L84.4927 17.189H87.5299L88.1641 18.741H89.883Z" fill="#1B2949"/>
    <path d="M15.5203 9.5124H12.6165V5.99117H9.07861V3.0874H15.5203V9.5124Z" fill="#1B2949"/>
    </g>
    <defs>
    <clipPath id="clip0_1586_1071">
    <rect width="90" height="18.8745" fill="white"/>
    </clipPath>
    </defs>
    </svg>
    