<svg width="20" height="16" viewBox="0 0 20 16" fill="none" xmlns="http://www.w3.org/2000/svg">
    <mask id="mask0_268_46716" style="mask-type:luminance" maskUnits="userSpaceOnUse" x="0" y="0" width="20" height="16">
    <path fill-rule="evenodd" clip-rule="evenodd" d="M0 16V0H20V16H0Z" fill="white"/>
    </mask>
    <g mask="url(#mask0_268_46716)">
    <path fill-rule="evenodd" clip-rule="evenodd" d="M2.96452 0.70961C7.00997 -0.413688 10.6922 -0.216341 11.9772 1.39429C12.8107 2.43826 12.478 3.87612 11.2679 5.35054C15.0161 4.44935 18.3327 4.71573 19.5396 6.22769C21.1871 8.29309 18.2734 11.8991 13.0308 14.2829C11.1882 15.121 9.3034 15.6961 7.56242 16C8.05884 15.7635 8.5549 15.5065 9.04499 15.2297C14.0973 12.3783 16.704 8.5033 14.8677 6.57473C14.1324 5.80283 12.7966 5.45925 11.1356 5.50796C9.93646 6.90057 7.96664 8.31368 5.46906 9.44949C3.62617 10.2876 1.7416 10.8627 0 11.1673C0.497397 10.9302 0.993102 10.6731 1.48355 10.396C6.53547 7.54461 9.14226 3.66999 7.30597 1.74133C6.48282 0.877319 4.90708 0.550596 2.96452 0.70961Z" fill="#E11E00"/>
    </g>
    </svg>
    