<svg width="50" height="22" viewBox="0 0 50 22" fill="none" xmlns="http://www.w3.org/2000/svg">
    <g clip-path="url(#clip0_1586_1033)">
    <path d="M0.484839 12.9138C0.168264 12.1286 0.00371782 11.29 3.13612e-08 10.443C-4.62597e-05 9.96219 0.051154 9.48278 0.152726 9.01294C0.492739 9.42172 0.91842 9.75028 1.39945 9.97517C1.88047 10.2001 2.405 10.3158 2.9357 10.3141H3.06419C3.06419 10.3554 3.06419 10.3992 3.06419 10.4405C3.06312 10.973 3.17899 11.4993 3.40356 11.9818C3.62813 12.4644 3.95589 12.8913 4.36355 13.2325C3.89437 13.3342 3.41572 13.3856 2.9357 13.3857C2.09646 13.3842 1.26502 13.2241 0.484839 12.9138Z" fill="#31822C"/>
    <path d="M12.8723 12.9138C13.1805 12.127 13.3369 11.2885 13.3329 10.443C13.3329 9.96219 13.2817 9.48278 13.1802 9.01294C12.843 9.41826 12.4216 9.74475 11.9455 9.96948C11.4694 10.1943 10.9501 10.3119 10.4238 10.3141H10.2953C10.2953 10.3554 10.2953 10.3992 10.2953 10.4405C10.2952 10.9743 10.1772 11.5014 9.95006 11.9841C9.72293 12.4668 9.39214 12.8931 8.98145 13.2325C9.45145 13.3342 9.93091 13.3855 10.4117 13.3857C11.2542 13.3852 12.089 13.2251 12.8723 12.9138Z" fill="#1679A3"/>
    <path d="M3.06189 10.3139V10.3285H2.9334C2.40353 10.3287 1.88012 10.2118 1.40038 9.98611C0.920644 9.76037 0.496367 9.43138 0.157715 9.02255C0.338593 8.19345 0.675963 7.40675 1.15163 6.70483C1.41282 7.08962 1.71256 7.44654 2.04615 7.77005C2.14987 7.87813 2.26919 7.96994 2.4001 8.04244C2.44091 8.06515 2.48299 8.08542 2.52614 8.10324L2.64978 8.14946H2.66918L2.78796 8.18106H2.81947L2.93826 8.20053H2.9722C3.02553 8.20053 3.07643 8.20053 3.12977 8.20053C3.5177 8.20063 3.89117 8.05281 4.17459 7.78707C3.82599 8.10898 3.54728 8.49946 3.35583 8.9342C3.16439 9.36898 3.06433 9.83866 3.06189 10.3139Z" fill="#2AB0B7"/>
    <path d="M10.2833 10.3139V10.3285H10.4238C10.9541 10.3289 11.4779 10.2121 11.9581 9.98638C12.4383 9.76063 12.8629 9.43159 13.202 9.02255C13.02 8.19377 12.6827 7.40728 12.208 6.70483C11.9461 7.08904 11.6464 7.4459 11.3135 7.77005C11.2093 7.87755 11.0901 7.9693 10.9596 8.04244C10.9188 8.06515 10.8767 8.08542 10.8335 8.10324L10.7099 8.14946H10.6881L10.5693 8.18106H10.5402L10.4214 8.20053H10.3851C10.3342 8.20053 10.2808 8.20053 10.2275 8.20053C9.84032 8.20026 9.46777 8.05249 9.18506 7.78707C9.53149 8.10989 9.80783 8.5009 9.99676 8.93563C10.1857 9.37042 10.2833 9.83962 10.2833 10.3139Z" fill="#2AB0B7"/>
    <path d="M0.484839 0.476689C0.168281 1.26111 0.00372948 2.0989 0 2.94516C9.49335e-05 3.42672 0.0512927 3.90691 0.152726 4.3776C0.491627 3.96825 0.916234 3.6388 1.39638 3.41267C1.87653 3.18653 2.40043 3.06926 2.93086 3.06919H3.05933C3.05933 3.02541 3.05933 2.98407 3.05933 2.9403C3.05995 2.40895 3.17712 1.88427 3.40251 1.40344C3.62791 0.922625 3.95601 0.497455 4.36355 0.158099C3.89437 0.0563396 3.41572 0.00497805 2.9357 0.00488281C2.09635 0.00521739 1.26469 0.165317 0.484839 0.476689Z" fill="#747521"/>
    <path d="M3.0761 10.3141H3.06398C3.06398 10.3554 3.06398 10.3992 3.06398 10.443C3.0626 10.9752 3.17835 11.5012 3.40296 11.9834C3.62757 12.4656 3.95549 12.8921 4.36334 13.2325C5.18964 13.0506 5.97378 12.7121 6.67362 12.2353C6.28889 11.974 5.93218 11.6732 5.60937 11.338C5.50054 11.2337 5.40745 11.1141 5.33304 10.9828C5.3112 10.944 5.29181 10.9002 5.27241 10.8564C5.25416 10.8162 5.23876 10.7748 5.22636 10.7324V10.7129C5.22636 10.674 5.20454 10.6326 5.19241 10.5938C5.18029 10.5548 5.19241 10.5743 5.19241 10.5646C5.18359 10.5244 5.17713 10.4839 5.17303 10.443C5.17201 10.4316 5.17201 10.4202 5.17303 10.4089C5.16934 10.3563 5.16934 10.3035 5.17303 10.2508C5.17262 9.86115 5.32096 9.48609 5.58756 9.20264C5.26704 9.55046 4.87876 9.82859 4.44676 10.0198C4.01476 10.2109 3.54825 10.3111 3.0761 10.3141Z" fill="#F3AB00"/>
    <path d="M3.07608 3.07391H3.06397C3.06397 3.03014 3.06397 2.98879 3.06397 2.94502C3.06328 2.41325 3.17935 1.88785 3.40392 1.40616C3.62849 0.92447 3.95605 0.498308 4.36333 0.157959C5.18963 0.339877 5.97376 0.6783 6.6736 1.15508C6.28977 1.4149 5.93317 1.71312 5.60935 2.04518C5.50067 2.15231 5.40764 2.2743 5.33302 2.40755C5.31119 2.4489 5.2918 2.49024 5.2724 2.53401C5.25493 2.57453 5.23956 2.61593 5.22634 2.65804V2.67993C5.22634 2.71884 5.20452 2.75776 5.1924 2.7991C5.18028 2.84044 5.1924 2.81856 5.1924 2.82828C5.18339 2.86754 5.17692 2.90735 5.17302 2.94745C5.17183 2.95958 5.17183 2.9718 5.17302 2.98393C5.16932 3.03656 5.16932 3.08938 5.17302 3.14201C5.17298 3.53092 5.32131 3.90509 5.58754 4.18776C5.27249 3.84025 4.89005 3.56091 4.46362 3.36687C4.03719 3.17284 3.57576 3.06818 3.1076 3.05932" fill="#F3AB00"/>
    <path d="M7.99977 10.983C8.02158 10.9417 8.04344 10.8979 8.0628 10.8565C8.07977 10.8176 8.09434 10.7763 8.10887 10.7325V10.713C8.12099 10.6741 8.13067 10.6328 8.14041 10.5938C8.13929 10.5842 8.13929 10.5744 8.14041 10.5647C8.14041 10.5234 8.14036 10.4844 8.15977 10.4431C8.17919 10.4017 8.15977 10.4212 8.15977 10.4091C8.15977 10.3579 8.15977 10.3045 8.15977 10.251C8.16796 10.0444 8.1345 9.83841 8.06142 9.64522C7.98828 9.45198 7.877 9.27559 7.73429 9.12655C7.59153 8.97756 7.42025 8.859 7.23073 8.77804C7.04121 8.69703 6.83732 8.65527 6.63131 8.65527C6.4253 8.65527 6.22142 8.69703 6.0319 8.77804C5.84238 8.859 5.6711 8.97756 5.52839 9.12655C5.38562 9.27559 5.27437 9.45198 5.20125 9.64522C5.12813 9.83841 5.09467 10.0444 5.10287 10.251C5.09917 10.3036 5.09917 10.3564 5.10287 10.4091C5.10287 10.4091 5.10287 10.4261 5.10287 10.4334C5.10778 10.4775 5.11507 10.5213 5.12469 10.5647C5.12356 10.5719 5.12356 10.5793 5.12469 10.5866C5.13343 10.6294 5.14477 10.6716 5.15863 10.713C5.15863 10.713 5.15863 10.713 5.15863 10.7276C5.17226 10.7715 5.18844 10.8145 5.20711 10.8565C5.28738 11.0394 5.4027 11.2046 5.54653 11.3429C5.8686 11.6773 6.22445 11.9772 6.60828 12.2379C6.99121 11.976 7.3469 11.6761 7.67009 11.3429C7.79828 11.2412 7.90956 11.1197 7.99977 10.983Z" fill="#D91101"/>
    <path d="M8.19388 2.99626C8.19388 2.99626 8.19388 2.97194 8.19388 2.95978C8.19388 2.94762 8.19388 2.87952 8.17446 2.84061V2.81143C8.17446 2.77009 8.1551 2.73117 8.14297 2.69226V2.67037C8.12845 2.62903 8.11388 2.58769 8.09691 2.54634C8.07749 2.50257 8.05568 2.46123 8.03388 2.41988C7.95537 2.27967 7.85462 2.15318 7.73568 2.04535C7.41361 1.71022 7.05781 1.40948 6.67393 1.14795C6.29005 1.40948 5.93419 1.71022 5.61212 2.04535C5.46829 2.18361 5.35297 2.34887 5.27272 2.53175C5.25575 2.57309 5.23877 2.61687 5.22423 2.66065C5.22423 2.66065 5.22423 2.66065 5.22423 2.67524C5.21066 2.71675 5.19933 2.75897 5.19029 2.8017V2.82602C5.19029 2.8698 5.17575 2.91357 5.17091 2.95735C5.16959 2.9654 5.16959 2.97361 5.17091 2.98167C5.17091 3.03274 5.17091 3.08625 5.17091 3.13975C5.18664 3.53586 5.35457 3.91049 5.63946 4.18517C5.92441 4.45985 6.30419 4.61326 6.69935 4.61326C7.09451 4.61326 7.4743 4.45985 7.75925 4.18517C8.04419 3.91049 8.21207 3.53586 8.22781 3.13975C8.22781 3.08625 8.22781 3.03274 8.22781 2.98167" fill="#D91101"/>
    <path d="M12.8723 0.476672C13.1806 1.26272 13.3369 2.10045 13.333 2.94514C13.3329 3.42671 13.2816 3.90689 13.1802 4.37759C12.8437 3.97106 12.4226 3.6433 11.9464 3.41728C11.4703 3.19126 10.9506 3.07245 10.4239 3.06918H10.2954C10.2954 3.0254 10.2954 2.98405 10.2954 2.94028C10.296 2.40804 10.1795 1.88223 9.95398 1.40044C9.7285 0.918649 9.39977 0.492764 8.99121 0.153218C9.46121 0.0514695 9.94068 0.000109143 10.4215 2.42122e-06C11.2641 -0.000718138 12.0991 0.159397 12.8821 0.471808" fill="#AC6C33"/>
    <path d="M10.2689 10.3141H10.2834C10.2834 10.3554 10.2834 10.3992 10.2834 10.443C10.2848 10.9752 10.169 11.5012 9.94441 11.9834C9.71984 12.4656 9.39191 12.8921 8.98404 13.2325C8.1576 13.051 7.3734 12.7125 6.67383 12.2353C7.05824 11.9746 7.41415 11.6738 7.73558 11.338C7.84085 11.2335 7.92995 11.1138 7.99984 10.9828C8.02165 10.944 8.04346 10.9002 8.06287 10.8564C8.07984 10.8175 8.09436 10.7761 8.10893 10.7324V10.7129C8.12106 10.674 8.13074 10.6326 8.14042 10.5938V10.5646C8.14042 10.5232 8.155 10.4843 8.15984 10.443C8.16468 10.4016 8.15984 10.4186 8.15984 10.4089C8.15984 10.3578 8.15984 10.3043 8.15984 10.2508C8.15989 9.86168 8.0126 9.487 7.74771 9.20264C8.06925 9.55179 8.45909 9.83067 8.89287 10.0219C9.32665 10.2131 9.79505 10.3126 10.2689 10.3141Z" fill="#E66B5E"/>
    <path d="M10.2689 3.07391H10.2834C10.2834 3.03014 10.2834 2.98879 10.2834 2.94502C10.2838 2.41306 10.1674 1.88753 9.9424 1.40583C9.7174 0.92413 9.38937 0.498074 8.98165 0.157959C8.15522 0.339419 7.37101 0.67788 6.67139 1.15508C7.0558 1.41417 7.4124 1.71246 7.73559 2.04518C7.84075 2.15246 7.92979 2.27453 7.99984 2.40755C8.02165 2.4489 8.04346 2.49024 8.06288 2.53401C8.07984 2.57536 8.09437 2.6167 8.10894 2.65804V2.67993C8.12107 2.71884 8.13075 2.75776 8.14043 2.7991V2.82828C8.14043 2.86719 8.155 2.90611 8.15984 2.94745C8.16468 2.98879 8.15984 2.97177 8.15984 2.98393C8.15984 3.035 8.15984 3.08851 8.15984 3.14201C8.15952 3.5304 8.01224 3.90418 7.74772 4.18776C8.0624 3.84043 8.44447 3.56119 8.87048 3.36716C9.29649 3.17312 9.7575 3.06837 10.2253 3.05932" fill="#E66B5E"/>
    <path d="M3.06189 3.08614V3.07397H2.9334C2.40345 3.07474 1.88013 3.19234 1.40048 3.41843C0.920835 3.64453 0.496576 3.97361 0.157715 4.38239C0.339502 5.2112 0.676798 5.99777 1.15163 6.70005C1.41216 6.3141 1.71195 5.95628 2.04615 5.63245C2.14987 5.52436 2.26919 5.43255 2.4001 5.36005C2.44086 5.33654 2.48294 5.31542 2.52614 5.29681C2.56653 5.27929 2.6078 5.26386 2.64978 5.25061H2.66918C2.70814 5.2378 2.74779 5.22725 2.78796 5.21899H2.81947C2.85861 5.20995 2.89829 5.20345 2.93826 5.19954H2.9722C3.02553 5.19954 3.07643 5.19954 3.12977 5.19954C3.5177 5.19945 3.89117 5.34724 4.17459 5.61298C3.82886 5.29637 3.55087 4.91258 3.35751 4.48489C3.16414 4.05721 3.05946 3.59456 3.04978 3.12505" fill="#96C000"/>
    <path d="M10.2837 3.08614V3.07397H10.4121C10.9425 3.07455 11.4662 3.19205 11.9463 3.41814C12.4263 3.64425 12.851 3.97342 13.1903 4.38239C13.0074 5.21085 12.6701 5.99718 12.1963 6.70005C11.935 6.31463 11.6353 5.95692 11.3018 5.63245C11.1976 5.52495 11.0783 5.43319 10.9479 5.36005C10.9071 5.33654 10.865 5.31542 10.8218 5.29681C10.7814 5.27929 10.7401 5.26386 10.6982 5.25061H10.6764C10.6375 5.23751 10.5978 5.22695 10.5575 5.21899H10.5285C10.4893 5.21014 10.4496 5.20365 10.4097 5.19954H10.3733C10.3224 5.19954 10.2691 5.19954 10.2158 5.19954C9.82861 5.19983 9.45605 5.34761 9.17334 5.61298C9.51956 5.29673 9.79781 4.91301 9.99121 4.48525C10.1846 4.05749 10.2891 3.59467 10.2982 3.12505" fill="#96C000"/>
    <path d="M3.15146 5.16063C3.09813 5.16063 3.04479 5.16063 2.99388 5.16063H2.95753C2.91759 5.16474 2.87792 5.17123 2.83874 5.18008H2.80966C2.76943 5.18804 2.72973 5.19859 2.69086 5.21169H2.67148C2.62857 5.22455 2.58647 5.23998 2.54541 5.2579C2.5042 5.27736 2.46056 5.29682 2.41935 5.32115C2.28824 5.39434 2.16893 5.487 2.06543 5.59593C1.73137 5.91907 1.43159 6.27604 1.1709 6.66115C1.43284 7.04535 1.73251 7.40221 2.06543 7.72636C2.16964 7.83386 2.28886 7.92561 2.41935 7.99875L2.54541 8.062L2.66905 8.10822H2.69086L2.80966 8.13982H2.83874L2.95753 8.15928H2.99388C3.04479 8.15928 3.09813 8.15928 3.15146 8.15928C3.5463 8.14349 3.91974 7.97503 4.19354 7.68918C4.46734 7.40338 4.62024 7.02232 4.62024 6.62588C4.62024 6.2295 4.46734 5.84843 4.19354 5.56258C3.91974 5.27676 3.5463 5.10831 3.15146 5.09253" fill="#488627"/>
    <path d="M12.1936 6.69531C11.9336 6.30967 11.6338 5.9526 11.2991 5.6301C11.1962 5.52212 11.0777 5.43031 10.9476 5.35776C10.9076 5.33425 10.8664 5.31314 10.824 5.2945L10.7027 5.24829H10.6809L10.5452 5.20695C10.5347 5.20558 10.5241 5.20558 10.5136 5.20695C10.4753 5.19791 10.4365 5.19141 10.3973 5.1875H10.3609C10.31 5.1875 10.2567 5.1875 10.2034 5.1875C9.99753 5.17927 9.79215 5.21284 9.59955 5.28619C9.40694 5.35957 9.23109 5.47116 9.08258 5.61435C8.93402 5.75754 8.81588 5.92941 8.73513 6.11951C8.65444 6.30967 8.61279 6.51419 8.61279 6.72084C8.61279 6.92754 8.65444 7.13207 8.73513 7.32222C8.81588 7.51233 8.93402 7.68419 9.08258 7.82738C9.23109 7.97058 9.40694 8.08217 9.59955 8.15552C9.79215 8.22887 9.99753 8.26244 10.2034 8.25425C10.2567 8.25425 10.31 8.25425 10.3609 8.25425H10.3973L10.5136 8.23478H10.5452L10.664 8.20318H10.6858L10.807 8.15696C10.8496 8.13967 10.8909 8.11935 10.9306 8.09616C11.0608 8.02361 11.1793 7.9318 11.2821 7.82377C11.6143 7.49957 11.9131 7.1427 12.1742 6.75855" fill="#488627"/>
    <path d="M20.1885 17.6514C20.1885 17.5585 20.2253 17.4695 20.2908 17.4038C20.3562 17.3381 20.445 17.3012 20.5376 17.3012C20.6301 17.3012 20.719 17.3381 20.7844 17.4038C20.8499 17.4695 20.8867 17.5585 20.8867 17.6514V17.7682H20.8988C20.9543 17.6294 21.0485 17.5096 21.1702 17.4233C21.2919 17.3371 21.4359 17.2879 21.5848 17.2817C21.6864 17.2817 21.7838 17.3222 21.8557 17.3943C21.9275 17.4664 21.9678 17.5641 21.9678 17.666C21.9678 17.7679 21.9275 17.8657 21.8557 17.9377C21.7838 18.0098 21.6864 18.0502 21.5848 18.0502C21.3618 18.0502 20.9642 17.9506 20.9642 18.9112V19.8159C20.9565 19.9134 20.9125 20.0046 20.8408 20.0709C20.7691 20.1374 20.6751 20.1742 20.5776 20.1742C20.48 20.1742 20.386 20.1374 20.3144 20.0709C20.2427 20.0046 20.1986 19.9134 20.1909 19.8159L20.1885 17.6514Z" fill="#002559"/>
    <path d="M24.2567 18.4466C24.2394 18.2793 24.1615 18.1241 24.0377 18.0107C23.9139 17.8973 23.7528 17.8334 23.5852 17.8313C23.4105 17.8291 23.2409 17.8902 23.1074 18.0031C22.9738 18.1161 22.8852 18.2736 22.8579 18.4466H24.2567ZM22.9234 18.8941C22.9169 18.9885 22.9307 19.0832 22.9637 19.1718C22.9968 19.2604 23.0483 19.3409 23.1149 19.4079C23.1814 19.4749 23.2615 19.5269 23.3497 19.5604C23.4379 19.5938 23.5322 19.6079 23.6264 19.6018C24.2009 19.6018 24.2009 19.22 24.5063 19.22C24.587 19.2205 24.6645 19.2521 24.7227 19.3082C24.7809 19.3643 24.8153 19.4407 24.8191 19.5215C24.8191 19.9909 24.0918 20.2074 23.6264 20.2074C22.5621 20.2074 22.1719 19.4778 22.1719 18.7992C22.1719 17.8946 22.7076 17.2866 23.6094 17.2866C23.7826 17.2778 23.9558 17.3039 24.1187 17.3636C24.2817 17.4232 24.431 17.515 24.5578 17.6337C24.6847 17.7523 24.7865 17.8953 24.8572 18.0542C24.9279 18.213 24.966 18.3846 24.9694 18.5585C24.9694 18.826 24.8894 18.8941 24.6349 18.8941H22.9234Z" fill="#002559"/>
    <path d="M26.8745 19.6018C27.3472 19.6018 27.4951 19.1397 27.4951 18.7409C27.4951 18.2983 27.3254 17.8946 26.8745 17.8946C26.4236 17.8946 26.2612 18.2837 26.2612 18.7409C26.2612 19.1009 26.3824 19.6018 26.8745 19.6018ZM28.2272 20.8519C28.2272 20.9551 28.1863 21.054 28.1136 21.127C28.0409 21.2 27.9422 21.241 27.8393 21.241C27.7364 21.241 27.6378 21.2 27.5651 21.127C27.4923 21.054 27.4514 20.9551 27.4514 20.8519V19.8134C27.3728 19.9434 27.2598 20.0489 27.125 20.1184C26.9903 20.1879 26.8389 20.2187 26.6878 20.2074C25.8733 20.2074 25.4951 19.5119 25.4951 18.7677C25.4951 17.7608 26.0624 17.289 26.7072 17.289C26.8771 17.2738 27.0474 17.3126 27.194 17.3998C27.3406 17.4872 27.4561 17.6186 27.5242 17.7754V17.6538C27.5169 17.6054 27.5208 17.5559 27.5355 17.5092C27.5502 17.4625 27.5753 17.4198 27.609 17.3844C27.6427 17.3489 27.6841 17.3217 27.7299 17.3047C27.7757 17.2878 27.8247 17.2816 27.8733 17.2866C28.1157 17.2866 28.2248 17.413 28.2248 17.6538L28.2272 20.8519Z" fill="#002559"/>
    <path d="M35.8781 18.7409C35.8781 18.2837 35.6769 17.9043 35.2648 17.8946C34.8139 17.8946 34.6418 18.2983 34.6418 18.7409C34.6418 19.1397 34.7921 19.6067 35.2648 19.6018C35.7375 19.597 35.8781 19.1008 35.8781 18.7409ZM33.9121 17.6562C33.9121 17.413 34.0236 17.2866 34.2612 17.2866C34.3099 17.282 34.359 17.2886 34.4047 17.3058C34.4505 17.3231 34.4918 17.3505 34.5254 17.3862C34.5591 17.4218 34.5842 17.4646 34.5989 17.5114C34.6135 17.5582 34.6175 17.6077 34.6102 17.6562V17.7778H34.6224C34.6901 17.6207 34.8056 17.4891 34.9523 17.4018C35.099 17.3145 35.2695 17.2758 35.4393 17.2914C36.0842 17.2914 36.6514 17.7778 36.6514 18.7725C36.6514 19.5167 36.2733 20.2122 35.4587 20.2122C35.3073 20.2235 35.1557 20.1927 35.0206 20.1232C34.8854 20.0537 34.7719 19.9482 34.6927 19.8183V20.8568C34.6969 20.9103 34.69 20.9641 34.6725 21.0148C34.655 21.0655 34.6272 21.1121 34.5909 21.1515C34.5546 21.191 34.5105 21.2224 34.4615 21.2439C34.4125 21.2655 34.3596 21.2766 34.306 21.2766C34.2525 21.2766 34.1996 21.2655 34.1505 21.2439C34.1015 21.2224 34.0574 21.191 34.0212 21.1515C33.9848 21.1121 33.957 21.0655 33.9395 21.0148C33.922 20.9641 33.9151 20.9103 33.9193 20.8568L33.9121 17.6562Z" fill="#002559"/>
    <path d="M31.4949 19.8207C31.4949 20.0639 31.3882 20.2074 31.1458 20.2074C30.9034 20.2074 30.7943 20.0542 30.7943 19.8207V19.7186C30.6903 19.8713 30.5501 19.9957 30.3864 20.0805C30.2226 20.1654 30.0404 20.2082 29.8562 20.205C29.3883 20.205 28.8865 19.9618 28.8865 19.1835V17.6733C28.8822 17.6197 28.8891 17.5659 28.9066 17.5152C28.9241 17.4645 28.9519 17.4179 28.9882 17.3785C29.0246 17.3391 29.0686 17.3076 29.1176 17.2861C29.1666 17.2645 29.2196 17.2534 29.2731 17.2534C29.3266 17.2534 29.3796 17.2645 29.4286 17.2861C29.4776 17.3076 29.5217 17.3391 29.558 17.3785C29.5944 17.4179 29.6221 17.4645 29.6396 17.5152C29.6572 17.5659 29.664 17.6197 29.6598 17.6733V19.0303C29.6598 19.3441 29.8125 19.5678 30.1446 19.5678C30.3034 19.5639 30.4544 19.4975 30.5646 19.3827C30.6749 19.268 30.7357 19.1143 30.7337 18.9549V17.6733C30.7295 17.6197 30.7363 17.5659 30.7539 17.5152C30.7714 17.4645 30.7991 17.4179 30.8355 17.3785C30.8718 17.3391 30.9158 17.3076 30.9649 17.2861C31.0139 17.2645 31.0669 17.2534 31.1204 17.2534C31.1739 17.2534 31.2268 17.2645 31.2758 17.2861C31.3249 17.3076 31.3689 17.3391 31.4053 17.3785C31.4416 17.4179 31.4694 17.4645 31.4869 17.5152C31.5044 17.5659 31.5113 17.6197 31.507 17.6733L31.4949 19.8207Z" fill="#002559"/>
    <path d="M18.7272 18.775C18.5761 18.8745 18.401 18.9308 18.2205 18.938C17.9368 18.9866 17.7357 19.0912 17.7357 19.3246C17.7357 19.5581 17.9781 19.6456 18.1648 19.6456C18.2402 19.651 18.3159 19.6401 18.3868 19.6137C18.4577 19.5873 18.5222 19.546 18.5759 19.4926C18.6296 19.4392 18.6714 19.3748 18.6983 19.3039C18.7252 19.233 18.7367 19.1572 18.732 19.0814L18.7272 18.775ZM19.4544 19.4024C19.4544 19.7283 19.4835 19.9302 19.4835 20.0518C19.4835 20.1734 19.3672 20.2074 19.1829 20.222C19.0768 20.2209 18.9752 20.1793 18.8986 20.1057C18.8221 20.0321 18.7764 19.9319 18.7708 19.8256C18.3417 20.4458 16.9526 20.368 16.9526 19.3951C16.9526 18.7191 17.5199 18.5415 18.332 18.488C18.5938 18.471 18.7247 18.4126 18.7247 18.1889C18.7247 17.9651 18.4968 17.8606 18.2399 17.8703C17.7211 17.8873 17.7551 18.2959 17.4593 18.2959C17.418 18.2985 17.3765 18.2928 17.3374 18.2791C17.2983 18.2654 17.2623 18.244 17.2316 18.2161C17.2008 18.1882 17.176 18.1545 17.1585 18.1168C17.141 18.0791 17.1311 18.0383 17.1296 17.9967C17.1296 17.6879 17.5005 17.2817 18.2956 17.2817C19.0399 17.2817 19.4641 17.5249 19.4641 18.0916L19.4544 19.4024Z" fill="#002559"/>
    <path d="M38.8019 18.775C38.6509 18.8745 38.4757 18.9308 38.2952 18.938C38.0092 18.9866 37.8104 19.0912 37.8104 19.3246C37.8104 19.5581 38.0528 19.6456 38.2419 19.6456C38.3172 19.6506 38.3928 19.6394 38.4635 19.6129C38.5343 19.5864 38.5986 19.545 38.6522 19.4917C38.7058 19.4383 38.7475 19.3742 38.7746 19.3035C38.8017 19.2327 38.8134 19.1571 38.8092 19.0814L38.8019 18.775ZM39.5291 19.4024C39.5291 19.7283 39.5606 19.9302 39.5606 20.0518C39.5606 20.1734 39.4443 20.2074 39.2576 20.222C39.1517 20.2204 39.0504 20.1785 38.9739 20.105C38.8975 20.0315 38.8516 19.9317 38.8455 19.8256C38.4164 20.4458 37.0273 20.368 37.0273 19.3951C37.0273 18.7191 37.5946 18.5415 38.4067 18.488C38.6661 18.471 38.7994 18.4126 38.7994 18.1889C38.7994 17.9651 38.5715 17.8606 38.3146 17.8703C37.7958 17.8873 37.8419 18.2959 37.534 18.2959C37.4927 18.2985 37.4512 18.2928 37.4121 18.2791C37.373 18.2654 37.337 18.244 37.3063 18.2161C37.2755 18.1882 37.2507 18.1545 37.2332 18.1168C37.2157 18.0791 37.2059 18.0383 37.2043 17.9967C37.2043 17.6879 37.5752 17.2817 38.3704 17.2817C39.1146 17.2817 39.5364 17.5249 39.5364 18.0916L39.5291 19.4024Z" fill="#002559"/>
    <path d="M21.4975 13.3856C20.6792 13.3844 19.8738 13.18 19.1535 12.7905C18.4331 12.4009 17.8201 11.8385 17.3692 11.1533C16.9183 10.4682 16.6436 9.68168 16.5696 8.86407C16.4956 8.04641 16.6246 7.22317 16.9451 6.46774C17.2656 5.71232 17.7677 5.04833 18.4063 4.53502C19.045 4.02172 19.8005 3.6751 20.6053 3.52613C21.41 3.37715 22.239 3.43047 23.0183 3.6813C23.7975 3.93214 24.5027 4.37268 25.0708 4.96359C25.18 5.06917 25.2668 5.19577 25.3261 5.33583C25.3854 5.47588 25.4159 5.62647 25.4158 5.77859C25.4157 5.93077 25.385 6.08131 25.3255 6.22131C25.2661 6.36125 25.179 6.48774 25.0697 6.59317C24.9604 6.69859 24.831 6.78083 24.6892 6.83492C24.5474 6.88897 24.3962 6.91381 24.2447 6.9079C24.0931 6.90195 23.9444 6.8654 23.8072 6.80046C23.6701 6.73551 23.5474 6.64343 23.4465 6.52982C23.0729 6.14008 22.5915 5.87131 22.0644 5.75812C21.5373 5.64492 20.9885 5.69242 20.4885 5.89455C19.9885 6.09663 19.5601 6.44413 19.2585 6.89232C18.9568 7.34051 18.7956 7.86891 18.7956 8.40971C18.7956 8.95051 18.9568 9.47897 19.2585 9.92716C19.5601 10.3753 19.9885 10.7228 20.4885 10.9249C20.9885 11.127 21.5373 11.1745 22.0644 11.0613C22.5915 10.9481 23.0729 10.6794 23.4465 10.2897C23.5474 10.176 23.6701 10.084 23.8072 10.019C23.9444 9.95402 24.0931 9.91748 24.2447 9.91157C24.3962 9.90567 24.5474 9.93046 24.6892 9.98455C24.831 10.0386 24.9604 10.1208 25.0697 10.2263C25.179 10.3317 25.2661 10.4582 25.3255 10.5982C25.385 10.7381 25.4157 10.8887 25.4158 11.0408C25.4159 11.193 25.3854 11.3436 25.3261 11.4836C25.2668 11.6236 25.18 11.7503 25.0708 11.8558C24.6094 12.3399 24.0547 12.7247 23.4404 12.9868C22.8261 13.249 22.1651 13.383 21.4975 13.3807" fill="#002559"/>
    <path d="M32.4549 8.54107C32.1713 8.80857 31.7034 8.92288 30.758 9.08341C29.8125 9.24389 29.1192 9.59411 29.1192 10.3772C29.1192 11.1214 29.9532 11.4497 30.5616 11.4497C31.6986 11.4497 32.4598 10.7006 32.4598 9.55762L32.4549 8.54107ZM34.9203 10.6398C34.9203 11.7294 35.0245 12.4055 35.0245 12.8287C35.0245 13.1886 34.6052 13.371 34.0113 13.4002C33.8317 13.4077 33.6526 13.3787 33.4846 13.3148C33.3166 13.2509 33.1633 13.1535 33.0339 13.0285C32.9045 12.9035 32.8017 12.7534 32.7318 12.5873C32.6618 12.4213 32.6263 12.2428 32.6271 12.0626C32.6271 12.0237 32.6271 12.048 32.6076 12.082C31.1749 14.1638 26.5205 13.9012 26.5205 10.6423C26.5205 8.37325 28.421 7.7823 31.1386 7.60474C32.0137 7.54879 32.4549 7.36155 32.4549 6.60278C32.4549 5.844 31.6889 5.50107 30.8186 5.53028C29.0877 5.59347 29.238 6.95783 28.2077 6.95783C28.0697 6.96703 27.9313 6.94836 27.8006 6.90283C27.6699 6.85735 27.5497 6.78597 27.4471 6.69299C27.3444 6.59996 27.2614 6.48724 27.2031 6.36145C27.1447 6.23565 27.1121 6.09937 27.1072 5.9607C27.1072 4.92469 28.3435 3.57007 31.0101 3.57007C33.4998 3.57007 34.9203 4.40667 34.9203 6.27932V10.6398Z" fill="#002559"/>
    <path d="M47.0291 8.54107C46.7455 8.80857 46.2777 8.92288 45.3322 9.08341C44.3867 9.24389 43.691 9.59411 43.691 10.3772C43.691 11.1214 44.5249 11.4497 45.1334 11.4497C46.2704 11.4497 47.0316 10.7006 47.0316 9.55762L47.0291 8.54107ZM49.4945 10.6398C49.4945 11.7294 49.5988 12.4055 49.5988 12.8287C49.5988 13.1886 49.1794 13.371 48.5879 13.4002C48.4083 13.4077 48.229 13.3787 48.0609 13.3149C47.8928 13.251 47.7393 13.1536 47.6097 13.0286C47.4801 12.9036 47.3771 12.7536 47.3069 12.5875C47.2367 12.4215 47.2008 12.2429 47.2013 12.0626C47.2013 12.0237 47.2013 12.048 47.1819 12.082C45.7516 14.1638 41.0947 13.9012 41.0947 10.6423C41.0947 8.37325 42.9953 7.7823 45.7152 7.60474C46.5879 7.54879 47.0291 7.36155 47.0291 6.60278C47.0291 5.844 46.2655 5.50107 45.3953 5.53028C43.662 5.59347 43.8147 6.95783 42.782 6.95783C42.6439 6.96703 42.5055 6.94836 42.3748 6.90283C42.2441 6.85735 42.1239 6.78597 42.0213 6.69299C41.9186 6.59996 41.8356 6.48724 41.7773 6.36145C41.7189 6.23565 41.6863 6.09937 41.6814 5.9607C41.6814 4.92469 42.9177 3.57007 45.5843 3.57007C48.074 3.57007 49.4945 4.40667 49.4945 6.27932V10.6398Z" fill="#002559"/>
    <path d="M38.2394 0.00488281C38.52 0.00488281 38.7941 0.0883231 39.0274 0.244653C39.2605 0.400983 39.4424 0.623183 39.5496 0.883146C39.657 1.14311 39.6851 1.42918 39.6304 1.70516C39.5756 1.98114 39.4406 2.23464 39.2422 2.43361C39.0439 2.63258 38.7912 2.76808 38.5161 2.82298C38.241 2.87787 37.9559 2.84969 37.6968 2.74201C37.4376 2.63433 37.2161 2.45198 37.0603 2.21801C36.9045 1.98405 36.8213 1.70898 36.8213 1.4276C36.8213 1.05027 36.9707 0.688396 37.2367 0.421586C37.5026 0.154775 37.8633 0.00488281 38.2394 0.00488281Z" fill="#002559"/>
    <path d="M38.2368 3.6626C37.2017 3.6626 36.8914 4.25357 36.8914 5.02694V5.05126V12.7266C36.8914 14.6065 35.7569 14.1104 35.609 14.716C35.4006 15.5696 36.2781 15.8833 36.8381 15.876C38.6926 15.859 39.5701 14.3196 39.5701 12.7437V5.04153C39.5701 4.26816 39.272 3.6626 38.2393 3.6626" fill="#002559"/>
    <path d="M32.7266 17.2865C32.6729 17.279 32.6183 17.2842 32.567 17.3017C32.5157 17.3192 32.4692 17.3486 32.4313 17.3873C32.3934 17.4261 32.365 17.4733 32.3485 17.525C32.332 17.5768 32.3278 17.6317 32.3363 17.6854V19.7988C32.3363 20.0249 32.4211 20.2 32.7242 20.2C32.7777 20.2079 32.8325 20.203 32.8839 20.1858C32.9352 20.1687 32.9819 20.1396 33.02 20.1011C33.0582 20.0625 33.0869 20.0156 33.1037 19.9639C33.1205 19.9123 33.125 19.8574 33.1169 19.8037V17.6927C33.1257 17.6387 33.1218 17.5835 33.1054 17.5313C33.0892 17.4792 33.0609 17.4316 33.0229 17.3923C32.985 17.3531 32.9385 17.3233 32.887 17.3054C32.8356 17.2874 32.7806 17.2818 32.7266 17.289" fill="#002559"/>
    <path d="M32.7266 16.2068C32.8095 16.2068 32.8905 16.2315 32.9595 16.2777C33.0285 16.3239 33.0822 16.3896 33.114 16.4665C33.1458 16.5434 33.1541 16.628 33.1379 16.7096C33.1217 16.7912 33.0817 16.8662 33.0231 16.925C32.9644 16.9839 32.8897 17.0239 32.8084 17.0401C32.727 17.0564 32.6427 17.0481 32.566 17.0162C32.4894 16.9843 32.4239 16.9305 32.3778 16.8613C32.3318 16.7921 32.3071 16.7107 32.3071 16.6275C32.3068 16.5722 32.3175 16.5173 32.3384 16.4661C32.3594 16.4149 32.3903 16.3684 32.4293 16.3293C32.4683 16.2901 32.5146 16.2592 32.5656 16.2381C32.6167 16.2171 32.6713 16.2065 32.7266 16.2068Z" fill="#002559"/>
    </g>
    <defs>
    <clipPath id="clip0_1586_1033">
    <rect width="50" height="21.2766" fill="white"/>
    </clipPath>
    </defs>
    </svg>
    