<svg width="21" height="21" viewBox="0 0 21 21" fill="none" xmlns="http://www.w3.org/2000/svg">
    <g clip-path="url(#clip0_1686_4639)">
    <circle cx="10" cy="11" r="10" fill="#4F4F4F"/>
    <path d="M10 21C12.6522 21 15.1957 19.9464 17.0711 18.0711C18.9464 16.1957 20 13.6522 20 11C20 8.34784 18.9464 5.8043 17.0711 3.92893C15.1957 2.05357 12.6522 1 10 1C7.34784 1 4.8043 2.05357 2.92893 3.92893C1.05357 5.8043 0 8.34784 0 11C0 13.6522 1.05357 16.1957 2.92893 18.0711C4.8043 19.9464 7.34784 21 10 21ZM14.4141 9.16406L9.41406 14.1641C9.04688 14.5312 8.45312 14.5312 8.08984 14.1641L5.58984 11.6641C5.22266 11.2969 5.22266 10.7031 5.58984 10.3398C5.95703 9.97656 6.55078 9.97266 6.91406 10.3398L8.75 12.1758L13.0859 7.83594C13.4531 7.46875 14.0469 7.46875 14.4102 7.83594C14.7734 8.20312 14.7773 8.79687 14.4102 9.16016L14.4141 9.16406Z" fill="#CCCCCC"/>
    </g>
    <defs>
    <clipPath id="clip0_1686_4639">
    <rect width="20" height="20" fill="white" transform="translate(0.333008 0.666504)"/>
    </clipPath>
    </defs>
    </svg>
    