<svg width="440" height="2" viewBox="0 0 440 2" fill="none" xmlns="http://www.w3.org/2000/svg">
<path d="M0 1.20898H1V0.208984H0V1.20898ZM9 1.20898H11V0.208984H9V1.20898ZM19 1.20898H21V0.208984H19V1.20898ZM29 1.20898H31V0.208984H29V1.20898ZM39 1.20898H41V0.208984H39V1.20898ZM49 1.20898H51V0.208984H49V1.20898ZM59 1.20898H61V0.208984H59V1.20898ZM69 1.20898H71V0.208984H69V1.20898ZM79 1.20898H81V0.208984H79V1.20898ZM89 1.20898H91V0.208984H89V1.20898ZM99 1.20898H101V0.208984H99V1.20898ZM109 1.20898H111V0.208984H109V1.20898ZM119 1.20898H121V0.208984H119V1.20898ZM129 1.20898H131V0.208984H129V1.20898ZM139 1.20898H141V0.208984H139V1.20898ZM149 1.20898H151V0.208984H149V1.20898ZM159 1.20898H161V0.208984H159V1.20898ZM169 1.20898H171V0.208984H169V1.20898ZM179 1.20898H181V0.208984H179V1.20898ZM189 1.20898H191V0.208984H189V1.20898ZM199 1.20898H201V0.208984H199V1.20898ZM209 1.20898H211V0.208984H209V1.20898ZM219 1.20898H221V0.208984H219V1.20898ZM229 1.20898H231V0.208984H229V1.20898ZM239 1.20898H241V0.208984H239V1.20898ZM249 1.20898H251V0.208984H249V1.20898ZM259 1.20898H261V0.208984H259V1.20898ZM269 1.20898H271V0.208984H269V1.20898ZM279 1.20898H281V0.208984H279V1.20898ZM289 1.20898H291V0.208984H289V1.20898ZM299 1.20898H301V0.208984H299V1.20898ZM309 1.20898H311V0.208984H309V1.20898ZM319 1.20898H321V0.208984H319V1.20898ZM329 1.20898H331V0.208984H329V1.20898ZM339 1.20898H341V0.208984H339V1.20898ZM349 1.20898H351V0.208984H349V1.20898ZM359 1.20898H361V0.208984H359V1.20898ZM369 1.20898H371V0.208984H369V1.20898ZM379 1.20898H381V0.208984H379V1.20898ZM389 1.20898H391V0.208984H389V1.20898ZM399 1.20898H401V0.208984H399V1.20898ZM409 1.20898H411V0.208984H409V1.20898ZM419 1.20898H421V0.208984H419V1.20898ZM429 1.20898H431V0.208984H429V1.20898ZM439 1.20898H440V0.208984H439V1.20898Z" fill="#273C4E"/>
</svg>
