<svg width="15" height="15" viewBox="0 0 15 15" fill="none" xmlns="http://www.w3.org/2000/svg">
<path d="M11.5394 6.4973L11.8573 6.17949L10.9038 5.22605L9.15725 3.47949L8.20382 2.52605L7.886 2.84387L7.25038 3.47949L1.64788 9.08199C1.35538 9.37449 1.14163 9.7373 1.0235 10.1339L0.0278767 13.5201C-0.0424358 13.7564 0.0222517 14.0123 0.199439 14.1867C0.376627 14.3611 0.629752 14.4257 0.866002 14.3582L4.24944 13.3626C4.646 13.2445 5.00881 13.0307 5.30131 12.7382L10.9038 7.13574L11.5394 6.4973ZM4.49975 11.2336L4.24381 11.872C4.13131 11.9592 4.00475 12.0239 3.86975 12.0661L1.67038 12.7129L2.31725 10.5164C2.35663 10.3786 2.42413 10.252 2.51131 10.1423L3.14975 9.88637V10.7864C3.14975 11.0339 3.35225 11.2364 3.59975 11.2364H4.49975V11.2336ZM10.2007 0.526367L9.79569 0.93418L9.16006 1.5698L8.83944 1.88762L9.79288 2.84105L11.5394 4.58762L12.4929 5.54105L12.8107 5.22324L13.4463 4.58762L13.8541 4.1798C14.5573 3.47668 14.5573 2.33762 13.8541 1.63449L12.7488 0.526367C12.0457 -0.176758 10.9066 -0.176758 10.2035 0.526367H10.2007ZM8.86756 5.25137L4.81756 9.30137C4.64319 9.47574 4.35631 9.47574 4.18194 9.30137C4.00756 9.12699 4.00756 8.84012 4.18194 8.66574L8.23194 4.61574C8.40631 4.44137 8.69319 4.44137 8.86756 4.61574C9.04194 4.79012 9.04194 5.07699 8.86756 5.25137Z" fill="white"/>
</svg>
