<svg width="20" height="18" viewBox="0 0 20 18" fill="none" xmlns="http://www.w3.org/2000/svg">
<path d="M4.66406 0.722662C5.57422 0.570318 6.49219 0.648443 7.34375 0.929693L9.28906 3.95704L6.34375 6.90235C6.28516 6.96094 6.25 7.04297 6.25391 7.12891C6.25781 7.21485 6.29297 7.29297 6.35547 7.35157L10.7305 11.4141C10.8438 11.5195 11.0195 11.5273 11.1406 11.4258C11.2617 11.3242 11.2891 11.1524 11.207 11.0195L8.84766 7.18751L12.3906 4.23438C12.4922 4.15235 12.5273 4.01172 12.4844 3.89063L11.5938 1.41407C12.707 0.761724 14.0312 0.507818 15.332 0.726568C18.0273 1.17188 20 3.50001 20 6.23047V6.45704C20 8.07813 19.3281 9.62891 18.1406 10.7344L11.082 17.3242C10.7891 17.5977 10.4023 17.75 10 17.75C9.59766 17.75 9.21094 17.5977 8.91797 17.3242L1.85938 10.7344C0.671875 9.62891 0 8.07813 0 6.45704V6.23047C0 3.50001 1.97266 1.17188 4.66406 0.722662Z" fill="#4F4F4F"/>
</svg>
