<svg width="13" height="20" viewBox="0 0 13 20" fill="none" xmlns="http://www.w3.org/2000/svg">
<path d="M0 2.5C0 1.12109 1.12109 0 2.5 0H10C11.3789 0 12.5 1.12109 12.5 2.5V17.5C12.5 18.8789 11.3789 20 10 20H2.5C1.12109 20 0 18.8789 0 17.5V2.5ZM2.5 6.25V8.75C2.5 9.44141 3.05859 10 3.75 10H8.75C9.44141 10 10 9.44141 10 8.75V6.25C10 5.55859 9.44141 5 8.75 5H3.75C3.05859 5 2.5 5.55859 2.5 6.25ZM3.125 13.75C3.37364 13.75 3.6121 13.6512 3.78791 13.4754C3.96373 13.2996 4.0625 13.0611 4.0625 12.8125C4.0625 12.5639 3.96373 12.3254 3.78791 12.1496C3.6121 11.9738 3.37364 11.875 3.125 11.875C2.87636 11.875 2.6379 11.9738 2.46209 12.1496C2.28627 12.3254 2.1875 12.5639 2.1875 12.8125C2.1875 13.0611 2.28627 13.2996 2.46209 13.4754C2.6379 13.6512 2.87636 13.75 3.125 13.75ZM4.0625 15.9375C4.0625 15.6889 3.96373 15.4504 3.78791 15.2746C3.6121 15.0988 3.37364 15 3.125 15C2.87636 15 2.6379 15.0988 2.46209 15.2746C2.28627 15.4504 2.1875 15.6889 2.1875 15.9375C2.1875 16.1861 2.28627 16.4246 2.46209 16.6004C2.6379 16.7762 2.87636 16.875 3.125 16.875C3.37364 16.875 3.6121 16.7762 3.78791 16.6004C3.96373 16.4246 4.0625 16.1861 4.0625 15.9375ZM6.25 13.75C6.49864 13.75 6.7371 13.6512 6.91291 13.4754C7.08873 13.2996 7.1875 13.0611 7.1875 12.8125C7.1875 12.5639 7.08873 12.3254 6.91291 12.1496C6.7371 11.9738 6.49864 11.875 6.25 11.875C6.00136 11.875 5.7629 11.9738 5.58709 12.1496C5.41127 12.3254 5.3125 12.5639 5.3125 12.8125C5.3125 13.0611 5.41127 13.2996 5.58709 13.4754C5.7629 13.6512 6.00136 13.75 6.25 13.75ZM7.1875 15.9375C7.1875 15.6889 7.08873 15.4504 6.91291 15.2746C6.7371 15.0988 6.49864 15 6.25 15C6.00136 15 5.7629 15.0988 5.58709 15.2746C5.41127 15.4504 5.3125 15.6889 5.3125 15.9375C5.3125 16.1861 5.41127 16.4246 5.58709 16.6004C5.7629 16.7762 6.00136 16.875 6.25 16.875C6.49864 16.875 6.7371 16.7762 6.91291 16.6004C7.08873 16.4246 7.1875 16.1861 7.1875 15.9375ZM9.375 13.75C9.62364 13.75 9.8621 13.6512 10.0379 13.4754C10.2137 13.2996 10.3125 13.0611 10.3125 12.8125C10.3125 12.5639 10.2137 12.3254 10.0379 12.1496C9.8621 11.9738 9.62364 11.875 9.375 11.875C9.12636 11.875 8.8879 11.9738 8.71209 12.1496C8.53627 12.3254 8.4375 12.5639 8.4375 12.8125C8.4375 13.0611 8.53627 13.2996 8.71209 13.4754C8.8879 13.6512 9.12636 13.75 9.375 13.75ZM10.3125 15.9375C10.3125 15.6889 10.2137 15.4504 10.0379 15.2746C9.8621 15.0988 9.62364 15 9.375 15C9.12636 15 8.8879 15.0988 8.71209 15.2746C8.53627 15.4504 8.4375 15.6889 8.4375 15.9375C8.4375 16.1861 8.53627 16.4246 8.71209 16.6004C8.8879 16.7762 9.12636 16.875 9.375 16.875C9.62364 16.875 9.8621 16.7762 10.0379 16.6004C10.2137 16.4246 10.3125 16.1861 10.3125 15.9375ZM5 1.875C4.65625 1.875 4.375 2.15625 4.375 2.5C4.375 2.84375 4.65625 3.125 5 3.125H7.5C7.84375 3.125 8.125 2.84375 8.125 2.5C8.125 2.15625 7.84375 1.875 7.5 1.875H5Z" fill="#4F4F4F"/>
</svg>
