<svg width="20" height="21" viewBox="0 0 20 21" fill="none" xmlns="http://www.w3.org/2000/svg">
<path d="M10 20.6665C12.6522 20.6665 15.1957 19.6129 17.0711 17.7376C18.9464 15.8622 20 13.3187 20 10.6665C20 8.01434 18.9464 5.4708 17.0711 3.59544C15.1957 1.72007 12.6522 0.666504 10 0.666504C7.34784 0.666504 4.8043 1.72007 2.92893 3.59544C1.05357 5.4708 0 8.01434 0 10.6665C0 13.3187 1.05357 15.8622 2.92893 17.7376C4.8043 19.6129 7.34784 20.6665 10 20.6665ZM14.4141 8.83057L9.41406 13.8306C9.04688 14.1978 8.45312 14.1978 8.08984 13.8306L5.58984 11.3306C5.22266 10.9634 5.22266 10.3696 5.58984 10.0063C5.95703 9.64307 6.55078 9.63916 6.91406 10.0063L8.75 11.8423L13.0859 7.50244C13.4531 7.13525 14.0469 7.13525 14.4102 7.50244C14.7734 7.86963 14.7773 8.46338 14.4102 8.82666L14.4141 8.83057Z" fill="#C51416"/>
</svg>
